<svg width="113" height="113" viewBox="0 0 113 113" fill="none" xmlns="http://www.w3.org/2000/svg">
<path d="M56.5 113C87.7041 113 113 87.7041 113 56.5C113 25.2959 87.7041 0 56.5 0C25.2959 0 0 25.2959 0 56.5C0 87.7041 25.2959 113 56.5 113Z" fill="#F1F1F1"/>
<path d="M92.3404 67.9912C93.1758 69.168 93.0087 70.681 92.0063 71.5216C90.8367 72.3622 89.166 72.1941 88.3306 71.1854L82.4829 63.6202L76.8022 71.0173C75.9669 72.1941 74.2961 72.1941 73.1265 71.3535C71.957 70.5129 71.7899 68.9999 72.6253 67.8231L79.3084 59.081L72.6253 50.339C71.7899 49.1622 72.1241 47.481 73.1265 46.6404C74.2961 45.7999 75.9669 46.1361 76.8022 47.1448L82.4829 54.71L88.3306 47.481C89.166 46.3042 90.6697 46.1361 92.0063 46.9767C93.1758 47.8172 93.1758 49.4984 92.3404 50.6752L85.8244 59.2491L92.3404 67.9912V67.9912ZM61.9324 66.9825C57.5884 66.9825 54.0797 63.6201 54.0797 59.2491C54.0797 55.0462 57.5884 51.5158 61.9324 51.5158C66.2764 51.5158 69.785 55.0462 69.785 59.2491C69.6179 63.6201 66.1093 66.9825 61.9324 66.9825ZM38.8757 66.9825C34.5317 66.9825 31.0231 63.6201 31.0231 59.2491C31.0231 55.0462 34.5317 51.5158 38.8757 51.5158C43.2197 51.5158 46.7283 55.0462 46.7283 59.2491C46.7283 63.6201 43.2197 66.9825 38.8757 66.9825V66.9825ZM61.9324 46.4723C57.0871 46.4723 52.7431 49.1622 50.5711 53.197C48.3991 49.1622 44.0551 46.4723 39.0428 46.4723C36.0354 46.4723 33.3621 47.481 31.1901 48.9941V38.2346C31.1901 36.8897 30.0206 35.7129 28.684 35.7129C27.1803 35.7129 26.0107 36.8897 26.0107 38.2346V59.4173C26.1778 66.4781 31.8584 72.026 38.8757 72.026C43.888 72.026 48.232 69.168 50.404 65.1332C52.576 69.168 56.92 72.026 61.7653 72.026C68.9496 72.026 74.7973 66.31 74.7973 59.081C74.9644 52.1883 69.1167 46.4723 61.9324 46.4723V46.4723Z" fill="#0071F7"/>
</svg>
