<svg width="113" height="113" viewBox="0 0 113 113" fill="none" xmlns="http://www.w3.org/2000/svg">
<path d="M56.5 113C87.7041 113 113 87.7041 113 56.5C113 25.2959 87.7041 0 56.5 0C25.2959 0 0 25.2959 0 56.5C0 87.7041 25.2959 113 56.5 113Z" fill="#F1F1F1"/>
<path d="M56.3797 42.3877L41.2505 52.0391L56.3797 61.6905L41.2505 71.3419L26.1213 61.6383L41.2505 51.9869L26.1213 42.3877L41.2505 32.7363L56.3797 42.3877ZM41.1723 74.446L56.3015 64.7946L71.4307 74.446L56.3015 84.0974L41.1723 74.446ZM56.3797 61.6383L71.5089 51.9869L56.3797 42.3877L71.4307 32.7363L86.5599 42.3877L71.4307 52.0391L86.5599 61.6905L71.4307 71.3419L56.3797 61.6383Z" fill="#0061FF"/>
</svg>
