<svg width="109" height="30" viewBox="0 0 109 30" fill="none" xmlns="http://www.w3.org/2000/svg">
<g clip-path="url(#clip0)">
<path d="M37.2046 3.70166C37.8813 3.70166 38.4131 3.87012 38.7998 4.20703C39.1895 4.54102 39.3843 4.99951 39.3843 5.58252C39.3843 6.24756 39.1719 6.76904 38.7471 7.14697C38.3252 7.5249 37.7422 7.71387 36.998 7.71387C36.2744 7.71387 35.7222 7.59814 35.3413 7.3667V6.66357C35.5464 6.79541 35.8013 6.89941 36.106 6.97559C36.4106 7.04883 36.7109 7.08545 37.0068 7.08545C37.5225 7.08545 37.9224 6.96387 38.2065 6.7207C38.4937 6.47754 38.6372 6.12598 38.6372 5.66602C38.6372 4.76953 38.0879 4.32129 36.9893 4.32129C36.7109 4.32129 36.3389 4.36377 35.873 4.44873L35.4951 4.20703L35.7368 1.20117H38.9316V1.87354H36.3608L36.1982 3.80273C36.5352 3.73535 36.8706 3.70166 37.2046 3.70166Z" fill="#8F959E"/>
<path d="M44.605 4.40479C44.605 5.51514 44.4292 6.34424 44.0776 6.89209C43.729 7.43994 43.1943 7.71387 42.4736 7.71387C41.7822 7.71387 41.2563 7.43408 40.896 6.87451C40.5356 6.31201 40.3555 5.48877 40.3555 4.40479C40.3555 3.28564 40.5298 2.45508 40.8784 1.91309C41.2271 1.37109 41.7588 1.1001 42.4736 1.1001C43.1709 1.1001 43.6997 1.38281 44.0601 1.94824C44.4233 2.51367 44.605 3.33252 44.605 4.40479ZM41.0938 4.40479C41.0938 5.33936 41.2036 6.02051 41.4233 6.44824C41.6431 6.87305 41.9932 7.08545 42.4736 7.08545C42.96 7.08545 43.3115 6.87012 43.5283 6.43945C43.748 6.00586 43.8579 5.32764 43.8579 4.40479C43.8579 3.48193 43.748 2.80664 43.5283 2.37891C43.3115 1.94824 42.96 1.73291 42.4736 1.73291C41.9932 1.73291 41.6431 1.94531 41.4233 2.37012C41.2036 2.79199 41.0938 3.47021 41.0938 4.40479Z" fill="#8F959E"/>
<path d="M49.7554 4.40479C49.7554 5.51514 49.5796 6.34424 49.228 6.89209C48.8794 7.43994 48.3447 7.71387 47.624 7.71387C46.9326 7.71387 46.4067 7.43408 46.0464 6.87451C45.686 6.31201 45.5059 5.48877 45.5059 4.40479C45.5059 3.28564 45.6802 2.45508 46.0288 1.91309C46.3774 1.37109 46.9092 1.1001 47.624 1.1001C48.3213 1.1001 48.8501 1.38281 49.2104 1.94824C49.5737 2.51367 49.7554 3.33252 49.7554 4.40479ZM46.2441 4.40479C46.2441 5.33936 46.354 6.02051 46.5737 6.44824C46.7935 6.87305 47.1436 7.08545 47.624 7.08545C48.1104 7.08545 48.4619 6.87012 48.6787 6.43945C48.8984 6.00586 49.0083 5.32764 49.0083 4.40479C49.0083 3.48193 48.8984 2.80664 48.6787 2.37891C48.4619 1.94824 48.1104 1.73291 47.624 1.73291C47.1436 1.73291 46.7935 1.94531 46.5737 2.37012C46.354 2.79199 46.2441 3.47021 46.2441 4.40479Z" fill="#8F959E"/>
<path d="M53.9434 7.62598L53.7983 6.94043H53.7632C53.5229 7.24219 53.2827 7.44727 53.0425 7.55566C52.8052 7.66113 52.5078 7.71387 52.1504 7.71387C51.6729 7.71387 51.2979 7.59082 51.0254 7.34473C50.7559 7.09863 50.6211 6.74854 50.6211 6.29443C50.6211 5.32178 51.3989 4.81201 52.9546 4.76514L53.772 4.73877V4.43994C53.772 4.06201 53.6899 3.78369 53.5259 3.60498C53.3647 3.42334 53.1055 3.33252 52.748 3.33252C52.3467 3.33252 51.8926 3.45557 51.3857 3.70166L51.1616 3.14355C51.3989 3.01465 51.6582 2.91357 51.9395 2.84033C52.2236 2.76709 52.5078 2.73047 52.792 2.73047C53.3662 2.73047 53.791 2.85791 54.0664 3.11279C54.3447 3.36768 54.4839 3.77637 54.4839 4.33887V7.62598H53.9434ZM52.2954 7.11182C52.7495 7.11182 53.1055 6.9873 53.3633 6.73828C53.624 6.48926 53.7544 6.14062 53.7544 5.69238V5.25732L53.0249 5.28809C52.4448 5.30859 52.0259 5.39941 51.7681 5.56055C51.5132 5.71875 51.3857 5.96631 51.3857 6.30322C51.3857 6.56689 51.4648 6.76758 51.623 6.90527C51.7842 7.04297 52.0083 7.11182 52.2954 7.11182Z" fill="#8F959E"/>
<path d="M58.2324 7.71387C57.9189 7.71387 57.6318 7.65674 57.3711 7.54248C57.1133 7.42529 56.8965 7.24658 56.7207 7.00635H56.668C56.7031 7.2876 56.7207 7.5542 56.7207 7.80615V9.78809H55.9912V2.80957H56.5845L56.6855 3.46875H56.7207C56.9082 3.20508 57.1265 3.01465 57.3755 2.89746C57.6245 2.78027 57.9102 2.72168 58.2324 2.72168C58.8711 2.72168 59.3633 2.93994 59.709 3.37646C60.0576 3.81299 60.2319 4.42529 60.2319 5.21338C60.2319 6.00439 60.0547 6.61963 59.7002 7.05908C59.3486 7.49561 58.8594 7.71387 58.2324 7.71387ZM58.127 3.34131C57.6348 3.34131 57.2788 3.47754 57.0591 3.75C56.8394 4.02246 56.7266 4.45605 56.7207 5.05078V5.21338C56.7207 5.89014 56.8335 6.375 57.0591 6.66797C57.2847 6.95801 57.6465 7.10303 58.1445 7.10303C58.5605 7.10303 58.8857 6.93457 59.1201 6.59766C59.3574 6.26074 59.4761 5.79639 59.4761 5.20459C59.4761 4.604 59.3574 4.14404 59.1201 3.82471C58.8857 3.50244 58.5547 3.34131 58.127 3.34131Z" fill="#8F959E"/>
<path d="M63.752 7.71387C63.4385 7.71387 63.1514 7.65674 62.8906 7.54248C62.6328 7.42529 62.416 7.24658 62.2402 7.00635H62.1875C62.2227 7.2876 62.2402 7.5542 62.2402 7.80615V9.78809H61.5107V2.80957H62.104L62.2051 3.46875H62.2402C62.4277 3.20508 62.646 3.01465 62.895 2.89746C63.144 2.78027 63.4297 2.72168 63.752 2.72168C64.3906 2.72168 64.8828 2.93994 65.2285 3.37646C65.5771 3.81299 65.7515 4.42529 65.7515 5.21338C65.7515 6.00439 65.5742 6.61963 65.2197 7.05908C64.8682 7.49561 64.3789 7.71387 63.752 7.71387ZM63.6465 3.34131C63.1543 3.34131 62.7983 3.47754 62.5786 3.75C62.3589 4.02246 62.2461 4.45605 62.2402 5.05078V5.21338C62.2402 5.89014 62.353 6.375 62.5786 6.66797C62.8042 6.95801 63.166 7.10303 63.6641 7.10303C64.0801 7.10303 64.4053 6.93457 64.6396 6.59766C64.877 6.26074 64.9956 5.79639 64.9956 5.20459C64.9956 4.604 64.877 4.14404 64.6396 3.82471C64.4053 3.50244 64.0742 3.34131 63.6465 3.34131Z" fill="#8F959E"/>
<path d="M70.1372 6.31201C70.1372 6.76025 69.9702 7.10596 69.6362 7.34912C69.3022 7.59229 68.8335 7.71387 68.23 7.71387C67.5913 7.71387 67.0933 7.61279 66.7358 7.41064V6.73389C66.9673 6.85107 67.2148 6.94336 67.4785 7.01074C67.7451 7.07812 68.0015 7.11182 68.2476 7.11182C68.6284 7.11182 68.9214 7.05176 69.1265 6.93164C69.3315 6.80859 69.4341 6.62256 69.4341 6.37354C69.4341 6.18604 69.3521 6.02637 69.188 5.89453C69.0269 5.75977 68.7104 5.60156 68.2388 5.41992C67.7905 5.25293 67.4712 5.10791 67.2808 4.98486C67.0933 4.85889 66.9526 4.7168 66.8589 4.55859C66.7681 4.40039 66.7227 4.21143 66.7227 3.9917C66.7227 3.59912 66.8823 3.29004 67.2017 3.06445C67.521 2.83594 67.959 2.72168 68.5156 2.72168C69.0342 2.72168 69.541 2.82715 70.0361 3.03809L69.7769 3.63135C69.2935 3.43213 68.8555 3.33252 68.4629 3.33252C68.1172 3.33252 67.8564 3.38672 67.6807 3.49512C67.5049 3.60352 67.417 3.75293 67.417 3.94336C67.417 4.07227 67.4492 4.18213 67.5137 4.27295C67.5811 4.36377 67.688 4.4502 67.8345 4.53223C67.981 4.61426 68.2622 4.73291 68.6782 4.88818C69.2495 5.09619 69.6348 5.30566 69.834 5.5166C70.0361 5.72754 70.1372 5.99268 70.1372 6.31201Z" fill="#8F959E"/>
<path fill-rule="evenodd" clip-rule="evenodd" d="M35.4412 6.72336C35.6273 6.8272 35.8489 6.91124 36.1059 6.97549C36.4105 7.04873 36.7108 7.08535 37.0067 7.08535C37.5224 7.08535 37.9223 6.96377 38.2064 6.72061C38.4936 6.47744 38.6371 6.12588 38.6371 5.66592C38.6371 4.76943 38.0878 4.32119 36.9892 4.32119C36.7108 4.32119 36.3388 4.36367 35.8729 4.44863L35.495 4.20693L35.7367 1.20107H38.9315V1.87344H36.3607L36.1981 3.80264C36.2322 3.79583 36.2662 3.78938 36.3001 3.78326C36.6028 3.7288 36.9042 3.70156 37.2045 3.70156C37.8813 3.70156 38.413 3.87002 38.7997 4.20693C39.1894 4.54092 39.3842 4.99941 39.3842 5.58242C39.3842 6.24746 39.1718 6.76895 38.747 7.14687C38.3251 7.5248 37.7421 7.71377 36.9979 7.71377C36.2743 7.71377 35.7221 7.59805 35.3412 7.3666V6.66348C35.3733 6.68412 35.4067 6.70408 35.4412 6.72336ZM38.8134 7.22159C38.3681 7.62039 37.7587 7.81377 36.9979 7.81377C36.2663 7.81377 35.6927 7.69723 35.2893 7.45206L35.2412 7.42285V6.48031L35.3953 6.57936C35.5889 6.70382 35.8329 6.80412 36.1297 6.87836C36.427 6.9498 36.7193 6.98535 37.0067 6.98535C37.5075 6.98535 37.8812 6.86729 38.1414 6.64462C38.4012 6.42464 38.5371 6.10363 38.5371 5.66592C38.5371 5.23907 38.4073 4.93512 38.1619 4.73485C37.9126 4.53141 37.5274 4.42119 36.9892 4.42119C36.7196 4.42119 36.3543 4.46249 35.8909 4.54701L35.8522 4.55407L35.3905 4.25881L35.6444 1.10107H39.0315V1.97344H36.4527L36.3088 3.68016C36.6083 3.62779 36.9069 3.60156 37.2045 3.60156C37.8974 3.60156 38.455 3.77419 38.8651 4.13127C39.2799 4.48694 39.4842 4.9748 39.4842 5.58242C39.4842 6.27068 39.2633 6.82141 38.8134 7.22159ZM40.8117 6.92836C40.4364 6.3426 40.2554 5.49701 40.2554 4.40469C40.2554 3.27879 40.4301 2.42499 40.7942 1.85889C41.1635 1.28477 41.7291 1 42.4735 1C43.2033 1 43.7647 1.2988 44.1443 1.8944C44.5223 2.4829 44.7049 3.32385 44.7049 4.40469C44.7049 5.52211 44.5286 6.37412 44.1618 6.94584C43.7925 7.526 43.2239 7.81377 42.4735 7.81377C41.7497 7.81377 41.1913 7.51782 40.8117 6.92836ZM44.0775 6.89199C44.4291 6.34414 44.6049 5.51504 44.6049 4.40469C44.6049 3.33242 44.4232 2.51357 44.06 1.94814C43.6996 1.38271 43.1708 1.1 42.4735 1.1C41.7587 1.1 41.227 1.371 40.8783 1.91299C40.5297 2.45498 40.3554 3.28555 40.3554 4.40469C40.3554 5.48867 40.5355 6.31191 40.8959 6.87441C41.2562 7.43398 41.7821 7.71377 42.4735 7.71377C43.1942 7.71377 43.7289 7.43984 44.0775 6.89199ZM43.439 6.39415C43.6478 5.9822 43.7578 5.32352 43.7578 4.40469C43.7578 3.48568 43.6477 2.83029 43.4393 2.4245C43.3378 2.22293 43.2071 2.07598 43.0497 1.97959C42.8923 1.88316 42.7016 1.83281 42.4735 1.83281C42.2484 1.83281 42.0594 1.88243 41.9025 1.97761C41.7456 2.07277 41.6149 2.21711 41.5121 2.41596C41.304 2.81547 41.1937 3.47353 41.1937 4.40469C41.1937 5.33556 41.3038 5.99663 41.5121 6.40232C41.615 6.60111 41.7457 6.74541 41.9025 6.84055C42.0594 6.93573 42.2484 6.98535 42.4735 6.98535C42.7016 6.98535 42.8923 6.935 43.0497 6.83858C43.2071 6.74218 43.3376 6.59572 43.439 6.39415ZM41.4232 6.44814C41.2035 6.02041 41.0937 5.33926 41.0937 4.40469C41.0937 3.47012 41.2035 2.79189 41.4232 2.37002C41.643 1.94521 41.9931 1.73281 42.4735 1.73281C42.9599 1.73281 43.3114 1.94814 43.5282 2.37881C43.7479 2.80654 43.8578 3.48184 43.8578 4.40469C43.8578 5.32754 43.7479 6.00576 43.5282 6.43936C43.3114 6.87002 42.9599 7.08535 42.4735 7.08535C41.9931 7.08535 41.643 6.87295 41.4232 6.44814ZM45.9621 6.92836C45.5868 6.3426 45.4058 5.49701 45.4058 4.40469C45.4058 3.27879 45.5805 2.42499 45.9446 1.85889C46.3139 1.28477 46.8795 1 47.6239 1C48.3537 1 48.9151 1.2988 49.2947 1.8944C49.6727 2.4829 49.8553 3.32385 49.8553 4.40469C49.8553 5.52211 49.679 6.37412 49.3122 6.94584C48.9429 7.526 48.3743 7.81377 47.6239 7.81377C46.9001 7.81377 46.3417 7.51782 45.9621 6.92836ZM49.2279 6.89199C49.5795 6.34414 49.7553 5.51504 49.7553 4.40469C49.7553 3.33242 49.5736 2.51357 49.2104 1.94814C48.85 1.38271 48.3212 1.1 47.6239 1.1C46.9091 1.1 46.3773 1.371 46.0287 1.91299C45.6801 2.45498 45.5058 3.28555 45.5058 4.40469C45.5058 5.48867 45.6859 6.31191 46.0463 6.87441C46.4066 7.43398 46.9325 7.71377 47.6239 7.71377C48.3446 7.71377 48.8793 7.43984 49.2279 6.89199ZM48.5894 6.39415C48.7982 5.9822 48.9082 5.32352 48.9082 4.40469C48.9082 3.48568 48.7981 2.83029 48.5897 2.4245C48.4882 2.22293 48.3575 2.07598 48.2001 1.97959C48.0427 1.88316 47.852 1.83281 47.6239 1.83281C47.3988 1.83281 47.2097 1.88243 47.0529 1.97761C46.896 2.07277 46.7653 2.21711 46.6625 2.41596C46.4544 2.81547 46.344 3.47353 46.344 4.40469C46.344 5.33566 46.4542 5.99677 46.6626 6.40244C46.7654 6.60117 46.8961 6.74543 47.0529 6.84055C47.2097 6.93573 47.3988 6.98535 47.6239 6.98535C47.852 6.98535 48.0427 6.935 48.2001 6.83858C48.3575 6.74218 48.4879 6.59572 48.5894 6.39415ZM46.5736 6.44814C46.3539 6.02041 46.244 5.33926 46.244 4.40469C46.244 3.47012 46.3539 2.79189 46.5736 2.37002C46.7934 1.94521 47.1435 1.73281 47.6239 1.73281C48.1103 1.73281 48.4618 1.94814 48.6786 2.37881C48.8983 2.80654 49.0082 3.48184 49.0082 4.40469C49.0082 5.32754 48.8983 6.00576 48.6786 6.43936C48.4618 6.87002 48.1103 7.08535 47.6239 7.08535C47.1435 7.08535 46.7934 6.87295 46.5736 6.44814ZM53.8622 7.72588L53.7359 7.12897C53.5235 7.37149 53.3064 7.54615 53.0835 7.64672C52.8296 7.75958 52.5168 7.81377 52.1503 7.81377C51.6556 7.81377 51.2541 7.68603 50.9583 7.41884C50.6631 7.14934 50.521 6.76917 50.521 6.29434C50.521 5.77615 50.7309 5.37324 51.1496 5.09888C51.5611 4.82919 52.1662 4.68875 52.9514 4.66509C52.9514 4.66509 52.9514 4.66509 52.9514 4.66509L53.6719 4.64185V4.43984C53.6719 4.07353 53.5919 3.82482 53.4521 3.67251L53.451 3.67125C53.3163 3.51946 53.0905 3.43242 52.7479 3.43242C52.3666 3.43242 51.9277 3.54953 51.4293 3.79152L51.3328 3.83837L51.0355 3.09809L51.1138 3.05558C51.3587 2.92253 51.6257 2.81859 51.9142 2.74346C52.2062 2.66819 52.499 2.63037 52.7919 2.63037C53.3782 2.63037 53.8325 2.76013 54.134 3.03913C54.4413 3.32062 54.5838 3.76216 54.5838 4.33877V7.72588H53.8622ZM54.0663 3.1127C53.7909 2.85781 53.3661 2.73037 52.7919 2.73037C52.5077 2.73037 52.2235 2.76699 51.9394 2.84023C51.6581 2.91348 51.3988 3.01455 51.1615 3.14346L51.3856 3.70156C51.416 3.68682 51.4462 3.67252 51.4762 3.65865C51.9467 3.44117 52.3706 3.33242 52.7479 3.33242C53.1054 3.33242 53.3646 3.42324 53.5258 3.60488C53.6898 3.78359 53.7719 4.06191 53.7719 4.43984V4.73867L52.9545 4.76504C51.3988 4.81191 50.621 5.32168 50.621 6.29434C50.621 6.74844 50.7558 7.09854 51.0253 7.34463C51.2978 7.59072 51.6728 7.71377 52.1503 7.71377C52.5077 7.71377 52.8051 7.66104 53.0424 7.55557C53.2649 7.45518 53.4874 7.27186 53.7098 7.00563C53.7252 6.98724 53.7406 6.96846 53.7559 6.94928C53.7583 6.94631 53.7607 6.94332 53.7631 6.94033H53.7982L53.9433 7.62588H54.4838V4.33877C54.4838 3.77627 54.3446 3.36758 54.0663 3.1127ZM53.2941 6.66587C53.5305 6.4401 53.6543 6.12029 53.6543 5.69229V5.36153L53.029 5.3879C52.4532 5.40826 52.0557 5.49856 51.821 5.64525C51.5995 5.78269 51.4856 5.99574 51.4856 6.30312C51.4856 6.54572 51.5575 6.7155 51.6883 6.8295C51.8258 6.94676 52.0238 7.01172 52.2953 7.01172C52.7307 7.01172 53.0596 6.89241 53.2941 6.66587ZM51.6229 6.90518C51.4647 6.76748 51.3856 6.5668 51.3856 6.30312C51.3856 5.96621 51.5131 5.71865 51.768 5.56045C52.0258 5.39932 52.4447 5.3085 53.0248 5.28799L53.7543 5.25723V5.69229C53.7543 6.14053 53.6239 6.48916 53.3632 6.73818C53.1054 6.98721 52.7494 7.11172 52.2953 7.11172C52.0082 7.11172 51.7841 7.04287 51.6229 6.90518ZM57.3309 7.63397L57.3296 7.63343C57.1272 7.54142 56.9489 7.41378 56.7948 7.25137C56.812 7.44308 56.8206 7.62798 56.8206 7.80605V9.88799H55.8911V2.70947H56.6702L56.7548 3.26129C56.9241 3.06097 57.1166 2.90863 57.3328 2.80688C57.5972 2.68244 57.8978 2.62158 58.2323 2.62158C58.8964 2.62158 59.4195 2.85003 59.7871 3.31406C60.1546 3.77431 60.3318 4.41171 60.3318 5.21328C60.3318 6.01809 60.1516 6.65854 59.778 7.12171C59.405 7.5848 58.8855 7.81377 58.2323 7.81377C57.9064 7.81377 57.6055 7.75432 57.3309 7.63397ZM59.7001 7.05898C60.0546 6.61953 60.2318 6.0043 60.2318 5.21328C60.2318 4.4252 60.0575 3.81289 59.7089 3.37637C59.3632 2.93984 58.871 2.72158 58.2323 2.72158C57.9101 2.72158 57.6244 2.78018 57.3754 2.89736C57.1502 3.00333 56.9502 3.16918 56.7753 3.39492C56.7583 3.41691 56.7415 3.43947 56.7249 3.4626C56.7235 3.46461 56.722 3.46663 56.7206 3.46865H56.6854L56.5844 2.80947H55.9911V9.78799H56.7206V7.80605C56.7206 7.58823 56.7075 7.35946 56.6812 7.11974C56.6807 7.11525 56.6802 7.11075 56.6797 7.10625C56.6773 7.08481 56.6748 7.06328 56.6722 7.04166C56.6708 7.02988 56.6693 7.01808 56.6679 7.00625H56.7206C56.7391 7.03149 56.758 7.05605 56.7774 7.07993C56.9424 7.28335 57.1403 7.43751 57.371 7.54238C57.6317 7.65664 57.9188 7.71377 58.2323 7.71377C58.8593 7.71377 59.3485 7.49551 59.7001 7.05898ZM59.0383 6.53997C59.2595 6.22581 59.376 5.7843 59.376 5.20449C59.376 4.61502 59.2592 4.17956 59.0398 3.88426L59.0391 3.88343C58.8251 3.58918 58.5253 3.44121 58.1269 3.44121C57.652 3.44121 57.3307 3.57223 57.1368 3.81268C56.9382 4.05896 56.8265 4.46489 56.8206 5.05109V5.21328C56.8206 5.88383 56.9333 6.3406 57.1381 6.60664C57.3385 6.86425 57.6656 7.00293 58.1444 7.00293C58.5282 7.00293 58.8229 6.84958 59.0383 6.53997ZM57.059 6.66787C56.8334 6.3749 56.7206 5.89004 56.7206 5.21328V5.05068C56.7265 4.45596 56.8393 4.02236 57.059 3.7499C57.2787 3.47744 57.6347 3.34121 58.1269 3.34121C58.5546 3.34121 58.8856 3.50234 59.12 3.82461C59.3573 4.14395 59.476 4.60391 59.476 5.20449C59.476 5.79629 59.3573 6.26064 59.12 6.59756C58.8856 6.93447 58.5604 7.10293 58.1444 7.10293C57.6464 7.10293 57.2846 6.95791 57.059 6.66787ZM62.8504 7.63397L62.8491 7.63343C62.6467 7.54142 62.4684 7.41378 62.3143 7.25137C62.3315 7.44308 62.3401 7.62798 62.3401 7.80605V9.88799H61.4106V2.70947H62.1897L62.2744 3.26129C62.4437 3.06097 62.6361 2.90863 62.8523 2.80688C63.1168 2.68244 63.4174 2.62158 63.7519 2.62158C64.4159 2.62158 64.939 2.85003 65.3066 3.31406C65.6742 3.77431 65.8514 4.41171 65.8514 5.21328C65.8514 6.01809 65.6711 6.65854 65.2975 7.12171C64.9246 7.5848 64.405 7.81377 63.7519 7.81377C63.426 7.81377 63.125 7.75432 62.8504 7.63397ZM65.2196 7.05898C65.5741 6.61953 65.7514 6.0043 65.7514 5.21328C65.7514 4.4252 65.5771 3.81289 65.2284 3.37637C64.8827 2.93984 64.3905 2.72158 63.7519 2.72158C63.4296 2.72158 63.1439 2.78018 62.8949 2.89736C62.6697 3.00333 62.4697 3.16918 62.2948 3.39492C62.2778 3.41691 62.261 3.43947 62.2445 3.4626C62.243 3.46461 62.2416 3.46663 62.2401 3.46865H62.205L62.1039 2.80947H61.5106V9.78799H62.2401V7.80605C62.2401 7.58823 62.227 7.35946 62.2007 7.11974C62.2002 7.11525 62.1997 7.11075 62.1992 7.10625C62.1968 7.08481 62.1943 7.06328 62.1917 7.04166C62.1903 7.02988 62.1889 7.01808 62.1874 7.00625H62.2401C62.2586 7.03149 62.2775 7.05605 62.2969 7.07993C62.4619 7.28335 62.6598 7.43751 62.8905 7.54238C63.1513 7.65664 63.4384 7.71377 63.7519 7.71377C64.3788 7.71377 64.8681 7.49551 65.2196 7.05898ZM64.5578 6.53997C64.7791 6.22581 64.8955 5.7843 64.8955 5.20449C64.8955 4.61502 64.7787 4.17956 64.5593 3.88426L64.5587 3.88343C64.3447 3.58918 64.0449 3.44121 63.6464 3.44121C63.1715 3.44121 62.8503 3.57223 62.6564 3.81268C62.4577 4.05896 62.346 4.46489 62.3401 5.05109V5.21328C62.3401 5.88383 62.4529 6.3406 62.6576 6.60664C62.858 6.86425 63.1851 7.00293 63.664 7.00293C64.0478 7.00293 64.3424 6.84958 64.5578 6.53997ZM62.5785 6.66787C62.3529 6.3749 62.2401 5.89004 62.2401 5.21328V5.05068C62.246 4.45596 62.3588 4.02236 62.5785 3.7499C62.7982 3.47744 63.1542 3.34121 63.6464 3.34121C64.0741 3.34121 64.4052 3.50234 64.6396 3.82461C64.8769 4.14395 64.9955 4.60391 64.9955 5.20449C64.9955 5.79629 64.8769 6.26064 64.6396 6.59756C64.4052 6.93447 64.08 7.10293 63.664 7.10293C63.1659 7.10293 62.8041 6.95791 62.5785 6.66787ZM66.6357 7.46887V6.57107L66.7809 6.64457C67.0055 6.75827 67.2461 6.84803 67.5029 6.91369C67.7624 6.97928 68.0105 7.01172 68.2475 7.01172C68.62 7.01172 68.8923 6.9526 69.0755 6.84547C69.2486 6.7414 69.334 6.58889 69.334 6.37344C69.334 6.22021 69.269 6.08787 69.1253 5.97238L69.1237 5.97116C68.9767 5.84817 68.6748 5.69495 68.2032 5.51334C67.7542 5.34604 67.4264 5.19801 67.2264 5.06876L67.2249 5.06778C67.0278 4.93536 66.8756 4.78305 66.7728 4.60948L66.7721 4.60829C66.6709 4.43211 66.6226 4.22523 66.6226 3.9916C66.6226 3.5668 66.7978 3.22726 67.1436 2.98286C67.4857 2.73819 67.9466 2.62158 68.5155 2.62158C69.0481 2.62158 69.5682 2.72998 70.0752 2.94599L70.1681 2.98555L69.8292 3.76101L69.7387 3.72371C69.2635 3.52791 68.8387 3.43242 68.4628 3.43242C68.1245 3.43242 67.8857 3.486 67.7331 3.58014C67.5838 3.67217 67.5169 3.79091 67.5169 3.94326C67.5169 4.05434 67.5443 4.14289 67.5945 4.21409C67.6505 4.28919 67.7441 4.36698 67.8832 4.44488C68.0221 4.52264 68.2964 4.63887 68.7128 4.79428C69.2856 5.00288 69.69 5.21864 69.9063 5.44758C70.1279 5.6789 70.2371 5.96955 70.2371 6.31191C70.2371 6.78897 70.0573 7.16609 69.695 7.42987C69.3377 7.69003 68.8452 7.81377 68.2299 7.81377C67.5827 7.81377 67.0651 7.71169 66.6865 7.49759L66.6357 7.46887ZM69.8339 5.5165C69.6347 5.30557 69.2494 5.09609 68.6781 4.88809C68.2621 4.73281 67.9809 4.61416 67.8344 4.53213C67.6879 4.4501 67.581 4.36367 67.5136 4.27285C67.4491 4.18203 67.4169 4.07217 67.4169 3.94326C67.4169 3.75283 67.5048 3.60342 67.6806 3.49502C67.8563 3.38662 68.1171 3.33242 68.4628 3.33242C68.8554 3.33242 69.2934 3.43203 69.7768 3.63125L70.036 3.03799C70.0053 3.02487 69.9744 3.01217 69.9436 2.99987C69.4779 2.81435 69.0018 2.72158 68.5155 2.72158C67.9589 2.72158 67.5209 2.83584 67.2016 3.06436C66.8822 3.28994 66.7226 3.59902 66.7226 3.9916C66.7226 4.21133 66.768 4.40029 66.8588 4.5585C66.9525 4.7167 67.0932 4.85879 67.2807 4.98477C67.4711 5.10781 67.7904 5.25283 68.2387 5.41982C68.7104 5.60146 69.0268 5.75967 69.1879 5.89443C69.352 6.02627 69.434 6.18594 69.434 6.37344C69.434 6.62246 69.3314 6.8085 69.1264 6.93154C68.9213 7.05166 68.6283 7.11172 68.2475 7.11172C68.0014 7.11172 67.745 7.07803 67.4784 7.01064C67.2523 6.95287 67.0381 6.87679 66.8357 6.7824C66.8021 6.76671 66.7687 6.7505 66.7357 6.73379V7.41055C67.0932 7.6127 67.5912 7.71377 68.2299 7.71377C68.8334 7.71377 69.3021 7.59219 69.6361 7.34902C69.9701 7.10586 70.1371 6.76016 70.1371 6.31191C70.1371 5.99258 70.036 5.72744 69.8339 5.5165Z" fill="#8F959E"/>
<path d="M35.6657 28V16.3579H44.0719V17.6241H36.9847V21.669H43.2981V22.9528H36.9847V28H35.6657ZM50.251 28.1407C49.3599 28.1407 48.5862 27.9414 47.9296 27.5428C47.273 27.1324 46.7689 26.5814 46.4172 25.8897C46.0655 25.1979 45.8896 24.4359 45.8896 23.6034C45.8896 22.7593 46.0655 21.9972 46.4172 21.3172C46.7689 20.6255 47.273 20.0803 47.9296 19.6817C48.5862 19.2714 49.3599 19.0662 50.251 19.0662C51.1537 19.0662 51.9275 19.2714 52.5724 19.6817C53.2289 20.0803 53.733 20.6255 54.0848 21.3172C54.4365 21.9972 54.6124 22.7593 54.6124 23.6034C54.6124 24.4359 54.4365 25.1979 54.0848 25.8897C53.733 26.5814 53.2289 27.1324 52.5724 27.5428C51.9275 27.9414 51.1537 28.1407 50.251 28.1407ZM50.251 26.9448C50.9075 26.9448 51.4586 26.7924 51.9041 26.4876C52.3613 26.1828 52.7072 25.7783 52.9417 25.2741C53.1762 24.7583 53.2934 24.2014 53.2934 23.6034C53.2934 22.9938 53.1762 22.4369 52.9417 21.9328C52.7072 21.4286 52.3613 21.0241 51.9041 20.7193C51.4586 20.4145 50.9075 20.2621 50.251 20.2621C49.6062 20.2621 49.0551 20.4145 48.5979 20.7193C48.1406 21.0241 47.7948 21.4286 47.5603 21.9328C47.3258 22.4369 47.2086 22.9938 47.2086 23.6034C47.2086 24.2014 47.3258 24.7583 47.5603 25.2741C47.7948 25.7783 48.1406 26.1828 48.5979 26.4876C49.0551 26.7924 49.6062 26.9448 50.251 26.9448ZM57.4165 28V19.2069H58.7355V21.37C58.7824 21.2176 58.8703 21.0183 58.9993 20.7721C59.14 20.5141 59.3393 20.2562 59.5972 19.9983C59.8552 19.7403 60.1776 19.5234 60.5645 19.3476C60.9631 19.16 61.4321 19.0662 61.9714 19.0662H62.0593V20.3852H61.901C61.2445 20.3852 60.6758 20.5669 60.1952 20.9303C59.7262 21.2821 59.3627 21.7452 59.1048 22.3197C58.8586 22.8824 58.7355 23.4862 58.7355 24.131V28H57.4165ZM64.5341 28V19.2069H65.8531V20.5434C66.0524 20.1917 66.369 19.8576 66.8028 19.541C67.2366 19.2245 67.811 19.0662 68.5262 19.0662C69.1124 19.0662 69.6517 19.2245 70.1441 19.541C70.6483 19.8459 71.041 20.2797 71.3224 20.8424C71.4397 20.6431 71.6214 20.4028 71.8676 20.1214C72.1255 19.84 72.4597 19.5938 72.87 19.3828C73.2803 19.1717 73.7728 19.0662 74.3472 19.0662C74.91 19.0662 75.4376 19.2128 75.93 19.5059C76.4224 19.799 76.821 20.221 77.1259 20.7721C77.4424 21.3114 77.6007 21.9503 77.6007 22.689V28H76.2817V22.7241C76.2817 21.9855 76.0707 21.3934 75.6486 20.9479C75.2383 20.4907 74.7224 20.2621 74.101 20.2621C73.4562 20.2621 72.8993 20.479 72.4303 20.9128C71.9614 21.3466 71.7269 21.9562 71.7269 22.7417V28H70.4079V22.7241C70.4079 21.9855 70.1969 21.3934 69.7748 20.9479C69.3645 20.4907 68.8486 20.2621 68.2272 20.2621C67.5824 20.2621 67.0255 20.479 66.5566 20.9128C66.0876 21.3466 65.8531 21.9562 65.8531 22.7417V28H64.5341ZM84.0577 28.1407C83.2487 28.1407 82.5629 28.0059 82.0001 27.7362C81.4491 27.4666 81.027 27.1148 80.7339 26.681C80.4408 26.2355 80.2767 25.7548 80.2415 25.239H81.6132C81.6484 25.5321 81.7481 25.8193 81.9122 26.1007C82.0881 26.3703 82.3519 26.5931 82.7036 26.769C83.0553 26.9331 83.5125 27.0152 84.0753 27.0152C84.2512 27.0152 84.4681 26.9976 84.726 26.9624C84.9839 26.9272 85.2301 26.8628 85.4646 26.769C85.7108 26.6752 85.916 26.5345 86.0801 26.3469C86.2443 26.1593 86.3263 25.919 86.3263 25.6259C86.3263 25.2624 86.1856 24.981 85.9043 24.7817C85.6229 24.5824 85.2594 24.43 84.8139 24.3245C84.3684 24.2072 83.8936 24.0959 83.3894 23.9903C82.897 23.8848 82.4281 23.75 81.9825 23.5859C81.537 23.41 81.1736 23.1697 80.8922 22.8648C80.6108 22.5483 80.4701 22.1203 80.4701 21.581C80.4701 20.7838 80.7574 20.1683 81.3319 19.7345C81.9181 19.289 82.7798 19.0662 83.917 19.0662C84.6908 19.0662 85.3181 19.1893 85.7987 19.4355C86.2912 19.67 86.6605 19.9748 86.9067 20.35C87.1646 20.7252 87.317 21.1297 87.3639 21.5634H86.0274C85.9805 21.1883 85.7929 20.8659 85.4646 20.5962C85.1481 20.3266 84.6205 20.1917 83.8819 20.1917C82.4867 20.1917 81.7891 20.6138 81.7891 21.4579C81.7891 21.8097 81.9298 22.0793 82.2112 22.2669C82.4925 22.4545 82.856 22.6069 83.3015 22.7241C83.747 22.8297 84.216 22.9352 84.7084 23.0407C85.2125 23.1345 85.6874 23.2693 86.1329 23.4452C86.5784 23.621 86.9419 23.8731 87.2232 24.2014C87.5046 24.5179 87.6453 24.9517 87.6453 25.5028C87.6453 26.3586 87.317 27.0152 86.6605 27.4724C86.0156 27.9179 85.1481 28.1407 84.0577 28.1407ZM90.1851 28V26.2062H91.891V28H90.1851ZM94.9708 17.7297V16.0062H96.3953V17.7297H94.9708ZM95.0235 28V19.2069H96.3425V28H95.0235ZM103.501 28.1407C102.61 28.1407 101.837 27.9414 101.18 27.5428C100.524 27.1324 100.019 26.5814 99.6677 25.8897C99.3159 25.1979 99.1401 24.4359 99.1401 23.6034C99.1401 22.7593 99.3159 21.9972 99.6677 21.3172C100.019 20.6255 100.524 20.0803 101.18 19.6817C101.837 19.2714 102.61 19.0662 103.501 19.0662C104.404 19.0662 105.178 19.2714 105.823 19.6817C106.479 20.0803 106.984 20.6255 107.335 21.3172C107.687 21.9972 107.863 22.7593 107.863 23.6034C107.863 24.4359 107.687 25.1979 107.335 25.8897C106.984 26.5814 106.479 27.1324 105.823 27.5428C105.178 27.9414 104.404 28.1407 103.501 28.1407ZM103.501 26.9448C104.158 26.9448 104.709 26.7924 105.155 26.4876C105.612 26.1828 105.958 25.7783 106.192 25.2741C106.427 24.7583 106.544 24.2014 106.544 23.6034C106.544 22.9938 106.427 22.4369 106.192 21.9328C105.958 21.4286 105.612 21.0241 105.155 20.7193C104.709 20.4145 104.158 20.2621 103.501 20.2621C102.857 20.2621 102.306 20.4145 101.848 20.7193C101.391 21.0241 101.045 21.4286 100.811 21.9328C100.576 22.4369 100.459 22.9938 100.459 23.6034C100.459 24.2014 100.576 24.7583 100.811 25.2741C101.045 25.7783 101.391 26.1828 101.848 26.4876C102.306 26.7924 102.857 26.9448 103.501 26.9448Z" fill="#335EEA"/>
<path d="M35.6657 28H35.1657V28.5H35.6657V28ZM35.6657 16.3579V15.8579H35.1657V16.3579H35.6657ZM44.0719 16.3579H44.5719V15.8579H44.0719V16.3579ZM44.0719 17.6241V18.1241H44.5719V17.6241H44.0719ZM36.9847 17.6241V17.1241H36.4847V17.6241H36.9847ZM36.9847 21.669H36.4847V22.169H36.9847V21.669ZM43.2981 21.669H43.7981V21.169H43.2981V21.669ZM43.2981 22.9528V23.4528H43.7981V22.9528H43.2981ZM36.9847 22.9528V22.4528H36.4847V22.9528H36.9847ZM36.9847 28V28.5H37.4847V28H36.9847ZM36.1657 28V16.3579H35.1657V28H36.1657ZM35.6657 16.8579H44.0719V15.8579H35.6657V16.8579ZM43.5719 16.3579V17.6241H44.5719V16.3579H43.5719ZM44.0719 17.1241H36.9847V18.1241H44.0719V17.1241ZM36.4847 17.6241V21.669H37.4847V17.6241H36.4847ZM36.9847 22.169H43.2981V21.169H36.9847V22.169ZM42.7981 21.669V22.9528H43.7981V21.669H42.7981ZM43.2981 22.4528H36.9847V23.4528H43.2981V22.4528ZM36.4847 22.9528V28H37.4847V22.9528H36.4847ZM36.9847 27.5H35.6657V28.5H36.9847V27.5ZM47.9296 27.5428L47.6646 27.9668L47.6701 27.9702L47.9296 27.5428ZM46.4172 21.3172L46.8613 21.547L46.8629 21.5439L46.4172 21.3172ZM47.9296 19.6817L48.1891 20.1092L48.1946 20.1057L47.9296 19.6817ZM52.5724 19.6817L52.3039 20.1036L52.3129 20.1091L52.5724 19.6817ZM54.0848 21.3172L53.6391 21.5439L53.6407 21.547L54.0848 21.3172ZM54.0848 25.8897L53.6391 25.663L53.6391 25.663L54.0848 25.8897ZM52.5724 27.5428L52.8353 27.9681L52.8374 27.9668L52.5724 27.5428ZM51.9041 26.4876L51.6267 26.0715L51.6217 26.0749L51.9041 26.4876ZM52.9417 25.2741L53.395 25.485L53.3969 25.481L52.9417 25.2741ZM52.9417 21.9328L53.395 21.7219L53.395 21.7219L52.9417 21.9328ZM51.9041 20.7193L51.6217 21.132L51.6267 21.1353L51.9041 20.7193ZM48.5979 20.7193L48.3205 20.3033L48.3205 20.3033L48.5979 20.7193ZM47.5603 21.9328L47.1069 21.7219L47.1069 21.7219L47.5603 21.9328ZM47.5603 25.2741L47.1051 25.481L47.1069 25.485L47.5603 25.2741ZM50.251 27.6407C49.4366 27.6407 48.7556 27.4593 48.1891 27.1154L47.6701 27.9702C48.4167 28.4234 49.2833 28.6407 50.251 28.6407V27.6407ZM48.1946 27.1188C47.6153 26.7567 47.1735 26.274 46.8629 25.663L45.9715 26.1163C46.3643 26.8888 46.9308 27.5081 47.6646 27.9668L48.1946 27.1188ZM46.8629 25.663C46.5494 25.0466 46.3896 24.363 46.3896 23.6034H45.3896C45.3896 24.5088 45.5815 25.3493 45.9715 26.1163L46.8629 25.663ZM46.3896 23.6034C46.3896 22.8309 46.5499 22.1489 46.8613 21.547L45.9731 21.0875C45.581 21.8456 45.3896 22.6877 45.3896 23.6034H46.3896ZM46.8629 21.5439C47.1729 20.9342 47.6129 20.4589 48.1891 20.1091L47.6701 19.2543C46.9332 19.7018 46.3649 20.3169 45.9715 21.0906L46.8629 21.5439ZM48.1946 20.1057C48.7603 19.7522 49.4392 19.5662 50.251 19.5662V18.5662C49.2807 18.5662 48.412 18.7906 47.6646 19.2577L48.1946 20.1057ZM50.251 19.5662C51.0761 19.5662 51.7529 19.7529 52.3039 20.1036L52.8408 19.2599C52.1022 18.7899 51.2313 18.5662 50.251 18.5662V19.5662ZM52.3129 20.1091C52.889 20.4589 53.3291 20.9342 53.6391 21.5439L54.5305 21.0906C54.137 20.3169 53.5688 19.7018 52.8318 19.2543L52.3129 20.1091ZM53.6407 21.547C53.952 22.1489 54.1124 22.8309 54.1124 23.6034H55.1124C55.1124 22.6877 54.921 21.8456 54.5289 21.0875L53.6407 21.547ZM54.1124 23.6034C54.1124 24.363 53.9525 25.0466 53.6391 25.663L54.5305 26.1163C54.9205 25.3493 55.1124 24.5088 55.1124 23.6034H54.1124ZM53.6391 25.663C53.3284 26.274 52.8867 26.7567 52.3074 27.1188L52.8374 27.9668C53.5711 27.5081 54.1377 26.8888 54.5305 26.1163L53.6391 25.663ZM52.3094 27.1175C51.7576 27.4586 51.0788 27.6407 50.251 27.6407V28.6407C51.2287 28.6407 52.0975 28.4241 52.8353 27.9681L52.3094 27.1175ZM50.251 27.4448C50.9862 27.4448 51.6412 27.2733 52.1864 26.9002L51.6217 26.0749C51.2759 26.3116 50.8288 26.4448 50.251 26.4448V27.4448ZM52.1814 26.9036C52.716 26.5472 53.1223 26.0714 53.395 25.485L52.4883 25.0633C52.2921 25.4852 52.0066 25.8183 51.6267 26.0716L52.1814 26.9036ZM53.3969 25.481C53.6625 24.8966 53.7934 24.2687 53.7934 23.6034H52.7934C52.7934 24.134 52.6898 24.6199 52.4865 25.0672L53.3969 25.481ZM53.7934 23.6034C53.7934 22.9281 53.6631 22.2982 53.395 21.7219L52.4883 22.1436C52.6892 22.5756 52.7934 23.0595 52.7934 23.6034H53.7934ZM53.395 21.7219C53.1223 21.1355 52.716 20.6597 52.1814 20.3033L51.6267 21.1353C52.0066 21.3886 52.2921 21.7217 52.4883 22.1436L53.395 21.7219ZM52.1864 20.3067C51.6412 19.9336 50.9862 19.7621 50.251 19.7621V20.7621C50.8288 20.7621 51.2759 20.8953 51.6217 21.132L52.1864 20.3067ZM50.251 19.7621C49.5249 19.7621 48.8733 19.9347 48.3205 20.3033L48.8752 21.1353C49.2369 20.8942 49.6874 20.7621 50.251 20.7621V19.7621ZM48.3205 20.3033C47.7859 20.6597 47.3797 21.1355 47.1069 21.7219L48.0136 22.1436C48.2099 21.7217 48.4953 21.3886 48.8752 21.1353L48.3205 20.3033ZM47.1069 21.7219C46.8389 22.2982 46.7086 22.9281 46.7086 23.6034H47.7086C47.7086 23.0595 47.8128 22.5756 48.0136 22.1436L47.1069 21.7219ZM46.7086 23.6034C46.7086 24.2687 46.8395 24.8966 47.1051 25.481L48.0155 25.0672C47.8121 24.6199 47.7086 24.134 47.7086 23.6034H46.7086ZM47.1069 25.485C47.3797 26.0714 47.7859 26.5472 48.3205 26.9036L48.8752 26.0716C48.4953 25.8183 48.2099 25.4852 48.0136 25.0633L47.1069 25.485ZM48.3205 26.9036C48.8733 27.2722 49.5249 27.4448 50.251 27.4448V26.4448C49.6874 26.4448 49.2369 26.3127 48.8752 26.0716L48.3205 26.9036ZM57.4165 28H56.9165V28.5H57.4165V28ZM57.4165 19.2069V18.7069H56.9165V19.2069H57.4165ZM58.7355 19.2069H59.2355V18.7069H58.7355V19.2069ZM58.7355 21.37H58.2355L59.2134 21.517L58.7355 21.37ZM58.9993 20.7721L58.5603 20.5326L58.5564 20.5401L58.9993 20.7721ZM59.5972 19.9983L59.9508 20.3518L59.9508 20.3518L59.5972 19.9983ZM60.5645 19.3476L60.7714 19.8028L60.7774 19.8L60.5645 19.3476ZM62.0593 19.0662H62.5593V18.5662H62.0593V19.0662ZM62.0593 20.3852V20.8852H62.5593V20.3852H62.0593ZM60.1952 20.9303L60.4952 21.3303L60.4967 21.3292L60.1952 20.9303ZM59.1048 22.3197L58.6487 22.1149L58.6467 22.1192L59.1048 22.3197ZM58.7355 28V28.5H59.2355V28H58.7355ZM57.9165 28V19.2069H56.9165V28H57.9165ZM57.4165 19.7069H58.7355V18.7069H57.4165V19.7069ZM58.2355 19.2069V21.37H59.2355V19.2069H58.2355ZM59.2134 21.517C59.247 21.4078 59.3187 21.2399 59.4422 21.0041L58.5564 20.5401C58.422 20.7966 58.3178 21.0274 58.2576 21.223L59.2134 21.517ZM59.4382 21.0115C59.5513 20.8042 59.7188 20.5838 59.9508 20.3518L59.2437 19.6447C58.9598 19.9286 58.7286 20.2241 58.5603 20.5326L59.4382 21.0115ZM59.9508 20.3518C60.1599 20.1427 60.4302 19.9578 60.7714 19.8028L60.3576 18.8924C59.9249 19.0891 59.5504 19.338 59.2437 19.6447L59.9508 20.3518ZM60.7774 19.8C61.0962 19.65 61.4895 19.5662 61.9714 19.5662V18.5662C61.3746 18.5662 60.83 18.67 60.3516 18.8952L60.7774 19.8ZM61.9714 19.5662H62.0593V18.5662H61.9714V19.5662ZM61.5593 19.0662V20.3852H62.5593V19.0662H61.5593ZM62.0593 19.8852H61.901V20.8852H62.0593V19.8852ZM61.901 19.8852C61.1459 19.8852 60.469 20.0965 59.8936 20.5315L60.4967 21.3292C60.8827 21.0373 61.343 20.8852 61.901 20.8852V19.8852ZM59.8952 20.5303C59.3535 20.9366 58.9386 21.469 58.6487 22.1149L59.5609 22.5245C59.7868 22.0213 60.0989 21.6275 60.4952 21.3303L59.8952 20.5303ZM58.6467 22.1192C58.3715 22.7483 58.2355 23.4207 58.2355 24.131H59.2355C59.2355 23.5517 59.3457 23.0165 59.5629 22.5201L58.6467 22.1192ZM58.2355 24.131V28H59.2355V24.131H58.2355ZM58.7355 27.5H57.4165V28.5H58.7355V27.5ZM64.5341 28H64.0341V28.5H64.5341V28ZM64.5341 19.2069V18.7069H64.0341V19.2069H64.5341ZM65.8531 19.2069H66.3531V18.7069H65.8531V19.2069ZM65.8531 20.5434H65.3531V22.44L66.2881 20.79L65.8531 20.5434ZM66.8028 19.541L66.508 19.1371L66.508 19.1371L66.8028 19.541ZM70.1441 19.541L69.8737 19.9618L69.8854 19.9689L70.1441 19.541ZM71.3224 20.8424L70.8752 21.066L71.2868 21.8892L71.7534 21.0959L71.3224 20.8424ZM71.8676 20.1214L71.4989 19.7834L71.4913 19.7921L71.8676 20.1214ZM72.87 19.3828L73.0987 19.8274L73.0987 19.8274L72.87 19.3828ZM75.93 19.5059L76.1857 19.0762L76.1857 19.0762L75.93 19.5059ZM77.1259 20.7721L76.6882 21.0142L76.6947 21.0252L77.1259 20.7721ZM77.6007 28V28.5H78.1007V28H77.6007ZM76.2817 28H75.7817V28.5H76.2817V28ZM75.6486 20.9479L75.2764 21.282L75.2856 21.2918L75.6486 20.9479ZM72.4303 20.9128L72.0908 20.5457L72.0908 20.5457L72.4303 20.9128ZM71.7269 28V28.5H72.2269V28H71.7269ZM70.4079 28H69.9079V28.5H70.4079V28ZM69.7748 20.9479L69.4026 21.282L69.4119 21.2918L69.7748 20.9479ZM65.8531 28V28.5H66.3531V28H65.8531ZM65.0341 28V19.2069H64.0341V28H65.0341ZM64.5341 19.7069H65.8531V18.7069H64.5341V19.7069ZM65.3531 19.2069V20.5434H66.3531V19.2069H65.3531ZM66.2881 20.79C66.4429 20.5168 66.7032 20.2327 67.0975 19.9449L66.508 19.1371C66.0347 19.4825 65.6619 19.8666 65.4181 20.2969L66.2881 20.79ZM67.0975 19.9449C67.4213 19.7086 67.8822 19.5662 68.5262 19.5662V18.5662C67.7399 18.5662 67.0518 18.7403 66.508 19.1371L67.0975 19.9449ZM68.5262 19.5662C69.0167 19.5662 69.4621 19.697 69.8738 19.9616L70.4145 19.1204C69.8413 18.752 69.2081 18.5662 68.5262 18.5662V19.5662ZM69.8854 19.9689C70.3031 20.2215 70.6331 20.5818 70.8752 21.066L71.7696 20.6188C71.449 19.9775 70.9934 19.4703 70.4028 19.1132L69.8854 19.9689ZM71.7534 21.0959C71.8482 20.9348 72.0073 20.721 72.2439 20.4506L71.4913 19.7921C71.2354 20.0845 71.0311 20.3514 70.8914 20.5889L71.7534 21.0959ZM72.2362 20.4592C72.4468 20.2295 72.7303 20.0169 73.0987 19.8274L72.6413 18.9381C72.1891 19.1707 71.8043 19.4505 71.499 19.7835L72.2362 20.4592ZM73.0987 19.8274C73.4231 19.6606 73.8332 19.5662 74.3472 19.5662V18.5662C73.7123 18.5662 73.1376 18.6829 72.6413 18.9381L73.0987 19.8274ZM74.3472 19.5662C74.8183 19.5662 75.2577 19.6876 75.6743 19.9355L76.1857 19.0762C75.6175 18.738 75.0017 18.5662 74.3472 18.5662V19.5662ZM75.6743 19.9355C76.0831 20.1789 76.422 20.5327 76.6883 21.0141L77.5634 20.53C77.22 19.9094 76.7617 19.419 76.1857 19.0762L75.6743 19.9355ZM76.6947 21.0252C76.9586 21.4749 77.1007 22.0231 77.1007 22.689H78.1007C78.1007 21.8776 77.9262 21.1479 77.5571 20.519L76.6947 21.0252ZM77.1007 22.689V28H78.1007V22.689H77.1007ZM77.6007 27.5H76.2817V28.5H77.6007V27.5ZM76.7817 28V22.7241H75.7817V28H76.7817ZM76.7817 22.7241C76.7817 21.8852 76.539 21.1607 76.0116 20.6041L75.2856 21.2918C75.6024 21.6262 75.7817 22.0858 75.7817 22.7241H76.7817ZM76.0207 20.614C75.5143 20.0497 74.8626 19.7621 74.101 19.7621V20.7621C74.5823 20.7621 74.9622 20.9317 75.2765 21.2819L76.0207 20.614ZM74.101 19.7621C73.3316 19.7621 72.6532 20.0256 72.0908 20.5457L72.7699 21.2798C73.1455 20.9324 73.5808 20.7621 74.101 20.7621V19.7621ZM72.0908 20.5457C71.4968 21.0952 71.2269 21.8513 71.2269 22.7417H72.2269C72.2269 22.0612 72.426 21.5979 72.7699 21.2798L72.0908 20.5457ZM71.2269 22.7417V28H72.2269V22.7417H71.2269ZM71.7269 27.5H70.4079V28.5H71.7269V27.5ZM70.9079 28V22.7241H69.9079V28H70.9079ZM70.9079 22.7241C70.9079 21.8852 70.6652 21.1607 70.1378 20.6041L69.4119 21.2918C69.7286 21.6262 69.9079 22.0858 69.9079 22.7241H70.9079ZM70.1469 20.614C69.6405 20.0497 68.9888 19.7621 68.2272 19.7621V20.7621C68.7085 20.7621 69.0884 20.9317 69.4027 21.2819L70.1469 20.614ZM68.2272 19.7621C67.4579 19.7621 66.7794 20.0256 66.217 20.5457L66.8961 21.2798C67.2717 20.9324 67.707 20.7621 68.2272 20.7621V19.7621ZM66.217 20.5457C65.623 21.0952 65.3531 21.8513 65.3531 22.7417H66.3531C66.3531 22.0612 66.5522 21.5979 66.8961 21.2798L66.217 20.5457ZM65.3531 22.7417V28H66.3531V22.7417H65.3531ZM65.8531 27.5H64.5341V28.5H65.8531V27.5ZM82.0001 27.7362L81.7803 28.1853L81.7841 28.1871L82.0001 27.7362ZM80.7339 26.681L80.3162 26.9559L80.3196 26.961L80.7339 26.681ZM80.2415 25.239V24.739H79.7063L79.7427 25.273L80.2415 25.239ZM81.6132 25.239L82.1097 25.1794L82.0568 24.739H81.6132V25.239ZM81.9122 26.1007L81.4803 26.3526L81.4866 26.3634L81.4934 26.3738L81.9122 26.1007ZM82.7036 26.769L82.4799 27.2163L82.4921 27.2221L82.7036 26.769ZM84.726 26.9624L84.7935 27.4578L84.726 26.9624ZM85.4646 26.769L85.2866 26.3017L85.2789 26.3047L85.4646 26.769ZM85.9043 24.7817L86.1933 24.3737L86.1933 24.3737L85.9043 24.7817ZM84.8139 24.3245L84.6866 24.8082L84.6987 24.811L84.8139 24.3245ZM83.3894 23.9903L83.2847 24.4793L83.287 24.4797L83.3894 23.9903ZM81.9825 23.5859L81.7989 24.0511L81.8097 24.055L81.9825 23.5859ZM80.8922 22.8648L80.5184 23.1971L80.5248 23.204L80.8922 22.8648ZM81.3319 19.7345L81.6332 20.1335L81.6344 20.1326L81.3319 19.7345ZM85.7987 19.4355L85.5708 19.8805L85.5772 19.8838L85.5838 19.8869L85.7987 19.4355ZM86.9067 20.35L86.4886 20.6244L86.4947 20.6333L86.9067 20.35ZM87.3639 21.5634V22.0634H87.9209L87.861 21.5097L87.3639 21.5634ZM86.0274 21.5634L85.5312 21.6255L85.586 22.0634H86.0274V21.5634ZM85.4646 20.5962L85.1403 20.9769L85.1472 20.9826L85.4646 20.5962ZM82.2112 22.2669L81.9338 22.6829L81.9338 22.6829L82.2112 22.2669ZM83.3015 22.7241L83.1742 23.2078L83.1863 23.2107L83.3015 22.7241ZM84.7084 23.0407L84.6036 23.5298L84.6169 23.5323L84.7084 23.0407ZM86.1329 23.4452L85.9493 23.9102L85.9493 23.9103L86.1329 23.4452ZM87.2232 24.2014L86.8435 24.5268L86.8495 24.5336L87.2232 24.2014ZM86.6605 27.4724L86.9447 27.8838L86.9462 27.8827L86.6605 27.4724ZM84.0577 27.6407C83.3022 27.6407 82.6946 27.5145 82.2162 27.2853L81.7841 28.1871C82.4312 28.4972 83.1953 28.6407 84.0577 28.6407V27.6407ZM82.2199 27.2871C81.7338 27.0492 81.3846 26.7509 81.1482 26.4011L80.3196 26.961C80.6695 27.4788 81.1644 27.8839 81.7804 28.1853L82.2199 27.2871ZM81.1516 26.4062C80.9043 26.0303 80.7695 25.6321 80.7403 25.205L79.7427 25.273C79.7839 25.8775 79.9773 26.4407 80.3162 26.9558L81.1516 26.4062ZM80.2415 25.739H81.6132V24.739H80.2415V25.739ZM81.1168 25.2985C81.1609 25.6662 81.2853 26.0184 81.4803 26.3526L82.3441 25.8488C82.2108 25.6203 82.1359 25.3979 82.1097 25.1794L81.1168 25.2985ZM81.4934 26.3738C81.7274 26.7326 82.0664 27.0094 82.48 27.2162L82.9272 26.3218C82.6373 26.1768 82.4487 26.008 82.331 25.8276L81.4934 26.3738ZM82.4921 27.2221C82.9329 27.4278 83.4698 27.5152 84.0753 27.5152V26.5152C83.5553 26.5152 83.1777 26.4384 82.915 26.3159L82.4921 27.2221ZM84.0753 27.5152C84.2817 27.5152 84.5228 27.4948 84.7935 27.4578L84.6584 26.467C84.4133 26.5004 84.2206 26.5152 84.0753 26.5152V27.5152ZM84.7935 27.4578C85.0907 27.4173 85.3767 27.3426 85.6503 27.2332L85.2789 26.3047C85.0835 26.3829 84.8771 26.4372 84.6584 26.467L84.7935 27.4578ZM85.6426 27.2362C85.9607 27.115 86.2354 26.9288 86.4564 26.6761L85.7038 26.0176C85.5966 26.1402 85.4609 26.2353 85.2866 26.3017L85.6426 27.2362ZM86.4564 26.6761C86.714 26.3818 86.8263 26.0176 86.8263 25.6259H85.8263C85.8263 25.8203 85.7746 25.9368 85.7038 26.0176L86.4564 26.6761ZM86.8263 25.6259C86.8263 25.1106 86.6152 24.6726 86.1933 24.3737L85.6153 25.1897C85.7561 25.2895 85.8263 25.4142 85.8263 25.6259H86.8263ZM86.1933 24.3737C85.8455 24.1273 85.4178 23.9537 84.9292 23.8379L84.6987 24.811C85.1011 24.9063 85.4003 25.0375 85.6153 25.1897L86.1933 24.3737ZM84.9412 23.8409C84.4865 23.7213 84.0034 23.608 83.4919 23.5009L83.287 24.4797C83.7838 24.5837 84.2503 24.6932 84.6867 24.808L84.9412 23.8409ZM83.4942 23.5014C83.0235 23.4006 82.5774 23.2722 82.1554 23.1167L81.8097 24.055C82.2787 24.2278 82.7705 24.3691 83.2847 24.4792L83.4942 23.5014ZM82.1661 23.1208C81.7798 22.9683 81.4826 22.7673 81.2596 22.5257L80.5248 23.204C80.8645 23.572 81.2943 23.8517 81.799 24.0509L82.1661 23.1208ZM81.2659 22.5326C81.0862 22.3305 80.9701 22.0324 80.9701 21.581H79.9701C79.9701 22.2083 80.1354 22.766 80.5185 23.197L81.2659 22.5326ZM80.9701 21.581C80.9701 20.9212 81.1985 20.4617 81.6332 20.1335L81.0306 19.3355C80.3162 19.8749 79.9701 20.6464 79.9701 21.581H80.9701ZM81.6344 20.1326C82.0976 19.7805 82.8331 19.5662 83.917 19.5662V18.5662C82.7265 18.5662 81.7385 18.7974 81.0293 19.3364L81.6344 20.1326ZM83.917 19.5662C84.6436 19.5662 85.1845 19.6827 85.5708 19.8805L86.0267 18.9905C85.4516 18.6959 84.7381 18.5662 83.917 18.5662V19.5662ZM85.5838 19.8869C86.0114 20.0906 86.3025 20.3406 86.4887 20.6243L87.3247 20.0757C87.0185 19.609 86.5709 19.2494 86.0137 18.9841L85.5838 19.8869ZM86.4947 20.6333C86.7078 20.9432 86.8292 21.2694 86.8668 21.6172L87.861 21.5097C87.8048 20.9899 87.6215 20.5071 87.3187 20.0667L86.4947 20.6333ZM87.3639 21.0634H86.0274V22.0634H87.3639V21.0634ZM86.5235 21.5014C86.4587 20.9832 86.1959 20.5499 85.782 20.2098L85.1472 20.9826C85.3898 21.1819 85.5022 21.3933 85.5312 21.6255L86.5235 21.5014ZM85.7888 20.2156C85.3342 19.8283 84.6564 19.6917 83.8819 19.6917V20.6917C84.5845 20.6917 84.9619 20.8248 85.1404 20.9768L85.7888 20.2156ZM83.8819 19.6917C83.1501 19.6917 82.5179 19.7995 82.0535 20.0805C81.5486 20.3859 81.2891 20.8684 81.2891 21.4579H82.2891C82.2891 21.2033 82.3784 21.0527 82.5711 20.9361C82.8043 20.795 83.2184 20.6917 83.8819 20.6917V19.6917ZM81.2891 21.4579C81.2891 21.9688 81.5068 22.3982 81.9338 22.6829L82.4885 21.8509C82.3528 21.7604 82.2891 21.6505 82.2891 21.4579H81.2891ZM81.9338 22.6829C82.2744 22.91 82.6933 23.0811 83.1743 23.2077L83.4288 22.2406C83.0187 22.1327 82.7106 21.999 82.4885 21.8509L81.9338 22.6829ZM83.1863 23.2107C83.6356 23.3171 84.1081 23.4234 84.6036 23.5296L84.8132 22.5518C84.3239 22.4469 83.8585 22.3422 83.4167 22.2376L83.1863 23.2107ZM84.6169 23.5323C85.0918 23.6206 85.5356 23.7469 85.9493 23.9102L86.3165 22.9801C85.8392 22.7917 85.3333 22.6484 84.7999 22.5491L84.6169 23.5323ZM85.9493 23.9103C86.3274 24.0595 86.6207 24.2668 86.8436 24.5268L87.6029 23.876C87.263 23.4794 86.8294 23.1826 86.3165 22.9801L85.9493 23.9103ZM86.8495 24.5336C87.0275 24.7338 87.1453 25.0364 87.1453 25.5028H88.1453C88.1453 24.867 87.9817 24.302 87.5969 23.8692L86.8495 24.5336ZM87.1453 25.5028C87.1453 26.2085 86.8864 26.7058 86.3747 27.0621L86.9462 27.8827C87.7477 27.3246 88.1453 26.5088 88.1453 25.5028H87.1453ZM86.3763 27.061C85.8418 27.4303 85.085 27.6407 84.0577 27.6407V28.6407C85.2111 28.6407 86.1894 28.4056 86.9447 27.8838L86.3763 27.061ZM90.1851 28H89.6851V28.5H90.1851V28ZM90.1851 26.2062V25.7062H89.6851V26.2062H90.1851ZM91.891 26.2062H92.391V25.7062H91.891V26.2062ZM91.891 28V28.5H92.391V28H91.891ZM90.6851 28V26.2062H89.6851V28H90.6851ZM90.1851 26.7062H91.891V25.7062H90.1851V26.7062ZM91.391 26.2062V28H92.391V26.2062H91.391ZM91.891 27.5H90.1851V28.5H91.891V27.5ZM94.9708 17.7297H94.4708V18.2297H94.9708V17.7297ZM94.9708 16.0062V15.5062H94.4708V16.0062H94.9708ZM96.3953 16.0062H96.8953V15.5062H96.3953V16.0062ZM96.3953 17.7297V18.2297H96.8953V17.7297H96.3953ZM95.0235 28H94.5235V28.5H95.0235V28ZM95.0235 19.2069V18.7069H94.5235V19.2069H95.0235ZM96.3425 19.2069H96.8425V18.7069H96.3425V19.2069ZM96.3425 28V28.5H96.8425V28H96.3425ZM95.4708 17.7297V16.0062H94.4708V17.7297H95.4708ZM94.9708 16.5062H96.3953V15.5062H94.9708V16.5062ZM95.8953 16.0062V17.7297H96.8953V16.0062H95.8953ZM96.3953 17.2297H94.9708V18.2297H96.3953V17.2297ZM95.5235 28V19.2069H94.5235V28H95.5235ZM95.0235 19.7069H96.3425V18.7069H95.0235V19.7069ZM95.8425 19.2069V28H96.8425V19.2069H95.8425ZM96.3425 27.5H95.0235V28.5H96.3425V27.5ZM101.18 27.5428L100.915 27.9668L100.921 27.9702L101.18 27.5428ZM99.6677 21.3172L100.112 21.547L100.113 21.5439L99.6677 21.3172ZM101.18 19.6817L101.44 20.1092L101.445 20.1057L101.18 19.6817ZM105.823 19.6817L105.554 20.1036L105.563 20.1091L105.823 19.6817ZM107.335 21.3172L106.89 21.5439L106.891 21.547L107.335 21.3172ZM107.335 25.8897L106.89 25.663L106.89 25.663L107.335 25.8897ZM105.823 27.5428L106.086 27.9681L106.088 27.9668L105.823 27.5428ZM105.155 26.4876L104.877 26.0715L104.872 26.0749L105.155 26.4876ZM106.192 25.2741L106.646 25.485L106.647 25.481L106.192 25.2741ZM106.192 21.9328L106.646 21.7219L106.646 21.7219L106.192 21.9328ZM105.155 20.7193L104.872 21.132L104.877 21.1353L105.155 20.7193ZM101.848 20.7193L101.571 20.3033L101.571 20.3033L101.848 20.7193ZM100.811 21.9328L100.357 21.7219L100.357 21.7219L100.811 21.9328ZM100.811 25.2741L100.356 25.481L100.357 25.485L100.811 25.2741ZM103.501 27.6407C102.687 27.6407 102.006 27.4593 101.44 27.1154L100.921 27.9702C101.667 28.4234 102.534 28.6407 103.501 28.6407V27.6407ZM101.445 27.1188C100.866 26.7567 100.424 26.274 100.113 25.663L99.222 26.1163C99.6148 26.8888 100.181 27.5081 100.915 27.9668L101.445 27.1188ZM100.113 25.663C99.7999 25.0466 99.6401 24.363 99.6401 23.6034H98.6401C98.6401 24.5088 98.832 25.3493 99.222 26.1163L100.113 25.663ZM99.6401 23.6034C99.6401 22.8309 99.8004 22.1489 100.112 21.547L99.2236 21.0875C98.8315 21.8456 98.6401 22.6877 98.6401 23.6034H99.6401ZM100.113 21.5439C100.423 20.9342 100.863 20.4589 101.44 20.1091L100.921 19.2543C100.184 19.7018 99.6154 20.3169 99.222 21.0906L100.113 21.5439ZM101.445 20.1057C102.011 19.7522 102.69 19.5662 103.501 19.5662V18.5662C102.531 18.5662 101.663 18.7906 100.915 19.2577L101.445 20.1057ZM103.501 19.5662C104.327 19.5662 105.003 19.7529 105.554 20.1036L106.091 19.2599C105.353 18.7899 104.482 18.5662 103.501 18.5662V19.5662ZM105.563 20.1091C106.14 20.4589 106.58 20.9342 106.89 21.5439L107.781 21.0906C107.388 20.3169 106.819 19.7018 106.082 19.2543L105.563 20.1091ZM106.891 21.547C107.202 22.1489 107.363 22.8309 107.363 23.6034H108.363C108.363 22.6877 108.171 21.8456 107.779 21.0875L106.891 21.547ZM107.363 23.6034C107.363 24.363 107.203 25.0466 106.89 25.663L107.781 26.1163C108.171 25.3493 108.363 24.5088 108.363 23.6034H107.363ZM106.89 25.663C106.579 26.274 106.137 26.7567 105.558 27.1188L106.088 27.9668C106.822 27.5081 107.388 26.8888 107.781 26.1163L106.89 25.663ZM105.56 27.1175C105.008 27.4586 104.329 27.6407 103.501 27.6407V28.6407C104.479 28.6407 105.348 28.4241 106.086 27.9681L105.56 27.1175ZM103.501 27.4448C104.237 27.4448 104.892 27.2733 105.437 26.9002L104.872 26.0749C104.526 26.3116 104.079 26.4448 103.501 26.4448V27.4448ZM105.432 26.9036C105.966 26.5472 106.373 26.0714 106.646 25.485L105.739 25.0633C105.543 25.4852 105.257 25.8183 104.877 26.0716L105.432 26.9036ZM106.647 25.481C106.913 24.8966 107.044 24.2687 107.044 23.6034H106.044C106.044 24.134 105.94 24.6199 105.737 25.0672L106.647 25.481ZM107.044 23.6034C107.044 22.9281 106.914 22.2982 106.646 21.7219L105.739 22.1436C105.94 22.5756 106.044 23.0595 106.044 23.6034H107.044ZM106.646 21.7219C106.373 21.1355 105.966 20.6597 105.432 20.3033L104.877 21.1353C105.257 21.3886 105.543 21.7217 105.739 22.1436L106.646 21.7219ZM105.437 20.3067C104.892 19.9336 104.237 19.7621 103.501 19.7621V20.7621C104.079 20.7621 104.526 20.8953 104.872 21.132L105.437 20.3067ZM103.501 19.7621C102.775 19.7621 102.124 19.9347 101.571 20.3033L102.126 21.1353C102.487 20.8942 102.938 20.7621 103.501 20.7621V19.7621ZM101.571 20.3033C101.036 20.6597 100.63 21.1355 100.357 21.7219L101.264 22.1436C101.46 21.7217 101.746 21.3886 102.126 21.1353L101.571 20.3033ZM100.357 21.7219C100.089 22.2982 99.959 22.9281 99.959 23.6034H100.959C100.959 23.0595 101.063 22.5756 101.264 22.1436L100.357 21.7219ZM99.959 23.6034C99.959 24.2687 100.09 24.8966 100.356 25.481L101.266 25.0672C101.063 24.6199 100.959 24.134 100.959 23.6034H99.959ZM100.357 25.485C100.63 26.0714 101.036 26.5472 101.571 26.9036L102.126 26.0716C101.746 25.8183 101.46 25.4852 101.264 25.0633L100.357 25.485ZM101.571 26.9036C102.124 27.2722 102.775 27.4448 103.501 27.4448V26.4448C102.938 26.4448 102.487 26.3127 102.126 26.0716L101.571 26.9036Z" fill="#335EEA"/>
<path d="M19.1519 1.39111V1.14111H18.9019H4.31023C2.27911 1.14111 0.632568 2.78766 0.632568 4.81877V25.1813C0.632568 27.2124 2.27911 28.8589 4.31023 28.8589H25.4385C27.4697 28.8589 29.1162 27.2124 29.1162 25.1813V11.3203V11.0703H28.8662H26.9075H26.6575V11.3203V25.1813C26.6575 25.8545 26.1118 26.4003 25.4385 26.4003H4.31023C3.637 26.4003 3.09123 25.8545 3.09123 25.1813V4.81877C3.09123 4.14554 3.637 3.59978 4.31023 3.59978H18.9019H19.1519V3.34978V1.39111Z" fill="#335EEA" stroke="#335EEA" stroke-width="0.5"/>
<path d="M9.01367 11.3154V11.5654H9.26367H19.8449H20.0949V11.3154V9.35669V9.10669H19.8449H9.26367H9.01367V9.35669V11.3154Z" fill="#335EEA" stroke="#335EEA" stroke-width="0.5"/>
<path d="M9.01196 16.2741V16.5241H9.26196H19.8432H20.0932V16.2741V14.3154V14.0654H19.8432H9.26196H9.01196V14.3154V16.2741Z" fill="#335EEA" stroke="#335EEA" stroke-width="0.5"/>
<path d="M9.01685 22.0449V22.2949H9.26685H19.8434H20.0934V22.0449V19.1885V18.9385H19.8434H9.26685H9.01685V19.1885V22.0449Z" fill="#335EEA" stroke="#335EEA" stroke-width="0.5"/>
<path d="M29.0992 7.45194V7.20194H28.8492H23.0483V1.4043V1.1543H22.7983H20.8396H20.5896V1.4043V8.02321C20.5896 8.92752 21.3227 9.6606 22.227 9.6606H28.8492H29.0992V9.4106V7.45194Z" fill="#335EEA" stroke="#335EEA" stroke-width="0.5"/>
</g>
<defs>
<clipPath id="clip0">
<rect width="109" height="30" fill="white"/>
</clipPath>
</defs>
</svg>
