<svg width="147" height="30" viewBox="0 0 147 30" fill="none" xmlns="http://www.w3.org/2000/svg">
<g clip-path="url(#clip0_37_2)">
<path d="M39.8592 25.949V14.695H41.3382L48.2912 24.164V14.695H49.5662V25.949H48.0872L41.1342 16.446V25.949H39.8592ZM52.004 16.021V14.355H53.381V16.021H52.004ZM52.055 25.949V17.449H53.33V25.949H52.055ZM55.5413 25.949V17.449H56.8163V18.775C57.1223 18.367 57.4963 18.0213 57.9383 17.738C58.3803 17.4546 58.9469 17.313 59.6383 17.313C60.2276 17.313 60.7773 17.4546 61.2873 17.738C61.8086 18.01 62.2279 18.4236 62.5453 18.979C62.8739 19.523 63.0383 20.1973 63.0383 21.002V25.949H61.7633V21.036C61.7633 20.2653 61.5423 19.6476 61.1003 19.183C60.6583 18.707 60.0859 18.469 59.3833 18.469C58.9073 18.469 58.4766 18.5766 58.0913 18.792C57.7059 19.0073 57.3943 19.3133 57.1563 19.71C56.9296 20.0953 56.8163 20.543 56.8163 21.053V25.949H55.5413ZM65.1192 16.021V14.355H66.4962V16.021H65.1192ZM65.1702 29.315V17.449H66.4452V29.315H65.1702ZM72.2435 26.085C71.4162 26.085 70.6908 25.8923 70.0675 25.507C69.4555 25.1103 68.9795 24.5776 68.6395 23.909C68.2995 23.2403 68.1295 22.5036 68.1295 21.699C68.1295 20.883 68.2995 20.1463 68.6395 19.489C68.9795 18.8203 69.4555 18.2933 70.0675 17.908C70.6908 17.5113 71.4162 17.313 72.2435 17.313C72.9462 17.313 73.5468 17.449 74.0455 17.721C74.5555 17.993 74.9692 18.3613 75.2865 18.826V17.449H76.5615V25.949H75.2865V24.589C74.9692 25.0423 74.5555 25.405 74.0455 25.677C73.5468 25.949 72.9462 26.085 72.2435 26.085ZM72.4135 24.929C73.0482 24.929 73.5808 24.7816 74.0115 24.487C74.4535 24.1923 74.7878 23.8013 75.0145 23.314C75.2412 22.8153 75.3545 22.277 75.3545 21.699C75.3545 21.1096 75.2412 20.5713 75.0145 20.084C74.7878 19.5966 74.4535 19.2056 74.0115 18.911C73.5808 18.6163 73.0482 18.469 72.4135 18.469C71.7902 18.469 71.2518 18.6163 70.7985 18.911C70.3452 19.2056 69.9995 19.5966 69.7615 20.084C69.5235 20.5713 69.4045 21.1096 69.4045 21.699C69.4045 22.277 69.5235 22.8153 69.7615 23.314C69.9995 23.8013 70.3452 24.1923 70.7985 24.487C71.2518 24.7816 71.7902 24.929 72.4135 24.929ZM79.0389 25.949V14.695H80.3139V25.949H79.0389ZM82.801 25.949V17.449H84.076V18.775C84.382 18.367 84.756 18.0213 85.198 17.738C85.64 17.4546 86.2067 17.313 86.898 17.313C87.4874 17.313 88.037 17.4546 88.547 17.738C89.0684 18.01 89.4877 18.4236 89.805 18.979C90.1337 19.523 90.298 20.1973 90.298 21.002V25.949H89.023V21.036C89.023 20.2653 88.802 19.6476 88.36 19.183C87.918 18.707 87.3457 18.469 86.643 18.469C86.167 18.469 85.7364 18.5766 85.351 18.792C84.9657 19.0073 84.654 19.3133 84.416 19.71C84.1894 20.0953 84.076 20.543 84.076 21.053V25.949H82.801ZM93.1487 25.949V18.571H91.4147V17.449H93.1487V14.406H94.4237V17.449H96.3787V18.571H94.4237V25.949H93.1487ZM101.384 26.085C100.522 26.085 99.7686 25.8923 99.1226 25.507C98.4766 25.1103 97.9723 24.5776 97.6096 23.909C97.2583 23.2403 97.0826 22.5036 97.0826 21.699C97.0826 20.883 97.2526 20.1463 97.5926 19.489C97.9326 18.8203 98.42 18.2933 99.0546 17.908C99.6893 17.5113 100.437 17.313 101.299 17.313C102.171 17.313 102.919 17.5113 103.543 17.908C104.177 18.2933 104.665 18.8203 105.005 19.489C105.345 20.1463 105.515 20.883 105.515 21.699V22.209H98.3916C98.4596 22.7076 98.6183 23.1666 98.8676 23.586C99.1283 23.994 99.474 24.3226 99.9046 24.572C100.335 24.81 100.834 24.929 101.401 24.929C102.001 24.929 102.506 24.7986 102.914 24.538C103.322 24.266 103.639 23.9203 103.866 23.501H105.26C104.965 24.2603 104.495 24.8836 103.849 25.371C103.214 25.847 102.392 26.085 101.384 26.085ZM98.4086 21.019H104.189C104.075 20.2936 103.769 19.6873 103.271 19.2C102.772 18.7126 102.115 18.469 101.299 18.469C100.483 18.469 99.8253 18.7126 99.3266 19.2C98.8393 19.6873 98.5333 20.2936 98.4086 21.019ZM107.073 25.949V17.449H108.348V19.54C108.393 19.3926 108.478 19.2 108.603 18.962C108.739 18.7126 108.931 18.4633 109.181 18.214C109.43 17.9646 109.742 17.755 110.116 17.585C110.501 17.4036 110.954 17.313 111.476 17.313H111.561V18.588H111.408C110.773 18.588 110.223 18.7636 109.759 19.115C109.305 19.455 108.954 19.9026 108.705 20.458C108.467 21.002 108.348 21.5856 108.348 22.209V25.949H107.073ZM115.245 25.949L111.913 17.449H113.307L115.993 24.589L118.662 17.449H120.056L116.741 25.949H115.245ZM121.199 16.021V14.355H122.576V16.021H121.199ZM121.25 25.949V17.449H122.525V25.949H121.25ZM128.511 26.085C127.649 26.085 126.896 25.8923 126.25 25.507C125.604 25.1103 125.099 24.5776 124.737 23.909C124.385 23.2403 124.21 22.5036 124.21 21.699C124.21 20.883 124.38 20.1463 124.72 19.489C125.06 18.8203 125.547 18.2933 126.182 17.908C126.816 17.5113 127.564 17.313 128.426 17.313C129.298 17.313 130.046 17.5113 130.67 17.908C131.304 18.2933 131.792 18.8203 132.132 19.489C132.472 20.1463 132.642 20.883 132.642 21.699V22.209H125.519C125.587 22.7076 125.745 23.1666 125.995 23.586C126.255 23.994 126.601 24.3226 127.032 24.572C127.462 24.81 127.961 24.929 128.528 24.929C129.128 24.929 129.633 24.7986 130.041 24.538C130.449 24.266 130.766 23.9203 130.993 23.501H132.387C132.092 24.2603 131.622 24.8836 130.976 25.371C130.341 25.847 129.519 26.085 128.511 26.085ZM125.536 21.019H131.316C131.202 20.2936 130.896 19.6873 130.398 19.2C129.899 18.7126 129.242 18.469 128.426 18.469C127.61 18.469 126.952 18.7126 126.454 19.2C125.966 19.6873 125.66 20.2936 125.536 21.019ZM135.848 25.949L133.179 17.449H134.539L136.579 24.368L138.738 17.449H140.132L142.291 24.368L144.331 17.449H145.691L143.022 25.949H141.56L139.435 19.166L137.31 25.949H135.848Z" fill="#335EEA"/>
<path d="M39.8592 25.949H39.5592V26.249H39.8592V25.949ZM39.8592 14.695V14.395H39.5592V14.695H39.8592ZM41.3382 14.695L41.58 14.5174L41.4901 14.395H41.3382V14.695ZM48.2912 24.164L48.0494 24.3415L48.5912 25.0794V24.164H48.2912ZM48.2912 14.695V14.395H47.9912V14.695H48.2912ZM49.5662 14.695H49.8662V14.395H49.5662V14.695ZM49.5662 25.949V26.249H49.8662V25.949H49.5662ZM48.0872 25.949L47.8451 26.1261L47.935 26.249H48.0872V25.949ZM41.1342 16.446L41.3763 16.2688L40.8342 15.5279V16.446H41.1342ZM41.1342 25.949V26.249H41.4342V25.949H41.1342ZM40.1592 25.949V14.695H39.5592V25.949H40.1592ZM39.8592 14.995H41.3382V14.395H39.8592V14.995ZM41.0964 14.8725L48.0494 24.3415L48.533 23.9864L41.58 14.5174L41.0964 14.8725ZM48.5912 24.164V14.695H47.9912V24.164H48.5912ZM48.2912 14.995H49.5662V14.395H48.2912V14.995ZM49.2662 14.695V25.949H49.8662V14.695H49.2662ZM49.5662 25.649H48.0872V26.249H49.5662V25.649ZM48.3293 25.7718L41.3763 16.2688L40.8921 16.6231L47.8451 26.1261L48.3293 25.7718ZM40.8342 16.446V25.949H41.4342V16.446H40.8342ZM41.1342 25.649H39.8592V26.249H41.1342V25.649ZM52.004 16.021H51.704V16.321H52.004V16.021ZM52.004 14.355V14.055H51.704V14.355H52.004ZM53.381 14.355H53.681V14.055H53.381V14.355ZM53.381 16.021V16.321H53.681V16.021H53.381ZM52.055 25.949H51.755V26.249H52.055V25.949ZM52.055 17.449V17.149H51.755V17.449H52.055ZM53.33 17.449H53.63V17.149H53.33V17.449ZM53.33 25.949V26.249H53.63V25.949H53.33ZM52.304 16.021V14.355H51.704V16.021H52.304ZM52.004 14.655H53.381V14.055H52.004V14.655ZM53.081 14.355V16.021H53.681V14.355H53.081ZM53.381 15.721H52.004V16.321H53.381V15.721ZM52.355 25.949V17.449H51.755V25.949H52.355ZM52.055 17.749H53.33V17.149H52.055V17.749ZM53.03 17.449V25.949H53.63V17.449H53.03ZM53.33 25.649H52.055V26.249H53.33V25.649ZM55.5413 25.949H55.2413V26.249H55.5413V25.949ZM55.5413 17.449V17.149H55.2413V17.449H55.5413ZM56.8163 17.449H57.1163V17.149H56.8163V17.449ZM56.8163 18.775H56.5163V19.675L57.0563 18.955L56.8163 18.775ZM57.9383 17.738L58.1002 17.9905L57.9383 17.738ZM61.2873 17.738L61.1415 18.0003L61.1485 18.004L61.2873 17.738ZM62.5453 18.979L62.2847 19.1279L62.2885 19.1341L62.5453 18.979ZM63.0383 25.949V26.249H63.3383V25.949H63.0383ZM61.7633 25.949H61.4633V26.249H61.7633V25.949ZM61.1003 19.183L60.8804 19.3871L60.8829 19.3897L61.1003 19.183ZM58.0913 18.792L57.9449 18.5301V18.5301L58.0913 18.792ZM57.1563 19.71L56.899 19.5556L56.8977 19.5579L57.1563 19.71ZM56.8163 25.949V26.249H57.1163V25.949H56.8163ZM55.8413 25.949V17.449H55.2413V25.949H55.8413ZM55.5413 17.749H56.8163V17.149H55.5413V17.749ZM56.5163 17.449V18.775H57.1163V17.449H56.5163ZM57.0563 18.955C57.3402 18.5765 57.6874 18.2551 58.1002 17.9905L57.7764 17.4854C57.3051 17.7875 56.9044 18.1575 56.5763 18.595L57.0563 18.955ZM58.1002 17.9905C58.4808 17.7466 58.9865 17.613 59.6383 17.613V17.013C58.9074 17.013 58.2798 17.1627 57.7764 17.4854L58.1002 17.9905ZM59.6383 17.613C60.1772 17.613 60.6766 17.7419 61.1416 18.0002L61.433 17.4757C60.8779 17.1674 60.2781 17.013 59.6383 17.013V17.613ZM61.1485 18.004C61.6144 18.247 61.9934 18.6178 62.2848 19.1278L62.8058 18.8301C62.4625 18.2295 62.0028 17.7729 61.4261 17.472L61.1485 18.004ZM62.2885 19.1341C62.5823 19.6204 62.7383 20.2376 62.7383 21.002H63.3383C63.3383 20.157 63.1656 19.4256 62.8021 18.8238L62.2885 19.1341ZM62.7383 21.002V25.949H63.3383V21.002H62.7383ZM63.0383 25.649H61.7633V26.249H63.0383V25.649ZM62.0633 25.949V21.036H61.4633V25.949H62.0633ZM62.0633 21.036C62.0633 20.2048 61.8231 19.5075 61.3176 18.9762L60.8829 19.3897C61.2615 19.7877 61.4633 20.3258 61.4633 21.036H62.0633ZM61.3201 18.9788C60.8164 18.4363 60.1617 18.169 59.3833 18.169V18.769C60.0101 18.769 60.5002 18.9776 60.8804 19.3871L61.3201 18.9788ZM59.3833 18.169C58.8602 18.169 58.3785 18.2878 57.9449 18.5301L58.2376 19.0539C58.5748 18.8655 58.9544 18.769 59.3833 18.769V18.169ZM57.9449 18.5301C57.5117 18.7722 57.1626 19.1163 56.899 19.5556L57.4135 19.8643C57.6259 19.5103 57.9002 19.2424 58.2376 19.0539L57.9449 18.5301ZM56.8977 19.5579C56.6403 19.9955 56.5163 20.4972 56.5163 21.053H57.1163C57.1163 20.5888 57.219 20.1951 57.4149 19.8621L56.8977 19.5579ZM56.5163 21.053V25.949H57.1163V21.053H56.5163ZM56.8163 25.649H55.5413V26.249H56.8163V25.649ZM65.1192 16.021H64.8192V16.321H65.1192V16.021ZM65.1192 14.355V14.055H64.8192V14.355H65.1192ZM66.4962 14.355H66.7962V14.055H66.4962V14.355ZM66.4962 16.021V16.321H66.7962V16.021H66.4962ZM65.1702 29.315H64.8702V29.615H65.1702V29.315ZM65.1702 17.449V17.149H64.8702V17.449H65.1702ZM66.4452 17.449H66.7452V17.149H66.4452V17.449ZM66.4452 29.315V29.615H66.7452V29.315H66.4452ZM65.4192 16.021V14.355H64.8192V16.021H65.4192ZM65.1192 14.655H66.4962V14.055H65.1192V14.655ZM66.1962 14.355V16.021H66.7962V14.355H66.1962ZM66.4962 15.721H65.1192V16.321H66.4962V15.721ZM65.4702 29.315V17.449H64.8702V29.315H65.4702ZM65.1702 17.749H66.4452V17.149H65.1702V17.749ZM66.1452 17.449V29.315H66.7452V17.449H66.1452ZM66.4452 29.015H65.1702V29.615H66.4452V29.015ZM70.0675 25.507L69.9043 25.7588L69.9098 25.7622L70.0675 25.507ZM68.6395 19.489L68.906 19.6268L68.9069 19.6249L68.6395 19.489ZM70.0675 17.908L70.2274 18.1618L70.2286 18.1611L70.0675 17.908ZM74.0455 17.721L73.9019 17.9844L73.9043 17.9857L74.0455 17.721ZM75.2865 18.826L75.0388 18.9952L75.5865 19.7972V18.826H75.2865ZM75.2865 17.449V17.149H74.9865V17.449H75.2865ZM76.5615 17.449H76.8615V17.149H76.5615V17.449ZM76.5615 25.949V26.249H76.8615V25.949H76.5615ZM75.2865 25.949H74.9865V26.249H75.2865V25.949ZM75.2865 24.589H75.5865V23.6373L75.0407 24.4169L75.2865 24.589ZM74.0455 25.677L73.9043 25.4123L73.9019 25.4136L74.0455 25.677ZM74.0115 24.487L73.8451 24.2373L73.8421 24.2394L74.0115 24.487ZM75.0145 23.314L75.2865 23.4405L75.2876 23.4381L75.0145 23.314ZM75.0145 20.084L74.7425 20.2105L75.0145 20.084ZM74.0115 18.911L73.8421 19.1586L73.8451 19.1606L74.0115 18.911ZM70.7985 18.911L70.635 18.6594L70.7985 18.911ZM69.7615 20.084L69.4919 19.9523L69.7615 20.084ZM69.7615 23.314L69.4908 23.4432L69.4919 23.4456L69.7615 23.314ZM70.7985 24.487L70.962 24.2354L70.7985 24.487ZM72.2435 25.785C71.4645 25.785 70.7953 25.6042 70.2253 25.2518L69.9098 25.7622C70.5864 26.1804 71.3678 26.385 72.2435 26.385V25.785ZM70.2307 25.2552C69.6643 24.8881 69.2237 24.396 68.9069 23.773L68.3721 24.0449C68.7353 24.7593 69.2467 25.3325 69.9043 25.7587L70.2307 25.2552ZM68.9069 23.773C68.5899 23.1495 68.4295 22.4599 68.4295 21.699H67.8295C67.8295 22.5474 68.0091 23.3311 68.3721 24.0449L68.9069 23.773ZM68.4295 21.699C68.4295 20.9259 68.5902 20.2373 68.906 19.6268L68.373 19.3511C68.0088 20.0553 67.8295 20.84 67.8295 21.699H68.4295ZM68.9069 19.6249C69.2233 19.0027 69.663 18.5172 70.2274 18.1618L69.9077 17.6541C69.2481 18.0694 68.7357 18.6379 68.3721 19.353L68.9069 19.6249ZM70.2286 18.1611C70.7982 17.7986 71.4662 17.613 72.2435 17.613V17.013C71.3662 17.013 70.5835 17.224 69.9065 17.6549L70.2286 18.1611ZM72.2435 17.613C72.9077 17.613 73.4565 17.7414 73.9019 17.9843L74.1892 17.4576C73.6372 17.1565 72.9846 17.013 72.2435 17.013V17.613ZM73.9043 17.9857C74.3728 18.2355 74.7495 18.5716 75.0388 18.9952L75.5343 18.6568C75.1889 18.151 74.7382 17.7504 74.1867 17.4563L73.9043 17.9857ZM75.5865 18.826V17.449H74.9865V18.826H75.5865ZM75.2865 17.749H76.5615V17.149H75.2865V17.749ZM76.2615 17.449V25.949H76.8615V17.449H76.2615ZM76.5615 25.649H75.2865V26.249H76.5615V25.649ZM75.5865 25.949V24.589H74.9865V25.949H75.5865ZM75.0407 24.4169C74.7517 24.8298 74.3746 25.1615 73.9043 25.4123L74.1867 25.9417C74.7365 25.6485 75.1866 25.2548 75.5323 24.761L75.0407 24.4169ZM73.9019 25.4136C73.4565 25.6565 72.9077 25.785 72.2435 25.785V26.385C72.9846 26.385 73.6372 26.2414 74.1892 25.9403L73.9019 25.4136ZM72.4135 25.229C73.0954 25.229 73.6904 25.0702 74.1809 24.7346L73.8421 24.2394C73.4713 24.4931 73.001 24.629 72.4135 24.629V25.229ZM74.1779 24.7366C74.6663 24.411 75.0369 23.9772 75.2865 23.4405L74.7425 23.1875C74.5388 23.6255 74.2407 23.9736 73.8451 24.2374L74.1779 24.7366ZM75.2876 23.4381C75.533 22.8983 75.6545 22.3174 75.6545 21.699H75.0545C75.0545 22.2366 74.9494 22.7323 74.7414 23.1898L75.2876 23.4381ZM75.6545 21.699C75.6545 21.0702 75.5333 20.4881 75.2865 19.9575L74.7425 20.2105C74.949 20.6545 75.0545 21.1491 75.0545 21.699H75.6545ZM75.2865 19.9575C75.0369 19.4208 74.6663 18.987 74.1779 18.6614L73.8451 19.1606C74.2407 19.4243 74.5388 19.7725 74.7425 20.2105L75.2865 19.9575ZM74.1809 18.6634C73.6904 18.3278 73.0954 18.169 72.4135 18.169V18.769C73.001 18.769 73.4713 18.9048 73.8421 19.1586L74.1809 18.6634ZM72.4135 18.169C71.7412 18.169 71.1441 18.3285 70.635 18.6594L70.962 19.1625C71.3596 18.9041 71.8391 18.769 72.4135 18.769V18.169ZM70.635 18.6594C70.136 18.9838 69.7537 19.4163 69.4919 19.9523L70.0311 20.2156C70.2453 19.777 70.5544 19.4275 70.962 19.1625L70.635 18.6594ZM69.4919 19.9523C69.2322 20.4841 69.1045 21.068 69.1045 21.699H69.7045C69.7045 21.1512 69.8148 20.6585 70.0311 20.2156L69.4919 19.9523ZM69.1045 21.699C69.1045 22.3196 69.2326 22.9023 69.4908 23.4432L70.0323 23.1848C69.8144 22.7283 69.7045 22.2344 69.7045 21.699H69.1045ZM69.4919 23.4456C69.7537 23.9816 70.136 24.4141 70.635 24.7385L70.962 24.2354C70.5544 23.9705 70.2453 23.621 70.0311 23.1823L69.4919 23.4456ZM70.635 24.7385C71.1441 25.0694 71.7412 25.229 72.4135 25.229V24.629C71.8391 24.629 71.3596 24.4939 70.962 24.2354L70.635 24.7385ZM79.0389 25.949H78.7389V26.249H79.0389V25.949ZM79.0389 14.695V14.395H78.7389V14.695H79.0389ZM80.3139 14.695H80.6139V14.395H80.3139V14.695ZM80.3139 25.949V26.249H80.6139V25.949H80.3139ZM79.3389 25.949V14.695H78.7389V25.949H79.3389ZM79.0389 14.995H80.3139V14.395H79.0389V14.995ZM80.0139 14.695V25.949H80.6139V14.695H80.0139ZM80.3139 25.649H79.0389V26.249H80.3139V25.649ZM82.801 25.949H82.501V26.249H82.801V25.949ZM82.801 17.449V17.149H82.501V17.449H82.801ZM84.076 17.449H84.376V17.149H84.076V17.449ZM84.076 18.775H83.776V19.675L84.316 18.955L84.076 18.775ZM85.198 17.738L85.3599 17.9905L85.198 17.738ZM88.547 17.738L88.4013 18.0003L88.4083 18.004L88.547 17.738ZM89.805 18.979L89.5445 19.1279L89.5483 19.1341L89.805 18.979ZM90.298 25.949V26.249H90.598V25.949H90.298ZM89.023 25.949H88.723V26.249H89.023V25.949ZM88.36 19.183L88.1402 19.3871L88.1427 19.3897L88.36 19.183ZM85.351 18.792L85.2047 18.5301L85.2047 18.5301L85.351 18.792ZM84.416 19.71L84.1588 19.5556L84.1575 19.5579L84.416 19.71ZM84.076 25.949V26.249H84.376V25.949H84.076ZM83.101 25.949V17.449H82.501V25.949H83.101ZM82.801 17.749H84.076V17.149H82.801V17.749ZM83.776 17.449V18.775H84.376V17.449H83.776ZM84.316 18.955C84.5999 18.5765 84.9472 18.2551 85.3599 17.9905L85.0361 17.4854C84.5649 17.7875 84.1642 18.1575 83.836 18.595L84.316 18.955ZM85.3599 17.9905C85.7405 17.7466 86.2463 17.613 86.898 17.613V17.013C86.1671 17.013 85.5396 17.1627 85.0361 17.4854L85.3599 17.9905ZM86.898 17.613C87.4369 17.613 87.9364 17.7419 88.4014 18.0002L88.6927 17.4757C88.1377 17.1674 87.5378 17.013 86.898 17.013V17.613ZM88.4083 18.004C88.8742 18.247 89.2531 18.6178 89.5446 19.1278L90.0655 18.8301C89.7223 18.2295 89.2626 17.7729 88.6858 17.472L88.4083 18.004ZM89.5483 19.1341C89.8421 19.6204 89.998 20.2376 89.998 21.002H90.598C90.598 20.157 90.4254 19.4256 90.0618 18.8238L89.5483 19.1341ZM89.998 21.002V25.949H90.598V21.002H89.998ZM90.298 25.649H89.023V26.249H90.298V25.649ZM89.323 25.949V21.036H88.723V25.949H89.323ZM89.323 21.036C89.323 20.2048 89.0828 19.5075 88.5774 18.9762L88.1427 19.3897C88.5213 19.7877 88.723 20.3258 88.723 21.036H89.323ZM88.5799 18.9788C88.0761 18.4363 87.4215 18.169 86.643 18.169V18.769C87.2699 18.769 87.76 18.9776 88.1402 19.3871L88.5799 18.9788ZM86.643 18.169C86.1199 18.169 85.6382 18.2878 85.2047 18.5301L85.4974 19.0539C85.8345 18.8655 86.2141 18.769 86.643 18.769V18.169ZM85.2047 18.5301C84.7714 18.7722 84.4224 19.1163 84.1588 19.5556L84.6733 19.8643C84.8857 19.5103 85.16 19.2424 85.4974 19.0539L85.2047 18.5301ZM84.1575 19.5579C83.9 19.9955 83.776 20.4972 83.776 21.053H84.376C84.376 20.5888 84.4787 20.1951 84.6746 19.8621L84.1575 19.5579ZM83.776 21.053V25.949H84.376V21.053H83.776ZM84.076 25.649H82.801V26.249H84.076V25.649ZM93.1487 25.949H92.8487V26.249H93.1487V25.949ZM93.1487 18.571H93.4487V18.271H93.1487V18.571ZM91.4147 18.571H91.1147V18.871H91.4147V18.571ZM91.4147 17.449V17.149H91.1147V17.449H91.4147ZM93.1487 17.449V17.749H93.4487V17.449H93.1487ZM93.1487 14.406V14.106H92.8487V14.406H93.1487ZM94.4237 14.406H94.7237V14.106H94.4237V14.406ZM94.4237 17.449H94.1237V17.749H94.4237V17.449ZM96.3787 17.449H96.6787V17.149H96.3787V17.449ZM96.3787 18.571V18.871H96.6787V18.571H96.3787ZM94.4237 18.571V18.271H94.1237V18.571H94.4237ZM94.4237 25.949V26.249H94.7237V25.949H94.4237ZM93.4487 25.949V18.571H92.8487V25.949H93.4487ZM93.1487 18.271H91.4147V18.871H93.1487V18.271ZM91.7147 18.571V17.449H91.1147V18.571H91.7147ZM91.4147 17.749H93.1487V17.149H91.4147V17.749ZM93.4487 17.449V14.406H92.8487V17.449H93.4487ZM93.1487 14.706H94.4237V14.106H93.1487V14.706ZM94.1237 14.406V17.449H94.7237V14.406H94.1237ZM94.4237 17.749H96.3787V17.149H94.4237V17.749ZM96.0787 17.449V18.571H96.6787V17.449H96.0787ZM96.3787 18.271H94.4237V18.871H96.3787V18.271ZM94.1237 18.571V25.949H94.7237V18.571H94.1237ZM94.4237 25.649H93.1487V26.249H94.4237V25.649ZM99.1226 25.507L98.9656 25.7626L98.969 25.7646L99.1226 25.507ZM97.6096 23.909L97.344 24.0485L97.3459 24.052L97.6096 23.909ZM97.5926 19.489L97.8591 19.6268L97.8601 19.6249L97.5926 19.489ZM99.0546 17.908L99.2103 18.1644L99.2136 18.1624L99.0546 17.908ZM103.543 17.908L103.382 18.1611L103.387 18.1644L103.543 17.908ZM105.005 19.489L104.737 19.625L104.738 19.6268L105.005 19.489ZM105.515 22.209V22.509H105.815V22.209H105.515ZM98.3916 22.209V21.909H98.048L98.0944 22.2495L98.3916 22.209ZM98.8676 23.586L98.6096 23.7394L98.6148 23.7475L98.8676 23.586ZM99.9046 24.572L99.7543 24.8317L99.7595 24.8345L99.9046 24.572ZM102.914 24.538L103.075 24.7908L103.08 24.7876L102.914 24.538ZM103.866 23.501V23.201H103.687L103.602 23.3583L103.866 23.501ZM105.26 23.501L105.539 23.6095L105.698 23.201H105.26V23.501ZM103.849 25.371L104.029 25.611L104.029 25.6105L103.849 25.371ZM98.4086 21.019L98.113 20.9682L98.0527 21.319H98.4086V21.019ZM104.189 21.019V21.319H104.539L104.485 20.9727L104.189 21.019ZM103.271 19.2L103.48 18.9854L103.271 19.2ZM99.3266 19.2L99.1169 18.9854L99.1145 18.9878L99.3266 19.2ZM101.384 25.785C100.568 25.785 99.8694 25.6031 99.2763 25.2493L98.969 25.7646C99.6678 26.1815 100.476 26.385 101.384 26.385V25.785ZM99.2796 25.2513C98.6786 24.8823 98.211 24.3885 97.8733 23.7659L97.3459 24.052C97.7336 24.7668 98.2747 25.3383 98.9657 25.7626L99.2796 25.2513ZM97.8752 23.7694C97.548 23.1466 97.3826 22.4583 97.3826 21.699H96.7826C96.7826 22.549 96.9687 23.334 97.3441 24.0485L97.8752 23.7694ZM97.3826 21.699C97.3826 20.9259 97.5433 20.2373 97.8591 19.6268L97.3262 19.3511C96.9619 20.0553 96.7826 20.84 96.7826 21.699H97.3826ZM97.8601 19.6249C98.175 19.0055 98.6239 18.5205 99.2103 18.1644L98.8989 17.6515C98.216 18.0662 97.6903 18.6351 97.3252 19.353L97.8601 19.6249ZM99.2136 18.1624C99.7938 17.7998 100.485 17.613 101.299 17.613V17.013C100.39 17.013 99.5848 17.2228 98.8956 17.6536L99.2136 18.1624ZM101.299 17.613C102.125 17.613 102.815 17.8002 103.382 18.1611L103.704 17.6549C103.024 17.2224 102.218 17.013 101.299 17.013V17.613ZM103.387 18.1644C103.973 18.5205 104.422 19.0055 104.737 19.6249L105.272 19.353C104.907 18.6351 104.381 18.0662 103.698 17.6515L103.387 18.1644ZM104.738 19.6268C105.054 20.2373 105.215 20.9259 105.215 21.699H105.815C105.815 20.84 105.635 20.0553 105.271 19.3511L104.738 19.6268ZM105.215 21.699V22.209H105.815V21.699H105.215ZM105.515 21.909H98.3916V22.509H105.515V21.909ZM98.0944 22.2495C98.1676 22.7867 98.3392 23.2843 98.6098 23.7393L99.1255 23.4327C98.8974 23.049 98.7516 22.6285 98.6889 22.1684L98.0944 22.2495ZM98.6148 23.7475C98.9021 24.1971 99.2833 24.5589 99.7543 24.8316L100.055 24.3123C99.6646 24.0864 99.3545 23.7909 99.1204 23.4245L98.6148 23.7475ZM99.7595 24.8345C100.241 25.1006 100.791 25.229 101.401 25.229V24.629C100.877 24.629 100.43 24.5193 100.05 24.3094L99.7595 24.8345ZM101.401 25.229C102.045 25.229 102.608 25.0889 103.075 24.7908L102.752 24.2852C102.403 24.5084 101.958 24.629 101.401 24.629V25.229ZM103.08 24.7876C103.528 24.4892 103.879 24.1073 104.13 23.6436L103.602 23.3583C103.399 23.7333 103.116 24.0427 102.747 24.2884L103.08 24.7876ZM103.866 23.801H105.26V23.201H103.866V23.801ZM104.98 23.3924C104.705 24.1001 104.269 24.678 103.668 25.1315L104.029 25.6105C104.72 25.0893 105.225 24.4205 105.539 23.6095L104.98 23.3924ZM103.669 25.131C103.099 25.5586 102.345 25.785 101.384 25.785V26.385C102.439 26.385 103.329 26.1354 104.029 25.611L103.669 25.131ZM98.4086 21.319H104.189V20.719H98.4086V21.319ZM104.485 20.9727C104.362 20.187 104.028 19.5205 103.48 18.9854L103.061 19.4145C103.511 19.8541 103.788 20.4003 103.892 21.0653L104.485 20.9727ZM103.48 18.9854C102.916 18.434 102.179 18.169 101.299 18.169V18.769C102.051 18.769 102.628 18.9912 103.061 19.4145L103.48 18.9854ZM101.299 18.169C100.419 18.169 99.6812 18.434 99.117 18.9854L99.5363 19.4145C99.9694 18.9912 100.547 18.769 101.299 18.769V18.169ZM99.1145 18.9878C98.5803 19.5221 98.2474 20.1861 98.113 20.9682L98.7043 21.0698C98.8192 20.4012 99.0983 19.8526 99.5388 19.4121L99.1145 18.9878ZM107.073 25.949H106.773V26.249H107.073V25.949ZM107.073 17.449V17.149H106.773V17.449H107.073ZM108.348 17.449H108.648V17.149H108.348V17.449ZM108.348 19.54H108.048L108.634 19.6282L108.348 19.54ZM108.603 18.962L108.339 18.8183L108.337 18.8228L108.603 18.962ZM109.181 18.214L109.393 18.4261L109.181 18.214ZM110.116 17.585L110.24 17.8581L110.243 17.8564L110.116 17.585ZM111.561 17.313H111.861V17.013H111.561V17.313ZM111.561 18.588V18.888H111.861V18.588H111.561ZM109.759 19.115L109.939 19.355L109.939 19.3543L109.759 19.115ZM108.705 20.458L108.431 20.3351L108.43 20.3377L108.705 20.458ZM108.348 25.949V26.249H108.648V25.949H108.348ZM107.373 25.949V17.449H106.773V25.949H107.373ZM107.073 17.749H108.348V17.149H107.073V17.749ZM108.048 17.449V19.54H108.648V17.449H108.048ZM108.634 19.6282C108.672 19.5068 108.747 19.333 108.868 19.1012L108.337 18.8228C108.209 19.067 108.114 19.2785 108.061 19.4517L108.634 19.6282ZM108.866 19.1056C108.985 18.8867 109.159 18.6599 109.393 18.4261L108.968 18.0018C108.703 18.2668 108.492 18.5386 108.339 18.8183L108.866 19.1056ZM109.393 18.4261C109.613 18.206 109.893 18.0156 110.24 17.8581L109.991 17.3119C109.59 17.4943 109.247 17.7232 108.968 18.0018L109.393 18.4261ZM110.243 17.8564C110.581 17.6976 110.989 17.613 111.476 17.613V17.013C110.92 17.013 110.421 17.1097 109.988 17.3135L110.243 17.8564ZM111.476 17.613H111.561V17.013H111.476V17.613ZM111.261 17.313V18.588H111.861V17.313H111.261ZM111.561 18.288H111.408V18.888H111.561V18.288ZM111.408 18.288C110.714 18.288 110.099 18.4814 109.578 18.8757L109.939 19.3543C110.347 19.0459 110.832 18.888 111.408 18.888V18.288ZM109.579 18.875C109.082 19.2477 108.699 19.737 108.431 20.3351L108.978 20.5809C109.208 20.0683 109.529 19.6622 109.939 19.355L109.579 18.875ZM108.43 20.3377C108.174 20.9215 108.048 21.5464 108.048 22.209H108.648C108.648 21.6249 108.759 21.0824 108.979 20.5782L108.43 20.3377ZM108.048 22.209V25.949H108.648V22.209H108.048ZM108.348 25.649H107.073V26.249H108.348V25.649ZM115.245 25.949L114.966 26.0585L115.04 26.249H115.245V25.949ZM111.913 17.449V17.149H111.473L111.634 17.5585L111.913 17.449ZM113.307 17.449L113.588 17.3433L113.515 17.149H113.307V17.449ZM115.993 24.589L115.712 24.6946L115.994 25.4434L116.274 24.694L115.993 24.589ZM118.662 17.449V17.149H118.454L118.381 17.3439L118.662 17.449ZM120.056 17.449L120.335 17.558L120.495 17.149H120.056V17.449ZM116.741 25.949V26.249H116.946L117.02 26.058L116.741 25.949ZM115.524 25.8395L112.192 17.3395L111.634 17.5585L114.966 26.0585L115.524 25.8395ZM111.913 17.749H113.307V17.149H111.913V17.749ZM113.026 17.5546L115.712 24.6946L116.274 24.4833L113.588 17.3433L113.026 17.5546ZM116.274 24.694L118.943 17.554L118.381 17.3439L115.712 24.4839L116.274 24.694ZM118.662 17.749H120.056V17.149H118.662V17.749ZM119.776 17.34L116.461 25.84L117.02 26.058L120.335 17.558L119.776 17.34ZM116.741 25.649H115.245V26.249H116.741V25.649ZM121.199 16.021H120.899V16.321H121.199V16.021ZM121.199 14.355V14.055H120.899V14.355H121.199ZM122.576 14.355H122.876V14.055H122.576V14.355ZM122.576 16.021V16.321H122.876V16.021H122.576ZM121.25 25.949H120.95V26.249H121.25V25.949ZM121.25 17.449V17.149H120.95V17.449H121.25ZM122.525 17.449H122.825V17.149H122.525V17.449ZM122.525 25.949V26.249H122.825V25.949H122.525ZM121.499 16.021V14.355H120.899V16.021H121.499ZM121.199 14.655H122.576V14.055H121.199V14.655ZM122.276 14.355V16.021H122.876V14.355H122.276ZM122.576 15.721H121.199V16.321H122.576V15.721ZM121.55 25.949V17.449H120.95V25.949H121.55ZM121.25 17.749H122.525V17.149H121.25V17.749ZM122.225 17.449V25.949H122.825V17.449H122.225ZM122.525 25.649H121.25V26.249H122.525V25.649ZM126.25 25.507L126.093 25.7626L126.096 25.7646L126.25 25.507ZM124.737 23.909L124.471 24.0485L124.473 24.052L124.737 23.909ZM124.72 19.489L124.986 19.6268L124.987 19.6249L124.72 19.489ZM126.182 17.908L126.337 18.1644L126.341 18.1624L126.182 17.908ZM130.67 17.908L130.508 18.1611L130.514 18.1644L130.67 17.908ZM132.132 19.489L131.864 19.625L131.865 19.6268L132.132 19.489ZM132.642 22.209V22.509H132.942V22.209H132.642ZM125.519 22.209V21.909H125.175L125.221 22.2495L125.519 22.209ZM125.995 23.586L125.737 23.7394L125.742 23.7475L125.995 23.586ZM127.032 24.572L126.881 24.8317L126.886 24.8345L127.032 24.572ZM130.041 24.538L130.202 24.7908L130.207 24.7876L130.041 24.538ZM130.993 23.501V23.201H130.814L130.729 23.3583L130.993 23.501ZM132.387 23.501L132.666 23.6095L132.825 23.201H132.387V23.501ZM130.976 25.371L131.156 25.611L131.156 25.6105L130.976 25.371ZM125.536 21.019L125.24 20.9682L125.18 21.319H125.536V21.019ZM131.316 21.019V21.319H131.666L131.612 20.9727L131.316 21.019ZM130.398 19.2L130.607 18.9854L130.398 19.2ZM126.454 19.2L126.244 18.9854L126.241 18.9878L126.454 19.2ZM128.511 25.785C127.695 25.785 126.996 25.6031 126.403 25.2493L126.096 25.7646C126.795 26.1815 127.603 26.385 128.511 26.385V25.785ZM126.407 25.2513C125.806 24.8823 125.338 24.3885 125 23.7659L124.473 24.052C124.861 24.7668 125.402 25.3383 126.093 25.7626L126.407 25.2513ZM125.002 23.7694C124.675 23.1466 124.51 22.4583 124.51 21.699H123.91C123.91 22.549 124.096 23.334 124.471 24.0485L125.002 23.7694ZM124.51 21.699C124.51 20.9259 124.67 20.2373 124.986 19.6268L124.453 19.3511C124.089 20.0553 123.91 20.84 123.91 21.699H124.51ZM124.987 19.6249C125.302 19.0055 125.751 18.5205 126.337 18.1644L126.026 17.6515C125.343 18.0662 124.817 18.6351 124.452 19.353L124.987 19.6249ZM126.341 18.1624C126.921 17.7998 127.612 17.613 128.426 17.613V17.013C127.517 17.013 126.712 17.2228 126.023 17.6536L126.341 18.1624ZM128.426 17.613C129.252 17.613 129.941 17.8002 130.509 18.1611L130.831 17.6549C130.151 17.2224 129.345 17.013 128.426 17.013V17.613ZM130.514 18.1644C131.1 18.5205 131.549 19.0055 131.864 19.6249L132.399 19.353C132.034 18.6351 131.508 18.0662 130.825 17.6515L130.514 18.1644ZM131.865 19.6268C132.181 20.2373 132.342 20.9259 132.342 21.699H132.942C132.942 20.84 132.762 20.0553 132.398 19.3511L131.865 19.6268ZM132.342 21.699V22.209H132.942V21.699H132.342ZM132.642 21.909H125.519V22.509H132.642V21.909ZM125.221 22.2495C125.295 22.7867 125.466 23.2843 125.737 23.7393L126.252 23.4327C126.024 23.049 125.879 22.6285 125.816 22.1684L125.221 22.2495ZM125.742 23.7475C126.029 24.1971 126.41 24.5589 126.881 24.8316L127.182 24.3123C126.792 24.0864 126.482 23.7909 126.247 23.4245L125.742 23.7475ZM126.886 24.8345C127.368 25.1006 127.918 25.229 128.528 25.229V24.629C128.004 24.629 127.557 24.5193 127.177 24.3094L126.886 24.8345ZM128.528 25.229C129.172 25.229 129.735 25.0889 130.202 24.7908L129.879 24.2852C129.53 24.5084 129.085 24.629 128.528 24.629V25.229ZM130.207 24.7876C130.655 24.4892 131.006 24.1073 131.257 23.6436L130.729 23.3583C130.526 23.7333 130.243 24.0427 129.874 24.2884L130.207 24.7876ZM130.993 23.801H132.387V23.201H130.993V23.801ZM132.107 23.3924C131.832 24.1001 131.396 24.678 130.795 25.1315L131.156 25.6105C131.847 25.0893 132.352 24.4205 132.666 23.6095L132.107 23.3924ZM130.796 25.131C130.225 25.5586 129.472 25.785 128.511 25.785V26.385C129.566 26.385 130.456 26.1354 131.156 25.611L130.796 25.131ZM125.536 21.319H131.316V20.719H125.536V21.319ZM131.612 20.9727C131.489 20.187 131.155 19.5205 130.607 18.9854L130.188 19.4145C130.638 19.8541 130.915 20.4003 131.019 21.0653L131.612 20.9727ZM130.607 18.9854C130.043 18.434 129.306 18.169 128.426 18.169V18.769C129.178 18.769 129.755 18.9912 130.188 19.4145L130.607 18.9854ZM128.426 18.169C127.546 18.169 126.808 18.434 126.244 18.9854L126.663 19.4145C127.096 18.9912 127.674 18.769 128.426 18.769V18.169ZM126.241 18.9878C125.707 19.5221 125.374 20.1861 125.24 20.9682L125.831 21.0698C125.946 20.4012 126.225 19.8526 126.666 19.4121L126.241 18.9878ZM135.848 25.949L135.562 26.0388L135.628 26.249H135.848V25.949ZM133.179 17.449V17.149H132.771L132.893 17.5388L133.179 17.449ZM134.539 17.449L134.827 17.3641L134.764 17.149H134.539V17.449ZM136.579 24.368L136.292 24.4528L136.571 25.4012L136.866 24.4573L136.579 24.368ZM138.738 17.449V17.149H138.518L138.452 17.3596L138.738 17.449ZM140.132 17.449L140.419 17.3596L140.353 17.149H140.132V17.449ZM142.291 24.368L142.005 24.4573L142.3 25.4012L142.579 24.4528L142.291 24.368ZM144.331 17.449V17.149H144.107L144.044 17.3641L144.331 17.449ZM145.691 17.449L145.978 17.5388L146.1 17.149H145.691V17.449ZM143.022 25.949V26.249H143.243L143.309 26.0388L143.022 25.949ZM141.56 25.949L141.274 26.0387L141.34 26.249H141.56V25.949ZM139.435 19.166L139.722 19.0763L139.435 18.1625L139.149 19.0763L139.435 19.166ZM137.31 25.949V26.249H137.531L137.597 26.0387L137.31 25.949ZM136.135 25.8591L133.466 17.3591L132.893 17.5388L135.562 26.0388L136.135 25.8591ZM133.179 17.749H134.539V17.149H133.179V17.749ZM134.252 17.5338L136.292 24.4528L136.867 24.2831L134.827 17.3641L134.252 17.5338ZM136.866 24.4573L139.025 17.5383L138.452 17.3596L136.293 24.2786L136.866 24.4573ZM138.738 17.749H140.132V17.149H138.738V17.749ZM139.846 17.5383L142.005 24.4573L142.578 24.2786L140.419 17.3596L139.846 17.5383ZM142.579 24.4528L144.619 17.5338L144.044 17.3641L142.004 24.2831L142.579 24.4528ZM144.331 17.749H145.691V17.149H144.331V17.749ZM145.405 17.3591L142.736 25.8591L143.309 26.0388L145.978 17.5388L145.405 17.3591ZM143.022 25.649H141.56V26.249H143.022V25.649ZM141.847 25.8593L139.722 19.0763L139.149 19.2557L141.274 26.0387L141.847 25.8593ZM139.149 19.0763L137.024 25.8593L137.597 26.0387L139.722 19.2557L139.149 19.0763ZM137.31 25.649H135.848V26.249H137.31V25.649Z" fill="#335EEA"/>
<path d="M41.4722 3.95728C42.1489 3.95728 42.6807 4.12573 43.0674 4.46265C43.457 4.79663 43.6519 5.25513 43.6519 5.83813C43.6519 6.50317 43.4395 7.02466 43.0146 7.40259C42.5928 7.78052 42.0098 7.96948 41.2656 7.96948C40.542 7.96948 39.9897 7.85376 39.6089 7.62231V6.91919C39.814 7.05103 40.0688 7.15503 40.3735 7.2312C40.6782 7.30444 40.9785 7.34106 41.2744 7.34106C41.79 7.34106 42.1899 7.21948 42.4741 6.97632C42.7612 6.73315 42.9048 6.38159 42.9048 5.92163C42.9048 5.02515 42.3555 4.5769 41.2568 4.5769C40.9785 4.5769 40.6064 4.61938 40.1406 4.70435L39.7627 4.46265L40.0044 1.45679H43.1992V2.12915H40.6284L40.4658 4.05835C40.8027 3.99097 41.1382 3.95728 41.4722 3.95728Z" fill="#8F959E"/>
<path d="M48.8726 4.6604C48.8726 5.77075 48.6968 6.59985 48.3452 7.14771C47.9966 7.69556 47.4619 7.96948 46.7412 7.96948C46.0498 7.96948 45.5239 7.6897 45.1636 7.13013C44.8032 6.56763 44.623 5.74438 44.623 4.6604C44.623 3.54126 44.7974 2.71069 45.146 2.1687C45.4946 1.62671 46.0264 1.35571 46.7412 1.35571C47.4385 1.35571 47.9673 1.63843 48.3276 2.20386C48.6909 2.76929 48.8726 3.58813 48.8726 4.6604ZM45.3613 4.6604C45.3613 5.59497 45.4712 6.27612 45.6909 6.70386C45.9106 7.12866 46.2607 7.34106 46.7412 7.34106C47.2275 7.34106 47.5791 7.12573 47.7959 6.69507C48.0156 6.26147 48.1255 5.58325 48.1255 4.6604C48.1255 3.73755 48.0156 3.06226 47.7959 2.63452C47.5791 2.20386 47.2275 1.98853 46.7412 1.98853C46.2607 1.98853 45.9106 2.20093 45.6909 2.62573C45.4712 3.04761 45.3613 3.72583 45.3613 4.6604Z" fill="#8F959E"/>
<path d="M54.0229 4.6604C54.0229 5.77075 53.8472 6.59985 53.4956 7.14771C53.147 7.69556 52.6123 7.96948 51.8916 7.96948C51.2002 7.96948 50.6743 7.6897 50.314 7.13013C49.9536 6.56763 49.7734 5.74438 49.7734 4.6604C49.7734 3.54126 49.9478 2.71069 50.2964 2.1687C50.645 1.62671 51.1768 1.35571 51.8916 1.35571C52.5889 1.35571 53.1177 1.63843 53.478 2.20386C53.8413 2.76929 54.0229 3.58813 54.0229 4.6604ZM50.5117 4.6604C50.5117 5.59497 50.6216 6.27612 50.8413 6.70386C51.061 7.12866 51.4111 7.34106 51.8916 7.34106C52.3779 7.34106 52.7295 7.12573 52.9463 6.69507C53.166 6.26147 53.2759 5.58325 53.2759 4.6604C53.2759 3.73755 53.166 3.06226 52.9463 2.63452C52.7295 2.20386 52.3779 1.98853 51.8916 1.98853C51.4111 1.98853 51.061 2.20093 50.8413 2.62573C50.6216 3.04761 50.5117 3.72583 50.5117 4.6604Z" fill="#8F959E"/>
<path d="M58.2109 7.88159L58.0659 7.19604H58.0308C57.7905 7.4978 57.5503 7.70288 57.3101 7.81128C57.0728 7.91675 56.7754 7.96948 56.418 7.96948C55.9404 7.96948 55.5654 7.84644 55.293 7.60034C55.0234 7.35425 54.8887 7.00415 54.8887 6.55005C54.8887 5.57739 55.6665 5.06763 57.2222 5.02075L58.0396 4.99438V4.69556C58.0396 4.31763 57.9575 4.03931 57.7935 3.8606C57.6323 3.67896 57.373 3.58813 57.0156 3.58813C56.6143 3.58813 56.1602 3.71118 55.6533 3.95728L55.4292 3.39917C55.6665 3.27026 55.9258 3.16919 56.207 3.09595C56.4912 3.02271 56.7754 2.98608 57.0596 2.98608C57.6338 2.98608 58.0586 3.11353 58.334 3.36841C58.6123 3.62329 58.7515 4.03198 58.7515 4.59448V7.88159H58.2109ZM56.563 7.36743C57.0171 7.36743 57.373 7.24292 57.6309 6.9939C57.8916 6.74487 58.022 6.39624 58.022 5.948V5.51294L57.2925 5.5437C56.7124 5.56421 56.2935 5.65503 56.0356 5.81616C55.7808 5.97437 55.6533 6.22192 55.6533 6.55884C55.6533 6.82251 55.7324 7.02319 55.8906 7.16089C56.0518 7.29858 56.2759 7.36743 56.563 7.36743Z" fill="#8F959E"/>
<path d="M62.5 7.96948C62.1865 7.96948 61.8994 7.91235 61.6387 7.7981C61.3809 7.68091 61.1641 7.5022 60.9883 7.26196H60.9355C60.9707 7.54321 60.9883 7.80981 60.9883 8.06177V10.0437H60.2588V3.06519H60.8521L60.9531 3.72437H60.9883C61.1758 3.46069 61.394 3.27026 61.6431 3.15308C61.8921 3.03589 62.1777 2.97729 62.5 2.97729C63.1387 2.97729 63.6309 3.19556 63.9766 3.63208C64.3252 4.0686 64.4995 4.68091 64.4995 5.46899C64.4995 6.26001 64.3223 6.87524 63.9678 7.3147C63.6162 7.75122 63.127 7.96948 62.5 7.96948ZM62.3945 3.59692C61.9023 3.59692 61.5464 3.73315 61.3267 4.00562C61.1069 4.27808 60.9941 4.71167 60.9883 5.3064V5.46899C60.9883 6.14575 61.1011 6.63062 61.3267 6.92358C61.5522 7.21362 61.9141 7.35864 62.4121 7.35864C62.8281 7.35864 63.1533 7.19019 63.3877 6.85327C63.625 6.51636 63.7437 6.052 63.7437 5.46021C63.7437 4.85962 63.625 4.39966 63.3877 4.08032C63.1533 3.75806 62.8223 3.59692 62.3945 3.59692Z" fill="#8F959E"/>
<path d="M68.0195 7.96948C67.7061 7.96948 67.4189 7.91235 67.1582 7.7981C66.9004 7.68091 66.6836 7.5022 66.5078 7.26196H66.4551C66.4902 7.54321 66.5078 7.80981 66.5078 8.06177V10.0437H65.7783V3.06519H66.3716L66.4727 3.72437H66.5078C66.6953 3.46069 66.9136 3.27026 67.1626 3.15308C67.4116 3.03589 67.6973 2.97729 68.0195 2.97729C68.6582 2.97729 69.1504 3.19556 69.4961 3.63208C69.8447 4.0686 70.019 4.68091 70.019 5.46899C70.019 6.26001 69.8418 6.87524 69.4873 7.3147C69.1357 7.75122 68.6465 7.96948 68.0195 7.96948ZM67.9141 3.59692C67.4219 3.59692 67.0659 3.73315 66.8462 4.00562C66.6265 4.27808 66.5137 4.71167 66.5078 5.3064V5.46899C66.5078 6.14575 66.6206 6.63062 66.8462 6.92358C67.0718 7.21362 67.4336 7.35864 67.9316 7.35864C68.3477 7.35864 68.6729 7.19019 68.9072 6.85327C69.1445 6.51636 69.2632 6.052 69.2632 5.46021C69.2632 4.85962 69.1445 4.39966 68.9072 4.08032C68.6729 3.75806 68.3418 3.59692 67.9141 3.59692Z" fill="#8F959E"/>
<path d="M74.4048 6.56763C74.4048 7.01587 74.2378 7.36157 73.9038 7.60474C73.5698 7.8479 73.1011 7.96948 72.4976 7.96948C71.8589 7.96948 71.3608 7.86841 71.0034 7.66626V6.9895C71.2349 7.10669 71.4824 7.19897 71.7461 7.26636C72.0127 7.33374 72.269 7.36743 72.5151 7.36743C72.896 7.36743 73.189 7.30737 73.394 7.18726C73.5991 7.06421 73.7017 6.87817 73.7017 6.62915C73.7017 6.44165 73.6196 6.28198 73.4556 6.15015C73.2944 6.01538 72.978 5.85718 72.5063 5.67554C72.0581 5.50854 71.7388 5.36353 71.5483 5.24048C71.3608 5.1145 71.2202 4.97241 71.1265 4.81421C71.0356 4.65601 70.9902 4.46704 70.9902 4.24731C70.9902 3.85474 71.1499 3.54565 71.4692 3.32007C71.7886 3.09155 72.2266 2.97729 72.7832 2.97729C73.3018 2.97729 73.8086 3.08276 74.3037 3.2937L74.0444 3.88696C73.561 3.68774 73.123 3.58813 72.7305 3.58813C72.3848 3.58813 72.124 3.64233 71.9482 3.75073C71.7725 3.85913 71.6846 4.00854 71.6846 4.19897C71.6846 4.32788 71.7168 4.43774 71.7812 4.52856C71.8486 4.61938 71.9556 4.70581 72.1021 4.78784C72.2485 4.86987 72.5298 4.98853 72.9458 5.1438C73.5171 5.35181 73.9023 5.56128 74.1016 5.77222C74.3037 5.98315 74.4048 6.24829 74.4048 6.56763Z" fill="#8F959E"/>
<path fill-rule="evenodd" clip-rule="evenodd" d="M39.7088 6.97898C39.8949 7.08282 40.1165 7.16686 40.3734 7.2311C40.6781 7.30435 40.9784 7.34097 41.2743 7.34097C41.7899 7.34097 42.1898 7.21938 42.474 6.97622C42.7611 6.73306 42.9047 6.38149 42.9047 5.92153C42.9047 5.02505 42.3554 4.57681 41.2567 4.57681C40.9784 4.57681 40.6063 4.61929 40.1405 4.70425L39.7626 4.46255L40.0043 1.45669H43.1991V2.12905H40.6283L40.4657 4.05825C40.4997 4.05145 40.5337 4.04499 40.5677 4.03888C40.8703 3.98441 41.1718 3.95718 41.4721 3.95718C42.1488 3.95718 42.6806 4.12563 43.0673 4.46255C43.4569 4.79653 43.6518 5.25503 43.6518 5.83804C43.6518 6.50308 43.4394 7.02456 43.0146 7.40249C42.5927 7.78042 42.0097 7.96938 41.2655 7.96938C40.5419 7.96938 39.9896 7.85366 39.6088 7.62222V6.91909C39.6409 6.93974 39.6742 6.9597 39.7088 6.97898ZM43.081 7.4772C42.6357 7.87601 42.0263 8.06939 41.2655 8.06939C40.5339 8.06939 39.9603 7.95284 39.5569 7.70767L39.5088 7.67846V6.73593L39.6629 6.83497C39.8565 6.95943 40.1005 7.05974 40.3973 7.13398C40.6946 7.20542 40.9869 7.24097 41.2743 7.24097C41.7751 7.24097 42.1488 7.12291 42.409 6.90024C42.6687 6.68026 42.8047 6.35925 42.8047 5.92153C42.8047 5.49468 42.6749 5.19073 42.4295 4.99047C42.1802 4.78703 41.795 4.67681 41.2567 4.67681C40.9872 4.67681 40.6219 4.71811 40.1585 4.80263L40.1198 4.80968L39.6581 4.51442L39.912 1.35669H43.2991V2.22905H40.7202L40.5764 3.93577C40.8759 3.8834 41.1745 3.85718 41.4721 3.85718C42.165 3.85718 42.7226 4.0298 43.1327 4.38689C43.5474 4.74255 43.7518 5.23042 43.7518 5.83804C43.7518 6.5263 43.5308 7.07702 43.081 7.4772ZM45.0793 7.18397C44.704 6.59822 44.5229 5.75263 44.5229 4.6603C44.5229 3.53441 44.6977 2.68061 45.0618 2.1145C45.4311 1.54039 45.9967 1.25562 46.7411 1.25562C47.4709 1.25562 48.0323 1.55441 48.4119 2.15002C48.7898 2.73851 48.9725 3.57947 48.9725 4.6603C48.9725 5.77772 48.7962 6.62973 48.4294 7.20146C48.0601 7.78161 47.4915 8.06939 46.7411 8.06939C46.0173 8.06939 45.4589 7.77344 45.0793 7.18397ZM48.3451 7.14761C48.6967 6.59976 48.8725 5.77065 48.8725 4.6603C48.8725 3.58804 48.6908 2.76919 48.3275 2.20376C47.9672 1.63833 47.4384 1.35562 46.7411 1.35562C46.0263 1.35562 45.4945 1.62661 45.1459 2.1686C44.7973 2.7106 44.6229 3.54116 44.6229 4.6603C44.6229 5.74429 44.8031 6.56753 45.1635 7.13003C45.5238 7.6896 46.0497 7.96938 46.7411 7.96938C47.4618 7.96938 47.9965 7.69546 48.3451 7.14761ZM47.7066 6.64977C47.9154 6.23782 48.0254 5.57914 48.0254 4.6603C48.0254 3.74129 47.9153 3.08591 47.7069 2.68012C47.6054 2.47855 47.4747 2.3316 47.3173 2.2352C47.1599 2.13878 46.9692 2.08843 46.7411 2.08843C46.516 2.08843 46.3269 2.13805 46.1701 2.23323C46.0132 2.32839 45.8825 2.47272 45.7796 2.67158C45.5716 3.07109 45.4612 3.72914 45.4612 4.6603C45.4612 5.59118 45.5714 6.25225 45.7797 6.65793C45.8825 6.85673 46.0132 7.00103 46.1701 7.09617C46.3269 7.19135 46.516 7.24097 46.7411 7.24097C46.9692 7.24097 47.1599 7.19062 47.3173 7.09419C47.4747 6.9978 47.6051 6.85133 47.7066 6.64977ZM45.6908 6.70376C45.4711 6.27603 45.3612 5.59487 45.3612 4.6603C45.3612 3.72573 45.4711 3.04751 45.6908 2.62563C45.9105 2.20083 46.2606 1.98843 46.7411 1.98843C47.2274 1.98843 47.579 2.20376 47.7958 2.63442C48.0155 3.06216 48.1254 3.73745 48.1254 4.6603C48.1254 5.58315 48.0155 6.26138 47.7958 6.69497C47.579 7.12563 47.2274 7.34097 46.7411 7.34097C46.2606 7.34097 45.9105 7.12856 45.6908 6.70376ZM50.2297 7.18397C49.8544 6.59822 49.6733 5.75263 49.6733 4.6603C49.6733 3.53441 49.848 2.68061 50.2122 2.1145C50.5815 1.54039 51.147 1.25562 51.8915 1.25562C52.6213 1.25562 53.1827 1.55441 53.5623 2.15002C53.9402 2.73851 54.1229 3.57947 54.1229 4.6603C54.1229 5.77772 53.9466 6.62973 53.5798 7.20146C53.2105 7.78161 52.6419 8.06939 51.8915 8.06939C51.1677 8.06939 50.6093 7.77344 50.2297 7.18397ZM53.4955 7.14761C53.8471 6.59976 54.0229 5.77065 54.0229 4.6603C54.0229 3.58804 53.8412 2.76919 53.4779 2.20376C53.1176 1.63833 52.5888 1.35562 51.8915 1.35562C51.1767 1.35562 50.6449 1.62661 50.2963 2.1686C49.9477 2.7106 49.7733 3.54116 49.7733 4.6603C49.7733 5.74429 49.9535 6.56753 50.3139 7.13003C50.6742 7.6896 51.2001 7.96938 51.8915 7.96938C52.6122 7.96938 53.1469 7.69546 53.4955 7.14761ZM52.857 6.64977C53.0658 6.23782 53.1758 5.57914 53.1758 4.6603C53.1758 3.74129 53.0657 3.08591 52.8572 2.68012C52.7558 2.47855 52.6251 2.3316 52.4677 2.2352C52.3103 2.13878 52.1196 2.08843 51.8915 2.08843C51.6664 2.08843 51.4773 2.13805 51.3204 2.23323C51.1636 2.32839 51.0329 2.47272 50.93 2.67158C50.722 3.07109 50.6116 3.72914 50.6116 4.6603C50.6116 5.59127 50.7218 6.25238 50.9302 6.65806C51.033 6.85679 51.1637 7.00105 51.3204 7.09617C51.4773 7.19135 51.6664 7.24097 51.8915 7.24097C52.1196 7.24097 52.3103 7.19062 52.4677 7.09419C52.6251 6.9978 52.7555 6.85133 52.857 6.64977ZM50.8412 6.70376C50.6215 6.27603 50.5116 5.59487 50.5116 4.6603C50.5116 3.72573 50.6215 3.04751 50.8412 2.62563C51.0609 2.20083 51.411 1.98843 51.8915 1.98843C52.3778 1.98843 52.7294 2.20376 52.9462 2.63442C53.1659 3.06216 53.2758 3.73745 53.2758 4.6603C53.2758 5.58315 53.1659 6.26138 52.9462 6.69497C52.7294 7.12563 52.3778 7.34097 51.8915 7.34097C51.411 7.34097 51.0609 7.12856 50.8412 6.70376ZM58.1298 7.98149L58.0035 7.38458C57.7911 7.62711 57.574 7.80177 57.3511 7.90233C57.0971 8.01519 56.7843 8.06939 56.4179 8.06939C55.9232 8.06939 55.5217 7.94164 55.2258 7.67445C54.9307 7.40496 54.7886 7.02479 54.7886 6.54995C54.7886 6.03177 54.9985 5.62885 55.4171 5.3545C55.8287 5.0848 56.4338 4.94437 57.219 4.9207C57.219 4.9207 57.219 4.9207 57.219 4.9207L57.9395 4.89746V4.69546C57.9395 4.32915 57.8595 4.08044 57.7197 3.92812L57.7185 3.92687C57.5839 3.77508 57.358 3.68804 57.0155 3.68804C56.6341 3.68804 56.1953 3.80515 55.6969 4.04713L55.6004 4.09399L55.3031 3.3537L55.3814 3.3112C55.6263 3.17814 55.8932 3.07421 56.1817 2.99908C56.4738 2.9238 56.7666 2.88599 57.0595 2.88599C57.6458 2.88599 58.1 3.01575 58.4016 3.29474C58.7089 3.57624 58.8514 4.01778 58.8514 4.59438V7.98149H58.1298ZM58.3339 3.36831C58.0585 3.11343 57.6337 2.98599 57.0595 2.98599C56.7753 2.98599 56.4911 3.02261 56.2069 3.09585C55.9257 3.16909 55.6664 3.27017 55.4291 3.39907L55.6532 3.95718C55.6836 3.94243 55.7138 3.92813 55.7438 3.91427C56.2143 3.69678 56.6382 3.58804 57.0155 3.58804C57.3729 3.58804 57.6322 3.67886 57.7934 3.8605C57.9574 4.03921 58.0395 4.31753 58.0395 4.69546V4.99429L57.2221 5.02065C55.6664 5.06753 54.8886 5.57729 54.8886 6.54995C54.8886 7.00405 55.0233 7.35415 55.2929 7.60024C55.5653 7.84634 55.9403 7.96938 56.4179 7.96938C56.7753 7.96938 57.0727 7.91665 57.31 7.81118C57.5324 7.71079 57.7549 7.52748 57.9774 7.26124C57.9928 7.24286 58.0082 7.22407 58.0235 7.2049C58.0259 7.20192 58.0283 7.19894 58.0307 7.19595H58.0658L58.2108 7.88149H58.7514V4.59438C58.7514 4.03188 58.6122 3.62319 58.3339 3.36831ZM57.5617 6.92148C57.7981 6.69571 57.9219 6.37591 57.9219 5.9479V5.61715L57.2966 5.64351C56.7208 5.66387 56.3232 5.75418 56.0885 5.90086C55.8671 6.03831 55.7532 6.25135 55.7532 6.55874C55.7532 6.80133 55.8251 6.97111 55.9559 7.08512C56.0934 7.20238 56.2914 7.26733 56.5629 7.26733C56.9983 7.26733 57.3272 7.14803 57.5617 6.92148ZM55.8905 7.16079C55.7323 7.0231 55.6532 6.82241 55.6532 6.55874C55.6532 6.22183 55.7807 5.97427 56.0355 5.81606C56.2934 5.65493 56.7123 5.56411 57.2924 5.5436L58.0219 5.51284V5.9479C58.0219 6.39614 57.8915 6.74478 57.6308 6.9938C57.3729 7.24282 57.017 7.36733 56.5629 7.36733C56.2758 7.36733 56.0517 7.29849 55.8905 7.16079ZM61.5984 7.88959L61.5972 7.88904C61.3948 7.79703 61.2165 7.66939 61.0624 7.50699C61.0796 7.6987 61.0882 7.8836 61.0882 8.06167V10.1436H60.1587V2.96509H60.9378L61.0224 3.5169C61.1917 3.31658 61.3842 3.16424 61.6004 3.0625C61.8648 2.93806 62.1654 2.8772 62.4999 2.8772C63.1639 2.8772 63.6871 3.10564 64.0547 3.56967C64.4222 4.02993 64.5994 4.66732 64.5994 5.4689C64.5994 6.27371 64.4192 6.91416 64.0456 7.37732C63.6726 7.84041 63.1531 8.06939 62.4999 8.06939C62.174 8.06939 61.8731 8.00993 61.5984 7.88959ZM63.9677 7.3146C64.3222 6.87515 64.4994 6.25991 64.4994 5.4689C64.4994 4.68081 64.3251 4.06851 63.9765 3.63198C63.6308 3.19546 63.1386 2.9772 62.4999 2.9772C62.1776 2.9772 61.892 3.03579 61.643 3.15298C61.4178 3.25894 61.2178 3.4248 61.0429 3.65054C61.0259 3.67253 61.0091 3.69509 60.9925 3.71821C60.9911 3.72023 60.9896 3.72225 60.9882 3.72427H60.953L60.852 3.06509H60.2587V10.0436H60.9882V8.06167C60.9882 7.84385 60.975 7.61508 60.9488 7.37536C60.9483 7.37087 60.9478 7.36636 60.9473 7.36187C60.9449 7.34042 60.9424 7.31889 60.9398 7.29727C60.9384 7.2855 60.9369 7.27369 60.9354 7.26187H60.9882C61.0067 7.28711 61.0256 7.31166 61.0449 7.33554C61.21 7.53897 61.4078 7.69312 61.6386 7.798C61.8993 7.91226 62.1864 7.96938 62.4999 7.96938C63.1269 7.96938 63.6161 7.75112 63.9677 7.3146ZM63.3058 6.79559C63.5271 6.48143 63.6436 6.03992 63.6436 5.46011C63.6436 4.87064 63.5268 4.43517 63.3073 4.13987L63.3067 4.13904C63.0927 3.84479 62.7929 3.69683 62.3944 3.69683C61.9196 3.69683 61.5983 3.82785 61.4044 4.06829C61.2058 4.31458 61.094 4.72051 61.0882 5.30671V5.4689C61.0882 6.13944 61.2009 6.59621 61.4056 6.86226C61.6061 7.11986 61.9332 7.25854 62.412 7.25854C62.7958 7.25854 63.0905 7.10519 63.3058 6.79559ZM61.3266 6.92349C61.101 6.63052 60.9882 6.14565 60.9882 5.4689V5.3063C60.994 4.71157 61.1068 4.27798 61.3266 4.00552C61.5463 3.73306 61.9022 3.59683 62.3944 3.59683C62.8222 3.59683 63.1532 3.75796 63.3876 4.08022C63.6249 4.39956 63.7436 4.85952 63.7436 5.46011C63.7436 6.0519 63.6249 6.51626 63.3876 6.85317C63.1532 7.19009 62.828 7.35854 62.412 7.35854C61.914 7.35854 61.5521 7.21353 61.3266 6.92349ZM67.118 7.88959L67.1167 7.88904C66.9143 7.79703 66.736 7.66939 66.5819 7.50699C66.5991 7.6987 66.6077 7.8836 66.6077 8.06167V10.1436H65.6782V2.96509H66.4573L66.5419 3.5169C66.7112 3.31658 66.9037 3.16424 67.1199 3.0625C67.3844 2.93806 67.6849 2.8772 68.0194 2.8772C68.6835 2.8772 69.2066 3.10564 69.5742 3.56967C69.9417 4.02993 70.1189 4.66732 70.1189 5.4689C70.1189 6.27371 69.9387 6.91416 69.5651 7.37732C69.1921 7.84041 68.6726 8.06939 68.0194 8.06939C67.6935 8.06939 67.3926 8.00993 67.118 7.88959ZM69.4872 7.3146C69.8417 6.87515 70.0189 6.25991 70.0189 5.4689C70.0189 4.68081 69.8446 4.06851 69.496 3.63198C69.1503 3.19546 68.6581 2.9772 68.0194 2.9772C67.6972 2.9772 67.4115 3.03579 67.1625 3.15298C66.9373 3.25894 66.7373 3.4248 66.5624 3.65054C66.5454 3.67253 66.5286 3.69509 66.512 3.71821C66.5106 3.72023 66.5092 3.72225 66.5077 3.72427H66.4726L66.3715 3.06509H65.7782V10.0436H66.5077V8.06167C66.5077 7.84385 66.4946 7.61508 66.4683 7.37536C66.4678 7.37087 66.4673 7.36636 66.4668 7.36187C66.4644 7.34042 66.4619 7.31889 66.4593 7.29727C66.4579 7.2855 66.4565 7.27369 66.455 7.26187H66.5077C66.5262 7.28711 66.5451 7.31166 66.5645 7.33554C66.7295 7.53897 66.9274 7.69312 67.1581 7.798C67.4188 7.91226 67.706 7.96938 68.0194 7.96938C68.6464 7.96938 69.1356 7.75112 69.4872 7.3146ZM68.8254 6.79559C69.0467 6.48143 69.1631 6.03992 69.1631 5.46011C69.1631 4.87064 69.0463 4.43517 68.8269 4.13987L68.8263 4.13904C68.6123 3.84479 68.3125 3.69683 67.914 3.69683C67.4391 3.69683 67.1178 3.82785 66.9239 4.06829C66.7253 4.31458 66.6136 4.72051 66.6077 5.30671V5.4689C66.6077 6.13944 66.7204 6.59621 66.9252 6.86226C67.1256 7.11986 67.4527 7.25854 67.9315 7.25854C68.3154 7.25854 68.61 7.10519 68.8254 6.79559ZM66.8461 6.92349C66.6205 6.63052 66.5077 6.14565 66.5077 5.4689V5.3063C66.5136 4.71157 66.6264 4.27798 66.8461 4.00552C67.0658 3.73306 67.4218 3.59683 67.914 3.59683C68.3417 3.59683 68.6728 3.75796 68.9071 4.08022C69.1444 4.39956 69.2631 4.85952 69.2631 5.46011C69.2631 6.0519 69.1444 6.51626 68.9071 6.85317C68.6728 7.19009 68.3476 7.35854 67.9315 7.35854C67.4335 7.35854 67.0717 7.21353 66.8461 6.92349ZM70.9033 7.72449V6.82668L71.0485 6.90019C71.273 7.01389 71.5136 7.10365 71.7705 7.16931C72.03 7.2349 72.2781 7.26733 72.515 7.26733C72.8875 7.26733 73.1599 7.20822 73.343 7.10109C73.5162 6.99701 73.6016 6.84451 73.6016 6.62905C73.6016 6.47583 73.5365 6.34349 73.3928 6.228L73.3913 6.22677C73.2443 6.10379 72.9423 5.95056 72.4708 5.76895C72.0218 5.60166 71.694 5.45362 71.494 5.32437L71.4925 5.3234C71.2954 5.19097 71.1432 5.03867 71.0403 4.86509L71.0396 4.8639C70.9385 4.68772 70.8901 4.48084 70.8901 4.24722C70.8901 3.82242 71.0654 3.48287 71.4112 3.23847C71.7532 2.99381 72.2141 2.8772 72.7831 2.8772C73.3156 2.8772 73.8358 2.98559 74.3428 3.2016L74.4357 3.24116L74.0968 4.01663L74.0062 3.97932C73.5311 3.78352 73.1063 3.68804 72.7304 3.68804C72.3921 3.68804 72.1533 3.74162 72.0006 3.83575C71.8514 3.92779 71.7845 4.04652 71.7845 4.19888C71.7845 4.30996 71.8118 4.39851 71.8621 4.46971C71.9181 4.54481 72.0117 4.62259 72.1508 4.70049C72.2897 4.77825 72.564 4.89448 72.9803 5.04989C73.5532 5.25849 73.9575 5.47425 74.1739 5.70319C74.3955 5.93451 74.5047 6.22516 74.5047 6.56753C74.5047 7.04458 74.3249 7.42171 73.9626 7.68548C73.6052 7.94565 73.1128 8.06939 72.4975 8.06939C71.8503 8.06939 71.3326 7.9673 70.9541 7.7532L70.9033 7.72449ZM74.1015 5.77212C73.9022 5.56118 73.517 5.35171 72.9457 5.1437C72.5297 4.98843 72.2484 4.86978 72.102 4.78774C71.9555 4.70571 71.8485 4.61929 71.7812 4.52847C71.7167 4.43765 71.6845 4.32778 71.6845 4.19888C71.6845 4.00845 71.7724 3.85903 71.9481 3.75063C72.1239 3.64224 72.3847 3.58804 72.7304 3.58804C73.1229 3.58804 73.5609 3.68765 74.0443 3.88687L74.3036 3.2936C74.2728 3.28049 74.242 3.26778 74.2111 3.25549C73.7454 3.06996 73.2694 2.9772 72.7831 2.9772C72.2265 2.9772 71.7885 3.09145 71.4691 3.31997C71.1498 3.54556 70.9901 3.85464 70.9901 4.24722C70.9901 4.46694 71.0355 4.65591 71.1264 4.81411C71.2201 4.97231 71.3607 5.1144 71.5482 5.24038C71.7387 5.36343 72.058 5.50845 72.5062 5.67544C72.9779 5.85708 73.2943 6.01528 73.4555 6.15005C73.6195 6.28188 73.7016 6.44155 73.7016 6.62905C73.7016 6.87808 73.599 7.06411 73.3939 7.18716C73.1889 7.30728 72.8959 7.36733 72.515 7.36733C72.2689 7.36733 72.0126 7.33364 71.746 7.26626C71.5199 7.20849 71.3057 7.13241 71.1033 7.03802C71.0697 7.02232 71.0363 7.00612 71.0033 6.9894V7.66616C71.3607 7.86831 71.8588 7.96938 72.4975 7.96938C73.101 7.96938 73.5697 7.8478 73.9037 7.60464C74.2377 7.36147 74.4047 7.01577 74.4047 6.56753C74.4047 6.24819 74.3036 5.98306 74.1015 5.77212Z" fill="#8F959E"/>
<path d="M0.963135 22.5306V7.61097C0.963135 7.07139 1.17748 6.55391 1.55902 6.17236C1.94056 5.79082 2.45805 5.57648 2.99763 5.57648H24.3598C24.8994 5.57648 25.4169 5.79082 25.7984 6.17236C26.18 6.55391 26.3943 7.07139 26.3943 7.61097V22.5306" stroke="#335EEA" stroke-width="1.7" stroke-linecap="round" stroke-linejoin="round"/>
<path d="M13.6788 11.8224C17.1433 11.8224 19.9518 9.01388 19.9518 5.54939C19.9518 2.08489 17.1433 -0.723633 13.6788 -0.723633C10.2143 -0.723633 7.40576 2.08489 7.40576 5.54939C7.40576 9.01388 10.2143 11.8224 13.6788 11.8224Z" fill="white"/>
<path d="M13.6787 9.78791C16.0196 9.78791 17.9172 7.89025 17.9172 5.54938C17.9172 3.20851 16.0196 1.31085 13.6787 1.31085C11.3378 1.31085 9.44019 3.20851 9.44019 5.54938C9.44019 7.89025 11.3378 9.78791 13.6787 9.78791Z" stroke="#335EEA" stroke-width="1.7" stroke-linecap="round" stroke-linejoin="round"/>
<path d="M22.1558 20.3876C22.1558 18.1393 21.2627 15.9832 19.6729 14.3934C18.0831 12.8036 15.927 11.9105 13.6787 11.9105C11.4305 11.9105 9.27429 12.8036 7.68453 14.3934C6.09477 15.9832 5.20166 18.1393 5.20166 20.3876" stroke="#335EEA" stroke-width="1.7" stroke-linecap="round" stroke-linejoin="round"/>
<path d="M24.1903 20.3876H3.16724V22.5103H24.1903V20.3876Z" fill="white"/>
<path d="M17.9172 25.6841H9.44019V28.8647H17.9172V25.6841Z" stroke="#335EEA" stroke-width="1.7" stroke-linecap="round" stroke-linejoin="round"/>
<path d="M26.3943 22.5306H0.963135V23.6767C0.963135 24.2163 1.17748 24.7338 1.55902 25.1153C1.94056 25.4969 2.45805 25.7112 2.99763 25.7112H24.3598C24.8994 25.7112 25.4169 25.4969 25.7984 25.1153C26.18 24.7338 26.3943 24.2163 26.3943 23.6767V22.5306Z" stroke="#335EEA" stroke-width="1.7" stroke-linecap="round" stroke-linejoin="round"/>
<path d="M7.40576 28.8647H19.9518" stroke="#335EEA" stroke-width="1.7" stroke-linecap="round" stroke-linejoin="round"/>
<path d="M19.4431 11.8224V5.57655C19.4449 3.91339 20.1064 2.31887 21.2824 1.14284C22.4585 -0.0331956 24.053 -0.694677 25.7161 -0.696472H29.9547C31.6184 -0.696472 33.2139 -0.0355662 34.3904 1.14085C35.5668 2.31727 36.2277 3.91284 36.2277 5.57655C36.2277 7.24026 35.5668 8.83583 34.3904 10.0122C33.2139 11.1887 31.6184 11.8496 29.9547 11.8496L19.4431 11.8224Z" fill="white"/>
<path d="M25.7162 1.31085H29.9547C30.5136 1.31084 31.067 1.42137 31.583 1.63607C32.099 1.85077 32.5675 2.1654 32.9614 2.56186C33.3553 2.95833 33.667 3.42878 33.8784 3.94616C34.0898 4.46354 34.1968 5.01762 34.1932 5.57651C34.1932 6.70063 33.7467 7.77872 32.9518 8.5736C32.1569 9.36848 31.0788 9.81503 29.9547 9.81503H21.4776V5.57651C21.474 5.01762 21.581 4.46354 21.7924 3.94616C22.0038 3.42878 22.3155 2.95833 22.7094 2.56186C23.1034 2.1654 23.5718 1.85077 24.0878 1.63607C24.6039 1.42137 25.1573 1.31084 25.7162 1.31085V1.31085Z" stroke="#335EEA" stroke-width="1.7" stroke-linecap="round" stroke-linejoin="round"/>
<circle cx="25.2138" cy="5.5629" r="0.890539" fill="#335EEA"/>
<circle cx="28.0092" cy="5.59012" r="0.890539" fill="#335EEA"/>
<circle cx="30.8363" cy="5.5629" r="0.890539" fill="#335EEA"/>
</g>
<defs>
<clipPath id="clip0_37_2">
<rect width="147" height="30" fill="white"/>
</clipPath>
</defs>
</svg>
