<svg width="178" height="121" viewBox="0 0 178 121" fill="none" xmlns="http://www.w3.org/2000/svg">
<circle cx="90.2565" cy="29.9081" r="14.61" fill="#ABCDFF"/>
<path d="M90.2534 48.0657C72.6307 48.0657 58.3447 58.3833 58.3447 71.1108H122.162C122.162 58.3833 107.876 48.0657 90.2534 48.0657Z" fill="#ABCDFF"/>
<path opacity="0.2" d="M158.631 78.7477C158.631 80.4679 157.891 82.0385 156.781 83.1604C155.671 84.357 154.043 85.0302 152.341 85.0302H137.911C134.433 85.0302 131.621 87.8722 131.621 91.3874V92.584C131.621 95.4261 133.915 97.7446 136.727 97.7446C139.835 97.7446 142.647 100.138 142.795 103.279C142.943 105.074 142.203 106.719 141.093 107.916C140.057 108.963 138.577 109.636 136.949 109.636H58.3619C55.1059 109.636 52.4419 106.944 52.4419 103.653C52.4419 102.008 53.1079 100.512 54.1439 99.4647C55.1059 98.4925 56.3639 97.8941 57.8439 97.7446H23.2861C19.7342 97.7446 16.7002 94.8277 16.7002 91.3126C16.7002 89.5924 17.4402 88.0218 18.5502 86.8999C19.6602 85.7781 21.2882 85.0302 22.9901 85.0302H55.3279C51.8499 85.0302 49.0379 82.1881 49.0379 78.5982C49.0379 76.8032 49.7779 75.2326 50.8879 74.1107C51.9979 72.9889 53.6259 72.241 55.3279 72.241H151.971C155.671 72.241 158.705 75.1578 158.631 78.7477Z" fill="#B4D4FF"/>
<path opacity="0.2" d="M156.082 44.6379C156.082 46.4219 155.338 47.983 154.221 49.1723C153.104 50.3617 151.466 51.0307 149.754 51.0307H118.857C122.357 51.0307 125.26 53.8554 125.26 57.4235C125.26 59.2075 124.516 60.7685 123.399 61.8835C122.282 62.9986 120.644 63.7419 118.857 63.7419H21.4027C17.9035 63.7419 15 60.9172 15 57.4235C15 55.6394 15.7445 54.0784 16.8612 52.889C17.978 51.774 19.6159 51.0307 21.3282 51.0307H52.1504C48.6513 51.0307 45.7477 48.206 45.7477 44.6379C45.7477 42.8539 46.4922 41.2928 47.609 40.1778C48.9491 38.9885 50.5125 38.2451 52.2993 38.2451H149.754C153.253 38.2451 156.082 41.0698 156.082 44.6379Z" fill="#B4D4FF"/>
<path fill-rule="evenodd" clip-rule="evenodd" d="M49.292 75.4049C49.292 71.0284 52.8399 67.4805 57.2164 67.4805L124.897 67.4805C129.274 67.4805 132.822 71.0283 132.822 75.4049V107.102C132.822 111.479 129.274 115.027 124.897 115.027H57.2164C52.8399 115.027 49.292 111.479 49.292 107.103V75.4049Z" fill="#D9EBFF" stroke="#D9EBFF" stroke-width="8.71685"/>
<path d="M40.498 116.259H140.867" stroke="#D9EBFF" stroke-width="8.71685" stroke-linecap="round"/>
<path d="M87.1177 87.4077C84.9679 89.5575 85.0179 93.0571 87.2677 95.1069C89.3924 97.0567 92.7921 96.9817 94.7669 94.8819C96.7667 92.7821 96.7667 89.4325 94.6919 87.3827C92.5671 85.3329 89.2175 85.3079 87.1177 87.4077Z" fill="#8FBCFF"/>
<path d="M106.832 18.9251C106.593 18.512 106.746 17.9419 107.159 17.7034C107.572 17.4649 108.194 17.5879 108.462 18.0526C108.701 18.4656 108.578 19.0874 108.165 19.3259C107.619 19.5724 107.1 19.3898 106.832 18.9251ZM109.34 17.5458C109.102 17.1327 109.254 16.5626 109.638 16.2725C109.689 16.2426 109.689 16.2426 109.741 16.2128L111.342 15.2887C112.168 14.8117 113.189 14.9107 113.946 15.5063C114.51 16.0067 115.368 16.0621 115.958 15.6527C116.651 15.1837 116.943 14.258 116.547 13.4537L116.488 13.3504C116.13 12.7308 115.389 12.4013 114.598 12.5823C114.177 12.6877 113.844 12.4673 113.635 12.1059C113.575 12.0026 113.516 11.8994 113.508 11.7663C113.454 11.3154 113.666 10.8485 114.191 10.6835C115.69 10.2997 117.387 10.9725 118.192 12.3666L118.251 12.4699C118.698 13.2444 118.887 14.168 118.617 15.0122C118.304 16.0194 117.686 16.8578 116.727 17.3428C115.51 17.9768 113.897 17.8065 112.858 16.9607L112.828 16.909L112.798 16.8574C112.687 16.784 112.524 16.7403 112.399 16.8814L110.85 17.7757C110.592 17.9248 110.329 18.0224 110.11 18.0355C109.587 18.0669 109.428 17.6976 109.34 17.5458Z" fill="#ABCDFF"/>
<path d="M74.846 19.0102C74.6075 19.4233 74.0374 19.576 73.6243 19.3375C73.2113 19.0991 73.0069 18.4991 73.2752 18.0344C73.5136 17.6213 74.1136 17.4169 74.5267 17.6554C75.0132 18.0052 75.1143 18.5455 74.846 19.0102ZM72.3974 17.5276C72.1589 17.9407 71.5888 18.0935 71.1459 17.9066C71.0942 17.8768 71.0942 17.8768 71.0426 17.847L69.4419 16.9228C68.6158 16.4459 68.191 15.5122 68.3284 14.5588C68.4796 13.8199 68.0985 13.0491 67.449 12.743C66.6963 12.3773 65.7488 12.5875 65.25 13.3322L65.1904 13.4355C64.8326 14.0551 64.9178 14.8616 65.4698 15.4557C65.7716 15.7676 65.7477 16.1669 65.539 16.5283C65.4794 16.6316 65.4197 16.7348 65.3085 16.8083C64.9449 17.0803 64.4344 17.1298 64.0293 16.7582C62.9471 15.6515 62.6815 13.8459 63.4864 12.4517L63.5461 12.3485C63.9932 11.574 64.6986 10.9485 65.5647 10.7601C66.5936 10.528 67.6285 10.6435 68.5281 11.2318C69.6859 11.9691 70.3448 13.4511 70.1319 14.7739L70.1021 14.8255L70.0723 14.8771C70.0643 15.0102 70.1079 15.1731 70.2926 15.2109L71.8417 16.1052C72.0998 16.2543 72.3158 16.4331 72.4368 16.6163C72.7255 17.0537 72.485 17.3758 72.3974 17.5276Z" fill="#ABCDFF"/>
<path d="M90.7258 13.1169C90.2488 13.1169 89.8315 12.6996 89.8315 12.2226C89.8315 11.7456 90.2488 11.2686 90.7854 11.2686C91.2624 11.2686 91.7394 11.686 91.7394 12.163C91.6798 12.7592 91.2624 13.1169 90.7258 13.1169ZM90.7854 10.255C90.3084 10.255 89.8911 9.83769 89.8315 9.36071C89.8315 9.30108 89.8315 9.30109 89.8315 9.24146L89.8315 7.39317C89.8315 6.43921 90.4277 5.6045 91.322 5.24676C92.0375 5.00828 92.5145 4.29281 92.4549 3.57734C92.3952 2.74263 91.7394 2.02716 90.845 1.96754L90.7258 1.96754C90.0103 1.96754 89.3545 2.44452 89.116 3.21961C88.9968 3.63696 88.639 3.81583 88.2217 3.81583C88.1024 3.81583 87.9832 3.81583 87.8639 3.75621C87.4466 3.57734 87.1485 3.15998 87.2677 2.62338C87.6851 1.13283 89.116 -1.63899e-07 90.7258 -3.04633e-07L90.845 -3.15057e-07C91.7394 -3.93243e-07 92.6337 0.298113 93.2299 0.953958C93.9454 1.72905 94.3628 2.683 94.3031 3.75621C94.2435 5.12752 93.2896 6.43921 92.0375 6.91619L91.9779 6.91619L91.9183 6.91619C91.799 6.97581 91.6798 7.09506 91.7394 7.27392L91.7394 9.06259C91.7394 9.36071 91.6925 9.63713 91.5943 9.8335C91.3599 10.3023 90.9607 10.255 90.7854 10.255Z" fill="#ABCDFF"/>
<path d="M145.375 16.7522C144.108 16.7522 142.999 15.6434 142.999 14.3761C142.999 13.1089 144.108 12 145.375 12C146.642 12 147.751 13.1089 147.751 14.3761C147.751 15.8018 146.642 16.7522 145.375 16.7522Z" fill="#EAA8FF"/>
<path d="M169.089 112.581H171.58V109.934C171.58 109.467 172.047 109 172.514 109C172.981 109 173.448 109.467 173.448 109.934V112.581H176.094C176.561 112.581 177.028 113.048 177.028 113.515C177.028 113.982 176.561 114.449 176.094 114.449H173.448V117.095C173.448 117.562 172.981 118.029 172.514 118.029C172.047 118.029 171.58 117.562 171.58 117.095V114.449H168.933C168.466 114.449 167.999 113.982 167.999 113.515C168.155 113.048 168.622 112.581 169.089 112.581Z" fill="#FFB5D7"/>
<path d="M5.24243 17.5584L6.49392 16.379L5.24079 15.0493C5.01965 14.8146 5.03317 14.3588 5.26782 14.1377C5.50248 13.9165 5.95826 13.9301 6.1794 14.1647L7.43253 15.4944L8.76223 14.2413C8.99689 14.0201 9.45268 14.0337 9.67382 14.2683C9.89496 14.503 9.88145 14.9588 9.64679 15.1799L8.31709 16.433L9.57021 17.7627C9.79135 17.9974 9.77785 18.4532 9.54319 18.6743C9.30854 18.8955 8.85274 18.8819 8.6316 18.6473L7.37848 17.3176L6.04878 18.5707C5.81412 18.7919 5.35833 18.7783 5.13719 18.5437C4.99426 18.2353 5.00777 17.7795 5.24243 17.5584Z" fill="#B2ABFF"/>
<path d="M3.56376 117.128C1.66287 117.128 -0.00041008 115.465 -0.00041008 113.564C-0.00041008 111.663 1.66287 110 3.56376 110C5.46465 110 7.12793 111.663 7.12793 113.564C7.12793 115.703 5.46465 117.128 3.56376 117.128Z" fill="#FFDE92"/>
</svg>
