<svg width="118" height="65" viewBox="0 0 118 65" fill="none" xmlns="http://www.w3.org/2000/svg">
<g clip-path="url(#clip0_371_443)">
<circle cx="106.465" cy="47.1323" r="10.02" stroke="url(#paint0_linear_371_443)" stroke-width="2"/>
<circle cx="7.41884" cy="15.5504" r="5.47964" stroke="url(#paint1_linear_371_443)" stroke-width="1.5"/>
<path d="M101.695 48.8782C101.653 48.8318 101.62 48.7774 101.599 48.7183C101.577 48.6591 101.568 48.5963 101.571 48.5336L101.796 43.8883C101.799 43.8256 101.814 43.7641 101.841 43.7073C101.867 43.6506 101.905 43.5996 101.952 43.5574C101.998 43.5152 102.052 43.4826 102.111 43.4615C102.17 43.4403 102.233 43.431 102.296 43.4342L103.664 43.5C103.79 43.5062 103.909 43.5623 103.994 43.6559C104.079 43.7496 104.123 43.8731 104.117 43.9995L103.982 46.7992L111.485 47.1608C111.611 47.1669 111.73 47.2229 111.815 47.3165C111.9 47.41 111.944 47.5335 111.938 47.6597L111.873 49.0304C111.87 49.0931 111.854 49.1546 111.828 49.2113C111.801 49.2681 111.763 49.3191 111.717 49.3613C111.67 49.4034 111.616 49.436 111.557 49.4572C111.498 49.4784 111.435 49.4876 111.373 49.4845L102.025 49.0352C101.962 49.0321 101.901 49.0167 101.844 48.9897C101.788 48.9628 101.737 48.9249 101.695 48.8782Z" fill="url(#paint2_linear_371_443)"/>
<path d="M4.72211 16.5377C4.69814 16.5114 4.67961 16.4807 4.66757 16.4473C4.65554 16.4138 4.65025 16.3783 4.652 16.3428L4.77899 13.7169C4.78064 13.6814 4.78926 13.6467 4.80437 13.6146C4.81948 13.5825 4.84077 13.5537 4.86704 13.5298C4.8933 13.506 4.92401 13.4875 4.95741 13.4756C4.9908 13.4636 5.02623 13.4584 5.06166 13.4601L5.83496 13.4974C5.90638 13.5009 5.97349 13.5326 6.02156 13.5855C6.06963 13.6384 6.09475 13.7083 6.09139 13.7797L6.01492 15.3624L10.2563 15.5668C10.3277 15.5703 10.3947 15.6019 10.4427 15.6548C10.4908 15.7077 10.5158 15.7775 10.5124 15.8488L10.4755 16.6237C10.4738 16.6591 10.4652 16.6939 10.4501 16.726C10.435 16.7581 10.4137 16.7869 10.3874 16.8107C10.3612 16.8346 10.3304 16.853 10.297 16.865C10.2637 16.8769 10.2282 16.8822 10.1928 16.8804L4.90837 16.6264C4.873 16.6247 4.83832 16.6159 4.80635 16.6007C4.77438 16.5855 4.74575 16.564 4.72211 16.5377Z" fill="url(#paint3_linear_371_443)"/>
<path fill-rule="evenodd" clip-rule="evenodd" d="M90.3299 27.8974C90.1222 26.9668 89.7328 26.0872 89.1846 25.31C88.6364 24.5328 87.9403 23.8735 87.1369 23.3705L83.8682 21.3223L84.9005 19.649C85.3125 18.962 85.5313 18.1747 85.5336 17.3717C85.5366 16.6349 85.3522 15.9097 84.998 15.2653C84.6438 14.621 84.1316 14.0793 83.5104 13.6919C83.0326 13.3896 82.5 13.1861 81.9436 13.0931C81.3873 13.0002 80.8181 13.0196 80.2692 13.1503C79.7193 13.2789 79.2001 13.5164 78.7418 13.8489C78.2835 14.1814 77.8951 14.6024 77.5992 15.0874L76.5739 16.7468L55.1656 3.36055L56.191 1.69421C56.6141 1.01139 56.8383 0.222194 56.8378 -0.583121C56.8364 -1.32478 56.6458 -2.05359 56.2842 -2.69932C55.9226 -3.34506 55.4023 -3.88595 54.7734 -4.2699C53.8069 -4.87195 52.6437 -5.06384 51.5375 -4.80368C50.4313 -4.54352 49.4721 -3.85245 48.8691 -2.88128L47.8437 -1.21494L44.4649 -3.29787C42.8515 -4.30402 40.9086 -4.62418 39.0617 -4.18825C37.2148 -3.75232 35.6143 -2.59581 34.6107 -0.971932L13.2781 33.7435C12.779 34.547 12.4428 35.4426 12.2893 36.3782C12.1357 37.3138 12.1677 38.2708 12.3835 39.1938C12.5937 40.1189 12.9842 40.9925 13.5324 41.7638C14.0806 42.535 14.7755 43.1884 15.5765 43.686L58.2416 70.4099C59.3708 71.121 60.6748 71.4987 62.0058 71.5C63.2263 71.5018 64.4271 71.1889 65.4941 70.5911C66.5612 69.9933 67.4591 69.1303 68.1028 68.084L89.4353 33.3686C89.9369 32.5622 90.2743 31.6631 90.4279 30.7237C90.5815 29.7844 90.5482 28.8236 90.3299 27.8974ZM79.643 16.4274C79.7743 16.2151 79.9458 16.031 80.1477 15.8856C80.3497 15.7403 80.578 15.6365 80.8197 15.5804C80.9595 15.5467 81.1028 15.5304 81.2464 15.5318C81.5966 15.5316 81.9398 15.6302 82.2373 15.8164C82.5099 15.9872 82.7346 16.2255 82.89 16.5087C83.0454 16.7919 83.1263 17.1105 83.125 17.4342C83.1251 17.7865 83.0299 18.1322 82.8498 18.434L81.8244 20.1003L79.5123 23.8496C79.3859 24.0613 79.2183 24.2449 79.0196 24.3893C78.8209 24.5337 78.5952 24.6359 78.3562 24.6897C78.1157 24.75 77.8656 24.7609 77.6208 24.7215C77.3761 24.6821 77.1417 24.5934 76.9317 24.4606C76.72 24.3288 76.5362 24.1561 76.3909 23.9523C76.2456 23.7485 76.1418 23.5178 76.0853 23.2733C76.0271 23.0313 76.0178 22.7799 76.058 22.5342C76.0982 22.2884 76.187 22.0534 76.3193 21.843L78.6246 18.0938L79.643 16.4274ZM50.9473 -1.55515C51.1186 -1.82978 51.3562 -2.05604 51.6378 -2.21269C51.9195 -2.36935 52.2359 -2.45129 52.5576 -2.45081C52.9046 -2.45068 53.2449 -2.35462 53.5416 -2.17308C53.8129 -1.9993 54.0365 -1.75936 54.1916 -1.47541C54.3468 -1.19145 54.4285 -0.872645 54.4293 -0.548403C54.4293 -0.197323 54.3315 0.146685 54.1472 0.444453L50.8165 5.86006C50.5513 6.28638 50.1298 6.58976 49.644 6.70418C49.1581 6.81861 48.6472 6.73482 48.2222 6.47106C48.012 6.33998 47.8296 6.16819 47.6855 5.9656C47.5414 5.76302 47.4385 5.53365 47.3827 5.29073C47.3245 5.0487 47.3152 4.7973 47.3554 4.55156C47.3956 4.30582 47.4844 4.07077 47.6167 3.86045L49.9219 0.111187L50.9473 -1.55515ZM66.0452 66.7787C65.7166 67.3155 65.286 67.7814 64.7781 68.1496C64.2703 68.5179 63.6953 68.781 63.0862 68.9241C62.4791 69.0685 61.8497 69.09 61.2344 68.9876C60.619 68.8851 60.0298 68.6606 59.501 68.327L16.8358 41.6031C16.3038 41.274 15.8422 40.841 15.4783 40.3295C15.1143 39.818 14.8553 39.2383 14.7164 38.6245C14.5717 38.0121 14.5496 37.3768 14.6512 36.7557C14.7528 36.1346 14.9761 35.5401 15.3082 35.0071L31.3764 8.90808L82.0791 40.6866L66.0452 66.7787ZM87.3778 32.0633L83.3797 38.5898L32.6701 6.81126L36.6889 0.284765C37.0162 -0.251048 37.4457 -0.71597 37.9525 -1.08306C38.4592 -1.45014 39.0332 -1.71209 39.641 -1.85371C39.9992 -1.94199 40.3665 -1.98628 40.7352 -1.98563C41.6132 -1.99067 42.4754 -1.75035 43.2263 -1.29132L46.6051 0.833263L45.5729 2.5135C45.2729 2.99544 45.071 3.53275 44.9789 4.09418C44.8867 4.65561 44.9062 5.22992 45.0361 5.78369C45.1629 6.33701 45.3972 6.85944 45.7256 7.32069C46.054 7.78193 46.4699 8.1728 46.9492 8.47066C47.1031 8.56845 47.2641 8.65433 47.4309 8.72756L47.5754 8.79004C47.7038 8.84559 47.8346 8.8942 47.9676 8.93585L48.0846 8.97056C48.2514 9.01857 48.4217 9.0534 48.5938 9.07471H48.7177C48.8529 9.08185 48.9885 9.08185 49.1237 9.07471H49.2751C49.4035 9.08181 49.5321 9.08181 49.6605 9.07471H49.7637C49.8816 9.07471 49.9994 9.0439 50.1145 9.01383C50.1539 9.00353 50.193 8.99331 50.2316 8.98445L50.3624 8.94279C50.4768 8.91539 50.5895 8.8806 50.6996 8.83865L50.851 8.77616L51.1813 8.62341L51.2982 8.56092C51.4404 8.4829 51.5782 8.39715 51.7111 8.30403L51.7868 8.24155C51.89 8.16519 51.9932 8.07495 52.0964 7.98471L52.0965 7.98464L52.2135 7.87355L52.4612 7.60972C52.4954 7.57211 52.5275 7.53272 52.5576 7.49169C52.67 7.35927 52.7713 7.2176 52.8603 7.06816L53.8994 5.38794L75.3008 18.802L74.2686 20.4822C73.9689 20.9629 73.767 21.4991 73.6749 22.0593C73.5827 22.6196 73.6021 23.1928 73.7318 23.7454C73.8591 24.3022 74.0942 24.8281 74.4237 25.2928C74.7532 25.7576 75.1706 26.1519 75.6518 26.4533L76.1266 26.7032L76.2642 26.7588C76.3946 26.8146 76.5278 26.8632 76.6633 26.9046H76.7734C76.9386 26.9515 77.1063 26.9886 77.2758 27.0156H77.4134C77.5464 27.0228 77.6796 27.0228 77.8125 27.0156H77.9777H78.2736H78.4388C78.5628 27.0156 78.6826 26.9858 78.8015 26.9562C78.8264 26.95 78.8512 26.9438 78.8761 26.9379L78.8998 26.9323C79.4473 26.8043 79.964 26.5677 80.4201 26.2364C80.8761 25.905 81.2622 25.4855 81.5561 25.0022L82.5952 23.3219L85.8639 25.3701C86.3951 25.7018 86.856 26.1364 87.2198 26.6488C87.5836 27.1613 87.8431 27.7414 87.9834 28.3557C88.1401 28.9802 88.1691 29.6305 88.0686 30.2668C87.968 30.903 87.74 31.5119 87.3984 32.0563L87.3778 32.0633ZM29.7524 27.071L34.2322 29.8482C34.6645 30.1245 35.1656 30.2714 35.6773 30.2718C36.1469 30.2732 36.6091 30.1533 37.0198 29.9236C37.4305 29.6939 37.7762 29.3621 38.0239 28.9595L40.7765 24.4396C40.9684 24.1293 41.0977 23.7839 41.1569 23.4231C41.2161 23.0624 41.2042 22.6933 41.1217 22.3372C41.0392 21.9811 40.8878 21.645 40.6763 21.3481C40.4647 21.0511 40.1971 20.7993 39.8888 20.607L35.4089 17.8298C35.1015 17.6362 34.7591 17.5057 34.4015 17.446C34.044 17.3862 33.6782 17.3983 33.3253 17.4815C32.9723 17.5647 32.6392 17.7174 32.3449 17.9309C32.0506 18.1444 31.801 18.4144 31.6104 18.7254L28.8578 23.2454C28.6673 23.5558 28.5393 23.901 28.4811 24.2613C28.423 24.6216 28.4358 24.99 28.5189 25.3453C28.602 25.7007 28.7537 26.036 28.9654 26.3321C29.177 26.6282 29.4445 26.8793 29.7524 27.071ZM30.9153 24.5229L33.6679 20.0099C33.6983 19.9582 33.7417 19.9156 33.7936 19.8863C33.8456 19.8571 33.9043 19.8422 33.9638 19.8433C34.0269 19.8419 34.0889 19.8588 34.1428 19.8919L38.6226 22.6691C38.6618 22.6925 38.6959 22.7237 38.7228 22.7608C38.7497 22.7979 38.7688 22.8401 38.7791 22.8849C38.7894 22.9297 38.7906 22.9761 38.7826 23.0213C38.7746 23.0666 38.7577 23.1097 38.7327 23.1482L35.9801 27.6681C35.9562 27.7069 35.925 27.7406 35.8881 27.7672C35.8513 27.7938 35.8097 27.8128 35.7656 27.8231C35.7214 27.8334 35.6757 27.8349 35.6311 27.8273C35.5864 27.8198 35.5437 27.8034 35.5053 27.7792L31.0255 25.002C30.987 24.9779 30.9536 24.9463 30.9273 24.9092C30.9009 24.872 30.8821 24.83 30.8718 24.7855C30.8616 24.741 30.8602 24.6949 30.8676 24.6498C30.8751 24.6048 30.8913 24.5616 30.9153 24.5229ZM28.6652 28.8693L33.1451 31.6466C33.4556 31.8366 33.7258 32.0868 33.9401 32.3827C34.1544 32.6786 34.3085 33.0143 34.3936 33.3706C34.4787 33.7268 34.493 34.0966 34.4358 34.4585C34.3786 34.8203 34.251 35.1672 34.0603 35.4791L31.2733 39.9921C31.0262 40.3937 30.6817 40.7249 30.2722 40.9546C29.8628 41.1842 29.4021 41.3046 28.9336 41.3044C28.4202 41.3074 27.9166 41.1629 27.4816 40.8878L23.0018 38.1106C22.6944 37.9183 22.4276 37.6668 22.2167 37.3704C22.0057 37.074 21.8547 36.7386 21.7722 36.3833C21.6898 36.0281 21.6776 35.6599 21.7362 35.2998C21.7949 34.9398 21.9233 34.5949 22.1141 34.2849L24.8667 29.765C25.0573 29.4539 25.3069 29.1839 25.6012 28.9705C25.8954 28.757 26.2286 28.6042 26.5816 28.521C26.9345 28.4378 27.3003 28.4257 27.6578 28.4855C28.0154 28.5453 28.3578 28.6757 28.6652 28.8693ZM29.2295 38.7146L31.9821 34.1947C32.0072 34.1557 32.0243 34.112 32.0324 34.0662C32.0404 34.0204 32.0393 33.9735 32.029 33.9281C32.0188 33.8828 31.9996 33.84 31.9726 33.8023C31.9456 33.7646 31.9114 33.7328 31.872 33.7086L27.3922 30.9314C27.3384 30.8983 27.2763 30.8815 27.2133 30.8828C27.1538 30.8818 27.095 30.8966 27.0431 30.9259C26.9911 30.9552 26.9477 30.9978 26.9174 31.0494L24.1648 35.5625C24.1396 35.6014 24.1226 35.6451 24.1145 35.6909C24.1064 35.7367 24.1076 35.7837 24.1178 35.829C24.1281 35.8743 24.1473 35.9171 24.1743 35.9548C24.2013 35.9925 24.2355 36.0244 24.2749 36.0485L28.7547 38.8257C28.7931 38.8499 28.8358 38.8663 28.8805 38.8738C28.9252 38.8814 28.9709 38.8799 29.015 38.8696C29.0591 38.8593 29.1007 38.8403 29.1376 38.8137C29.1744 38.7871 29.2056 38.7534 29.2295 38.7146ZM40.9072 34.0627L45.3871 36.8399C45.8199 37.1141 46.3211 37.2586 46.8322 37.2565C47.3018 37.2579 47.7639 37.1381 48.1747 36.9084C48.5854 36.6787 48.931 36.3468 49.1788 35.9443L51.9314 31.4313C52.1235 31.1214 52.2532 30.7764 52.313 30.4159C52.3727 30.0554 52.3614 29.6865 52.2795 29.3305C52.1977 28.9744 52.047 28.6382 51.8361 28.341C51.6252 28.0438 51.3582 27.7916 51.0505 27.5987L46.5707 24.8215C46.2632 24.6278 45.9208 24.4974 45.5633 24.4377C45.2057 24.3779 44.8399 24.39 44.487 24.4732C44.1341 24.5564 43.8009 24.7091 43.5066 24.9226C43.2123 25.1361 42.9627 25.4061 42.7721 25.7171L40.0195 30.2301C39.8276 30.5404 39.6984 30.8858 39.6391 31.2466C39.5799 31.6073 39.5919 31.9764 39.6743 32.3325C39.7568 32.6886 39.9082 33.0247 40.1198 33.3216C40.3313 33.6186 40.5989 33.8704 40.9072 34.0627ZM42.0633 31.5146L44.8503 26.9946C44.882 26.9448 44.9259 26.9039 44.9777 26.8759C45.0295 26.848 45.0875 26.8339 45.1462 26.835C45.2092 26.8336 45.2713 26.8505 45.3251 26.8836L49.805 29.6608C49.8444 29.6849 49.8786 29.7167 49.9056 29.7544C49.9325 29.7922 49.9517 29.8349 49.962 29.8803C49.9723 29.9256 49.9734 29.9726 49.9653 30.0183C49.9573 30.0641 49.9402 30.1078 49.9151 30.1468L47.1625 34.6668C47.1118 34.7442 47.0334 34.799 46.9437 34.8196C46.854 34.8403 46.7598 34.8254 46.6808 34.7778L42.2078 32.0006C42.1299 31.9505 42.0742 31.8719 42.0524 31.7813C42.0306 31.6908 42.0444 31.5952 42.0908 31.5146H42.0633ZM45.0822 39.3818C45.2947 39.6773 45.4474 40.0121 45.5316 40.3672C45.6171 40.7191 45.6319 41.0846 45.5752 41.4424C45.5184 41.8001 45.3913 42.1427 45.2013 42.4501L42.4487 46.9701C42.201 47.3726 41.8553 47.7045 41.4446 47.9342C41.0339 48.1639 40.5717 48.2837 40.1021 48.2823C39.591 48.2844 39.0899 48.1399 38.657 47.8657L34.1772 45.0885C33.8692 44.8962 33.6019 44.6446 33.3906 44.3479C33.1792 44.0512 33.0279 43.7154 32.9454 43.3597C32.7838 42.6467 32.9074 41.8982 33.2895 41.2767L36.0421 36.7637C36.2326 36.453 36.482 36.1833 36.7761 35.9701C37.0701 35.7568 37.4029 35.6042 37.7555 35.5209C38.4622 35.3579 39.204 35.4826 39.82 35.8681L44.2929 38.6453C44.6014 38.8361 44.8696 39.0864 45.0822 39.3818ZM40.3911 45.6995L43.1437 41.1865H43.1369C43.1664 41.1448 43.1856 41.0965 43.1928 41.0458C43.2 40.995 43.195 40.9433 43.1781 40.8949C43.1705 40.8489 43.153 40.8053 43.1268 40.7669C43.1007 40.7285 43.0665 40.6963 43.0268 40.6727L38.5469 37.8955C38.5089 37.8699 38.4658 37.8529 38.4207 37.8457C38.3756 37.8385 38.3294 37.8413 38.2854 37.8538C38.1972 37.8744 38.1205 37.9293 38.0721 38.0065L35.3195 42.5265C35.2721 42.6056 35.2573 42.7003 35.2782 42.7903C35.2888 42.8351 35.3083 42.8773 35.3355 42.9143C35.3627 42.9513 35.397 42.9824 35.4365 43.0056L39.9094 45.8175C39.9893 45.8644 40.084 45.8783 40.1738 45.8563C40.2636 45.8343 40.3415 45.7781 40.3911 45.6995ZM51.7593 40.867L56.2392 43.6442C56.6733 43.9156 57.1736 44.0599 57.6843 44.0608C58.1481 44.0689 58.6064 43.9585 59.0167 43.74C59.4269 43.5215 59.7758 43.202 60.0309 42.811L62.7835 38.2911C63.1694 37.6659 63.2935 36.9116 63.1283 36.1942C62.9631 35.4768 62.5222 34.8549 61.9026 34.4654L57.4228 31.6535C57.1153 31.4599 56.773 31.3295 56.4154 31.2697C56.0578 31.2099 55.6921 31.222 55.3391 31.3052C54.9862 31.3884 54.653 31.5411 54.3587 31.7546C54.0644 31.9681 53.8148 32.2381 53.6242 32.5491L50.8716 37.0691C50.4949 37.6927 50.3769 38.441 50.543 39.1518C50.7092 39.8627 51.1462 40.4788 51.7593 40.867ZM52.9154 38.3189L55.668 33.7989C55.6994 33.7482 55.743 33.7063 55.7947 33.6772C55.8465 33.648 55.9047 33.6326 55.9639 33.6323C56.0275 33.6337 56.0894 33.653 56.1428 33.6878L60.6227 36.4651C60.6619 36.4885 60.6959 36.5197 60.7228 36.5568C60.7497 36.5939 60.7689 36.6361 60.7792 36.6808C60.7895 36.7256 60.7907 36.772 60.7827 36.8173C60.7747 36.8625 60.7577 36.9057 60.7328 36.9441L57.9802 41.4641C57.9563 41.5038 57.9247 41.5383 57.8874 41.5656C57.85 41.5928 57.8076 41.6121 57.7626 41.6225C57.7177 41.6329 57.6712 41.634 57.6258 41.6259C57.5804 41.6177 57.5371 41.6005 57.4985 41.5752L53.0255 38.7979C52.9871 38.7738 52.9537 38.7423 52.9273 38.7051C52.901 38.668 52.8821 38.626 52.8719 38.5815C52.8617 38.5369 52.8603 38.4908 52.8677 38.4458C52.8752 38.4007 52.8914 38.3576 52.9154 38.3189ZM50.6858 42.6584L55.1657 45.4356C55.7849 45.8216 56.2274 46.4394 56.3964 47.1537C56.5653 47.8681 56.4469 48.6209 56.0671 49.2474L53.3146 53.7673C53.0668 54.1699 52.7212 54.5018 52.3104 54.7314C51.8997 54.9611 51.4376 55.081 50.968 55.0796C50.4573 55.0787 49.9569 54.9344 49.5229 54.663L45.043 51.851C44.7357 51.6588 44.4689 51.4073 44.2579 51.1109C44.0469 50.8145 43.8959 50.4791 43.8135 50.1238C43.731 49.7686 43.7188 49.4004 43.7774 49.0403C43.8361 48.6802 43.9645 48.3354 44.1553 48.0254L46.9079 43.5055C47.3004 42.8911 47.9172 42.4576 48.6244 42.299C49.3317 42.1404 50.0724 42.2696 50.6858 42.6584ZM51.2501 52.5037L54.0027 47.9838H53.9889C54.017 47.9476 54.0374 47.9062 54.0492 47.8619C54.0609 47.8176 54.0636 47.7714 54.0572 47.726C54.0508 47.6806 54.0353 47.6369 54.0118 47.5977C53.9882 47.5585 53.957 47.5245 53.9201 47.4977L49.4403 44.7205C49.4015 44.6966 49.3584 44.6806 49.3134 44.6736C49.2685 44.6666 49.2226 44.6686 49.1785 44.6796C49.1343 44.6906 49.0928 44.7103 49.0562 44.7376C49.0196 44.7648 48.9888 44.7992 48.9655 44.8385L46.1785 49.3515C46.13 49.4328 46.1151 49.5301 46.1372 49.6223C46.1477 49.6671 46.1672 49.7093 46.1944 49.7463C46.2216 49.7833 46.256 49.8144 46.2955 49.8376L50.7684 52.6148C50.8071 52.6401 50.8503 52.6574 50.8957 52.6655C50.9411 52.6736 50.9876 52.6725 51.0326 52.6621C51.0775 52.6518 51.1199 52.6324 51.1573 52.6052C51.1946 52.578 51.2262 52.5435 51.2501 52.5037ZM72.4793 41.0408L67.9995 38.2635C67.6957 38.0698 67.3565 37.9393 67.002 37.8797C66.6475 37.8201 66.2847 37.8326 65.9351 37.9164C65.5815 37.9971 65.2476 38.1487 64.9532 38.3622C64.6589 38.5757 64.4101 38.8467 64.2216 39.1592L61.469 43.6722C61.2771 43.9824 61.1478 44.3279 61.0886 44.6886C61.0294 45.0494 61.0413 45.4184 61.1238 45.7745C61.2063 46.1306 61.3576 46.4668 61.5692 46.7637C61.7808 47.0606 62.0484 47.3125 62.3567 47.5048L66.8365 50.282C67.2726 50.5547 67.7755 50.699 68.2885 50.6986C68.7581 50.7 69.2203 50.5802 69.631 50.3505C70.0417 50.1208 70.3874 49.7889 70.6351 49.3864L73.3877 44.8664C73.5776 44.5552 73.7048 44.2092 73.7619 43.8484C73.819 43.4875 73.805 43.1188 73.7206 42.7634C73.6362 42.408 73.4831 42.0728 73.2701 41.7772C73.0571 41.4817 72.7884 41.2314 72.4793 41.0408ZM71.3164 43.5889L68.5638 48.1019C68.5154 48.18 68.4388 48.236 68.3501 48.2581C68.2615 48.2801 68.1678 48.2664 68.089 48.2199L63.6091 45.4427C63.5697 45.4186 63.5355 45.3867 63.5085 45.349C63.4816 45.3113 63.4624 45.2685 63.4521 45.2232C63.4418 45.1779 63.4407 45.1309 63.4488 45.0851C63.4568 45.0393 63.4739 44.9957 63.499 44.9567L66.2516 40.4367C66.3 40.3595 66.3767 40.3046 66.4649 40.284H66.5475C66.6113 40.2839 66.6737 40.3032 66.7264 40.3395L71.2063 43.1168C71.2821 43.1654 71.336 43.242 71.3566 43.3302C71.3772 43.4184 71.3627 43.5113 71.3164 43.5889ZM61.2213 49.2754L65.7011 52.0526C66.3173 52.4454 66.7539 53.0688 66.9151 53.786C67.0764 54.5032 66.9491 55.2556 66.5613 55.8782L63.8087 60.3982C63.561 60.8007 63.2153 61.1326 62.8046 61.3623C62.3939 61.592 61.9317 61.7118 61.4621 61.7104C60.9491 61.7108 60.4462 61.5665 60.0101 61.2938L55.5303 58.5166C55.222 58.3243 54.9544 58.0725 54.7428 57.7756C54.5312 57.4786 54.3799 57.1425 54.2974 56.7864C54.2149 56.4303 54.2029 56.0612 54.2622 55.7005C54.3214 55.3397 54.4507 54.9943 54.6426 54.684L57.4296 50.1641C57.8156 49.5389 58.4319 49.0941 59.143 48.9274C59.8541 48.7608 60.6016 48.8859 61.2213 49.2754ZM61.7855 59.1276L64.5381 54.6146C64.5622 54.5759 64.5784 54.5327 64.5858 54.4877C64.5933 54.4426 64.5919 54.3965 64.5817 54.352C64.5714 54.3075 64.5526 54.2655 64.5262 54.2283C64.4999 54.1912 64.4665 54.1596 64.428 54.1355L59.9482 51.3583C59.8948 51.3234 59.8329 51.3042 59.7693 51.3028C59.71 51.3031 59.6518 51.3185 59.6001 51.3476C59.5483 51.3768 59.5047 51.4187 59.4734 51.4694L56.7208 55.9893C56.6958 56.0278 56.6788 56.0709 56.6709 56.1162C56.6629 56.1614 56.6641 56.2078 56.6744 56.2526C56.6847 56.2974 56.7038 56.3396 56.7307 56.3767C56.7576 56.4138 56.7917 56.445 56.8309 56.4684L61.3107 59.2456C61.3895 59.2921 61.4832 59.3058 61.5719 59.2838C61.6605 59.2617 61.7372 59.2057 61.7855 59.1276Z" fill="url(#paint4_linear_371_443)"/>
</g>
<defs>
<linearGradient id="paint0_linear_371_443" x1="119.246" y1="30.4809" x2="94.5123" y2="60.0153" gradientUnits="userSpaceOnUse">
<stop stop-color="white" stop-opacity="0.42"/>
<stop offset="1" stop-color="white" stop-opacity="0"/>
</linearGradient>
<linearGradient id="paint1_linear_371_443" x1="16.0933" y1="-0.0719848" x2="-1.80196" y2="25.6797" gradientUnits="userSpaceOnUse">
<stop stop-color="white" stop-opacity="0.42"/>
<stop offset="1" stop-color="white" stop-opacity="0"/>
</linearGradient>
<linearGradient id="paint2_linear_371_443" x1="122.446" y1="24.3703" x2="99.1628" y2="61.6157" gradientUnits="userSpaceOnUse">
<stop stop-color="white" stop-opacity="0.3"/>
<stop offset="1" stop-color="white" stop-opacity="0"/>
</linearGradient>
<linearGradient id="paint3_linear_371_443" x1="16.4528" y1="2.68331" x2="3.29059" y2="23.7382" gradientUnits="userSpaceOnUse">
<stop stop-color="white" stop-opacity="0.3"/>
<stop offset="1" stop-color="white" stop-opacity="0"/>
</linearGradient>
<linearGradient id="paint4_linear_371_443" x1="51.3583" y1="-4.91699" x2="51.3583" y2="71.5" gradientUnits="userSpaceOnUse">
<stop stop-color="white" stop-opacity="0.42"/>
<stop offset="1" stop-color="white" stop-opacity="0"/>
</linearGradient>
<clipPath id="clip0_371_443">
<path d="M0 8C0 3.58172 3.58172 0 8 0H110C114.418 0 118 3.58172 118 8V65H0V8Z" fill="white"/>
</clipPath>
</defs>
</svg>
