<svg width="30" height="30" viewBox="0 0 30 30" fill="none" xmlns="http://www.w3.org/2000/svg">
<path d="M14.9999 6.25879C14.3676 6.25879 13.7613 6.50995 13.3142 6.95703C12.8671 7.4041 12.616 8.01046 12.616 8.64272V14.9999C12.616 15.6321 12.8671 16.2385 13.3142 16.6856C13.7613 17.1326 14.3676 17.3838 14.9999 17.3838C15.6322 17.3838 16.2385 17.1326 16.6856 16.6856C17.1327 16.2385 17.3838 15.6321 17.3838 14.9999V8.64272C17.3838 8.01046 17.1327 7.4041 16.6856 6.95703C16.2385 6.50995 15.6322 6.25879 14.9999 6.25879V6.25879Z" stroke="#95AAC9" stroke-width="1.2" stroke-linecap="round" stroke-linejoin="round"/>
<path d="M20.5625 13.4106V14.9999C20.5625 16.4752 19.9765 17.89 18.9333 18.9332C17.8901 19.9764 16.4753 20.5624 15 20.5624C13.5247 20.5624 12.1099 19.9764 11.0667 18.9332C10.0235 17.89 9.4375 16.4752 9.4375 14.9999V13.4106" stroke="#95AAC9" stroke-width="1.2" stroke-linecap="round" stroke-linejoin="round"/>
<path d="M15 20.5625V23.7411" stroke="#95AAC9" stroke-width="1.2" stroke-linecap="round" stroke-linejoin="round"/>
<path d="M11.8215 23.741H18.1787" stroke="#95AAC9" stroke-width="1.2" stroke-linecap="round" stroke-linejoin="round"/>
</svg>
