<svg width="30" height="30" viewBox="0 0 30 30" fill="none" xmlns="http://www.w3.org/2000/svg">
<path d="M12.0522 18.6904V19.6224C12.0522 19.8985 12.2761 20.1224 12.5522 20.1224H17.448C17.7242 20.1224 17.948 19.8985 17.948 19.6224V18.6904" stroke="#95AAC9" stroke-linecap="round"/>
<path d="M14.3869 17.9718C14.3869 18.248 14.6108 18.4718 14.8869 18.4718C15.163 18.4718 15.3869 18.248 15.3869 17.9718H14.3869ZM12.7837 15.1945C12.5884 15.3897 12.5884 15.7063 12.7837 15.9016C12.9789 16.0969 13.2955 16.0969 13.4908 15.9016L12.7837 15.1945ZM14.8869 13.7983L15.2405 13.4448C15.0452 13.2495 14.7286 13.2495 14.5334 13.4448L14.8869 13.7983ZM16.283 15.9016C16.4783 16.0969 16.7949 16.0969 16.9902 15.9016C17.1854 15.7063 17.1854 15.3897 16.9902 15.1945L16.283 15.9016ZM15.3869 17.9718V14.3481H14.3869V17.9718H15.3869ZM13.4908 15.9016L15.2405 14.1519L14.5334 13.4448L12.7837 15.1945L13.4908 15.9016ZM14.5334 14.1519C14.875 14.4935 15.1416 14.7601 15.4082 15.0267C15.6748 15.2933 15.9414 15.5599 16.283 15.9016L16.9902 15.1945C16.6485 14.8528 16.3819 14.5862 16.1153 14.3196C15.8487 14.053 15.5821 13.7864 15.2405 13.4448L14.5334 14.1519Z" fill="#95AAC9"/>
<path d="M21.3645 11.2095V21.534C21.3641 22.1353 21.1251 22.7118 20.7 23.137C20.2748 23.5621 19.6983 23.8012 19.097 23.8015H10.9032C10.302 23.8012 9.72546 23.5621 9.3003 23.137C8.87515 22.7118 8.63612 22.1353 8.63574 21.534V8.46574C8.63612 7.86448 8.87515 7.28795 9.3003 6.8628C9.72546 6.43764 10.302 6.19862 10.9032 6.19824H16.3547L16.49 6.33349V9.34626C16.49 9.8221 16.679 10.2784 17.0155 10.6149C17.3519 10.9514 17.8083 11.1404 18.2841 11.1404H21.2955L21.3645 11.2095Z" stroke="#95AAC9" stroke-miterlimit="10"/>
<path d="M21.2952 11.1404H18.2839C18.0483 11.1404 17.815 11.094 17.5973 11.0038C17.3796 10.9137 17.1818 10.7815 17.0152 10.6149C16.8486 10.4483 16.7165 10.2505 16.6263 10.0329C16.5362 9.81519 16.4897 9.58188 16.4897 9.34627V6.3335L21.2952 11.1404Z" stroke="#95AAC9" stroke-miterlimit="10" stroke-linejoin="bevel"/>
</svg>
