<svg width="30" height="30" viewBox="0 0 30 30" fill="none" xmlns="http://www.w3.org/2000/svg">
<rect x="6.03394" y="16.8193" width="7.68539" height="7.68539" rx="1" stroke="#95AAC9"/>
<path fill-rule="evenodd" clip-rule="evenodd" d="M12.4475 18.6929C12.6012 18.8393 12.6071 19.0825 12.4607 19.2362L9.4952 22.35C9.28675 22.5689 8.93895 22.5731 8.72523 22.3594L7.60693 21.2411C7.45687 21.091 7.45687 20.8477 7.60693 20.6977C7.757 20.5476 8.00031 20.5476 8.15037 20.6977L9.10161 21.6489L11.9042 18.7062C12.0506 18.5525 12.2938 18.5466 12.4475 18.6929Z" fill="#95AAC9"/>
<rect x="6.03394" y="6.8125" width="7.68539" height="7.68539" rx="1" stroke="#95AAC9"/>
<rect x="16.2808" y="16.8193" width="7.68539" height="7.68539" rx="1" stroke="#95AAC9"/>
<rect x="16.2808" y="6.8125" width="7.68539" height="7.68539" rx="1" stroke="#95AAC9"/>
<path fill-rule="evenodd" clip-rule="evenodd" d="M22.6943 8.68608C22.848 8.83245 22.8539 9.07568 22.7076 9.22936L19.742 12.3432C19.5336 12.562 19.1858 12.5663 18.9721 12.3526L17.8538 11.2343C17.7037 11.0842 17.7037 10.8409 17.8538 10.6908C18.0038 10.5408 18.2471 10.5408 18.3972 10.6908L19.3484 11.6421L22.151 8.69933C22.2974 8.54565 22.5406 8.53972 22.6943 8.68608Z" fill="#95AAC9"/>
</svg>
