<svg width="30" height="30" viewBox="0 0 30 30" fill="none" xmlns="http://www.w3.org/2000/svg">
<path d="M5.0332 10.9341L7.50426 9.72852H7.75137V18.3024C7.75137 18.8714 7.77384 19.2259 7.81876 19.3657C7.86868 19.5054 7.96852 19.6128 8.11829 19.6876C8.26805 19.7625 8.57256 19.805 9.03183 19.8149V20.092H5.21292V19.8149C5.69215 19.805 6.00166 19.765 6.14144 19.6951C6.28121 19.6203 6.37856 19.5229 6.43347 19.4031C6.48838 19.2783 6.51584 18.9114 6.51584 18.3024V12.8211C6.51584 12.0823 6.49088 11.608 6.44096 11.3984C6.40602 11.2386 6.34112 11.1213 6.24627 11.0464C6.15641 10.9715 6.04659 10.9341 5.91679 10.9341C5.73209 10.9341 5.475 11.0115 5.14552 11.1662L5.0332 10.9341Z" fill="#95AAC9"/>
<path d="M17.9351 18.1376L17.2238 20.092H11.2333V19.8149C12.9955 18.2075 14.236 16.8946 14.9549 15.8762C15.6737 14.8578 16.0332 13.9268 16.0332 13.0832C16.0332 12.4392 15.836 11.91 15.4416 11.4957C15.0472 11.0814 14.5755 10.8742 14.0264 10.8742C13.5272 10.8742 13.0779 11.0215 12.6785 11.316C12.2841 11.6055 11.9921 12.0323 11.8024 12.5964H11.5254C11.6502 11.6729 11.9696 10.964 12.4838 10.4698C13.003 9.97562 13.6495 9.72852 14.4232 9.72852C15.2469 9.72852 15.9333 9.99309 16.4825 10.5223C17.0366 11.0514 17.3136 11.6754 17.3136 12.3943C17.3136 12.9084 17.1938 13.4226 16.9542 13.9368C16.5848 14.7455 15.9857 15.6017 15.1571 16.5052C13.914 17.8631 13.1378 18.6817 12.8283 18.9613H15.4791C16.0182 18.9613 16.3951 18.9413 16.6098 18.9014C16.8294 18.8615 17.0266 18.7816 17.2013 18.6618C17.376 18.537 17.5283 18.3623 17.6581 18.1376H17.9351Z" fill="#95AAC9"/>
<path d="M19.3504 11.8701C19.6399 11.1862 20.0043 10.6595 20.4436 10.2901C20.8879 9.91572 21.4396 9.72852 22.0985 9.72852C22.9122 9.72852 23.5362 9.99309 23.9705 10.5223C24.3 10.9166 24.4647 11.3384 24.4647 11.7877C24.4647 12.5266 24.0005 13.2903 23.072 14.0791C23.696 14.3237 24.1677 14.6731 24.4872 15.1274C24.8067 15.5817 24.9664 16.1158 24.9664 16.7299C24.9664 17.6085 24.6869 18.3697 24.1278 19.0137C23.3989 19.8524 22.3431 20.2717 20.9603 20.2717C20.2764 20.2717 19.8097 20.1868 19.5601 20.0171C19.3154 19.8474 19.1931 19.6652 19.1931 19.4705C19.1931 19.3257 19.2505 19.1984 19.3654 19.0886C19.4852 18.9788 19.6274 18.9239 19.7922 18.9239C19.917 18.9239 20.0443 18.9438 20.1741 18.9838C20.2589 19.0087 20.4511 19.1011 20.7507 19.2608C21.0502 19.4156 21.2573 19.5079 21.3722 19.5379C21.5569 19.5928 21.7541 19.6203 21.9637 19.6203C22.4729 19.6203 22.9147 19.4231 23.2891 19.0287C23.6685 18.6343 23.8582 18.1676 23.8582 17.6284C23.8582 17.2341 23.7708 16.8497 23.5961 16.4753C23.4663 16.1957 23.3241 15.9835 23.1693 15.8388C22.9546 15.6391 22.6601 15.4594 22.2857 15.2996C21.9113 15.1349 21.5294 15.0525 21.14 15.0525H20.9004V14.8279C21.2948 14.778 21.6892 14.6357 22.0835 14.4011C22.4829 14.1664 22.7724 13.8844 22.9521 13.5549C23.1319 13.2254 23.2217 12.8635 23.2217 12.4691C23.2217 11.955 23.0595 11.5406 22.735 11.2261C22.4155 10.9066 22.0161 10.7469 21.5369 10.7469C20.7631 10.7469 20.1167 11.1612 19.5975 11.9899L19.3504 11.8701Z" fill="#95AAC9"/>
</svg>
