<svg width="30" height="30" viewBox="0 0 30 30" fill="none" xmlns="http://www.w3.org/2000/svg">
<path fill-rule="evenodd" clip-rule="evenodd" d="M12.6776 16.0522H8.04186L7.2295 17.9617C7.02935 18.4317 6.92928 18.7826 6.92928 19.0146C6.92928 19.199 7.0161 19.3611 7.18976 19.5009C7.36342 19.6407 7.73869 19.7314 8.31559 19.7731V20.1032H4.54517V19.7731C5.04554 19.6838 5.3693 19.5678 5.51647 19.4251C5.81669 19.1395 6.14929 18.5596 6.51426 17.6851L10.7262 7.72705H11.0352L15.203 17.7922C15.5386 18.6012 15.8432 19.1262 16.1169 19.3671C16.3907 19.608 16.7718 19.7433 17.2604 19.7731V20.1032H12.5363V19.7731C13.0132 19.7493 13.3355 19.669 13.5032 19.5322C13.671 19.3953 13.7549 19.2288 13.7549 19.0325C13.7549 18.7707 13.6372 18.3573 13.4017 17.7922L12.6776 16.0522ZM12.4305 15.3918L10.3996 10.502L8.31569 15.3918H12.4305ZM22.6117 18.9261C21.7816 19.5745 21.2607 19.9493 21.0488 20.0504C20.7309 20.1991 20.3924 20.2735 20.0333 20.2735C19.4741 20.2735 19.0134 20.0801 18.6514 19.6935C18.2894 19.3068 18.1084 18.7982 18.1084 18.1676C18.1084 17.7691 18.1967 17.424 18.3733 17.1326C18.6146 16.7281 19.034 16.3473 19.6315 15.9904C20.229 15.6335 21.2224 15.1993 22.6117 14.6877V14.3664C22.6117 13.5515 22.4836 12.9923 22.2276 12.6889C21.9715 12.3855 21.5992 12.2338 21.1106 12.2338C20.7397 12.2338 20.4454 12.335 20.2276 12.5372C20.0039 12.7395 19.892 12.9715 19.892 13.2332L19.9097 13.7508C19.9097 14.0244 19.8405 14.2356 19.7022 14.3843C19.5638 14.533 19.3828 14.6074 19.1591 14.6074C18.9413 14.6074 18.7633 14.53 18.6249 14.3754C18.4866 14.2207 18.4174 14.0095 18.4174 13.7418C18.4174 13.2302 18.6764 12.7603 19.1944 12.332C19.7125 11.9037 20.4395 11.6895 21.3755 11.6895C22.0936 11.6895 22.6823 11.8115 23.1415 12.0554C23.4888 12.2398 23.7449 12.5283 23.9097 12.9209C24.0156 13.1767 24.0686 13.7002 24.0686 14.4914V17.2664C24.0686 18.0457 24.0833 18.5231 24.1128 18.6985C24.1422 18.874 24.1908 18.9915 24.2585 19.051C24.3262 19.1105 24.4042 19.1402 24.4925 19.1402C24.5867 19.1402 24.6691 19.1194 24.7397 19.0778C24.8633 19.0004 25.1017 18.7833 25.4549 18.4264V18.9261C24.7956 19.8184 24.1658 20.2645 23.5653 20.2645C23.2769 20.2645 23.0473 20.1634 22.8766 19.9611C22.7059 19.7589 22.6176 19.4139 22.6117 18.9261ZM22.6117 18.3453V15.2312C21.7228 15.5881 21.1489 15.841 20.8899 15.9897C20.4248 16.2514 20.0922 16.5251 19.8921 16.8106C19.6919 17.0961 19.5919 17.4084 19.5919 17.7475C19.5919 18.1758 19.7184 18.5312 19.9716 18.8138C20.2247 19.0964 20.5161 19.2376 20.8457 19.2376C21.2931 19.2376 21.8818 18.9402 22.6117 18.3453Z" fill="#95AAC9"/>
</svg>
