<svg width="30" height="30" viewBox="0 0 30 30" fill="none" xmlns="http://www.w3.org/2000/svg">
<path fill-rule="evenodd" clip-rule="evenodd" d="M22.4421 7.81152H18.8338V8.93912H20.0741V21.0608H18.8338V22.1884H22.4421V21.0608H21.2017V19.3693H23.4569C24.3911 19.3693 25.1483 18.612 25.1483 17.6779V12.6037C25.1483 11.6696 24.3911 10.9123 23.4569 10.9123H21.2017V8.93912H22.4421V7.81152ZM6.54296 10.9123C5.60883 10.9123 4.85156 11.6696 4.85156 12.6037V17.6779C4.85156 18.612 5.60883 19.3693 6.54296 19.3693H17.9317V18.2417H6.54296C6.23158 18.2417 5.97916 17.9893 5.97916 17.6779V12.6037C5.97916 12.2923 6.23158 12.0399 6.54296 12.0399H17.9317V10.9123H6.54296ZM21.2017 18.2417V12.0399H23.4569C23.7683 12.0399 24.0207 12.2923 24.0207 12.6037V17.6779C24.0207 17.9893 23.7683 18.2417 23.4569 18.2417H21.2017Z" fill="#95AAC9"/>
</svg>
