<svg width="108" height="30" viewBox="0 0 108 30" fill="none" xmlns="http://www.w3.org/2000/svg">
<g clip-path="url(#clip0)">
<path fill-rule="evenodd" clip-rule="evenodd" d="M16.0299 3.69089C15.9825 3.5798 15.672 3.52219 15.2031 3.50802C15.1475 3.50724 15.0918 3.50684 15.0361 3.50684C8.66841 3.50684 3.50637 8.65425 3.50637 15.0039C3.50637 21.3536 8.66841 26.501 15.0361 26.501C18.2495 26.501 21.1558 25.1901 23.2467 23.0754L22.653 22.5946C22.005 22.0699 22.246 21.0291 23.0588 20.8428L26.5922 20.0326C27.2499 19.8818 27.8651 20.4122 27.8127 21.085L27.5436 24.5385C27.481 25.3416 26.5432 25.7449 25.9173 25.238L25.2001 24.6573C22.6436 27.3331 19.0352 29.0007 15.0362 29.0007C7.28421 29.0007 1 22.7343 1 15.0043C1 7.43674 7.02289 1.27189 14.5495 1.01615L14.5494 1.01134C14.948 0.999754 15.3493 0.988634 15.7053 1.02352L15.7883 1.02765V1.03261C15.8165 1.03604 15.8444 1.0398 15.8719 1.0439C17.8758 1.34247 18.9133 2.59422 18.4442 4.58488L18.4167 4.70142L15.1295 12.0063L20.836 5.93188C21.6877 5.02522 23.1152 4.97873 24.0245 5.82805C24.4798 6.25333 24.7381 6.84763 24.7381 7.4697V10.2927C24.7381 11.2591 25.5238 12.0425 26.493 12.0425C26.8163 12.0425 27.1333 11.9535 27.409 11.7852C27.409 11.7852 29.13 10.6723 30.6134 9.80864C32.0967 8.94503 33.4734 8.48055 35.5014 8.27852C37.5293 8.07648 39.6205 8.93454 39.6205 8.93454C39.6205 8.93454 37.4758 9.2469 35.3297 9.91842C33.1837 10.5899 28.7174 13.917 28.7174 13.917C28.0478 14.3256 27.278 14.5419 26.493 14.5419C24.1395 14.5419 22.2316 12.6394 22.2316 10.2927V8.1021L13.8807 16.9916C13.3684 17.5369 12.5655 17.6976 11.8819 17.3917C10.9978 16.9962 10.6028 15.9608 10.9995 15.0793L16.0299 3.90052C16.0612 3.75715 16.0509 3.7355 16.036 3.70428C16.034 3.70009 16.032 3.69573 16.0299 3.69089Z" fill="#335EEA"/>
<path d="M44.9634 3.70166C45.6401 3.70166 46.1719 3.87012 46.5586 4.20703C46.9482 4.54102 47.1431 4.99951 47.1431 5.58252C47.1431 6.24756 46.9307 6.76904 46.5059 7.14697C46.084 7.5249 45.501 7.71387 44.7568 7.71387C44.0332 7.71387 43.481 7.59814 43.1001 7.3667V6.66357C43.3052 6.79541 43.5601 6.89941 43.8647 6.97559C44.1694 7.04883 44.4697 7.08545 44.7656 7.08545C45.2812 7.08545 45.6812 6.96387 45.9653 6.7207C46.2524 6.47754 46.396 6.12598 46.396 5.66602C46.396 4.76953 45.8467 4.32129 44.748 4.32129C44.4697 4.32129 44.0977 4.36377 43.6318 4.44873L43.2539 4.20703L43.4956 1.20117H46.6904V1.87354H44.1196L43.957 3.80273C44.2939 3.73535 44.6294 3.70166 44.9634 3.70166Z" fill="#8F959E"/>
<path d="M52.3638 4.40479C52.3638 5.51514 52.188 6.34424 51.8364 6.89209C51.4878 7.43994 50.9531 7.71387 50.2324 7.71387C49.541 7.71387 49.0151 7.43408 48.6548 6.87451C48.2944 6.31201 48.1143 5.48877 48.1143 4.40479C48.1143 3.28564 48.2886 2.45508 48.6372 1.91309C48.9858 1.37109 49.5176 1.1001 50.2324 1.1001C50.9297 1.1001 51.4585 1.38281 51.8188 1.94824C52.1821 2.51367 52.3638 3.33252 52.3638 4.40479ZM48.8525 4.40479C48.8525 5.33936 48.9624 6.02051 49.1821 6.44824C49.4019 6.87305 49.752 7.08545 50.2324 7.08545C50.7188 7.08545 51.0703 6.87012 51.2871 6.43945C51.5068 6.00586 51.6167 5.32764 51.6167 4.40479C51.6167 3.48193 51.5068 2.80664 51.2871 2.37891C51.0703 1.94824 50.7188 1.73291 50.2324 1.73291C49.752 1.73291 49.4019 1.94531 49.1821 2.37012C48.9624 2.79199 48.8525 3.47021 48.8525 4.40479Z" fill="#8F959E"/>
<path d="M57.5142 4.40479C57.5142 5.51514 57.3384 6.34424 56.9868 6.89209C56.6382 7.43994 56.1035 7.71387 55.3828 7.71387C54.6914 7.71387 54.1655 7.43408 53.8052 6.87451C53.4448 6.31201 53.2646 5.48877 53.2646 4.40479C53.2646 3.28564 53.439 2.45508 53.7876 1.91309C54.1362 1.37109 54.668 1.1001 55.3828 1.1001C56.0801 1.1001 56.6089 1.38281 56.9692 1.94824C57.3325 2.51367 57.5142 3.33252 57.5142 4.40479ZM54.0029 4.40479C54.0029 5.33936 54.1128 6.02051 54.3325 6.44824C54.5522 6.87305 54.9023 7.08545 55.3828 7.08545C55.8691 7.08545 56.2207 6.87012 56.4375 6.43945C56.6572 6.00586 56.7671 5.32764 56.7671 4.40479C56.7671 3.48193 56.6572 2.80664 56.4375 2.37891C56.2207 1.94824 55.8691 1.73291 55.3828 1.73291C54.9023 1.73291 54.5522 1.94531 54.3325 2.37012C54.1128 2.79199 54.0029 3.47021 54.0029 4.40479Z" fill="#8F959E"/>
<path d="M61.7021 7.62598L61.5571 6.94043H61.522C61.2817 7.24219 61.0415 7.44727 60.8013 7.55566C60.564 7.66113 60.2666 7.71387 59.9092 7.71387C59.4316 7.71387 59.0566 7.59082 58.7842 7.34473C58.5146 7.09863 58.3799 6.74854 58.3799 6.29443C58.3799 5.32178 59.1577 4.81201 60.7134 4.76514L61.5308 4.73877V4.43994C61.5308 4.06201 61.4487 3.78369 61.2847 3.60498C61.1235 3.42334 60.8643 3.33252 60.5068 3.33252C60.1055 3.33252 59.6514 3.45557 59.1445 3.70166L58.9204 3.14355C59.1577 3.01465 59.417 2.91357 59.6982 2.84033C59.9824 2.76709 60.2666 2.73047 60.5508 2.73047C61.125 2.73047 61.5498 2.85791 61.8252 3.11279C62.1035 3.36768 62.2427 3.77637 62.2427 4.33887V7.62598H61.7021ZM60.0542 7.11182C60.5083 7.11182 60.8643 6.9873 61.1221 6.73828C61.3828 6.48926 61.5132 6.14062 61.5132 5.69238V5.25732L60.7837 5.28809C60.2036 5.30859 59.7847 5.39941 59.5269 5.56055C59.272 5.71875 59.1445 5.96631 59.1445 6.30322C59.1445 6.56689 59.2236 6.76758 59.3818 6.90527C59.543 7.04297 59.7671 7.11182 60.0542 7.11182Z" fill="#8F959E"/>
<path d="M65.9912 7.71387C65.6777 7.71387 65.3906 7.65674 65.1299 7.54248C64.8721 7.42529 64.6553 7.24658 64.4795 7.00635H64.4268C64.4619 7.2876 64.4795 7.5542 64.4795 7.80615V9.78809H63.75V2.80957H64.3433L64.4443 3.46875H64.4795C64.667 3.20508 64.8853 3.01465 65.1343 2.89746C65.3833 2.78027 65.6689 2.72168 65.9912 2.72168C66.6299 2.72168 67.1221 2.93994 67.4678 3.37646C67.8164 3.81299 67.9907 4.42529 67.9907 5.21338C67.9907 6.00439 67.8135 6.61963 67.459 7.05908C67.1074 7.49561 66.6182 7.71387 65.9912 7.71387ZM65.8857 3.34131C65.3936 3.34131 65.0376 3.47754 64.8179 3.75C64.5981 4.02246 64.4854 4.45605 64.4795 5.05078V5.21338C64.4795 5.89014 64.5923 6.375 64.8179 6.66797C65.0435 6.95801 65.4053 7.10303 65.9033 7.10303C66.3193 7.10303 66.6445 6.93457 66.8789 6.59766C67.1162 6.26074 67.2349 5.79639 67.2349 5.20459C67.2349 4.604 67.1162 4.14404 66.8789 3.82471C66.6445 3.50244 66.3135 3.34131 65.8857 3.34131Z" fill="#8F959E"/>
<path d="M71.5107 7.71387C71.1973 7.71387 70.9102 7.65674 70.6494 7.54248C70.3916 7.42529 70.1748 7.24658 69.999 7.00635H69.9463C69.9814 7.2876 69.999 7.5542 69.999 7.80615V9.78809H69.2695V2.80957H69.8628L69.9639 3.46875H69.999C70.1865 3.20508 70.4048 3.01465 70.6538 2.89746C70.9028 2.78027 71.1885 2.72168 71.5107 2.72168C72.1494 2.72168 72.6416 2.93994 72.9873 3.37646C73.3359 3.81299 73.5103 4.42529 73.5103 5.21338C73.5103 6.00439 73.333 6.61963 72.9785 7.05908C72.627 7.49561 72.1377 7.71387 71.5107 7.71387ZM71.4053 3.34131C70.9131 3.34131 70.5571 3.47754 70.3374 3.75C70.1177 4.02246 70.0049 4.45605 69.999 5.05078V5.21338C69.999 5.89014 70.1118 6.375 70.3374 6.66797C70.563 6.95801 70.9248 7.10303 71.4229 7.10303C71.8389 7.10303 72.1641 6.93457 72.3984 6.59766C72.6357 6.26074 72.7544 5.79639 72.7544 5.20459C72.7544 4.604 72.6357 4.14404 72.3984 3.82471C72.1641 3.50244 71.833 3.34131 71.4053 3.34131Z" fill="#8F959E"/>
<path d="M77.896 6.31201C77.896 6.76025 77.729 7.10596 77.395 7.34912C77.061 7.59229 76.5923 7.71387 75.9888 7.71387C75.3501 7.71387 74.8521 7.61279 74.4946 7.41064V6.73389C74.7261 6.85107 74.9736 6.94336 75.2373 7.01074C75.5039 7.07812 75.7603 7.11182 76.0063 7.11182C76.3872 7.11182 76.6802 7.05176 76.8853 6.93164C77.0903 6.80859 77.1929 6.62256 77.1929 6.37354C77.1929 6.18604 77.1108 6.02637 76.9468 5.89453C76.7856 5.75977 76.4692 5.60156 75.9976 5.41992C75.5493 5.25293 75.23 5.10791 75.0396 4.98486C74.8521 4.85889 74.7114 4.7168 74.6177 4.55859C74.5269 4.40039 74.4814 4.21143 74.4814 3.9917C74.4814 3.59912 74.6411 3.29004 74.9604 3.06445C75.2798 2.83594 75.7178 2.72168 76.2744 2.72168C76.793 2.72168 77.2998 2.82715 77.7949 3.03809L77.5356 3.63135C77.0522 3.43213 76.6143 3.33252 76.2217 3.33252C75.876 3.33252 75.6152 3.38672 75.4395 3.49512C75.2637 3.60352 75.1758 3.75293 75.1758 3.94336C75.1758 4.07227 75.208 4.18213 75.2725 4.27295C75.3398 4.36377 75.4468 4.4502 75.5933 4.53223C75.7397 4.61426 76.021 4.73291 76.437 4.88818C77.0083 5.09619 77.3936 5.30566 77.5928 5.5166C77.7949 5.72754 77.896 5.99268 77.896 6.31201Z" fill="#8F959E"/>
<path fill-rule="evenodd" clip-rule="evenodd" d="M43.2 6.72336C43.3861 6.8272 43.6077 6.91124 43.8646 6.97549C44.1693 7.04873 44.4696 7.08535 44.7655 7.08535C45.2812 7.08535 45.6811 6.96377 45.9652 6.72061C46.2523 6.47744 46.3959 6.12588 46.3959 5.66592C46.3959 4.76943 45.8466 4.32119 44.7479 4.32119C44.4696 4.32119 44.0976 4.36367 43.6317 4.44863L43.2538 4.20693L43.4955 1.20107H46.6903V1.87344H44.1195L43.9569 3.80264C43.9909 3.79583 44.0249 3.78938 44.0589 3.78326C44.3616 3.7288 44.663 3.70156 44.9633 3.70156C45.64 3.70156 46.1718 3.87002 46.5585 4.20693C46.9481 4.54092 47.143 4.99941 47.143 5.58242C47.143 6.24746 46.9306 6.76895 46.5058 7.14687C46.0839 7.5248 45.5009 7.71377 44.7567 7.71377C44.0331 7.71377 43.4809 7.59805 43.1 7.3666V6.66348C43.1321 6.68412 43.1654 6.70408 43.2 6.72336ZM46.5722 7.22159C46.1269 7.62039 45.5175 7.81377 44.7567 7.81377C44.0251 7.81377 43.4515 7.69723 43.0481 7.45206L43 7.42285V6.48031L43.1541 6.57936C43.3477 6.70382 43.5917 6.80412 43.8885 6.87836C44.1858 6.9498 44.4781 6.98535 44.7655 6.98535C45.2663 6.98535 45.64 6.86729 45.9002 6.64462C46.16 6.42464 46.2959 6.10363 46.2959 5.66592C46.2959 5.23907 46.1661 4.93512 45.9207 4.73485C45.6714 4.53141 45.2862 4.42119 44.7479 4.42119C44.4784 4.42119 44.1131 4.46249 43.6497 4.54701L43.611 4.55407L43.1493 4.25881L43.4032 1.10107H46.7903V1.97344H44.2115L44.0676 3.68016C44.3671 3.62779 44.6657 3.60156 44.9633 3.60156C45.6562 3.60156 46.2138 3.77419 46.6239 4.13127C47.0386 4.48694 47.243 4.9748 47.243 5.58242C47.243 6.27068 47.022 6.82141 46.5722 7.22159ZM48.5705 6.92836C48.1952 6.3426 48.0142 5.49701 48.0142 4.40469C48.0142 3.27879 48.1889 2.42499 48.553 1.85889C48.9223 1.28477 49.4879 1 50.2323 1C50.9621 1 51.5235 1.2988 51.9031 1.8944C52.2811 2.4829 52.4637 3.32385 52.4637 4.40469C52.4637 5.52211 52.2874 6.37412 51.9206 6.94584C51.5513 7.526 50.9827 7.81377 50.2323 7.81377C49.5085 7.81377 48.9501 7.51782 48.5705 6.92836ZM51.8363 6.89199C52.1879 6.34414 52.3637 5.51504 52.3637 4.40469C52.3637 3.33242 52.182 2.51357 51.8188 1.94814C51.4584 1.38271 50.9296 1.1 50.2323 1.1C49.5175 1.1 48.9857 1.371 48.6371 1.91299C48.2885 2.45498 48.1142 3.28555 48.1142 4.40469C48.1142 5.48867 48.2943 6.31191 48.6547 6.87441C49.015 7.43398 49.5409 7.71377 50.2323 7.71377C50.953 7.71377 51.4877 7.43984 51.8363 6.89199ZM51.1978 6.39415C51.4066 5.9822 51.5166 5.32352 51.5166 4.40469C51.5166 3.48568 51.4065 2.83029 51.1981 2.4245C51.0966 2.22293 50.9659 2.07598 50.8085 1.97959C50.6511 1.88316 50.4604 1.83281 50.2323 1.83281C50.0072 1.83281 49.8181 1.88243 49.6613 1.97761C49.5044 2.07277 49.3737 2.21711 49.2709 2.41596C49.0628 2.81547 48.9524 3.47353 48.9524 4.40469C48.9524 5.33556 49.0626 5.99663 49.2709 6.40232C49.3738 6.60111 49.5044 6.74541 49.6613 6.84055C49.8181 6.93573 50.0072 6.98535 50.2323 6.98535C50.4604 6.98535 50.6511 6.935 50.8085 6.83858C50.9659 6.74218 51.0963 6.59572 51.1978 6.39415ZM49.182 6.44814C48.9623 6.02041 48.8524 5.33926 48.8524 4.40469C48.8524 3.47012 48.9623 2.79189 49.182 2.37002C49.4018 1.94521 49.7519 1.73281 50.2323 1.73281C50.7187 1.73281 51.0702 1.94814 51.287 2.37881C51.5067 2.80654 51.6166 3.48184 51.6166 4.40469C51.6166 5.32754 51.5067 6.00576 51.287 6.43936C51.0702 6.87002 50.7187 7.08535 50.2323 7.08535C49.7519 7.08535 49.4018 6.87295 49.182 6.44814ZM53.7209 6.92836C53.3456 6.3426 53.1646 5.49701 53.1646 4.40469C53.1646 3.27879 53.3393 2.42499 53.7034 1.85889C54.0727 1.28477 54.6383 1 55.3827 1C56.1125 1 56.6739 1.2988 57.0535 1.8944C57.4314 2.4829 57.6141 3.32385 57.6141 4.40469C57.6141 5.52211 57.4378 6.37412 57.071 6.94584C56.7017 7.526 56.1331 7.81377 55.3827 7.81377C54.6589 7.81377 54.1005 7.51782 53.7209 6.92836ZM56.9867 6.89199C57.3383 6.34414 57.5141 5.51504 57.5141 4.40469C57.5141 3.33242 57.3324 2.51357 56.9691 1.94814C56.6088 1.38271 56.08 1.1 55.3827 1.1C54.6679 1.1 54.1361 1.371 53.7875 1.91299C53.4389 2.45498 53.2646 3.28555 53.2646 4.40469C53.2646 5.48867 53.4447 6.31191 53.8051 6.87441C54.1654 7.43398 54.6913 7.71377 55.3827 7.71377C56.1034 7.71377 56.6381 7.43984 56.9867 6.89199ZM56.3482 6.39415C56.557 5.9822 56.667 5.32352 56.667 4.40469C56.667 3.48568 56.5569 2.83029 56.3485 2.4245C56.247 2.22293 56.1163 2.07598 55.9589 1.97959C55.8015 1.88316 55.6108 1.83281 55.3827 1.83281C55.1576 1.83281 54.9685 1.88243 54.8117 1.97761C54.6548 2.07277 54.5241 2.21711 54.4212 2.41596C54.2132 2.81547 54.1028 3.47353 54.1028 4.40469C54.1028 5.33566 54.213 5.99677 54.4214 6.40244C54.5242 6.60117 54.6549 6.74543 54.8117 6.84055C54.9685 6.93573 55.1576 6.98535 55.3827 6.98535C55.6108 6.98535 55.8015 6.935 55.9589 6.83858C56.1163 6.74218 56.2467 6.59572 56.3482 6.39415ZM54.3324 6.44814C54.1127 6.02041 54.0028 5.33926 54.0028 4.40469C54.0028 3.47012 54.1127 2.79189 54.3324 2.37002C54.5521 1.94521 54.9022 1.73281 55.3827 1.73281C55.869 1.73281 56.2206 1.94814 56.4374 2.37881C56.6571 2.80654 56.767 3.48184 56.767 4.40469C56.767 5.32754 56.6571 6.00576 56.4374 6.43936C56.2206 6.87002 55.869 7.08535 55.3827 7.08535C54.9022 7.08535 54.5521 6.87295 54.3324 6.44814ZM61.621 7.72588L61.4947 7.12897C61.2823 7.37149 61.0652 7.54615 60.8423 7.64672C60.5884 7.75958 60.2756 7.81377 59.9091 7.81377C59.4144 7.81377 59.0129 7.68603 58.7171 7.41884C58.4219 7.14934 58.2798 6.76917 58.2798 6.29434C58.2798 5.77615 58.4897 5.37324 58.9083 5.09888C59.3199 4.82919 59.925 4.68875 60.7102 4.66509C60.7102 4.66509 60.7102 4.66509 60.7102 4.66509L61.4307 4.64185V4.43984C61.4307 4.07353 61.3507 3.82482 61.2109 3.67251L61.2098 3.67125C61.0751 3.51946 60.8493 3.43242 60.5067 3.43242C60.1253 3.43242 59.6865 3.54953 59.1881 3.79152L59.0916 3.83837L58.7943 3.09809L58.8726 3.05558C59.1175 2.92253 59.3844 2.81859 59.6729 2.74346C59.965 2.66819 60.2578 2.63037 60.5507 2.63037C61.137 2.63037 61.5913 2.76013 61.8928 3.03913C62.2001 3.32062 62.3426 3.76216 62.3426 4.33877V7.72588H61.621ZM61.8251 3.1127C61.5497 2.85781 61.1249 2.73037 60.5507 2.73037C60.2665 2.73037 59.9823 2.76699 59.6981 2.84023C59.4169 2.91348 59.1576 3.01455 58.9203 3.14346L59.1444 3.70156C59.1748 3.68682 59.205 3.67252 59.235 3.65865C59.7055 3.44117 60.1294 3.33242 60.5067 3.33242C60.8642 3.33242 61.1234 3.42324 61.2846 3.60488C61.4486 3.78359 61.5307 4.06191 61.5307 4.43984V4.73867L60.7133 4.76504C59.1576 4.81191 58.3798 5.32168 58.3798 6.29434C58.3798 6.74844 58.5146 7.09854 58.7841 7.34463C59.0565 7.59072 59.4315 7.71377 59.9091 7.71377C60.2665 7.71377 60.5639 7.66104 60.8012 7.55557C61.0237 7.45518 61.2461 7.27186 61.4686 7.00563C61.484 6.98724 61.4994 6.96846 61.5147 6.94928C61.5171 6.94631 61.5195 6.94332 61.5219 6.94033H61.557L61.7021 7.62588H62.2426V4.33877C62.2426 3.77627 62.1034 3.36758 61.8251 3.1127ZM61.0529 6.66587C61.2893 6.4401 61.4131 6.12029 61.4131 5.69229V5.36153L60.7878 5.3879C60.212 5.40826 59.8145 5.49856 59.5798 5.64525C59.3583 5.78269 59.2444 5.99574 59.2444 6.30312C59.2444 6.54572 59.3163 6.7155 59.4471 6.8295C59.5846 6.94676 59.7826 7.01172 60.0541 7.01172C60.4895 7.01172 60.8184 6.89241 61.0529 6.66587ZM59.3817 6.90518C59.2235 6.76748 59.1444 6.5668 59.1444 6.30312C59.1444 5.96621 59.2719 5.71865 59.5268 5.56045C59.7846 5.39932 60.2035 5.3085 60.7836 5.28799L61.5131 5.25723V5.69229C61.5131 6.14053 61.3827 6.48916 61.122 6.73818C60.8642 6.98721 60.5082 7.11172 60.0541 7.11172C59.767 7.11172 59.5429 7.04287 59.3817 6.90518ZM65.0896 7.63397L65.0884 7.63343C64.886 7.54142 64.7077 7.41378 64.5536 7.25137C64.5708 7.44308 64.5794 7.62798 64.5794 7.80605V9.88799H63.6499V2.70947H64.429L64.5136 3.26129C64.6829 3.06097 64.8754 2.90863 65.0916 2.80688C65.356 2.68244 65.6566 2.62158 65.9911 2.62158C66.6552 2.62158 67.1783 2.85003 67.5459 3.31406C67.9134 3.77431 68.0906 4.41171 68.0906 5.21328C68.0906 6.01809 67.9104 6.65854 67.5368 7.12171C67.1638 7.5848 66.6443 7.81377 65.9911 7.81377C65.6652 7.81377 65.3643 7.75432 65.0896 7.63397ZM67.4589 7.05898C67.8134 6.61953 67.9906 6.0043 67.9906 5.21328C67.9906 4.4252 67.8163 3.81289 67.4677 3.37637C67.122 2.93984 66.6298 2.72158 65.9911 2.72158C65.6688 2.72158 65.3832 2.78018 65.1342 2.89736C64.909 3.00333 64.709 3.16918 64.5341 3.39492C64.5171 3.41691 64.5003 3.43947 64.4837 3.4626C64.4823 3.46461 64.4808 3.46663 64.4794 3.46865H64.4442L64.3432 2.80947H63.7499V9.78799H64.4794V7.80605C64.4794 7.58823 64.4663 7.35946 64.44 7.11974C64.4395 7.11525 64.439 7.11075 64.4385 7.10625C64.4361 7.08481 64.4336 7.06328 64.431 7.04166C64.4296 7.02988 64.4281 7.01808 64.4267 7.00625H64.4794C64.4979 7.03149 64.5168 7.05605 64.5362 7.07993C64.7012 7.28335 64.8991 7.43751 65.1298 7.54238C65.3905 7.65664 65.6776 7.71377 65.9911 7.71377C66.6181 7.71377 67.1073 7.49551 67.4589 7.05898ZM66.7971 6.53997C67.0183 6.22581 67.1348 5.7843 67.1348 5.20449C67.1348 4.61502 67.018 4.17956 66.7985 3.88426L66.7979 3.88343C66.5839 3.58918 66.2841 3.44121 65.8856 3.44121C65.4108 3.44121 65.0895 3.57223 64.8956 3.81268C64.697 4.05896 64.5852 4.46489 64.5794 5.05109V5.21328C64.5794 5.88383 64.6921 6.3406 64.8968 6.60664C65.0973 6.86425 65.4244 7.00293 65.9032 7.00293C66.287 7.00293 66.5817 6.84958 66.7971 6.53997ZM64.8178 6.66787C64.5922 6.3749 64.4794 5.89004 64.4794 5.21328V5.05068C64.4853 4.45596 64.598 4.02236 64.8178 3.7499C65.0375 3.47744 65.3935 3.34121 65.8856 3.34121C66.3134 3.34121 66.6444 3.50234 66.8788 3.82461C67.1161 4.14395 67.2348 4.60391 67.2348 5.20449C67.2348 5.79629 67.1161 6.26064 66.8788 6.59756C66.6444 6.93447 66.3192 7.10293 65.9032 7.10293C65.4052 7.10293 65.0434 6.95791 64.8178 6.66787ZM70.6092 7.63397L70.6079 7.63343C70.4055 7.54142 70.2272 7.41378 70.0731 7.25137C70.0903 7.44308 70.0989 7.62798 70.0989 7.80605V9.88799H69.1694V2.70947H69.9485L70.0331 3.26129C70.2024 3.06097 70.3949 2.90863 70.6111 2.80688C70.8756 2.68244 71.1762 2.62158 71.5106 2.62158C72.1747 2.62158 72.6978 2.85003 73.0654 3.31406C73.433 3.77431 73.6102 4.41171 73.6102 5.21328C73.6102 6.01809 73.4299 6.65854 73.0563 7.12171C72.6833 7.5848 72.1638 7.81377 71.5106 7.81377C71.1848 7.81377 70.8838 7.75432 70.6092 7.63397ZM72.9784 7.05898C73.3329 6.61953 73.5102 6.0043 73.5102 5.21328C73.5102 4.4252 73.3358 3.81289 72.9872 3.37637C72.6415 2.93984 72.1493 2.72158 71.5106 2.72158C71.1884 2.72158 70.9027 2.78018 70.6537 2.89736C70.4285 3.00333 70.2285 3.16918 70.0536 3.39492C70.0366 3.41691 70.0198 3.43947 70.0032 3.4626C70.0018 3.46461 70.0004 3.46663 69.9989 3.46865H69.9638L69.8627 2.80947H69.2694V9.78799H69.9989V7.80605C69.9989 7.58823 69.9858 7.35946 69.9595 7.11974C69.959 7.11525 69.9585 7.11075 69.958 7.10625C69.9556 7.08481 69.9531 7.06328 69.9505 7.04166C69.9491 7.02988 69.9477 7.01808 69.9462 7.00625H69.9989C70.0174 7.03149 70.0363 7.05605 70.0557 7.07993C70.2207 7.28335 70.4186 7.43751 70.6493 7.54238C70.9101 7.65664 71.1972 7.71377 71.5106 7.71377C72.1376 7.71377 72.6269 7.49551 72.9784 7.05898ZM72.3166 6.53997C72.5379 6.22581 72.6543 5.7843 72.6543 5.20449C72.6543 4.61502 72.5375 4.17956 72.3181 3.88426L72.3175 3.88343C72.1035 3.58918 71.8037 3.44121 71.4052 3.44121C70.9303 3.44121 70.6091 3.57223 70.4151 3.81268C70.2165 4.05896 70.1048 4.46489 70.0989 5.05109V5.21328C70.0989 5.88383 70.2116 6.3406 70.4164 6.60664C70.6168 6.86425 70.9439 7.00293 71.4228 7.00293C71.8066 7.00293 72.1012 6.84958 72.3166 6.53997ZM70.3373 6.66787C70.1117 6.3749 69.9989 5.89004 69.9989 5.21328V5.05068C70.0048 4.45596 70.1176 4.02236 70.3373 3.7499C70.557 3.47744 70.913 3.34121 71.4052 3.34121C71.8329 3.34121 72.164 3.50234 72.3983 3.82461C72.6356 4.14395 72.7543 4.60391 72.7543 5.20449C72.7543 5.79629 72.6356 6.26064 72.3983 6.59756C72.164 6.93447 71.8388 7.10293 71.4228 7.10293C70.9247 7.10293 70.5629 6.95791 70.3373 6.66787ZM74.3945 7.46887V6.57107L74.5397 6.64457C74.7643 6.75827 75.0049 6.84803 75.2617 6.91369C75.5212 6.97928 75.7693 7.01172 76.0062 7.01172C76.3788 7.01172 76.6511 6.9526 76.8342 6.84547C77.0074 6.7414 77.0928 6.58889 77.0928 6.37344C77.0928 6.22021 77.0278 6.08787 76.884 5.97238L76.8825 5.97116C76.7355 5.84817 76.4336 5.69495 75.962 5.51334C75.513 5.34604 75.1852 5.19801 74.9852 5.06876L74.9837 5.06778C74.7866 4.93536 74.6344 4.78305 74.5315 4.60948L74.5308 4.60829C74.4297 4.43211 74.3813 4.22523 74.3813 3.9916C74.3813 3.5668 74.5566 3.22726 74.9024 2.98286C75.2444 2.73819 75.7054 2.62158 76.2743 2.62158C76.8069 2.62158 77.327 2.72998 77.834 2.94599L77.9269 2.98555L77.588 3.76101L77.4974 3.72371C77.0223 3.52791 76.5975 3.43242 76.2216 3.43242C75.8833 3.43242 75.6445 3.486 75.4918 3.58014C75.3426 3.67217 75.2757 3.79091 75.2757 3.94326C75.2757 4.05434 75.303 4.14289 75.3533 4.21409C75.4093 4.28919 75.5029 4.36698 75.642 4.44488C75.7809 4.52264 76.0552 4.63887 76.4716 4.79428C77.0444 5.00288 77.4487 5.21864 77.6651 5.44758C77.8867 5.6789 77.9959 5.96955 77.9959 6.31191C77.9959 6.78897 77.8161 7.16609 77.4538 7.42987C77.0964 7.69003 76.604 7.81377 75.9887 7.81377C75.3415 7.81377 74.8239 7.71169 74.4453 7.49759L74.3945 7.46887ZM77.5927 5.5165C77.3935 5.30557 77.0082 5.09609 76.4369 4.88809C76.0209 4.73281 75.7396 4.61416 75.5932 4.53213C75.4467 4.4501 75.3397 4.36367 75.2724 4.27285C75.2079 4.18203 75.1757 4.07217 75.1757 3.94326C75.1757 3.75283 75.2636 3.60342 75.4394 3.49502C75.6151 3.38662 75.8759 3.33242 76.2216 3.33242C76.6142 3.33242 77.0521 3.43203 77.5355 3.63125L77.7948 3.03799C77.764 3.02487 77.7332 3.01217 77.7023 2.99987C77.2366 2.81435 76.7606 2.72158 76.2743 2.72158C75.7177 2.72158 75.2797 2.83584 74.9604 3.06436C74.641 3.28994 74.4813 3.59902 74.4813 3.9916C74.4813 4.21133 74.5268 4.40029 74.6176 4.5585C74.7113 4.7167 74.852 4.85879 75.0395 4.98477C75.2299 5.10781 75.5492 5.25283 75.9975 5.41982C76.4691 5.60146 76.7855 5.75967 76.9467 5.89443C77.1107 6.02627 77.1928 6.18594 77.1928 6.37344C77.1928 6.62246 77.0902 6.8085 76.8852 6.93154C76.6801 7.05166 76.3871 7.11172 76.0062 7.11172C75.7602 7.11172 75.5038 7.07803 75.2372 7.01064C75.0111 6.95287 74.7969 6.87679 74.5945 6.7824C74.5609 6.76671 74.5275 6.7505 74.4945 6.73379V7.41055C74.852 7.6127 75.35 7.71377 75.9887 7.71377C76.5922 7.71377 77.0609 7.59219 77.3949 7.34902C77.7289 7.10586 77.8959 6.76016 77.8959 6.31191C77.8959 5.99258 77.7948 5.72744 77.5927 5.5165Z" fill="#8F959E"/>
<path d="M48.5924 26.1407C47.4434 26.1407 46.5114 25.9883 45.7962 25.6834C45.081 25.3669 44.5417 24.9331 44.1783 24.3821C43.8266 23.831 43.6214 23.2097 43.5628 22.5179H44.9345C44.9697 23.0807 45.1572 23.5379 45.4972 23.8897C45.8372 24.2297 46.2828 24.4817 46.8338 24.6459C47.3966 24.81 48.0121 24.8921 48.6803 24.8921C49.6652 24.8921 50.4448 24.7221 51.0193 24.3821C51.5938 24.0303 51.881 23.5145 51.881 22.8345C51.881 22.4241 51.7345 22.0959 51.4414 21.8497C51.16 21.5917 50.779 21.3807 50.2983 21.2166C49.8293 21.0524 49.3134 20.9059 48.7507 20.7769C48.1879 20.6362 47.6193 20.4897 47.0448 20.3372C46.4821 20.1848 45.9603 19.9914 45.4797 19.7569C45.0107 19.5224 44.6297 19.2234 44.3366 18.86C44.0552 18.4848 43.9145 18.01 43.9145 17.4355C43.9145 16.4859 44.2779 15.7121 45.0048 15.1141C45.7434 14.5162 46.8397 14.2172 48.2934 14.2172C49.3252 14.2172 50.1752 14.3755 50.8434 14.6921C51.5117 14.9969 52.01 15.4014 52.3383 15.9055C52.6783 16.4097 52.8659 16.9548 52.901 17.541H51.5469C51.4766 16.9548 51.1834 16.4624 50.6676 16.0638C50.1517 15.6534 49.3603 15.4483 48.2934 15.4483C47.6369 15.4483 47.1034 15.5128 46.6931 15.6417C46.2828 15.7707 45.9662 15.9407 45.7434 16.1517C45.5324 16.351 45.3859 16.5621 45.3038 16.7848C45.2334 17.0076 45.1983 17.2186 45.1983 17.4179C45.1983 17.8048 45.339 18.1214 45.6203 18.3676C45.9134 18.6021 46.2945 18.8014 46.7634 18.9655C47.2441 19.1179 47.7717 19.2586 48.3462 19.3876C48.9207 19.5166 49.4893 19.6631 50.0521 19.8272C50.6266 19.9797 51.1483 20.179 51.6172 20.4252C52.0979 20.6597 52.479 20.9645 52.7603 21.3397C53.0534 21.7148 53.2 22.1955 53.2 22.7817C53.2 23.8603 52.7897 24.6928 51.969 25.279C51.1483 25.8534 50.0228 26.1407 48.5924 26.1407ZM55.9652 15.7297V14.0062H57.3896V15.7297H55.9652ZM56.0179 26V17.2069H57.3369V26H56.0179ZM64.7069 29.6228C63.6048 29.6228 62.7079 29.3824 62.0162 28.9017C61.3245 28.4328 60.8555 27.8172 60.6093 27.0552H62.0689C62.2448 27.489 62.5496 27.8231 62.9834 28.0576C63.4172 28.3038 63.9683 28.4269 64.6365 28.4269C65.6448 28.4269 66.3776 28.1866 66.8348 27.7059C67.3038 27.2369 67.5383 26.551 67.5383 25.6483V24.4348C67.21 24.9038 66.782 25.2848 66.2545 25.5779C65.7386 25.8593 65.1172 26 64.3903 26C63.5345 26 62.7841 25.8066 62.1393 25.4197C61.5062 25.021 61.0138 24.4817 60.662 23.8017C60.3103 23.1217 60.1345 22.3655 60.1345 21.5331C60.1345 20.689 60.3103 19.9328 60.662 19.2645C61.0138 18.5845 61.5062 18.051 62.1393 17.6641C62.7841 17.2655 63.5345 17.0662 64.3903 17.0662C65.1172 17.0662 65.7386 17.2069 66.2545 17.4883C66.782 17.7579 67.21 18.1331 67.5383 18.6138V17.2069H68.8572V25.7362C68.8572 26.9907 68.4938 27.9521 67.7669 28.6203C67.0517 29.2886 66.0317 29.6228 64.7069 29.6228ZM64.5662 24.8041C65.211 24.8041 65.7562 24.6576 66.2017 24.3645C66.6589 24.0714 67.0048 23.6786 67.2393 23.1862C67.4855 22.6821 67.6086 22.131 67.6086 21.5331C67.6086 20.9234 67.4855 20.3724 67.2393 19.88C67.0048 19.3876 66.6589 18.9948 66.2017 18.7017C65.7562 18.4086 65.211 18.2621 64.5662 18.2621C63.9214 18.2621 63.3645 18.4086 62.8955 18.7017C62.4265 18.9948 62.0689 19.3876 61.8227 19.88C61.5765 20.3724 61.4534 20.9234 61.4534 21.5331C61.4534 22.131 61.5765 22.6821 61.8227 23.1862C62.0689 23.6786 62.4265 24.0714 62.8955 24.3645C63.3645 24.6576 63.9214 24.8041 64.5662 24.8041ZM72.1938 26V17.2069H73.5128V18.5786C73.8293 18.1566 74.2162 17.799 74.6734 17.5059C75.1307 17.2128 75.7169 17.0662 76.4321 17.0662C77.0417 17.0662 77.6103 17.2128 78.1379 17.5059C78.6772 17.7872 79.111 18.2152 79.4393 18.7897C79.7793 19.3524 79.9493 20.05 79.9493 20.8824V26H78.6303V20.9176C78.6303 20.1203 78.4017 19.4814 77.9445 19.0007C77.4872 18.5083 76.8952 18.2621 76.1683 18.2621C75.6759 18.2621 75.2303 18.3734 74.8317 18.5962C74.4331 18.819 74.1107 19.1355 73.8645 19.5459C73.63 19.9445 73.5128 20.4076 73.5128 20.9352V26H72.1938ZM82.9989 26V24.2062H84.7047V26H82.9989ZM91.6183 26.1407C90.739 26.1407 89.9769 25.9414 89.3321 25.5428C88.6873 25.1324 88.1831 24.5814 87.8197 23.8897C87.468 23.1979 87.2921 22.4359 87.2921 21.6034C87.2921 20.7593 87.468 19.9972 87.8197 19.3172C88.1831 18.6255 88.6873 18.0803 89.3321 17.6817C89.9769 17.2714 90.739 17.0662 91.6183 17.0662C92.6618 17.0662 93.5469 17.3359 94.2738 17.8752C95.0124 18.4145 95.5107 19.1121 95.7687 19.9679H94.3442C94.1449 19.4638 93.8224 19.0534 93.3769 18.7369C92.9431 18.4203 92.4155 18.2621 91.7942 18.2621C91.1493 18.2621 90.5866 18.4145 90.1059 18.7193C89.6252 19.0241 89.2559 19.4286 88.998 19.9328C88.74 20.4369 88.6111 20.9938 88.6111 21.6034C88.6111 22.2014 88.74 22.7583 88.998 23.2741C89.2559 23.7783 89.6252 24.1828 90.1059 24.4876C90.5866 24.7924 91.1493 24.9448 91.7942 24.9448C92.4155 24.9448 92.9431 24.7866 93.3769 24.47C93.8224 24.1534 94.1449 23.7431 94.3442 23.239H95.7687C95.5107 24.0948 95.0124 24.7924 94.2738 25.3317C93.5469 25.871 92.6618 26.1407 91.6183 26.1407ZM102.239 26.1407C101.36 26.1407 100.598 25.9414 99.9532 25.5428C99.3084 25.1324 98.8042 24.5814 98.4408 23.8897C98.0891 23.1979 97.9132 22.4359 97.9132 21.6034C97.9132 20.7593 98.0891 19.9972 98.4408 19.3172C98.8042 18.6255 99.3084 18.0803 99.9532 17.6817C100.598 17.2714 101.36 17.0662 102.239 17.0662C103.283 17.0662 104.168 17.3359 104.895 17.8752C105.634 18.4145 106.132 19.1121 106.39 19.9679H104.965C104.766 19.4638 104.444 19.0534 103.998 18.7369C103.564 18.4203 103.037 18.2621 102.415 18.2621C101.77 18.2621 101.208 18.4145 100.727 18.7193C100.246 19.0241 99.877 19.4286 99.6191 19.9328C99.3611 20.4369 99.2322 20.9938 99.2322 21.6034C99.2322 22.2014 99.3611 22.7583 99.6191 23.2741C99.877 23.7783 100.246 24.1828 100.727 24.4876C101.208 24.7924 101.77 24.9448 102.415 24.9448C103.037 24.9448 103.564 24.7866 103.998 24.47C104.444 24.1534 104.766 23.7431 104.965 23.239H106.39C106.132 24.0948 105.634 24.7924 104.895 25.3317C104.168 25.871 103.283 26.1407 102.239 26.1407Z" fill="#335EEA"/>
<path d="M45.7962 25.6834L45.5938 26.1407L45.6002 26.1434L45.7962 25.6834ZM44.1783 24.3821L43.7568 24.6511L43.7609 24.6574L44.1783 24.3821ZM43.5628 22.5179V22.0179H43.0186L43.0645 22.5602L43.5628 22.5179ZM44.9345 22.5179L45.4335 22.4867L45.4042 22.0179H44.9345V22.5179ZM45.4972 23.8897L45.1377 24.2372L45.1437 24.2432L45.4972 23.8897ZM46.8338 24.6459L46.6911 25.1251L46.6938 25.1259L46.8338 24.6459ZM51.0193 24.3821L51.274 24.8124L51.2804 24.8085L51.0193 24.3821ZM51.4414 21.8497L51.1035 22.2182L51.1115 22.2255L51.1198 22.2325L51.4414 21.8497ZM50.2983 21.2166L50.1331 21.6885L50.1367 21.6897L50.2983 21.2166ZM48.7507 20.7769L48.6294 21.2621L48.639 21.2643L48.7507 20.7769ZM47.0448 20.3372L46.9141 20.8199L46.9166 20.8205L47.0448 20.3372ZM45.4797 19.7569L45.256 20.2041L45.2604 20.2063L45.4797 19.7569ZM44.3366 18.86L43.9366 19.16L43.9418 19.167L43.9473 19.1739L44.3366 18.86ZM45.0048 15.1141L44.6902 14.7255L44.6872 14.728L45.0048 15.1141ZM50.8434 14.6921L50.6294 15.144L50.6359 15.147L50.8434 14.6921ZM52.3383 15.9055L51.9192 16.1784L51.9237 16.1851L52.3383 15.9055ZM52.901 17.541V18.041H53.4319L53.4001 17.5111L52.901 17.541ZM51.5469 17.541L51.0505 17.6006L51.1033 18.041H51.5469V17.541ZM50.6676 16.0638L50.3563 16.4551L50.3619 16.4594L50.6676 16.0638ZM46.6931 15.6417L46.5432 15.1647L46.5432 15.1647L46.6931 15.6417ZM45.7434 16.1517L46.0868 16.5152L46.0873 16.5147L45.7434 16.1517ZM45.3038 16.7848L44.8346 16.612L44.8305 16.623L44.827 16.6343L45.3038 16.7848ZM45.6203 18.3676L45.2911 18.7439L45.2994 18.7511L45.308 18.758L45.6203 18.3676ZM46.7634 18.9655L46.5983 19.4374L46.6053 19.4399L46.6123 19.4421L46.7634 18.9655ZM50.0521 19.8272L49.912 20.3074L49.9239 20.3105L50.0521 19.8272ZM51.6172 20.4252L51.3848 20.8679L51.3914 20.8713L51.398 20.8746L51.6172 20.4252ZM52.7603 21.3397L52.3603 21.6397L52.3663 21.6475L52.7603 21.3397ZM51.969 25.279L52.2557 25.6886L52.2596 25.6858L51.969 25.279ZM48.5924 25.6407C47.4815 25.6407 46.6232 25.4924 45.9923 25.2235L45.6002 26.1434C46.3996 26.4841 47.4054 26.6407 48.5924 26.6407V25.6407ZM45.9986 25.2262C45.3546 24.9412 44.8973 24.564 44.5957 24.1068L43.7609 24.6574C44.1862 25.3022 44.8075 25.7926 45.5938 26.1407L45.9986 25.2262ZM44.5997 24.1131C44.2943 23.6345 44.1132 23.0919 44.061 22.4757L43.0645 22.5602C43.1296 23.3274 43.3588 24.0276 43.7568 24.6511L44.5997 24.1131ZM43.5628 23.0179H44.9345V22.0179H43.5628V23.0179ZM44.4355 22.5491C44.4768 23.2114 44.7027 23.7871 45.1377 24.2372L45.8567 23.5421C45.6118 23.2888 45.4625 22.95 45.4335 22.4867L44.4355 22.5491ZM45.1437 24.2432C45.5529 24.6524 46.0759 24.9418 46.6911 25.1251L46.9765 24.1667C46.4896 24.0216 46.1216 23.8069 45.8508 23.5361L45.1437 24.2432ZM46.6938 25.1259C47.3079 25.305 47.9712 25.3921 48.6803 25.3921V24.3921C48.0529 24.3921 47.4852 24.315 46.9738 24.1659L46.6938 25.1259ZM48.6803 25.3921C49.715 25.3921 50.5942 25.2147 51.274 24.8124L50.7647 23.9518C50.2955 24.2294 49.6153 24.3921 48.6803 24.3921V25.3921ZM51.2804 24.8085C52.005 24.3648 52.381 23.6865 52.381 22.8345H51.381C51.381 23.3425 51.1826 23.6958 50.7582 23.9556L51.2804 24.8085ZM52.381 22.8345C52.381 22.2885 52.1781 21.8155 51.763 21.4668L51.1198 22.2325C51.2908 22.3762 51.381 22.5597 51.381 22.8345H52.381ZM51.7792 21.4811C51.4331 21.1638 50.9854 20.9228 50.4598 20.7434L50.1367 21.6897C50.5725 21.8385 50.8869 22.0197 51.1035 22.2182L51.7792 21.4811ZM50.4635 20.7446C49.9744 20.5735 49.4404 20.422 48.8624 20.2895L48.639 21.2643C49.1865 21.3897 49.6842 21.5314 50.1331 21.6885L50.4635 20.7446ZM48.872 20.2918C48.3116 20.1517 47.7453 20.0058 47.173 19.854L46.9166 20.8205C47.4933 20.9735 48.0643 21.1207 48.6294 21.262L48.872 20.2918ZM47.1755 19.8546C46.6406 19.7097 46.1488 19.527 45.6989 19.3075L45.2604 20.2063C45.7719 20.4558 46.3236 20.6599 46.9141 20.8199L47.1755 19.8546ZM45.7033 19.3097C45.2905 19.1033 44.9686 18.8473 44.7258 18.5461L43.9473 19.1739C44.2907 19.5996 44.7309 19.9415 45.256 20.2041L45.7033 19.3097ZM44.7366 18.56C44.5336 18.2894 44.4145 17.9267 44.4145 17.4355H43.4145C43.4145 18.0933 43.5768 18.6803 43.9366 19.16L44.7366 18.56ZM44.4145 17.4355C44.4145 16.6338 44.7122 16.0023 45.3225 15.5003L44.6872 14.728C43.8436 15.4219 43.4145 16.3379 43.4145 17.4355H44.4145ZM45.3194 15.5028C45.9326 15.0064 46.8964 14.7172 48.2934 14.7172V13.7172C46.7829 13.7172 45.5543 14.0261 44.6902 14.7255L45.3194 15.5028ZM48.2934 14.7172C49.2786 14.7172 50.049 14.869 50.6294 15.1439L51.0575 14.2402C50.3013 13.882 49.3718 13.7172 48.2934 13.7172V14.7172ZM50.6359 15.147C51.237 15.4212 51.6532 15.7697 51.9193 16.1784L52.7573 15.6327C52.3668 15.033 51.7864 14.5726 51.051 14.2372L50.6359 15.147ZM51.9237 16.1851C52.2156 16.6178 52.3723 17.0773 52.4019 17.571L53.4001 17.5111C53.3594 16.8324 53.141 16.2015 52.7528 15.6259L51.9237 16.1851ZM52.901 17.041H51.5469V18.041H52.901V17.041ZM52.0433 17.4815C51.9553 16.7477 51.5831 16.1393 50.9733 15.6682L50.3619 16.4594C50.7838 16.7855 50.9978 17.162 51.0505 17.6006L52.0433 17.4815ZM50.9788 15.6725C50.3344 15.1599 49.4085 14.9483 48.2934 14.9483V15.9483C49.3122 15.9483 49.969 16.147 50.3563 16.4551L50.9788 15.6725ZM48.2934 14.9483C47.6098 14.9483 47.0205 15.0147 46.5432 15.1647L46.843 16.1187C47.1864 16.0108 47.6639 15.9483 48.2934 15.9483V14.9483ZM46.5432 15.1647C46.0877 15.3079 45.6951 15.5088 45.3996 15.7887L46.0873 16.5147C46.2374 16.3726 46.4778 16.2335 46.843 16.1187L46.5432 15.1647ZM45.4001 15.7882C45.1453 16.0289 44.9487 16.3025 44.8346 16.612L45.773 16.9577C45.8231 16.8217 45.9195 16.6732 46.0868 16.5152L45.4001 15.7882ZM44.827 16.6343C44.7439 16.8976 44.6983 17.1596 44.6983 17.4179H45.6983C45.6983 17.2776 45.723 17.1176 45.7806 16.9354L44.827 16.6343ZM44.6983 17.4179C44.6983 17.9433 44.897 18.399 45.2911 18.7439L45.9496 17.9913C45.781 17.8437 45.6983 17.6664 45.6983 17.4179H44.6983ZM45.308 18.758C45.6569 19.0371 46.0922 19.2603 46.5983 19.4374L46.9286 18.4936C46.4967 18.3424 46.17 18.167 45.9327 17.9772L45.308 18.758ZM46.6123 19.4421C47.1088 19.5995 47.6504 19.7438 48.2367 19.8754L48.4557 18.8997C47.893 18.7734 47.3795 18.6363 46.9146 18.4889L46.6123 19.4421ZM48.2367 19.8754C48.801 20.0021 49.3594 20.1461 49.9121 20.3072L50.1921 19.3472C49.6192 19.1802 49.0404 19.031 48.4557 18.8997L48.2367 19.8754ZM49.9239 20.3105C50.4665 20.4545 50.9527 20.641 51.3848 20.8679L51.8497 19.9825C51.3439 19.7169 50.7866 19.5048 50.1803 19.344L49.9239 20.3105ZM51.398 20.8746C51.8175 21.0792 52.1328 21.3363 52.3603 21.6397L53.1603 21.0397C52.8251 20.5927 52.3783 20.2401 51.8365 19.9758L51.398 20.8746ZM52.3663 21.6475C52.5761 21.9159 52.7 22.2806 52.7 22.7817H53.7C53.7 22.1104 53.5308 21.5137 53.1544 21.0318L52.3663 21.6475ZM52.7 22.7817C52.7 23.712 52.3573 24.3871 51.6783 24.8721L52.2596 25.6858C53.222 24.9984 53.7 24.0087 53.7 22.7817H52.7ZM51.6822 24.8693C50.9745 25.3647 49.9624 25.6407 48.5924 25.6407V26.6407C50.0832 26.6407 51.322 26.3422 52.2557 25.6886L51.6822 24.8693ZM55.9652 15.7297H55.4652V16.2297H55.9652V15.7297ZM55.9652 14.0062V13.5062H55.4652V14.0062H55.9652ZM57.3896 14.0062H57.8896V13.5062H57.3896V14.0062ZM57.3896 15.7297V16.2297H57.8896V15.7297H57.3896ZM56.0179 26H55.5179V26.5H56.0179V26ZM56.0179 17.2069V16.7069H55.5179V17.2069H56.0179ZM57.3369 17.2069H57.8369V16.7069H57.3369V17.2069ZM57.3369 26V26.5H57.8369V26H57.3369ZM56.4652 15.7297V14.0062H55.4652V15.7297H56.4652ZM55.9652 14.5062H57.3896V13.5062H55.9652V14.5062ZM56.8896 14.0062V15.7297H57.8896V14.0062H56.8896ZM57.3896 15.2297H55.9652V16.2297H57.3896V15.2297ZM56.5179 26V17.2069H55.5179V26H56.5179ZM56.0179 17.7069H57.3369V16.7069H56.0179V17.7069ZM56.8369 17.2069V26H57.8369V17.2069H56.8369ZM57.3369 25.5H56.0179V26.5H57.3369V25.5ZM62.0162 28.9017L62.3015 28.4911L62.2968 28.4879L62.0162 28.9017ZM60.6093 27.0552V26.5552H59.9223L60.1335 27.2089L60.6093 27.0552ZM62.0689 27.0552L62.5323 26.8673L62.4058 26.5552H62.0689V27.0552ZM62.9834 28.0576L63.2303 27.6227L63.2212 27.6177L62.9834 28.0576ZM66.8348 27.7059L66.4811 27.3522L66.4725 27.3613L66.8348 27.7059ZM67.5383 24.4348H68.0383V22.8486L67.1286 24.1481L67.5383 24.4348ZM66.2545 25.5779L66.4939 26.0169L66.4973 26.015L66.2545 25.5779ZM62.1393 25.4197L61.8728 25.8429L61.882 25.8484L62.1393 25.4197ZM60.662 23.8017L60.2179 24.0314L60.2179 24.0314L60.662 23.8017ZM60.662 19.2645L61.1045 19.4974L61.1062 19.4942L60.662 19.2645ZM62.1393 17.6641L62.4 18.0908L62.4022 18.0894L62.1393 17.6641ZM66.2545 17.4883L66.0149 17.9274L66.0269 17.9335L66.2545 17.4883ZM67.5383 18.6138L67.1254 18.8958L68.0383 20.2325V18.6138H67.5383ZM67.5383 17.2069V16.7069H67.0383V17.2069H67.5383ZM68.8572 17.2069H69.3572V16.7069H68.8572V17.2069ZM67.7669 28.6203L67.4285 28.2522L67.4255 28.255L67.7669 28.6203ZM66.2017 24.3645L65.9318 23.9435L65.9269 23.9468L66.2017 24.3645ZM67.2393 23.1862L66.79 22.9668L66.7879 22.9712L67.2393 23.1862ZM67.2393 19.88L66.7878 20.095L66.7921 20.1036L67.2393 19.88ZM66.2017 18.7017L65.9269 19.1195L65.9319 19.1227L66.2017 18.7017ZM62.8955 18.7017L63.1605 19.1257L63.1605 19.1257L62.8955 18.7017ZM61.8227 19.88L62.27 20.1036L62.27 20.1036L61.8227 19.88ZM61.8227 23.1862L61.3734 23.4056L61.3755 23.4098L61.8227 23.1862ZM62.8955 24.3645L63.1605 23.9405L63.1605 23.9405L62.8955 24.3645ZM64.7069 29.1228C63.6756 29.1228 62.8871 28.8981 62.3015 28.4911L61.7309 29.3123C62.5287 29.8668 63.534 30.1228 64.7069 30.1228V29.1228ZM62.2968 28.4879C61.693 28.0785 61.2954 27.5526 61.0851 26.9015L60.1335 27.2089C60.4155 28.0819 60.956 28.787 61.7356 29.3156L62.2968 28.4879ZM60.6093 27.5552H62.0689V26.5552H60.6093V27.5552ZM61.6056 27.243C61.8275 27.7905 62.2156 28.2109 62.7457 28.4974L63.2212 27.6177C62.8837 27.4353 62.6621 27.1874 62.5323 26.8673L61.6056 27.243ZM62.7366 28.4924C63.267 28.7934 63.9101 28.9269 64.6365 28.9269V27.9269C64.0264 27.9269 63.5675 27.8142 63.2302 27.6227L62.7366 28.4924ZM64.6365 28.9269C65.7112 28.9269 66.6059 28.6719 67.1971 28.0505L66.4725 27.3613C66.1492 27.7012 65.5784 27.9269 64.6365 27.9269V28.9269ZM67.1884 28.0594C67.7809 27.4669 68.0383 26.6345 68.0383 25.6483H67.0383C67.0383 26.4675 66.8266 27.0069 66.4813 27.3523L67.1884 28.0594ZM68.0383 25.6483V24.4348H67.0383V25.6483H68.0383ZM67.1286 24.1481C66.8462 24.5516 66.4766 24.8825 66.0116 25.1409L66.4973 26.015C67.0875 25.6871 67.5738 25.256 67.9479 24.7216L67.1286 24.1481ZM66.015 25.139C65.5881 25.3719 65.0531 25.5 64.3903 25.5V26.5C65.1813 26.5 65.8891 26.3467 66.4939 26.0169L66.015 25.139ZM64.3903 25.5C63.6123 25.5 62.9534 25.325 62.3965 24.9909L61.882 25.8484C62.6148 26.2881 63.4566 26.5 64.3903 26.5V25.5ZM62.4057 24.9965C61.8498 24.6465 61.4179 24.1748 61.1062 23.572L60.2179 24.0314C60.6096 24.7887 61.1625 25.3955 61.8729 25.8428L62.4057 24.9965ZM61.1062 23.572C60.7943 22.9691 60.6345 22.2927 60.6345 21.5331H59.6345C59.6345 22.4383 59.8263 23.2744 60.2179 24.0314L61.1062 23.572ZM60.6345 21.5331C60.6345 20.7604 60.7948 20.0857 61.1045 19.4974L60.2196 19.0316C59.8258 19.7798 59.6345 20.6175 59.6345 21.5331H60.6345ZM61.1062 19.4942C61.4173 18.8927 61.8474 18.4285 62.4 18.0908L61.8786 17.2375C61.1649 17.6736 60.6102 18.2763 60.2179 19.0348L61.1062 19.4942ZM62.4022 18.0894C62.9582 17.7457 63.615 17.5662 64.3903 17.5662V16.5662C63.4539 16.5662 62.61 16.7853 61.8764 17.2388L62.4022 18.0894ZM64.3903 17.5662C65.0531 17.5662 65.5881 17.6943 66.015 17.9272L66.4939 17.0493C65.8891 16.7195 65.1813 16.5662 64.3903 16.5662V17.5662ZM66.0269 17.9335C66.4814 18.1658 66.8451 18.4854 67.1254 18.8958L67.9512 18.3318C67.5748 17.7808 67.0827 17.3501 66.482 17.0431L66.0269 17.9335ZM68.0383 18.6138V17.2069H67.0383V18.6138H68.0383ZM67.5383 17.7069H68.8572V16.7069H67.5383V17.7069ZM68.3572 17.2069V25.7362H69.3572V17.2069H68.3572ZM68.3572 25.7362C68.3572 26.8911 68.0261 27.7029 67.4285 28.2523L68.1053 28.9884C68.9615 28.2013 69.3572 27.0903 69.3572 25.7362H68.3572ZM67.4255 28.255C66.8316 28.81 65.9505 29.1228 64.7069 29.1228V30.1228C66.1129 30.1228 67.2718 29.7673 68.1082 28.9857L67.4255 28.255ZM64.5662 25.3041C65.288 25.3041 65.9337 25.1393 66.4765 24.7822L65.9269 23.9468C65.5787 24.1759 65.134 24.3041 64.5662 24.3041V25.3041ZM66.4715 24.7854C67.0077 24.4417 67.4163 23.9775 67.6907 23.4012L66.7879 22.9712C66.5933 23.3798 66.3102 23.701 65.9319 23.9435L66.4715 24.7854ZM67.6886 23.4056C67.9703 22.8287 68.1086 22.202 68.1086 21.5331H67.1086C67.1086 22.0601 67.0007 22.5354 66.79 22.9668L67.6886 23.4056ZM68.1086 21.5331C68.1086 20.8543 67.971 20.2254 67.6865 19.6564L66.7921 20.1036C67 20.5194 67.1086 20.9926 67.1086 21.5331H68.1086ZM67.6907 19.665C67.4163 19.0887 67.0077 18.6245 66.4715 18.2808L65.9319 19.1227C66.3102 19.3652 66.5933 19.6864 66.7879 20.095L67.6907 19.665ZM66.4765 18.284C65.9337 17.9269 65.288 17.7621 64.5662 17.7621V18.7621C65.134 18.7621 65.5787 18.8903 65.9269 19.1194L66.4765 18.284ZM64.5662 17.7621C63.8435 17.7621 63.1914 17.9272 62.6305 18.2777L63.1605 19.1257C63.5376 18.8901 63.9992 18.7621 64.5662 18.7621V17.7621ZM62.6305 18.2777C62.0839 18.6194 61.6631 19.0813 61.3755 19.6564L62.27 20.1036C62.4748 19.6939 62.7692 19.3703 63.1605 19.1257L62.6305 18.2777ZM61.3755 19.6564C61.091 20.2254 60.9534 20.8543 60.9534 21.5331H61.9534C61.9534 20.9926 62.062 20.5194 62.27 20.1036L61.3755 19.6564ZM60.9534 21.5331C60.9534 22.202 61.0917 22.8287 61.3735 23.4056L62.272 22.9668C62.0614 22.5354 61.9534 22.0601 61.9534 21.5331H60.9534ZM61.3755 23.4098C61.6631 23.9849 62.0839 24.4469 62.6305 24.7885L63.1605 23.9405C62.7692 23.6959 62.4748 23.3723 62.27 22.9626L61.3755 23.4098ZM62.6305 24.7885C63.1914 25.139 63.8435 25.3041 64.5662 25.3041V24.3041C63.9992 24.3041 63.5376 24.1762 63.1605 23.9405L62.6305 24.7885ZM72.1938 26H71.6938V26.5H72.1938V26ZM72.1938 17.2069V16.7069H71.6938V17.2069H72.1938ZM73.5128 17.2069H74.0128V16.7069H73.5128V17.2069ZM73.5128 18.5786H73.0128V20.0786L73.9128 18.8786L73.5128 18.5786ZM74.6734 17.5059L74.9433 17.9268L74.9433 17.9268L74.6734 17.5059ZM78.1379 17.5059L77.895 17.9431L77.9066 17.9492L78.1379 17.5059ZM79.4393 18.7897L79.0051 19.0378L79.0113 19.0482L79.4393 18.7897ZM79.9493 26V26.5H80.4493V26H79.9493ZM78.6303 26H78.1303V26.5H78.6303V26ZM77.9445 19.0007L77.5781 19.3409L77.5822 19.3453L77.9445 19.0007ZM74.8317 18.5962L74.5878 18.1597L74.5878 18.1597L74.8317 18.5962ZM73.8645 19.5459L73.4357 19.2886L73.4335 19.2924L73.8645 19.5459ZM73.5128 26V26.5H74.0128V26H73.5128ZM72.6938 26V17.2069H71.6938V26H72.6938ZM72.1938 17.7069H73.5128V16.7069H72.1938V17.7069ZM73.0128 17.2069V18.5786H74.0128V17.2069H73.0128ZM73.9128 18.8786C74.1924 18.5057 74.5348 18.1887 74.9433 17.9268L74.4036 17.0849C73.8976 17.4093 73.4662 17.8074 73.1128 18.2786L73.9128 18.8786ZM74.9433 17.9268C75.2982 17.6993 75.7828 17.5662 76.4321 17.5662V16.5662C75.6509 16.5662 74.9632 16.7262 74.4036 17.0849L74.9433 17.9268ZM76.4321 17.5662C76.9577 17.5662 77.4426 17.6915 77.8951 17.9429L78.3807 17.0688C77.7781 16.734 77.1258 16.5662 76.4321 16.5662V17.5662ZM77.9066 17.9492C78.3536 18.1824 78.7201 18.5388 79.0052 19.0377L79.8734 18.5416C79.502 17.8915 79.0009 17.3921 78.3692 17.0626L77.9066 17.9492ZM79.0113 19.0482C79.2932 19.5147 79.4493 20.1172 79.4493 20.8824H80.4493C80.4493 19.9828 80.2654 19.1901 79.8673 18.5311L79.0113 19.0482ZM79.4493 20.8824V26H80.4493V20.8824H79.4493ZM79.9493 25.5H78.6303V26.5H79.9493V25.5ZM79.1303 26V20.9176H78.1303V26H79.1303ZM79.1303 20.9176C79.1303 20.0195 78.8697 19.2479 78.3068 18.6561L77.5822 19.3453C77.9338 19.7149 78.1303 20.2212 78.1303 20.9176H79.1303ZM78.3109 18.6605C77.7507 18.0572 77.0215 17.7621 76.1683 17.7621V18.7621C76.7688 18.7621 77.2238 18.9593 77.5781 19.3409L78.3109 18.6605ZM76.1683 17.7621C75.5974 17.7621 75.0668 17.8921 74.5878 18.1597L75.0756 19.0327C75.3939 18.8548 75.7544 18.7621 76.1683 18.7621V17.7621ZM74.5878 18.1597C74.1093 18.4272 73.7246 18.8072 73.4357 19.2886L74.2932 19.8031C74.4968 19.4639 74.7569 19.2108 75.0756 19.0327L74.5878 18.1597ZM73.4335 19.2924C73.1478 19.7781 73.0128 20.3312 73.0128 20.9352H74.0128C74.0128 20.484 74.1122 20.1108 74.2954 19.7994L73.4335 19.2924ZM73.0128 20.9352V26H74.0128V20.9352H73.0128ZM73.5128 25.5H72.1938V26.5H73.5128V25.5ZM82.9989 26H82.4989V26.5H82.9989V26ZM82.9989 24.2062V23.7062H82.4989V24.2062H82.9989ZM84.7047 24.2062H85.2047V23.7062H84.7047V24.2062ZM84.7047 26V26.5H85.2047V26H84.7047ZM83.4989 26V24.2062H82.4989V26H83.4989ZM82.9989 24.7062H84.7047V23.7062H82.9989V24.7062ZM84.2047 24.2062V26H85.2047V24.2062H84.2047ZM84.7047 25.5H82.9989V26.5H84.7047V25.5ZM89.3321 25.5428L89.0636 25.9646L89.0692 25.9681L89.3321 25.5428ZM87.8197 23.8897L87.374 24.1163L87.3771 24.1222L87.8197 23.8897ZM87.8197 19.3172L87.3771 19.0847L87.3756 19.0875L87.8197 19.3172ZM89.3321 17.6817L89.595 18.1071L89.6005 18.1036L89.3321 17.6817ZM94.2738 17.8752L93.9759 18.2767L93.979 18.279L94.2738 17.8752ZM95.7687 19.9679V20.4679H96.4415L96.2474 19.8237L95.7687 19.9679ZM94.3442 19.9679L93.8792 20.1518L94.0042 20.4679H94.3442V19.9679ZM93.3769 18.7369L93.0822 19.1408L93.0873 19.1445L93.3769 18.7369ZM90.1059 18.7193L89.8381 18.2971L89.8381 18.2971L90.1059 18.7193ZM88.998 19.9328L88.5528 19.705L88.5528 19.705L88.998 19.9328ZM88.998 23.2741L88.5507 23.4978L88.5528 23.5019L88.998 23.2741ZM90.1059 24.4876L89.8381 24.9098L89.8381 24.9098L90.1059 24.4876ZM93.3769 24.47L93.0873 24.0624L93.0822 24.0661L93.3769 24.47ZM94.3442 23.239V22.739H94.0042L93.8792 23.0551L94.3442 23.239ZM95.7687 23.239L96.2474 23.3832L96.4415 22.739H95.7687V23.239ZM94.2738 25.3317L93.979 24.9279L93.9759 24.9302L94.2738 25.3317ZM91.6183 25.6407C90.8168 25.6407 90.1489 25.4599 89.595 25.1175L89.0692 25.9681C89.805 26.4229 90.6612 26.6407 91.6183 26.6407V25.6407ZM89.6005 25.1209C89.031 24.7585 88.5861 24.2734 88.2623 23.6571L87.3771 24.1222C87.7801 24.8893 88.3436 25.5063 89.0637 25.9646L89.6005 25.1209ZM88.2654 23.663C87.9519 23.0466 87.7921 22.363 87.7921 21.6034H86.7921C86.7921 22.5088 86.984 23.3493 87.374 24.1163L88.2654 23.663ZM87.7921 21.6034C87.7921 20.8309 87.9524 20.1489 88.2638 19.547L87.3756 19.0875C86.9835 19.8456 86.7921 20.6877 86.7921 21.6034H87.7921ZM88.2623 19.5498C88.5855 18.9347 89.0287 18.4571 89.595 18.107L89.0692 17.2564C88.3459 17.7036 87.7808 18.3163 87.3771 19.0847L88.2623 19.5498ZM89.6005 18.1036C90.1536 17.7516 90.8195 17.5662 91.6183 17.5662V16.5662C90.6585 16.5662 89.8002 16.7912 89.0637 17.2599L89.6005 18.1036ZM91.6183 17.5662C92.5715 17.5662 93.3479 17.8108 93.9759 18.2767L94.5717 17.4736C93.7459 16.8609 92.752 16.5662 91.6183 16.5662V17.5662ZM93.979 18.279C94.6319 18.7557 95.0642 19.3631 95.2899 20.1122L96.2474 19.8237C95.9573 18.861 95.393 18.0733 94.5687 17.4714L93.979 18.279ZM95.7687 19.4679H94.3442V20.4679H95.7687V19.4679ZM94.8091 19.7841C94.574 19.1892 94.1902 18.7014 93.6665 18.3293L93.0873 19.1445C93.4546 19.4055 93.7158 19.7384 93.8792 20.1518L94.8091 19.7841ZM93.6717 18.333C93.1393 17.9445 92.5042 17.7621 91.7942 17.7621V18.7621C92.3269 18.7621 92.7469 18.8961 93.0822 19.1408L93.6717 18.333ZM91.7942 17.7621C91.0675 17.7621 90.4092 17.9349 89.8381 18.2971L90.3737 19.1416C90.764 18.894 91.2312 18.7621 91.7942 18.7621V17.7621ZM89.8381 18.2971C89.2824 18.6495 88.8517 19.1209 88.5528 19.705L89.4431 20.1605C89.6601 19.7363 89.968 19.3988 90.3737 19.1416L89.8381 18.2971ZM88.5528 19.705C88.2561 20.285 88.1111 20.9208 88.1111 21.6034H89.1111C89.1111 21.0668 89.2239 20.5888 89.4431 20.1605L88.5528 19.705ZM88.1111 21.6034C88.1111 22.2761 88.2568 22.9099 88.5507 23.4977L89.4452 23.0505C89.2232 22.6067 89.1111 22.1267 89.1111 21.6034H88.1111ZM88.5528 23.5019C88.8517 24.086 89.2824 24.5574 89.8381 24.9098L90.3737 24.0653C89.968 23.8081 89.6601 23.4706 89.4431 23.0464L88.5528 23.5019ZM89.8381 24.9098C90.4092 25.272 91.0675 25.4448 91.7942 25.4448V24.4448C91.2312 24.4448 90.764 24.3129 90.3737 24.0653L89.8381 24.9098ZM91.7942 25.4448C92.5042 25.4448 93.1393 25.2624 93.6717 24.8739L93.0822 24.0661C92.7469 24.3107 92.3269 24.4448 91.7942 24.4448V25.4448ZM93.6665 24.8776C94.1902 24.5055 94.574 24.0177 94.8091 23.4228L93.8792 23.0551C93.7158 23.4685 93.4546 23.8014 93.0873 24.0624L93.6665 24.8776ZM94.3442 23.739H95.7687V22.739H94.3442V23.739ZM95.2899 23.0947C95.0642 23.8438 94.6319 24.4512 93.979 24.9279L94.5687 25.7355C95.393 25.1336 95.9573 24.3459 96.2474 23.3832L95.2899 23.0947ZM93.9759 24.9302C93.3479 25.3961 92.5715 25.6407 91.6183 25.6407V26.6407C92.752 26.6407 93.7459 26.346 94.5717 25.7333L93.9759 24.9302ZM99.9532 25.5428L99.6847 25.9646L99.6903 25.9681L99.9532 25.5428ZM98.4408 23.8897L97.9951 24.1163L97.9982 24.1222L98.4408 23.8897ZM98.4408 19.3172L97.9982 19.0847L97.9967 19.0875L98.4408 19.3172ZM99.9532 17.6817L100.216 18.1071L100.222 18.1036L99.9532 17.6817ZM104.895 17.8752L104.597 18.2767L104.6 18.279L104.895 17.8752ZM106.39 19.9679V20.4679H107.063L106.868 19.8237L106.39 19.9679ZM104.965 19.9679L104.5 20.1518L104.625 20.4679H104.965V19.9679ZM103.998 18.7369L103.703 19.1408L103.708 19.1445L103.998 18.7369ZM100.727 18.7193L100.459 18.2971L100.459 18.2971L100.727 18.7193ZM99.6191 19.9328L99.1739 19.705L99.1739 19.705L99.6191 19.9328ZM99.6191 23.2741L99.1718 23.4978L99.1739 23.5019L99.6191 23.2741ZM100.727 24.4876L100.459 24.9098L100.459 24.9098L100.727 24.4876ZM103.998 24.47L103.708 24.0624L103.703 24.0661L103.998 24.47ZM104.965 23.239V22.739H104.625L104.5 23.0551L104.965 23.239ZM106.39 23.239L106.868 23.3832L107.063 22.739H106.39V23.239ZM104.895 25.3317L104.6 24.9279L104.597 24.9302L104.895 25.3317ZM102.239 25.6407C101.438 25.6407 100.77 25.4599 100.216 25.1175L99.6903 25.9681C100.426 26.4229 101.282 26.6407 102.239 26.6407V25.6407ZM100.222 25.1209C99.6521 24.7585 99.2072 24.2734 98.8834 23.6571L97.9982 24.1222C98.4012 24.8893 98.9647 25.5063 99.6848 25.9646L100.222 25.1209ZM98.8865 23.663C98.573 23.0466 98.4132 22.363 98.4132 21.6034H97.4132C97.4132 22.5088 97.6051 23.3493 97.9951 24.1163L98.8865 23.663ZM98.4132 21.6034C98.4132 20.8309 98.5736 20.1489 98.8849 19.547L97.9967 19.0875C97.6046 19.8456 97.4132 20.6877 97.4132 21.6034H98.4132ZM98.8834 19.5498C99.2066 18.9347 99.6498 18.4571 100.216 18.107L99.6903 17.2564C98.967 17.7036 98.4019 18.3163 97.9982 19.0847L98.8834 19.5498ZM100.222 18.1036C100.775 17.7516 101.441 17.5662 102.239 17.5662V16.5662C101.28 16.5662 100.421 16.7912 99.6848 17.2599L100.222 18.1036ZM102.239 17.5662C103.193 17.5662 103.969 17.8108 104.597 18.2767L105.193 17.4736C104.367 16.8609 103.373 16.5662 102.239 16.5662V17.5662ZM104.6 18.279C105.253 18.7557 105.685 19.3631 105.911 20.1122L106.868 19.8237C106.578 18.861 106.014 18.0733 105.19 17.4714L104.6 18.279ZM106.39 19.4679H104.965V20.4679H106.39V19.4679ZM105.43 19.7841C105.195 19.1892 104.811 18.7014 104.288 18.3293L103.708 19.1445C104.076 19.4055 104.337 19.7384 104.5 20.1518L105.43 19.7841ZM104.293 18.333C103.76 17.9445 103.125 17.7621 102.415 17.7621V18.7621C102.948 18.7621 103.368 18.8961 103.703 19.1408L104.293 18.333ZM102.415 17.7621C101.689 17.7621 101.03 17.9349 100.459 18.2971L100.995 19.1416C101.385 18.894 101.852 18.7621 102.415 18.7621V17.7621ZM100.459 18.2971C99.9035 18.6495 99.4728 19.1209 99.1739 19.705L100.064 20.1605C100.281 19.7363 100.589 19.3988 100.995 19.1416L100.459 18.2971ZM99.1739 19.705C98.8772 20.285 98.7322 20.9208 98.7322 21.6034H99.7322C99.7322 21.0668 99.8451 20.5888 100.064 20.1605L99.1739 19.705ZM98.7322 21.6034C98.7322 22.2761 98.8779 22.9099 99.1719 23.4977L100.066 23.0505C99.8444 22.6067 99.7322 22.1267 99.7322 21.6034H98.7322ZM99.1739 23.5019C99.4728 24.086 99.9035 24.5574 100.459 24.9098L100.995 24.0653C100.589 23.8081 100.281 23.4706 100.064 23.0464L99.1739 23.5019ZM100.459 24.9098C101.03 25.272 101.689 25.4448 102.415 25.4448V24.4448C101.852 24.4448 101.385 24.3129 100.995 24.0653L100.459 24.9098ZM102.415 25.4448C103.125 25.4448 103.76 25.2624 104.293 24.8739L103.703 24.0661C103.368 24.3107 102.948 24.4448 102.415 24.4448V25.4448ZM104.288 24.8776C104.811 24.5055 105.195 24.0177 105.43 23.4228L104.5 23.0551C104.337 23.4685 104.076 23.8014 103.708 24.0624L104.288 24.8776ZM104.965 23.739H106.39V22.739H104.965V23.739ZM105.911 23.0947C105.685 23.8438 105.253 24.4512 104.6 24.9279L105.19 25.7355C106.014 25.1336 106.578 24.3459 106.868 23.3832L105.911 23.0947ZM104.597 24.9302C103.969 25.3961 103.193 25.6407 102.239 25.6407V26.6407C103.373 26.6407 104.367 26.346 105.193 25.7333L104.597 24.9302Z" fill="#335EEA"/>
</g>
<defs>
<clipPath id="clip0">
<rect width="108" height="30" fill="white"/>
</clipPath>
</defs>
</svg>
