<svg width="124" height="31" viewBox="0 0 124 31" fill="none" xmlns="http://www.w3.org/2000/svg">
<g clip-path="url(#clip0_11_84)">
<path d="M44.8194 5.50934C45.4961 5.50934 46.0279 5.6778 46.4146 6.01471C46.8042 6.34869 46.9991 6.80719 46.9991 7.3902C46.9991 8.05524 46.7867 8.57672 46.3619 8.95465C45.94 9.33258 45.357 9.52155 44.6128 9.52155C43.8892 9.52155 43.337 9.40582 42.9561 9.17438V8.47125C43.1612 8.60309 43.4161 8.70709 43.7207 8.78326C44.0254 8.85651 44.3257 8.89313 44.6216 8.89313C45.1372 8.89313 45.5371 8.77155 45.8213 8.52838C46.1084 8.28522 46.252 7.93365 46.252 7.47369C46.252 6.57721 45.7027 6.12897 44.604 6.12897C44.3257 6.12897 43.9537 6.17145 43.4878 6.25641L43.1099 6.01471L43.3516 3.00885H46.5464V3.68121H43.9756L43.813 5.61041C44.1499 5.54303 44.4854 5.50934 44.8194 5.50934Z" fill="#8F959E"/>
<path d="M52.2197 6.21246C52.2197 7.32281 52.0439 8.15192 51.6923 8.69977C51.3437 9.24762 50.809 9.52155 50.0883 9.52155C49.3969 9.52155 48.871 9.24176 48.5107 8.68219C48.1503 8.11969 47.9702 7.29645 47.9702 6.21246C47.9702 5.09332 48.1445 4.26276 48.4931 3.72076C48.8417 3.17877 49.3735 2.90778 50.0883 2.90778C50.7856 2.90778 51.3144 3.19049 51.6747 3.75592C52.038 4.32135 52.2197 5.1402 52.2197 6.21246ZM48.7084 6.21246C48.7084 7.14703 48.8183 7.82819 49.038 8.25592C49.2578 8.68072 49.6078 8.89313 50.0883 8.89313C50.5746 8.89313 50.9262 8.6778 51.143 8.24713C51.3627 7.81354 51.4726 7.13531 51.4726 6.21246C51.4726 5.28961 51.3627 4.61432 51.143 4.18658C50.9262 3.75592 50.5746 3.54059 50.0883 3.54059C49.6078 3.54059 49.2578 3.75299 49.038 4.1778C48.8183 4.59967 48.7084 5.27789 48.7084 6.21246Z" fill="#8F959E"/>
<path d="M57.3702 6.21246C57.3702 7.32281 57.1944 8.15192 56.8428 8.69977C56.4942 9.24762 55.9595 9.52155 55.2388 9.52155C54.5474 9.52155 54.0215 9.24176 53.6612 8.68219C53.3008 8.11969 53.1206 7.29645 53.1206 6.21246C53.1206 5.09332 53.295 4.26276 53.6436 3.72076C53.9922 3.17877 54.524 2.90778 55.2388 2.90778C55.9361 2.90778 56.4649 3.19049 56.8252 3.75592C57.1885 4.32135 57.3702 5.1402 57.3702 6.21246ZM53.8589 6.21246C53.8589 7.14703 53.9688 7.82819 54.1885 8.25592C54.4082 8.68072 54.7583 8.89313 55.2388 8.89313C55.7251 8.89313 56.0767 8.6778 56.2935 8.24713C56.5132 7.81354 56.6231 7.13531 56.6231 6.21246C56.6231 5.28961 56.5132 4.61432 56.2935 4.18658C56.0767 3.75592 55.7251 3.54059 55.2388 3.54059C54.7583 3.54059 54.4082 3.75299 54.1885 4.1778C53.9688 4.59967 53.8589 5.27789 53.8589 6.21246Z" fill="#8F959E"/>
<path d="M61.558 9.43365L61.413 8.74811H61.3779C61.1376 9.04987 60.8974 9.25494 60.6572 9.36334C60.4199 9.46881 60.1225 9.52155 59.7651 9.52155C59.2875 9.52155 58.9125 9.3985 58.6401 9.1524C58.3705 8.90631 58.2358 8.55621 58.2358 8.10211C58.2358 7.12946 59.0136 6.61969 60.5693 6.57281L61.3867 6.54645V6.24762C61.3867 5.86969 61.3046 5.59137 61.1406 5.41266C60.9794 5.23102 60.7202 5.1402 60.3627 5.1402C59.9614 5.1402 59.5073 5.26324 59.0004 5.50934L58.7763 4.95123C59.0136 4.82233 59.2729 4.72125 59.5541 4.64801C59.8383 4.57477 60.1225 4.53815 60.4067 4.53815C60.9809 4.53815 61.4057 4.66559 61.6811 4.92047C61.9594 5.17535 62.0986 5.58405 62.0986 6.14655V9.43365H61.558ZM59.9101 8.91949C60.3642 8.91949 60.7202 8.79498 60.978 8.54596C61.2387 8.29694 61.3691 7.9483 61.3691 7.50006V7.065L60.6396 7.09576C60.0595 7.11627 59.6406 7.20709 59.3828 7.36822C59.1279 7.52643 59.0004 7.77399 59.0004 8.1109C59.0004 8.37457 59.0795 8.57526 59.2377 8.71295C59.3989 8.85065 59.623 8.91949 59.9101 8.91949Z" fill="#8F959E"/>
<path d="M65.8472 9.52155C65.5337 9.52155 65.2466 9.46442 64.9859 9.35016C64.7281 9.23297 64.5113 9.05426 64.3355 8.81403H64.2828C64.3179 9.09528 64.3355 9.36188 64.3355 9.61383V11.5958H63.606V4.61725H64.1993L64.3003 5.27643H64.3355C64.523 5.01276 64.7412 4.82233 64.9903 4.70514C65.2393 4.58795 65.5249 4.52936 65.8472 4.52936C66.4859 4.52936 66.9781 4.74762 67.3238 5.18414C67.6724 5.62067 67.8467 6.23297 67.8467 7.02106C67.8467 7.81207 67.6695 8.42731 67.315 8.86676C66.9634 9.30328 66.4742 9.52155 65.8472 9.52155ZM65.7417 5.14899C65.2495 5.14899 64.8936 5.28522 64.6739 5.55768C64.4541 5.83014 64.3413 6.26373 64.3355 6.85846V7.02106C64.3355 7.69781 64.4483 8.18268 64.6739 8.47565C64.8995 8.76569 65.2613 8.91071 65.7593 8.91071C66.1753 8.91071 66.5005 8.74225 66.7349 8.40533C66.9722 8.06842 67.0909 7.60406 67.0909 7.01227C67.0909 6.41168 66.9722 5.95172 66.7349 5.63239C66.5005 5.31012 66.1695 5.14899 65.7417 5.14899Z" fill="#8F959E"/>
<path d="M71.3667 9.52155C71.0533 9.52155 70.7662 9.46442 70.5054 9.35016C70.2476 9.23297 70.0308 9.05426 69.855 8.81403H69.8023C69.8374 9.09528 69.855 9.36188 69.855 9.61383V11.5958H69.1255V4.61725H69.7188L69.8199 5.27643H69.855C70.0425 5.01276 70.2608 4.82233 70.5098 4.70514C70.7588 4.58795 71.0445 4.52936 71.3667 4.52936C72.0054 4.52936 72.4976 4.74762 72.8433 5.18414C73.1919 5.62067 73.3662 6.23297 73.3662 7.02106C73.3662 7.81207 73.189 8.42731 72.8345 8.86676C72.4829 9.30328 71.9937 9.52155 71.3667 9.52155ZM71.2613 5.14899C70.7691 5.14899 70.4131 5.28522 70.1934 5.55768C69.9737 5.83014 69.8609 6.26373 69.855 6.85846V7.02106C69.855 7.69781 69.9678 8.18268 70.1934 8.47565C70.419 8.76569 70.7808 8.91071 71.2788 8.91071C71.6949 8.91071 72.0201 8.74225 72.2544 8.40533C72.4917 8.06842 72.6104 7.60406 72.6104 7.01227C72.6104 6.41168 72.4917 5.95172 72.2544 5.63239C72.0201 5.31012 71.689 5.14899 71.2613 5.14899Z" fill="#8F959E"/>
<path d="M77.752 8.11969C77.752 8.56793 77.585 8.91364 77.251 9.1568C76.917 9.39996 76.4483 9.52155 75.8448 9.52155C75.2061 9.52155 74.708 9.42047 74.3506 9.21832V8.54156C74.5821 8.65875 74.8296 8.75104 75.0933 8.81842C75.3599 8.8858 75.6162 8.91949 75.8623 8.91949C76.2432 8.91949 76.5362 8.85944 76.7412 8.73932C76.9463 8.61627 77.0489 8.43024 77.0489 8.18121C77.0489 7.99371 76.9668 7.83405 76.8028 7.70221C76.6416 7.56744 76.3252 7.40924 75.8536 7.2276C75.4053 7.06061 75.086 6.91559 74.8955 6.79254C74.708 6.66656 74.5674 6.52447 74.4737 6.36627C74.3829 6.20807 74.3374 6.0191 74.3374 5.79938C74.3374 5.4068 74.4971 5.09772 74.8164 4.87213C75.1358 4.64362 75.5738 4.52936 76.1304 4.52936C76.649 4.52936 77.1558 4.63483 77.6509 4.84576L77.3916 5.43903C76.9082 5.23981 76.4703 5.1402 76.0777 5.1402C75.732 5.1402 75.4712 5.1944 75.2954 5.3028C75.1197 5.41119 75.0318 5.56061 75.0318 5.75104C75.0318 5.87994 75.064 5.98981 75.1285 6.08063C75.1958 6.17145 75.3028 6.25787 75.4493 6.3399C75.5957 6.42194 75.877 6.54059 76.293 6.69586C76.8643 6.90387 77.2495 7.11334 77.4488 7.32428C77.6509 7.53522 77.752 7.80035 77.752 8.11969Z" fill="#8F959E"/>
<path fill-rule="evenodd" clip-rule="evenodd" d="M43.056 8.53104C43.2421 8.63488 43.4637 8.71892 43.7206 8.78317C44.0253 8.85641 44.3256 8.89303 44.6215 8.89303C45.1371 8.89303 45.537 8.77145 45.8212 8.52828C46.1083 8.28512 46.2519 7.93356 46.2519 7.4736C46.2519 6.57711 45.7026 6.12887 44.6039 6.12887C44.3256 6.12887 43.9536 6.17135 43.4877 6.25631L43.1098 6.01461L43.3515 3.00875H46.5463V3.68112H43.9755L43.8129 5.61031C43.8469 5.60351 43.8809 5.59705 43.9149 5.59094C44.2176 5.53647 44.519 5.50924 44.8193 5.50924C45.496 5.50924 46.0278 5.6777 46.4145 6.01461C46.8041 6.3486 46.999 6.80709 46.999 7.3901C46.999 8.05514 46.7866 8.57662 46.3618 8.95455C45.9399 9.33248 45.3569 9.52145 44.6127 9.52145C43.8891 9.52145 43.3369 9.40572 42.956 9.17428V8.47115C42.9881 8.4918 43.0214 8.51176 43.056 8.53104ZM46.4282 9.02927C45.9829 9.42807 45.3735 9.62145 44.6127 9.62145C43.8811 9.62145 43.3075 9.5049 42.9041 9.25974L42.856 9.23053V8.28799L43.0101 8.38704C43.2037 8.5115 43.4477 8.6118 43.7445 8.68604C44.0418 8.75748 44.3341 8.79303 44.6215 8.79303C45.1223 8.79303 45.496 8.67497 45.7562 8.4523C46.016 8.23232 46.1519 7.91131 46.1519 7.4736C46.1519 7.04675 46.0221 6.7428 45.7767 6.54253C45.5274 6.33909 45.1422 6.22887 44.6039 6.22887C44.3344 6.22887 43.9691 6.27017 43.5057 6.35469L43.467 6.36174L43.0053 6.06649L43.2592 2.90875H46.6463V3.78112H44.0675L43.9236 5.48784C44.2231 5.43547 44.5217 5.40924 44.8193 5.40924C45.5122 5.40924 46.0698 5.58186 46.4799 5.93895C46.8946 6.29462 47.099 6.78248 47.099 7.3901C47.099 8.07836 46.878 8.62909 46.4282 9.02927ZM48.4265 8.73603C48.0512 8.15028 47.8702 7.30469 47.8702 6.21237C47.8702 5.08647 48.0449 4.23267 48.409 3.66657C48.7783 3.09245 49.3439 2.80768 50.0883 2.80768C50.8181 2.80768 51.3795 3.10647 51.7591 3.70208C52.1371 4.29057 52.3197 5.13153 52.3197 6.21237C52.3197 7.32978 52.1434 8.1818 51.7766 8.75352C51.4073 9.33368 50.8387 9.62145 50.0883 9.62145C49.3645 9.62145 48.8061 9.3255 48.4265 8.73603ZM51.6923 8.69967C52.0439 8.15182 52.2197 7.32272 52.2197 6.21237C52.2197 5.1401 52.038 4.32125 51.6747 3.75582C51.3144 3.19039 50.7856 2.90768 50.0883 2.90768C49.3735 2.90768 48.8417 3.17867 48.4931 3.72067C48.1445 4.26266 47.9702 5.09322 47.9702 6.21237C47.9702 7.29635 48.1503 8.11959 48.5107 8.68209C48.871 9.24166 49.3969 9.52145 50.0883 9.52145C50.809 9.52145 51.3437 9.24752 51.6923 8.69967ZM51.0538 8.20183C51.2626 7.78988 51.3726 7.1312 51.3726 6.21237C51.3726 5.29335 51.2625 4.63797 51.0541 4.23218C50.9526 4.03061 50.8219 3.88366 50.6645 3.78727C50.5071 3.69084 50.3164 3.64049 50.0883 3.64049C49.8632 3.64049 49.6741 3.69011 49.5173 3.78529C49.3604 3.88045 49.2297 4.02479 49.1268 4.22364C48.9188 4.62315 48.8084 5.28121 48.8084 6.21237C48.8084 7.14324 48.9186 7.80431 49.1269 8.21C49.2298 8.40879 49.3604 8.55309 49.5173 8.64823C49.6741 8.74341 49.8632 8.79303 50.0883 8.79303C50.3164 8.79303 50.5071 8.74268 50.6645 8.64625C50.8219 8.54986 50.9523 8.4034 51.0538 8.20183ZM49.038 8.25582C48.8183 7.82809 48.7084 7.14694 48.7084 6.21237C48.7084 5.2778 48.8183 4.59957 49.038 4.1777C49.2578 3.75289 49.6079 3.54049 50.0883 3.54049C50.5746 3.54049 50.9262 3.75582 51.143 4.18649C51.3627 4.61422 51.4726 5.28951 51.4726 6.21237C51.4726 7.13522 51.3627 7.81344 51.143 8.24703C50.9262 8.6777 50.5746 8.89303 50.0883 8.89303C49.6079 8.89303 49.2578 8.68063 49.038 8.25582ZM53.5769 8.73603C53.2016 8.15028 53.0205 7.30469 53.0205 6.21237C53.0205 5.08647 53.1952 4.23267 53.5594 3.66657C53.9287 3.09245 54.4943 2.80768 55.2387 2.80768C55.9685 2.80768 56.5299 3.10647 56.9095 3.70208C57.2874 4.29057 57.4701 5.13153 57.4701 6.21237C57.4701 7.32978 57.2938 8.1818 56.927 8.75352C56.5577 9.33368 55.9891 9.62145 55.2387 9.62145C54.5149 9.62145 53.9565 9.3255 53.5769 8.73603ZM56.8427 8.69967C57.1943 8.15182 57.3701 7.32272 57.3701 6.21237C57.3701 5.1401 57.1884 4.32125 56.8251 3.75582C56.4648 3.19039 55.936 2.90768 55.2387 2.90768C54.5239 2.90768 53.9921 3.17867 53.6435 3.72067C53.2949 4.26266 53.1205 5.09322 53.1205 6.21237C53.1205 7.29635 53.3007 8.11959 53.6611 8.68209C54.0214 9.24166 54.5473 9.52145 55.2387 9.52145C55.9594 9.52145 56.4941 9.24752 56.8427 8.69967ZM56.2042 8.20183C56.413 7.78988 56.523 7.1312 56.523 6.21237C56.523 5.29335 56.4129 4.63797 56.2044 4.23218C56.103 4.03061 55.9723 3.88366 55.8149 3.78727C55.6575 3.69084 55.4668 3.64049 55.2387 3.64049C55.0136 3.64049 54.8245 3.69011 54.6677 3.78529C54.5108 3.88045 54.3801 4.02479 54.2772 4.22364C54.0692 4.62315 53.9588 5.28121 53.9588 6.21237C53.9588 7.14333 54.069 7.80444 54.2774 8.21012C54.3802 8.40885 54.5109 8.55311 54.6677 8.64823C54.8245 8.74341 55.0136 8.79303 55.2387 8.79303C55.4668 8.79303 55.6575 8.74268 55.8149 8.64625C55.9723 8.54986 56.1027 8.4034 56.2042 8.20183ZM54.1884 8.25582C53.9687 7.82809 53.8588 7.14694 53.8588 6.21237C53.8588 5.2778 53.9687 4.59957 54.1884 4.1777C54.4081 3.75289 54.7582 3.54049 55.2387 3.54049C55.725 3.54049 56.0766 3.75582 56.2934 4.18649C56.5131 4.61422 56.623 5.28951 56.623 6.21237C56.623 7.13522 56.5131 7.81344 56.2934 8.24703C56.0766 8.6777 55.725 8.89303 55.2387 8.89303C54.7582 8.89303 54.4081 8.68063 54.1884 8.25582ZM61.477 9.53356L61.3507 8.93664C61.1383 9.17917 60.9212 9.35383 60.6983 9.45439C60.4444 9.56726 60.1315 9.62145 59.7651 9.62145C59.2704 9.62145 58.8689 9.49371 58.573 9.22652C58.2779 8.95702 58.1358 8.57685 58.1358 8.10201C58.1358 7.58383 58.3457 7.18092 58.7643 6.90656C59.1759 6.63686 59.781 6.49643 60.5662 6.47276C60.5662 6.47276 60.5662 6.47277 60.5662 6.47276L61.2867 6.44952V6.24752C61.2867 5.88121 61.2067 5.6325 61.0669 5.48019L61.0657 5.47893C60.9311 5.32714 60.7053 5.2401 60.3627 5.2401C59.9813 5.2401 59.5425 5.35721 59.0441 5.5992L58.9476 5.64605L58.6503 4.90577L58.7286 4.86326C58.9735 4.73021 59.2404 4.62627 59.5289 4.55114C59.821 4.47587 60.1138 4.43805 60.4067 4.43805C60.993 4.43805 61.4473 4.56781 61.7488 4.8468C62.0561 5.1283 62.1986 5.56984 62.1986 6.14645V9.53356H61.477ZM61.6811 4.92037C61.4057 4.66549 60.9809 4.53805 60.4067 4.53805C60.1225 4.53805 59.8383 4.57467 59.5541 4.64791C59.2729 4.72115 59.0136 4.82223 58.7763 4.95114L59.0004 5.50924C59.0308 5.4945 59.061 5.48019 59.091 5.46633C59.5615 5.24884 59.9854 5.1401 60.3627 5.1401C60.7202 5.1401 60.9794 5.23092 61.1406 5.41256C61.3046 5.59127 61.3867 5.86959 61.3867 6.24752V6.54635L60.5693 6.57272C59.0136 6.61959 58.2358 7.12936 58.2358 8.10201C58.2358 8.55612 58.3705 8.90621 58.6401 9.15231C58.9125 9.3984 59.2875 9.52145 59.7651 9.52145C60.1225 9.52145 60.4199 9.46871 60.6572 9.36324C60.8797 9.26285 61.1021 9.07954 61.3246 8.81331C61.34 8.79492 61.3554 8.77614 61.3707 8.75696C61.3731 8.75399 61.3755 8.751 61.3779 8.74801H61.413L61.558 9.43356H62.0986V6.14645C62.0986 5.58395 61.9594 5.17526 61.6811 4.92037ZM60.9089 8.47354C61.1453 8.24778 61.2691 7.92797 61.2691 7.49996V7.16921L60.6438 7.19558C60.068 7.21593 59.6705 7.30624 59.4358 7.45293C59.2143 7.59037 59.1004 7.80342 59.1004 8.1108C59.1004 8.3534 59.1723 8.52318 59.3031 8.63718C59.4406 8.75444 59.6386 8.8194 59.9101 8.8194C60.3455 8.8194 60.6744 8.70009 60.9089 8.47354ZM59.2377 8.71285C59.0795 8.57516 59.0004 8.37447 59.0004 8.1108C59.0004 7.77389 59.1279 7.52633 59.3828 7.36813C59.6406 7.20699 60.0595 7.11617 60.6396 7.09567L61.3691 7.0649V7.49996C61.3691 7.94821 61.2387 8.29684 60.978 8.54586C60.7202 8.79489 60.3642 8.9194 59.9101 8.9194C59.623 8.9194 59.3989 8.85055 59.2377 8.71285ZM64.9456 9.44165L64.9444 9.44111C64.742 9.3491 64.5637 9.22146 64.4096 9.05905C64.4268 9.25076 64.4354 9.43566 64.4354 9.61373V11.6957H63.5059V4.51715H64.285L64.3696 5.06897C64.5389 4.86865 64.7314 4.71631 64.9476 4.61456C65.212 4.49012 65.5126 4.42926 65.8471 4.42926C66.5112 4.42926 67.0343 4.6577 67.4019 5.12174C67.7694 5.58199 67.9466 6.21938 67.9466 7.02096C67.9466 7.82577 67.7664 8.46622 67.3928 8.92939C67.0198 9.39248 66.5003 9.62145 65.8471 9.62145C65.5212 9.62145 65.2203 9.56199 64.9456 9.44165ZM67.3149 8.86666C67.6694 8.42721 67.8466 7.81197 67.8466 7.02096C67.8466 6.23287 67.6723 5.62057 67.3237 5.18405C66.978 4.74752 66.4858 4.52926 65.8471 4.52926C65.5248 4.52926 65.2392 4.58785 64.9902 4.70504C64.765 4.81101 64.565 4.97686 64.3901 5.2026C64.3731 5.22459 64.3563 5.24715 64.3397 5.27028C64.3383 5.27229 64.3368 5.27431 64.3354 5.27633H64.3002L64.1992 4.61715H63.6059V11.5957H64.3354V9.61373C64.3354 9.39591 64.3223 9.16714 64.296 8.92742C64.2955 8.92293 64.295 8.91843 64.2945 8.91393C64.2921 8.89248 64.2896 8.87095 64.287 8.84934C64.2856 8.83756 64.2841 8.82576 64.2827 8.81393H64.3354C64.3539 8.83917 64.3728 8.86372 64.3922 8.88761C64.5572 9.09103 64.7551 9.24519 64.9858 9.35006C65.2465 9.46432 65.5336 9.52145 65.8471 9.52145C66.4741 9.52145 66.9633 9.30319 67.3149 8.86666ZM66.653 8.34765C66.8743 8.03349 66.9908 7.59198 66.9908 7.01217C66.9908 6.4227 66.874 5.98723 66.6545 5.69193L66.6539 5.69111C66.4399 5.39686 66.1401 5.24889 65.7416 5.24889C65.2668 5.24889 64.9455 5.37991 64.7516 5.62036C64.553 5.86664 64.4412 6.27257 64.4354 6.85877V7.02096C64.4354 7.69151 64.5481 8.14828 64.7528 8.41432C64.9533 8.67192 65.2804 8.81061 65.7592 8.81061C66.143 8.81061 66.4377 8.65726 66.653 8.34765ZM64.6738 8.47555C64.4482 8.18258 64.3354 7.69772 64.3354 7.02096V6.85836C64.3412 6.26364 64.454 5.83004 64.6738 5.55758C64.8935 5.28512 65.2495 5.14889 65.7416 5.14889C66.1694 5.14889 66.5004 5.31002 66.7348 5.63229C66.9721 5.95162 67.0908 6.41158 67.0908 7.01217C67.0908 7.60397 66.9721 8.06832 66.7348 8.40524C66.5004 8.74215 66.1752 8.91061 65.7592 8.91061C65.2612 8.91061 64.8994 8.76559 64.6738 8.47555ZM70.4652 9.44165L70.4639 9.44111C70.2615 9.3491 70.0832 9.22146 69.9291 9.05905C69.9463 9.25076 69.9549 9.43566 69.9549 9.61373V11.6957H69.0254V4.51715H69.8045L69.8891 5.06897C70.0584 4.86865 70.2509 4.71631 70.4671 4.61456C70.7316 4.49012 71.0322 4.42926 71.3666 4.42926C72.0307 4.42926 72.5538 4.6577 72.9214 5.12174C73.289 5.58199 73.4662 6.21938 73.4662 7.02096C73.4662 7.82577 73.2859 8.46622 72.9123 8.92939C72.5393 9.39248 72.0198 9.62145 71.3666 9.62145C71.0408 9.62145 70.7398 9.56199 70.4652 9.44165ZM72.8344 8.86666C73.1889 8.42721 73.3662 7.81197 73.3662 7.02096C73.3662 6.23287 73.1918 5.62057 72.8432 5.18405C72.4975 4.74752 72.0053 4.52926 71.3666 4.52926C71.0444 4.52926 70.7587 4.58785 70.5097 4.70504C70.2845 4.81101 70.0845 4.97686 69.9096 5.2026C69.8926 5.22459 69.8758 5.24715 69.8592 5.27028C69.8578 5.27229 69.8564 5.27431 69.8549 5.27633H69.8198L69.7187 4.61715H69.1254V11.5957H69.8549V9.61373C69.8549 9.39591 69.8418 9.16714 69.8155 8.92742C69.815 8.92293 69.8145 8.91843 69.814 8.91393C69.8116 8.89248 69.8091 8.87095 69.8065 8.84934C69.8051 8.83756 69.8037 8.82576 69.8022 8.81393H69.8549C69.8734 8.83917 69.8923 8.86372 69.9117 8.88761C70.0767 9.09103 70.2746 9.24519 70.5053 9.35006C70.7661 9.46432 71.0532 9.52145 71.3666 9.52145C71.9936 9.52145 72.4829 9.30319 72.8344 8.86666ZM72.1726 8.34765C72.3939 8.03349 72.5103 7.59198 72.5103 7.01217C72.5103 6.4227 72.3935 5.98723 72.1741 5.69193L72.1735 5.69111C71.9595 5.39686 71.6597 5.24889 71.2612 5.24889C70.7863 5.24889 70.465 5.37991 70.2711 5.62036C70.0725 5.86664 69.9608 6.27257 69.9549 6.85877V7.02096C69.9549 7.69151 70.0676 8.14828 70.2724 8.41432C70.4728 8.67192 70.7999 8.81061 71.2787 8.81061C71.6626 8.81061 71.9572 8.65726 72.1726 8.34765ZM70.1933 8.47555C69.9677 8.18258 69.8549 7.69772 69.8549 7.02096V6.85836C69.8608 6.26364 69.9736 5.83004 70.1933 5.55758C70.413 5.28512 70.769 5.14889 71.2612 5.14889C71.6889 5.14889 72.02 5.31002 72.2543 5.63229C72.4916 5.95162 72.6103 6.41158 72.6103 7.01217C72.6103 7.60397 72.4916 8.06832 72.2543 8.40524C72.02 8.74215 71.6948 8.91061 71.2787 8.91061C70.7807 8.91061 70.4189 8.76559 70.1933 8.47555ZM74.2505 9.27655V8.37875L74.3957 8.45225C74.6203 8.56595 74.8608 8.65571 75.1177 8.72137C75.3772 8.78696 75.6253 8.8194 75.8622 8.8194C76.2347 8.8194 76.5071 8.76028 76.6902 8.65315C76.8634 8.54907 76.9488 8.39657 76.9488 8.18112C76.9488 8.02789 76.8838 7.89555 76.74 7.78006L76.7385 7.77883C76.5915 7.65585 76.2896 7.50263 75.818 7.32102C75.369 7.15372 75.0412 7.00569 74.8412 6.87644L74.8397 6.87546C74.6426 6.74303 74.4904 6.59073 74.3875 6.41715L74.3868 6.41597C74.2857 6.23978 74.2373 6.03291 74.2373 5.79928C74.2373 5.37448 74.4126 5.03494 74.7584 4.79053C75.1004 4.54587 75.5614 4.42926 76.1303 4.42926C76.6628 4.42926 77.183 4.53765 77.69 4.75367L77.7829 4.79323L77.444 5.56869L77.3534 5.53138C76.8783 5.33558 76.4535 5.2401 76.0776 5.2401C75.7393 5.2401 75.5005 5.29368 75.3478 5.38781C75.1986 5.47985 75.1317 5.59859 75.1317 5.75094C75.1317 5.86202 75.159 5.95057 75.2093 6.02177C75.2653 6.09687 75.3589 6.17466 75.498 6.25256C75.6369 6.33032 75.9112 6.44655 76.3275 6.60195C76.9004 6.81055 77.3047 7.02631 77.5211 7.25525C77.7427 7.48658 77.8519 7.77722 77.8519 8.11959C77.8519 8.59664 77.6721 8.97377 77.3098 9.23754C76.9524 9.49771 76.46 9.62145 75.8447 9.62145C75.1975 9.62145 74.6798 9.51936 74.3013 9.30527L74.2505 9.27655ZM77.4487 7.32418C77.2495 7.11324 76.8642 6.90377 76.2929 6.69576C75.8769 6.54049 75.5956 6.42184 75.4492 6.33981C75.3027 6.25778 75.1957 6.17135 75.1284 6.08053C75.0639 5.98971 75.0317 5.87985 75.0317 5.75094C75.0317 5.56051 75.1196 5.4111 75.2953 5.3027C75.4711 5.1943 75.7319 5.1401 76.0776 5.1401C76.4702 5.1401 76.9081 5.23971 77.3915 5.43893L77.6508 4.84567C77.62 4.83255 77.5892 4.81985 77.5583 4.80755C77.0926 4.62202 76.6166 4.52926 76.1303 4.52926C75.5737 4.52926 75.1357 4.64352 74.8163 4.87203C74.497 5.09762 74.3373 5.4067 74.3373 5.79928C74.3373 6.01901 74.3828 6.20797 74.4736 6.36617C74.5673 6.52438 74.7079 6.66647 74.8954 6.79244C75.0859 6.91549 75.4052 7.06051 75.8535 7.2275C76.3251 7.40914 76.6415 7.56735 76.8027 7.70211C76.9667 7.83395 77.0488 7.99362 77.0488 8.18112C77.0488 8.43014 76.9462 8.61617 76.7412 8.73922C76.5361 8.85934 76.2431 8.9194 75.8622 8.9194C75.6162 8.9194 75.3598 8.88571 75.0932 8.81832C74.8671 8.76055 74.6529 8.68447 74.4505 8.59008C74.4169 8.57438 74.3835 8.55818 74.3505 8.54147V9.21822C74.7079 9.42037 75.206 9.52145 75.8447 9.52145C76.4482 9.52145 76.9169 9.39987 77.2509 9.1567C77.5849 8.91354 77.7519 8.56783 77.7519 8.11959C77.7519 7.80026 77.6508 7.53512 77.4487 7.32418Z" fill="#8F959E"/>
<path fill-rule="evenodd" clip-rule="evenodd" d="M15.3315 27.1099L21.7923 20.1962H21.7937H26.6392C27.2767 20.1962 27.7936 19.6451 27.7936 18.9648V13.7965C27.7936 13.1162 27.2767 12.5651 26.6392 12.5651H21.7937C21.1562 12.5651 20.6392 13.1162 20.6392 13.7965V17.9571L13.7036 25.3791C12.7178 26.4341 11.1169 26.4369 10.1138 25.3703L3.05193 17.7428C2.07235 16.6847 2.08046 14.9806 3.07004 13.9331L10.222 6.36346C11.1955 5.33308 12.7616 5.31838 13.752 6.33036L15.0436 7.6501L16.6337 5.87958L15.3421 4.55984C13.4514 2.6279 10.4615 2.65592 8.60293 4.62304L1.45101 12.1928C-0.438186 14.1922 -0.453665 17.4457 1.41645 19.4655L8.50512 27.1217C10.3933 29.1292 13.4496 29.1239 15.3315 27.1099ZM22.6845 24.1492L21.065 25.8893L22.1115 26.9973C24.0009 28.9978 27.0517 28.9892 28.9311 26.9782L36.0184 19.3939C37.9004 17.3799 37.8954 14.1198 35.9965 12.1008L28.9274 4.63204C27.0437 2.64208 24.0082 2.64479 22.1278 4.63817L14.9991 12.1953C14.878 12.3236 14.7751 12.4469 14.6887 12.5651H10.4846C9.84697 12.5651 9.33013 13.1162 9.33013 13.7965V18.9648C9.33013 19.6451 9.84697 20.1962 10.4846 20.1962H15.33C15.9676 20.1962 16.4845 19.6451 16.4845 18.9648V14.0589C16.5319 14.0207 16.577 13.9792 16.6193 13.9344L23.7481 6.37723C24.7329 5.33308 26.323 5.33164 27.3097 6.37401L34.3847 13.8489C35.3738 14.9004 35.3763 16.6081 34.3903 17.6631L27.3031 25.2472C26.3187 26.3007 24.7206 26.3052 23.7311 25.2572L22.6845 24.1492ZM25.6732 17.9344H22.7597V14.8269H25.6732V17.9344ZM11.4506 17.9344H14.3641V14.8269H11.4506V17.9344Z" fill="#335EEA"/>
<path d="M45.5161 17.1163L48.6282 25.3856L51.7329 17.1163H54.1559V27.905H52.2886V24.3483L52.4739 19.5912L49.2877 27.905H47.9465L44.7677 19.5986L44.9529 24.3483V27.905H43.0857V17.1163H45.5161ZM55.8675 23.8222C55.8675 23.0367 56.0231 22.3303 56.3344 21.703C56.6456 21.0707 57.0827 20.5866 57.6459 20.2507C58.209 19.9098 58.8562 19.7394 59.5873 19.7394C60.6691 19.7394 61.5459 20.0876 62.2177 20.7842C62.8945 21.4807 63.26 22.4044 63.3144 23.5554L63.3218 23.9778C63.3218 24.7682 63.1687 25.4746 62.8624 26.097C62.5611 26.7194 62.1263 27.201 61.5583 27.5419C60.9951 27.8827 60.3431 28.0532 59.6021 28.0532C58.4708 28.0532 57.5644 27.6777 56.8827 26.9269C56.2059 26.1711 55.8675 25.1658 55.8675 23.9111V23.8222ZM57.6681 23.9778C57.6681 24.8027 57.8385 25.4499 58.1794 25.9191C58.5202 26.3835 58.9945 26.6157 59.6021 26.6157C60.2097 26.6157 60.6814 26.3786 61.0173 25.9043C61.3582 25.4301 61.5286 24.736 61.5286 23.8222C61.5286 23.012 61.3533 22.3699 61.0025 21.8956C60.6567 21.4214 60.185 21.1843 59.5873 21.1843C58.9994 21.1843 58.5326 21.4189 58.1868 21.8882C57.841 22.3526 57.6681 23.0491 57.6681 23.9778ZM68.1382 26.6157C68.5877 26.6157 68.9606 26.4848 69.257 26.2229C69.5534 25.9611 69.7115 25.6376 69.7313 25.2523H71.4281C71.4083 25.7512 71.2527 26.218 70.9613 26.6527C70.6698 27.0825 70.2746 27.4233 69.7757 27.6753C69.2768 27.9272 68.7383 28.0532 68.1604 28.0532C67.039 28.0532 66.1499 27.6901 65.4929 26.9639C64.8359 26.2378 64.5074 25.235 64.5074 23.9556V23.7703C64.5074 22.5502 64.8334 21.5745 65.4854 20.8434C66.1375 20.1074 67.0267 19.7394 68.153 19.7394C69.1064 19.7394 69.8819 20.0185 70.4796 20.5767C71.0823 21.13 71.3985 21.8586 71.4281 22.7626H69.7313C69.7115 22.3032 69.5534 21.9253 69.257 21.6289C68.9656 21.3325 68.5926 21.1843 68.1382 21.1843C67.5552 21.1843 67.1057 21.3967 66.7896 21.8215C66.4734 22.2414 66.3129 22.8811 66.3079 23.7407V24.0296C66.3079 24.8991 66.4635 25.5487 66.7747 25.9784C67.0909 26.4033 67.5454 26.6157 68.1382 26.6157ZM75.3923 24.4668L74.5921 25.2893V27.905H72.7915V16.5235H74.5921V23.0886L75.1552 22.3847L77.3707 19.8876H79.5344L76.5557 23.2294L79.853 27.905H77.7709L75.3923 24.4668ZM87.1072 23.3331H82.7651V27.905H80.8904V17.1163H87.7444V18.6279H82.7651V21.8364H87.1072V23.3331ZM93.0647 21.5326C92.8276 21.493 92.583 21.4733 92.3311 21.4733C91.5061 21.4733 90.9504 21.7894 90.6639 22.4217V27.905H88.8633V19.8876H90.5824L90.6269 20.7842C91.0616 20.0876 91.6642 19.7394 92.4348 19.7394C92.6917 19.7394 92.9041 19.774 93.0721 19.8431L93.0647 21.5326ZM98.7702 27.905C98.6912 27.7518 98.622 27.5024 98.5627 27.1566C97.9897 27.7543 97.2883 28.0532 96.4584 28.0532C95.6532 28.0532 94.9962 27.8235 94.4874 27.3641C93.9785 26.9046 93.7241 26.3366 93.7241 25.6598C93.7241 24.8052 94.0403 24.1507 94.6726 23.6962C95.3098 23.2368 96.2188 23.0071 97.3994 23.0071H98.5035V22.481C98.5035 22.0661 98.3874 21.7351 98.1552 21.4881C97.923 21.2362 97.5698 21.1102 97.0956 21.1102C96.6856 21.1102 96.3497 21.2139 96.0879 21.4214C95.8261 21.6239 95.6952 21.8833 95.6952 22.1994H93.8946C93.8946 21.7598 94.0403 21.3498 94.3317 20.9694C94.6232 20.5841 95.0184 20.2828 95.5173 20.0654C96.0212 19.8481 96.5819 19.7394 97.1993 19.7394C98.1379 19.7394 98.8863 19.9765 99.4445 20.4507C100.003 20.92 100.289 21.582 100.304 22.4365V26.0525C100.304 26.7737 100.405 27.3492 100.608 27.779V27.905H98.7702ZM96.7918 26.6083C97.1475 26.6083 97.4809 26.5218 97.7921 26.3489C98.1083 26.176 98.3454 25.9438 98.5035 25.6524V24.1408H97.5328C96.8659 24.1408 96.3645 24.2569 96.0286 24.4891C95.6927 24.7212 95.5247 25.0497 95.5247 25.4746C95.5247 25.8203 95.6383 26.097 95.8656 26.3045C96.0977 26.507 96.4065 26.6083 96.7918 26.6083ZM103.883 19.8876L103.935 20.7249C104.498 20.0679 105.269 19.7394 106.247 19.7394C107.319 19.7394 108.052 20.1494 108.447 20.9694C109.03 20.1494 109.85 19.7394 110.907 19.7394C111.792 19.7394 112.449 19.9839 112.878 20.473C113.313 20.962 113.535 21.6832 113.545 22.6366V27.905H111.745V22.6885C111.745 22.1797 111.634 21.8067 111.411 21.5696C111.189 21.3325 110.821 21.2139 110.307 21.2139C109.897 21.2139 109.561 21.3251 109.3 21.5474C109.043 21.7647 108.862 22.0512 108.759 22.4069L108.766 27.905H106.965V22.6292C106.941 21.6857 106.459 21.2139 105.521 21.2139C104.799 21.2139 104.288 21.5079 103.987 22.0957V27.905H102.186V19.8876H103.883ZM118.925 28.0532C117.784 28.0532 116.858 27.695 116.146 26.9787C115.44 26.2575 115.087 25.2992 115.087 24.1037V23.8815C115.087 23.0812 115.24 22.3674 115.546 21.74C115.857 21.1077 116.292 20.6162 116.85 20.2655C117.408 19.9147 118.031 19.7394 118.717 19.7394C119.809 19.7394 120.651 20.0876 121.244 20.7842C121.842 21.4807 122.141 22.4662 122.141 23.7407V24.4668H116.902C116.956 25.1288 117.176 25.6524 117.561 26.0377C117.952 26.423 118.441 26.6157 119.029 26.6157C119.854 26.6157 120.525 26.2822 121.044 25.6153L122.015 26.5416C121.694 27.0207 121.264 27.3937 120.725 27.6604C120.192 27.9223 119.592 28.0532 118.925 28.0532ZM118.71 21.1843C118.216 21.1843 117.816 21.3572 117.51 21.703C117.208 22.0488 117.016 22.5304 116.932 23.1479H120.362V23.0145C120.323 22.4118 120.162 21.9574 119.881 21.6511C119.599 21.3399 119.209 21.1843 118.71 21.1843Z" fill="#335EEA"/>
</g>
<defs>
<clipPath id="clip0_11_84">
<rect width="123" height="30" fill="white" transform="translate(0.0239258 0.715759)"/>
</clipPath>
</defs>
</svg>
