<svg width="16" height="16" viewBox="0 0 16 16" fill="none" xmlns="http://www.w3.org/2000/svg">
<path fill-rule="evenodd" clip-rule="evenodd" d="M4.11819 0.167969H3.77234C3.50174 0.167969 3.28238 0.438563 3.28238 0.772358V2.15382C3.28238 2.48762 3.50174 2.75821 3.77234 2.75821H4.11819C4.38878 2.75821 4.60814 2.48762 4.60814 2.15382V0.772358C4.60814 0.438563 4.38878 0.167969 4.11819 0.167969ZM12.2259 0.167969H11.8801C11.6095 0.167969 11.3901 0.438563 11.3901 0.772358V2.15382C11.3901 2.48762 11.6095 2.75821 11.8801 2.75821H12.2259C12.4965 2.75821 12.7158 2.48762 12.7158 2.15382V0.772358C12.7158 0.438563 12.4965 0.167969 12.2259 0.167969ZM5.13203 2.35195V1.16701H10.9025V2.35195H5.13203ZM1.18093 3.94339C1.18093 3.09264 1.86827 2.40297 2.71649 2.40297L2.71614 1.21803C1.21606 1.21803 0 2.43821 0 3.94339V13.2746C0 14.7798 1.21606 16 2.71614 16H13.2839C14.7839 16 16 14.7798 16 13.2746V3.942C16 2.43759 14.7846 1.21803 13.2852 1.21803V2.40297C14.1324 2.40297 14.8191 3.09201 14.8191 3.942V13.2746C14.8191 14.1254 14.1317 14.8151 13.2839 14.8151H2.71614C1.86827 14.8151 1.18093 14.1254 1.18093 13.2746V3.94339Z" fill="#335EEA"/>
<path fill-rule="evenodd" clip-rule="evenodd" d="M11.2659 6.28366C11.6395 6.86743 11.8701 7.55302 11.9075 8.28944C11.9116 8.3647 11.9134 8.44054 11.9131 8.51669C11.9129 8.5931 11.9106 8.66893 11.9061 8.74417C11.8642 9.48033 11.6291 10.1648 11.2522 10.7458C11.1679 10.8758 11.0764 11.0007 10.9785 11.1198C10.2818 11.9664 9.25502 12.5234 8.10153 12.5842C8.08672 12.585 8.0719 12.5857 8.05709 12.5864C8.04904 12.5867 8.04098 12.5871 8.03292 12.5875C7.98139 12.5935 7.92957 12.5963 7.87747 12.5961C7.82539 12.5959 7.77329 12.5928 7.72209 12.5865C7.70154 12.5856 7.68123 12.5845 7.66073 12.5834L7.65381 12.583C6.57333 12.5191 5.60647 12.0204 4.92 11.2573C4.8182 11.1441 4.72246 11.0247 4.63343 10.9004C4.19048 10.2808 3.91437 9.53074 3.87287 8.71877C3.86876 8.6435 3.86697 8.56767 3.86721 8.49123C3.86744 8.41511 3.8697 8.33927 3.87426 8.26406C3.92046 7.45263 4.20118 6.70398 4.64817 6.08726C4.73798 5.9635 4.83444 5.84475 4.93695 5.73222C5.62807 4.97339 6.59797 4.48089 7.67878 4.43053C7.70138 4.42678 7.72425 4.42363 7.74713 4.42074C7.79838 4.41474 7.85048 4.41195 7.90256 4.41212C7.95466 4.41228 8.00645 4.41539 8.05794 4.42174C8.06554 4.42215 8.07315 4.42253 8.08075 4.42291C8.09601 4.42368 8.11126 4.42444 8.12652 4.42546C9.27963 4.49349 10.303 5.05697 10.9944 5.90803C11.0916 6.02768 11.1824 6.15319 11.2659 6.28366ZM6.56115 5.98125C6.91903 6.01649 7.29144 6.04147 7.67401 6.0556L7.6777 4.85079C7.29017 4.94656 6.92388 5.29253 6.62811 5.8492C6.60512 5.89232 6.58299 5.93635 6.56115 5.98125ZM9.16834 5.85762C8.87601 5.29911 8.51185 4.95082 8.12491 4.85259L8.12117 6.06858C8.21493 6.07006 8.309 6.07094 8.40363 6.07126C8.69537 6.07216 8.98277 6.0672 9.26497 6.05604C9.23422 5.98804 9.20201 5.9218 9.16834 5.85762ZM10.1396 8.28421C10.1222 7.62603 10.0208 6.99582 9.84456 6.43796C10.1798 6.41551 10.5049 6.38478 10.8167 6.34638C11.2127 6.89818 11.461 7.56591 11.5024 8.28853L10.1396 8.28421ZM10.8032 10.6808C10.4916 10.6404 10.1668 10.6077 9.83168 10.5831C10.0114 10.0267 10.1166 9.39706 10.138 8.73872L11.5009 8.74304C11.455 9.46538 11.2026 10.1315 10.8032 10.6808ZM9.50995 11.3545C9.3836 11.5916 9.24435 11.7975 9.09418 11.9695C9.62788 11.7778 10.1047 11.4622 10.4905 11.0569C10.2299 11.0272 9.96049 11.0032 9.68414 10.985C9.63049 11.1135 9.57223 11.2371 9.50995 11.3545ZM8.10313 12.1576L8.10687 10.9416C8.20063 10.9407 8.2947 10.9404 8.38933 10.9408C8.68077 10.9417 8.96842 10.9484 9.25058 10.9614C9.2194 11.0292 9.18677 11.0952 9.15272 11.1592C8.85696 11.7159 8.49066 12.0618 8.10313 12.1576ZM9.73225 8.73741L8.1133 8.73228L8.10777 10.5303C8.20155 10.5291 8.29562 10.5288 8.39025 10.5291C8.73697 10.5302 9.07874 10.5395 9.41238 10.557C9.59984 10.0177 9.70998 9.39456 9.73225 8.73741ZM8.12051 6.4801C8.21427 6.48158 8.30831 6.48247 8.40297 6.48275C8.74968 6.48385 9.09148 6.47671 9.42524 6.46131C9.60938 7.00184 9.716 7.62561 9.73396 8.2829L8.11498 8.27779L8.12051 6.4801ZM10.5056 5.96836C10.2447 5.99635 9.97492 6.01872 9.69848 6.0352C9.6456 5.90628 9.58812 5.78235 9.52655 5.66459C9.40194 5.4264 9.26367 5.2199 9.11428 5.04688C9.64706 5.2417 10.1222 5.56036 10.5056 5.96836ZM7.66731 8.27622L6.04836 8.27109C6.07159 7.58423 6.19107 6.93415 6.39451 6.37808C6.8036 6.42139 7.23213 6.45155 7.67286 6.46765L7.66731 8.27622ZM6.38107 10.6207C6.79044 10.5803 7.21941 10.5528 7.66024 10.5395L7.66579 8.73095L6.04681 8.72584C6.06583 9.41281 6.18134 10.0637 6.38107 10.6207ZM7.65477 12.1561C7.26783 12.0578 6.90367 11.7095 6.61133 11.151C6.5886 11.1077 6.56673 11.0636 6.54517 11.0186C6.90327 10.9856 7.27582 10.963 7.65846 10.9509L7.65477 12.1561ZM6.12 11.0625C5.87015 11.0917 5.62898 11.1259 5.39848 11.1655C5.75888 11.5137 6.18957 11.7876 6.66656 11.9622C6.51717 11.7892 6.37888 11.5824 6.2543 11.3442C6.20683 11.2536 6.16197 11.1597 6.12 11.0625ZM4.2791 8.72017L5.64165 8.72449C5.66006 9.42118 5.77265 10.0858 5.96824 10.6667C5.65498 10.7054 5.35557 10.752 5.07323 10.8064C4.61425 10.2285 4.32415 9.5069 4.2791 8.72017ZM5.98065 6.32944C5.66762 6.28877 5.36821 6.2402 5.08623 6.18404C4.624 6.75929 4.32948 7.47881 4.27962 8.2655L5.64216 8.26982C5.66454 7.57356 5.78149 6.90903 5.98065 6.32944ZM6.68797 5.03838C6.53752 5.21045 6.39768 5.41635 6.27164 5.65405C6.2236 5.74443 6.17818 5.83806 6.13563 5.93491C5.88566 5.90413 5.6447 5.8681 5.41446 5.82741C5.77699 5.48113 6.20962 5.21002 6.68797 5.03838Z" fill="#335EEA"/>
<path d="M11.9075 8.28944L11.8468 8.29252L11.8468 8.29276L11.9075 8.28944ZM11.2659 6.28366L11.3171 6.25091L11.3171 6.2509L11.2659 6.28366ZM11.9131 8.51669L11.9739 8.51687L11.9739 8.51687L11.9131 8.51669ZM11.9061 8.74417L11.8454 8.7405L11.8454 8.74072L11.9061 8.74417ZM11.2522 10.7458L11.3032 10.7789L11.3032 10.7789L11.2522 10.7458ZM10.9785 11.1198L11.0254 11.1584L11.0254 11.1584L10.9785 11.1198ZM8.10153 12.5842L8.09833 12.5235L8.09786 12.5235L8.10153 12.5842ZM8.05709 12.5864L8.0544 12.5257L8.0544 12.5257L8.05709 12.5864ZM8.03292 12.5875L8.02994 12.5266L8.02591 12.5271L8.03292 12.5875ZM7.87747 12.5961L7.87728 12.6568L7.87728 12.6568L7.87747 12.5961ZM7.72209 12.5865L7.72959 12.526L7.72456 12.5258L7.72209 12.5865ZM7.66073 12.5834L7.65742 12.6441L7.65742 12.6441L7.66073 12.5834ZM7.65381 12.583L7.65022 12.6437L7.65051 12.6437L7.65381 12.583ZM4.92 11.2573L4.87482 11.2979L4.87483 11.2979L4.92 11.2573ZM4.63343 10.9004L4.584 10.9357L4.58403 10.9358L4.63343 10.9004ZM3.87287 8.71877L3.93355 8.71567L3.93354 8.71545L3.87287 8.71877ZM3.86721 8.49123L3.80645 8.49105L3.80645 8.49105L3.86721 8.49123ZM3.87426 8.26406L3.93491 8.26773L3.93492 8.26751L3.87426 8.26406ZM4.64817 6.08726L4.59899 6.05157L4.59897 6.0516L4.64817 6.08726ZM4.93695 5.73222L4.98187 5.77313L4.98187 5.77313L4.93695 5.73222ZM7.67878 4.43053L7.68163 4.49164L7.68873 4.49047L7.67878 4.43053ZM7.74713 4.42074L7.74007 4.36039L7.73951 4.36046L7.74713 4.42074ZM7.90256 4.41212L7.90236 4.47287L7.90236 4.47287L7.90256 4.41212ZM8.05794 4.42174L8.05048 4.48218L8.05465 4.48241L8.05794 4.42174ZM8.08075 4.42291L8.08379 4.36223L8.08379 4.36223L8.08075 4.42291ZM8.12652 4.42546L8.12247 4.48609L8.12294 4.48612L8.12652 4.42546ZM10.9944 5.90803L11.0416 5.86973L11.0416 5.86972L10.9944 5.90803ZM7.67401 6.0556L7.67177 6.11632L7.73458 6.11864L7.73477 6.05579L7.67401 6.0556ZM6.56115 5.98125L6.50652 5.95466L6.46832 6.03316L6.5552 6.04171L6.56115 5.98125ZM7.6777 4.85079L7.73846 4.85097L7.7387 4.77312L7.66313 4.7918L7.6777 4.85079ZM6.62811 5.8492L6.68172 5.87779L6.68176 5.87771L6.62811 5.8492ZM8.12491 4.85259L8.13986 4.7937L8.06439 4.77454L8.06415 4.8524L8.12491 4.85259ZM9.16834 5.85762L9.11451 5.88579L9.11454 5.88584L9.16834 5.85762ZM8.12117 6.06858L8.06041 6.06839L8.06023 6.12838L8.12021 6.12933L8.12117 6.06858ZM8.40363 6.07126L8.40343 6.13201L8.40344 6.13201L8.40363 6.07126ZM9.26497 6.05604L9.26737 6.11676L9.3575 6.11319L9.32033 6.03101L9.26497 6.05604ZM9.84456 6.43796L9.8405 6.37733L9.76332 6.3825L9.78663 6.45626L9.84456 6.43796ZM10.1396 8.28421L10.0789 8.28581L10.0804 8.34478L10.1394 8.34497L10.1396 8.28421ZM10.8167 6.34638L10.8661 6.31096L10.8451 6.28168L10.8093 6.28608L10.8167 6.34638ZM11.5024 8.28853L11.5023 8.34929L11.5668 8.34949L11.5631 8.28505L11.5024 8.28853ZM9.83168 10.5831L9.77386 10.5644L9.75009 10.638L9.82723 10.6437L9.83168 10.5831ZM10.8032 10.6808L10.7954 10.7411L10.8312 10.7457L10.8524 10.7165L10.8032 10.6808ZM10.138 8.73872L10.1382 8.67796L10.0792 8.67778L10.0773 8.73675L10.138 8.73872ZM11.5009 8.74304L11.5615 8.7469L11.5656 8.68249L11.5011 8.68229L11.5009 8.74304ZM9.09418 11.9695L9.04841 11.9296L8.89464 12.1058L9.11473 12.0267L9.09418 11.9695ZM9.50995 11.3545L9.56357 11.383L9.56362 11.3829L9.50995 11.3545ZM10.4905 11.0569L10.5345 11.0988L10.6187 11.0103L10.4974 10.9965L10.4905 11.0569ZM9.68414 10.985L9.68814 10.9243L9.64479 10.9215L9.62807 10.9616L9.68414 10.985ZM8.10687 10.9416L8.1063 10.8809L8.0463 10.8814L8.04611 10.9414L8.10687 10.9416ZM8.10313 12.1576L8.04237 12.1574L8.04213 12.2353L8.11771 12.2166L8.10313 12.1576ZM8.38933 10.9408L8.38913 11.0015L8.38914 11.0015L8.38933 10.9408ZM9.25058 10.9614L9.30578 10.9868L9.34346 10.9049L9.25337 10.9007L9.25058 10.9614ZM9.15272 11.1592L9.09909 11.1306L9.09907 11.1307L9.15272 11.1592ZM8.1133 8.73228L8.11349 8.67152L8.05272 8.67133L8.05254 8.73209L8.1133 8.73228ZM9.73225 8.73741L9.79297 8.73947L9.79509 8.67685L9.73244 8.67666L9.73225 8.73741ZM8.10777 10.5303L8.04701 10.5301L8.04682 10.5918L8.10853 10.591L8.10777 10.5303ZM8.39025 10.5291L8.39005 10.5899L8.39006 10.5899L8.39025 10.5291ZM9.41238 10.557L9.4092 10.6177L9.45479 10.6201L9.46978 10.577L9.41238 10.557ZM8.40297 6.48275L8.40316 6.422L8.40315 6.422L8.40297 6.48275ZM8.12051 6.4801L8.12147 6.41935L8.05994 6.41838L8.05975 6.47992L8.12051 6.4801ZM9.42524 6.46131L9.48276 6.44172L9.46804 6.39851L9.42244 6.40062L9.42524 6.46131ZM9.73396 8.2829L9.73377 8.34366L9.79641 8.34385L9.7947 8.28124L9.73396 8.2829ZM8.11498 8.27779L8.05423 8.2776L8.05404 8.33835L8.11479 8.33855L8.11498 8.27779ZM9.69848 6.0352L9.64227 6.05825L9.65875 6.09843L9.70209 6.09585L9.69848 6.0352ZM10.5056 5.96836L10.512 6.02877L10.6335 6.01575L10.5498 5.92676L10.5056 5.96836ZM9.52655 5.66459L9.58039 5.63643L9.58038 5.63642L9.52655 5.66459ZM9.11428 5.04688L9.13515 4.98982L8.91535 4.90944L9.0683 5.08659L9.11428 5.04688ZM6.04836 8.27109L5.98764 8.26903L5.98552 8.33164L6.04817 8.33184L6.04836 8.27109ZM7.66731 8.27622L7.66712 8.33698L7.72789 8.33717L7.72807 8.27641L7.66731 8.27622ZM6.39451 6.37808L6.40091 6.31766L6.35374 6.31266L6.33745 6.3572L6.39451 6.37808ZM7.67286 6.46765L7.73362 6.46783L7.7338 6.40907L7.67508 6.40693L7.67286 6.46765ZM7.66024 10.5395L7.66208 10.6003L7.72082 10.5985L7.721 10.5397L7.66024 10.5395ZM6.38107 10.6207L6.32387 10.6412L6.33987 10.6858L6.38704 10.6812L6.38107 10.6207ZM7.66579 8.73095L7.72655 8.73113L7.72674 8.67038L7.66598 8.67019L7.66579 8.73095ZM6.04681 8.72584L6.047 8.66508L5.98434 8.66488L5.98608 8.72752L6.04681 8.72584ZM6.61133 11.151L6.66516 11.1229L6.66512 11.1228L6.61133 11.151ZM7.65477 12.1561L7.63982 12.215L7.71529 12.2341L7.71552 12.1563L7.65477 12.1561ZM6.54517 11.0186L6.5396 10.9581L6.45268 10.9661L6.49037 11.0448L6.54517 11.0186ZM7.65846 10.9509L7.71922 10.9511L7.71941 10.8882L7.65655 10.8902L7.65846 10.9509ZM5.39848 11.1655L5.38821 11.1056L5.27004 11.1258L5.35626 11.2091L5.39848 11.1655ZM6.12 11.0625L6.17578 11.0384L6.15785 10.9969L6.11295 11.0022L6.12 11.0625ZM6.66656 11.9622L6.64567 12.0193L6.86563 12.0998L6.71255 11.9225L6.66656 11.9622ZM6.2543 11.3442L6.30814 11.3161L6.30812 11.316L6.2543 11.3442ZM5.64165 8.72449L5.70238 8.72289L5.70083 8.66392L5.64184 8.66373L5.64165 8.72449ZM4.2791 8.72017L4.27929 8.65941L4.21475 8.65921L4.21844 8.72364L4.2791 8.72017ZM5.96824 10.6667L5.97569 10.727L6.04958 10.7178L6.02582 10.6473L5.96824 10.6667ZM5.07323 10.8064L5.02565 10.8442L5.04855 10.873L5.08471 10.8661L5.07323 10.8064ZM5.08623 6.18404L5.09809 6.12445L5.06195 6.11726L5.03886 6.14599L5.08623 6.18404ZM5.98065 6.32944L6.03811 6.34918L6.0623 6.27878L5.98847 6.26918L5.98065 6.32944ZM4.27962 8.2655L4.21898 8.26165L4.2149 8.32605L4.27942 8.32625L4.27962 8.2655ZM5.64216 8.26982L5.64197 8.33057L5.70099 8.33076L5.70289 8.27177L5.64216 8.26982ZM6.27164 5.65405L6.32529 5.68257L6.32532 5.68251L6.27164 5.65405ZM6.68797 5.03838L6.73371 5.07837L6.88781 4.90212L6.66745 4.98119L6.68797 5.03838ZM6.13563 5.93491L6.1282 5.99521L6.17307 6.00073L6.19125 5.95935L6.13563 5.93491ZM5.41446 5.82741L5.37249 5.78347L5.28571 5.86636L5.40388 5.88724L5.41446 5.82741ZM11.9681 8.28636C11.9302 7.53911 11.6962 6.84333 11.3171 6.25091L11.2147 6.31641C11.5828 6.89152 11.8099 7.56692 11.8468 8.29252L11.9681 8.28636ZM11.9739 8.51687C11.9741 8.43966 11.9723 8.36265 11.9681 8.28612L11.8468 8.29276C11.8508 8.36676 11.8526 8.44142 11.8524 8.5165L11.9739 8.51687ZM11.9667 8.74785C11.9714 8.67136 11.9736 8.59435 11.9739 8.51687L11.8524 8.5165C11.8521 8.59184 11.8499 8.66651 11.8454 8.7405L11.9667 8.74785ZM11.3032 10.7789C11.6857 10.1892 11.9242 9.49462 11.9667 8.74763L11.8454 8.74072C11.8041 9.46605 11.5725 10.1403 11.2012 10.7128L11.3032 10.7789ZM11.0254 11.1584C11.1247 11.0376 11.2176 10.9108 11.3032 10.7789L11.2012 10.7128C11.1182 10.8408 11.028 10.9639 10.9315 11.0812L11.0254 11.1584ZM8.10472 12.6448C9.27614 12.5832 10.3185 12.0175 11.0254 11.1584L10.9315 11.0812C10.2452 11.9154 9.23389 12.4637 8.09834 12.5235L8.10472 12.6448ZM8.05978 12.6471C8.07451 12.6464 8.08981 12.6457 8.1052 12.6448L8.09786 12.5235C8.08362 12.5244 8.06929 12.525 8.0544 12.5257L8.05978 12.6471ZM8.03591 12.6482C8.04379 12.6478 8.0517 12.6474 8.05979 12.6471L8.0544 12.5257C8.04637 12.526 8.03817 12.5264 8.02994 12.5268L8.03591 12.6482ZM7.87728 12.6568C7.93168 12.657 7.98591 12.6541 8.03994 12.6478L8.02591 12.5271C7.97687 12.5328 7.92746 12.5355 7.87767 12.5353L7.87728 12.6568ZM7.71461 12.6468C7.76839 12.6534 7.82293 12.6567 7.87728 12.6568L7.87767 12.5353C7.82786 12.5352 7.77819 12.5322 7.72957 12.5262L7.71461 12.6468ZM7.65742 12.6441C7.67785 12.6452 7.69858 12.6463 7.71961 12.6472L7.72456 12.5258C7.7045 12.5249 7.6846 12.5239 7.66403 12.5227L7.65742 12.6441ZM7.65051 12.6437L7.65742 12.6441L7.66403 12.5227L7.65712 12.5224L7.65051 12.6437ZM4.87483 11.2979C5.57143 12.0723 6.55298 12.5787 7.65022 12.6437L7.6574 12.5224C6.59368 12.4594 5.6415 11.9685 4.96517 11.2166L4.87483 11.2979ZM4.58403 10.9358C4.67435 11.0619 4.77149 11.183 4.87482 11.2979L4.96518 11.2166C4.8649 11.1051 4.77057 10.9876 4.68282 10.865L4.58403 10.9358ZM3.81219 8.72187C3.8543 9.54578 4.1345 10.307 4.584 10.9357L4.68285 10.8651C4.24646 10.2547 3.97444 9.5157 3.93355 8.71567L3.81219 8.72187ZM3.80645 8.49105C3.80621 8.56855 3.80802 8.64556 3.81221 8.72208L3.93354 8.71545C3.9295 8.64145 3.92773 8.56678 3.92797 8.49142L3.80645 8.49105ZM3.81361 8.26038C3.80898 8.33685 3.80669 8.41385 3.80645 8.49105L3.92797 8.49142C3.9282 8.41637 3.93042 8.3417 3.93491 8.26773L3.81361 8.26038ZM4.59897 6.0516C4.14536 6.67747 3.86048 7.43723 3.8136 8.2606L3.93492 8.26751C3.98044 7.46803 4.257 6.7305 4.69736 6.12292L4.59897 6.0516ZM4.89203 5.6913C4.78798 5.80554 4.6901 5.92603 4.59899 6.05157L4.69734 6.12294C4.78586 6.00097 4.88091 5.88397 4.98187 5.77313L4.89203 5.6913ZM7.67595 4.36983C6.57809 4.42099 5.59335 4.92129 4.89203 5.6913L4.98187 5.77313C5.6628 5.0255 6.61784 4.54078 7.68161 4.49122L7.67595 4.36983ZM7.73951 4.36046C7.71622 4.3634 7.6925 4.36666 7.66884 4.37059L7.68873 4.49047C7.71025 4.48689 7.73228 4.48385 7.75474 4.48102L7.73951 4.36046ZM7.90275 4.35136C7.84839 4.35118 7.79386 4.3541 7.74007 4.36039L7.75418 4.48108C7.8029 4.47539 7.85257 4.47271 7.90236 4.47287L7.90275 4.35136ZM8.06538 4.36144C8.01136 4.35477 7.95714 4.35153 7.90275 4.35136L7.90236 4.47287C7.95217 4.47303 8.00154 4.476 8.0505 4.48204L8.06538 4.36144ZM8.08379 4.36223C8.07617 4.36185 8.06869 4.36148 8.06123 4.36107L8.05465 4.48241C8.0624 4.48283 8.07012 4.48322 8.0777 4.4836L8.08379 4.36223ZM8.13058 4.36484C8.11473 4.36378 8.09897 4.36299 8.08379 4.36223L8.0777 4.4836C8.09305 4.48437 8.1078 4.48511 8.12247 4.48609L8.13058 4.36484ZM11.0416 5.86972C10.34 5.00614 9.30113 4.4339 8.1301 4.36481L8.12294 4.48612C9.25813 4.55309 10.266 5.10779 10.9473 5.94634L11.0416 5.86972ZM11.3171 6.2509C11.2323 6.1185 11.1402 5.99114 11.0416 5.86973L10.9473 5.94633C11.043 6.06422 11.1324 6.18788 11.2147 6.31642L11.3171 6.2509ZM7.67625 5.99489C7.29486 5.98079 6.92369 5.9559 6.5671 5.92078L6.5552 6.04171C6.91437 6.07708 7.28802 6.10214 7.67177 6.11632L7.67625 5.99489ZM7.61694 4.8506L7.61325 6.05542L7.73477 6.05579L7.73846 4.85097L7.61694 4.8506ZM6.68176 5.87771C6.9739 5.32786 7.32896 4.99956 7.69228 4.90977L7.66313 4.7918C7.25139 4.89356 6.87385 5.2572 6.57445 5.82069L6.68176 5.87771ZM6.61579 6.00783C6.63741 5.96338 6.65919 5.92005 6.68172 5.87779L6.5745 5.82061C6.55105 5.86459 6.52857 5.90933 6.50652 5.95466L6.61579 6.00783ZM8.10996 4.91148C8.47273 5.00358 8.82576 5.33413 9.11451 5.88579L9.22217 5.82944C8.92626 5.26409 8.55097 4.89807 8.13986 4.7937L8.10996 4.91148ZM8.18193 6.06877L8.18567 4.85278L8.06415 4.8524L8.06041 6.06839L8.18193 6.06877ZM8.40383 6.0105C8.30944 6.01019 8.21563 6.00931 8.12213 6.00783L8.12021 6.12933C8.21423 6.13082 8.30855 6.1317 8.40343 6.13201L8.40383 6.0105ZM9.26257 5.99533C8.98128 6.00645 8.69475 6.0114 8.40382 6.0105L8.40344 6.13201C8.696 6.13292 8.98426 6.12794 9.26737 6.11676L9.26257 5.99533ZM9.11454 5.88584C9.14762 5.94892 9.17932 6.01409 9.20961 6.08108L9.32033 6.03101C9.28912 5.96199 9.2564 5.89469 9.22215 5.82939L9.11454 5.88584ZM9.78663 6.45626C9.96102 7.00815 10.0616 7.63268 10.0789 8.28581L10.2004 8.28261C10.1829 7.61939 10.0807 6.98349 9.90249 6.41965L9.78663 6.45626ZM10.8093 6.28608C10.4986 6.32433 10.1746 6.35496 9.8405 6.37733L9.84862 6.49858C10.1849 6.47606 10.5111 6.44523 10.8241 6.40669L10.8093 6.28608ZM11.5631 8.28505C11.521 7.55061 11.2686 6.87186 10.8661 6.31096L10.7673 6.38181C11.1568 6.92451 11.401 7.58121 11.4418 8.29201L11.5631 8.28505ZM10.1394 8.34497L11.5023 8.34929L11.5026 8.22777L10.1398 8.22345L10.1394 8.34497ZM9.82723 10.6437C10.1612 10.6682 10.485 10.7008 10.7954 10.7411L10.811 10.6205C10.4983 10.58 10.1723 10.5471 9.83612 10.5225L9.82723 10.6437ZM10.0773 8.73675C10.0561 9.39005 9.95162 10.014 9.77386 10.5644L9.88949 10.6018C10.0711 10.0394 10.1772 9.40408 10.1987 8.7407L10.0773 8.73675ZM11.5011 8.68229L10.1382 8.67796L10.1378 8.79948L11.5007 8.8038L11.5011 8.68229ZM10.8524 10.7165C11.2583 10.1582 11.5148 9.48105 11.5615 8.7469L11.4402 8.73919C11.3951 9.44971 11.1468 10.1049 10.7541 10.6451L10.8524 10.7165ZM9.13996 12.0095C9.29363 11.8334 9.43541 11.6235 9.56357 11.383L9.45633 11.3259C9.33179 11.5596 9.19506 11.7615 9.04841 11.9296L9.13996 12.0095ZM10.4465 11.015C10.067 11.4136 9.5982 11.7239 9.07364 11.9124L9.11473 12.0267C9.65756 11.8317 10.1423 11.5107 10.5345 11.0988L10.4465 11.015ZM9.68014 11.0456C9.95558 11.0637 10.224 11.0877 10.4837 11.1172L10.4974 10.9965C10.2357 10.9668 9.9654 10.9426 9.68814 10.9243L9.68014 11.0456ZM9.56362 11.3829C9.62682 11.2639 9.68587 11.1386 9.74021 11.0084L9.62807 10.9616C9.57511 11.0885 9.51764 11.2104 9.45628 11.326L9.56362 11.3829ZM8.04611 10.9414L8.04237 12.1574L8.16389 12.1578L8.16763 10.9418L8.04611 10.9414ZM8.38953 10.88C8.29464 10.8797 8.20032 10.88 8.1063 10.8809L8.10744 11.0024C8.20094 11.0015 8.29475 11.0012 8.38913 11.0015L8.38953 10.88ZM9.25337 10.9007C8.9703 10.8877 8.68177 10.8809 8.38952 10.88L8.38914 11.0015C8.67977 11.0024 8.96655 11.0092 9.24779 11.0221L9.25337 10.9007ZM9.20636 11.1877C9.24098 11.1227 9.27414 11.0556 9.30578 10.9868L9.19538 10.936C9.16467 11.0028 9.13255 11.0678 9.09909 11.1306L9.20636 11.1877ZM8.11771 12.2166C8.52945 12.1148 8.90699 11.7512 9.20638 11.1877L9.09907 11.1307C8.80693 11.6805 8.45187 12.0088 8.08855 12.0986L8.11771 12.2166ZM8.1131 8.79304L9.73206 8.79817L9.73244 8.67666L8.11349 8.67152L8.1131 8.79304ZM8.16853 10.5305L8.17405 8.73247L8.05254 8.73209L8.04701 10.5301L8.16853 10.5305ZM8.39045 10.4683C8.29556 10.468 8.20117 10.4683 8.10701 10.4695L8.10853 10.591C8.20194 10.5899 8.29568 10.5896 8.39005 10.5899L8.39045 10.4683ZM9.41557 10.4963C9.08089 10.4788 8.73812 10.4694 8.39045 10.4683L8.39006 10.5899C8.73582 10.591 9.0766 10.6002 9.4092 10.6177L9.41557 10.4963ZM9.67153 8.73536C9.64944 9.38725 9.54019 10.0042 9.35499 10.5371L9.46978 10.577C9.65949 10.0311 9.77053 9.40188 9.79297 8.73947L9.67153 8.73536ZM8.40315 6.422C8.30875 6.42171 8.21497 6.42083 8.12147 6.41935L8.11955 6.54085C8.21357 6.54234 8.30787 6.54322 8.40279 6.54351L8.40315 6.422ZM9.42244 6.40062C9.08972 6.41597 8.74892 6.42309 8.40316 6.422L8.40278 6.54351C8.75045 6.54461 9.09324 6.53745 9.42804 6.522L9.42244 6.40062ZM9.7947 8.28124C9.77659 7.61865 9.66911 6.98875 9.48276 6.44172L9.36773 6.4809C9.54965 7.01493 9.65541 7.63256 9.67323 8.28456L9.7947 8.28124ZM8.11479 8.33855L9.73377 8.34366L9.73416 8.22214L8.11518 8.21703L8.11479 8.33855ZM8.05975 6.47992L8.05423 8.2776L8.17574 8.27797L8.18127 6.48029L8.05975 6.47992ZM9.70209 6.09585C9.97945 6.07932 10.2502 6.05687 10.512 6.02877L10.4991 5.90795C10.2392 5.93583 9.97039 5.95812 9.69487 5.97455L9.70209 6.09585ZM9.4727 5.69274C9.53337 5.80876 9.59007 5.93098 9.64227 6.05825L9.75469 6.01214C9.70114 5.88158 9.64287 5.75594 9.58039 5.63643L9.4727 5.69274ZM9.0683 5.08659C9.21421 5.25559 9.34994 5.45809 9.47271 5.69275L9.58038 5.63642C9.45393 5.39472 9.31313 5.18422 9.16027 5.00718L9.0683 5.08659ZM10.5498 5.92676C10.1601 5.51202 9.67706 5.18798 9.13515 4.98982L9.09342 5.10395C9.61707 5.29543 10.0842 5.60869 10.4613 6.00997L10.5498 5.92676ZM6.04817 8.33184L7.66712 8.33698L7.66751 8.21546L6.04855 8.21033L6.04817 8.33184ZM6.33745 6.3572C6.1315 6.92015 6.01105 7.5767 5.98764 8.26903L6.10908 8.27314C6.13213 7.59177 6.25064 6.94816 6.45157 6.39895L6.33745 6.3572ZM7.67508 6.40693C7.23566 6.39088 6.80853 6.36082 6.40091 6.31766L6.38811 6.4385C6.79867 6.48197 7.22859 6.51222 7.67065 6.52836L7.67508 6.40693ZM7.72807 8.27641L7.73362 6.46783L7.6121 6.46746L7.60656 8.27603L7.72807 8.27641ZM7.65841 10.4788C7.21627 10.4921 6.78591 10.5197 6.37509 10.5602L6.38704 10.6812C6.79497 10.6409 7.22256 10.6135 7.66208 10.6003L7.65841 10.4788ZM7.60503 8.73076L7.59948 10.5393L7.721 10.5397L7.72655 8.73113L7.60503 8.73076ZM6.04662 8.7866L7.6656 8.79171L7.66598 8.67019L6.047 8.66508L6.04662 8.7866ZM6.43826 10.6002C6.241 10.05 6.12642 9.40565 6.10755 8.72416L5.98608 8.72752C6.00525 9.41997 6.12168 10.0773 6.32387 10.6412L6.43826 10.6002ZM6.5575 11.1792C6.85342 11.7446 7.22871 12.1106 7.63982 12.215L7.66972 12.0972C7.30694 12.0051 6.95391 11.6745 6.66516 11.1229L6.5575 11.1792ZM6.49037 11.0448C6.51215 11.0903 6.53436 11.1352 6.55754 11.1793L6.66512 11.1228C6.64283 11.0803 6.62131 11.0369 6.59998 10.9923L6.49037 11.0448ZM7.65655 10.8902C7.27277 10.9023 6.89899 10.925 6.5396 10.9581L6.55075 11.0791C6.90755 11.0462 7.27887 11.0236 7.66036 11.0117L7.65655 10.8902ZM7.71552 12.1563L7.71922 10.9511L7.5977 10.9508L7.59401 12.1559L7.71552 12.1563ZM5.40875 11.2253C5.63806 11.186 5.87815 11.152 6.12706 11.1229L6.11295 11.0022C5.86215 11.0315 5.6199 11.0658 5.38821 11.1056L5.40875 11.2253ZM6.68745 11.9052C6.21864 11.7335 5.79516 11.4643 5.4407 11.1218L5.35626 11.2091C5.72259 11.5632 6.16051 11.8416 6.64567 12.0193L6.68745 11.9052ZM6.20046 11.3724C6.32687 11.6141 6.4677 11.8249 6.62057 12.0019L6.71255 11.9225C6.56665 11.7535 6.43089 11.5508 6.30814 11.3161L6.20046 11.3724ZM6.06423 11.0866C6.10679 11.1851 6.1523 11.2804 6.20047 11.3724L6.30812 11.316C6.26136 11.2267 6.21715 11.1342 6.17578 11.0384L6.06423 11.0866ZM5.64184 8.66373L4.27929 8.65941L4.27891 8.78093L5.64145 8.78525L5.64184 8.66373ZM6.02582 10.6473C5.83238 10.0728 5.72065 9.41426 5.70238 8.72289L5.58091 8.7261C5.59946 9.42811 5.71291 10.0988 5.91065 10.6861L6.02582 10.6473ZM5.08471 10.8661C5.36558 10.812 5.66363 10.7655 5.97569 10.727L5.96078 10.6064C5.64632 10.6452 5.34555 10.6921 5.06174 10.7467L5.08471 10.8661ZM4.21844 8.72364C4.26423 9.52325 4.5591 10.2568 5.02565 10.8442L5.1208 10.7686C4.66939 10.2003 4.38407 9.49056 4.33976 8.7167L4.21844 8.72364ZM5.07436 6.24363C5.35783 6.30009 5.65859 6.34887 5.97282 6.38969L5.98847 6.26918C5.67665 6.22868 5.3786 6.18032 5.09809 6.12445L5.07436 6.24363ZM4.34025 8.26934C4.3893 7.49553 4.67897 6.78788 5.13359 6.2221L5.03886 6.14599C4.56903 6.7307 4.26966 7.46209 4.21898 8.26165L4.34025 8.26934ZM5.64235 8.20906L4.27981 8.20474L4.27942 8.32625L5.64197 8.33057L5.64235 8.20906ZM5.92319 6.30969C5.72184 6.89566 5.60399 7.56626 5.58144 8.26786L5.70289 8.27177C5.7251 7.58086 5.84114 6.9224 6.03811 6.34918L5.92319 6.30969ZM6.32532 5.68251C6.44948 5.44836 6.58675 5.24644 6.73371 5.07837L6.64223 4.99839C6.48829 5.17445 6.34588 5.38434 6.21796 5.62559L6.32532 5.68251ZM6.19125 5.95935C6.2332 5.86387 6.27797 5.77161 6.32529 5.68257L6.21799 5.62554C6.16924 5.71726 6.12316 5.81224 6.08 5.91046L6.19125 5.95935ZM5.40388 5.88724C5.63522 5.92812 5.87723 5.96431 6.1282 5.99521L6.14305 5.8746C5.89409 5.84395 5.65418 5.80807 5.42503 5.76758L5.40388 5.88724ZM6.66745 4.98119C6.18091 5.15577 5.74102 5.43147 5.37249 5.78347L5.45642 5.87134C5.81297 5.53079 6.23833 5.26427 6.70849 5.09557L6.66745 4.98119Z" fill="#335EEA"/>
</svg>
