<svg
  width="142"
  height="30"
  viewBox="0 0 142 30"
  fill="none"
  xmlns="http://www.w3.org/2000/svg"
>
<g clip-path="url(#clip0)">
<path
      fill-rule="evenodd"
      clip-rule="evenodd"
      d="M7.20702 1.11279H6.60178C6.12824 1.11279 5.74436 1.58949 5.74436 2.17753V4.6112C5.74436 5.19924 6.12824 5.67593 6.60178 5.67593H7.20702C7.68056 5.67593 8.06445 5.19924 8.06445 4.6112V2.17753C8.06445 1.58949 7.68056 1.11279 7.20702 1.11279ZM21.3948 1.11279H20.7896C20.3161 1.11279 19.9323 1.58949 19.9323 2.17753V4.6112C19.9323 5.19924 20.3161 5.67593 20.7896 5.67593H21.3948C21.8683 5.67593 22.2521 5.19924 22.2521 4.6112V2.17753C22.2521 1.58949 21.8683 1.11279 21.3948 1.11279ZM8.98148 4.95988V2.87242H19.0798V4.95988H8.98148ZM2.06663 7.76374C2.06663 6.26501 3.26947 5.05004 4.75385 5.05004L4.75325 2.96258C2.1281 2.96258 0 5.11213 0 7.76374V24.2023C0 26.8539 2.1281 29.0035 4.75325 29.0035H23.2468C25.8719 29.0035 28 26.8539 28 24.2023V7.7613C28 5.11104 25.873 2.96258 23.2492 2.96258V5.05004C24.7316 5.05004 25.9334 6.26391 25.9334 7.7613V24.2023C25.9334 25.7011 24.7305 26.916 23.2468 26.916H4.75325C3.26947 26.916 2.06663 25.7011 2.06663 24.2023V7.76374Z"
      fill="#335EEA"
    />
<path
      fill-rule="evenodd"
      clip-rule="evenodd"
      d="M19.7158 11.8869C20.3696 12.9153 20.7731 14.1231 20.8385 15.4204C20.8457 15.553 20.8489 15.6866 20.8485 15.8207C20.848 15.9553 20.8441 16.0889 20.8361 16.2215C20.7628 17.5184 20.3514 18.7241 19.6919 19.7478C19.5443 19.9767 19.3841 20.1968 19.2128 20.4065C17.9937 21.898 16.1968 22.8793 14.1782 22.9863C14.1522 22.9878 14.1263 22.989 14.1004 22.9902C14.0863 22.9908 14.0722 22.9914 14.0581 22.9921C13.9679 23.0027 13.8772 23.0076 13.7861 23.0073C13.6949 23.007 13.6038 23.0015 13.5141 22.9903C13.4782 22.9889 13.4426 22.9869 13.4067 22.9849L13.3947 22.9843C11.5038 22.8716 9.81181 21.9932 8.61049 20.6487C8.43233 20.4493 8.26479 20.2391 8.10898 20.0201C7.33383 18.9286 6.85064 17.6072 6.77802 16.1767C6.77082 16.0441 6.76769 15.9106 6.7681 15.7759C6.76851 15.6418 6.77246 15.5082 6.78045 15.3757C6.86129 13.9462 7.35255 12.6274 8.13478 11.5409C8.29195 11.3229 8.46076 11.1137 8.64015 10.9154C9.84962 9.57864 11.5469 8.711 13.4384 8.62229C13.4779 8.61568 13.5179 8.61013 13.558 8.60504C13.6477 8.59448 13.7388 8.58956 13.83 8.58986C13.9211 8.59015 14.0118 8.59562 14.1019 8.60681C14.1152 8.60754 14.1285 8.60821 14.1418 8.60888C14.1685 8.61023 14.1952 8.61157 14.2219 8.61337C16.2398 8.73321 18.0308 9.72587 19.2407 11.2252C19.4108 11.4359 19.5696 11.657 19.7158 11.8869ZM11.4821 11.3549C12.1084 11.417 12.7601 11.461 13.4296 11.4859L13.4361 9.36337C12.7579 9.5321 12.1169 10.1416 11.5993 11.1222C11.5591 11.1982 11.5203 11.2758 11.4821 11.3549ZM16.0453 11.1359C15.5337 10.152 14.8964 9.53845 14.2193 9.3654L14.2127 11.5076C14.3768 11.5102 14.5414 11.5117 14.707 11.5123C15.2176 11.5139 15.7205 11.5051 16.2144 11.4855C16.1606 11.3657 16.1042 11.249 16.0453 11.1359ZM17.7433 15.4105C17.7129 14.251 17.5355 13.1408 17.227 12.158C17.8136 12.1185 18.3826 12.0644 18.9283 11.9967C19.6212 12.9688 20.0557 14.1451 20.1283 15.4181L17.7433 15.4105ZM18.9059 19.6332C18.3607 19.5621 17.7921 19.5044 17.2057 19.4611C17.5202 18.4808 17.7044 17.3717 17.7418 16.2119L20.1268 16.2195C20.0465 17.4921 19.6048 18.6656 18.9059 19.6332ZM16.6412 20.8203C16.4201 21.238 16.1764 21.6007 15.9136 21.9038C16.8476 21.5661 17.6819 21.01 18.3572 20.296C17.901 20.2438 17.4296 20.2014 16.946 20.1693C16.8521 20.3958 16.7502 20.6135 16.6412 20.8203ZM14.1803 22.2352L14.1869 20.093C14.3509 20.0915 14.5156 20.091 14.6812 20.0915C15.1912 20.0931 15.6946 20.1051 16.1883 20.1279C16.1338 20.2473 16.0767 20.3636 16.0171 20.4763C15.4995 21.457 14.8585 22.0665 14.1803 22.2352ZM17.0318 16.2098L14.1986 16.2008L14.1889 19.3682C14.3531 19.3662 14.5177 19.3656 14.6833 19.3662C15.29 19.3681 15.8881 19.3845 16.472 19.4154C16.8 18.4652 16.9928 17.3675 17.0318 16.2098ZM14.2108 12.2329C14.3748 12.2356 14.5394 12.2371 14.7051 12.2376C15.3118 12.2396 15.91 12.227 16.494 12.1998C16.8163 13.1521 17.0029 14.2509 17.0343 15.4089L14.2011 15.3999L14.2108 12.2329ZM18.3848 11.3306C17.9283 11.3799 17.4562 11.4193 16.9724 11.4484C16.8799 11.2213 16.7793 11.0029 16.6715 10.7955C16.4535 10.3759 16.2115 10.0121 15.9501 9.70729C16.8824 10.0505 17.7139 10.6119 18.3848 11.3306ZM13.4173 15.3973L10.5841 15.3883C10.6247 14.1783 10.8338 13.0331 11.1898 12.0535C11.9057 12.1298 12.6557 12.1829 13.427 12.2112L13.4173 15.3973ZM11.1665 19.5273C11.8829 19.456 12.6336 19.4077 13.4051 19.3842L13.4148 16.1981L10.5815 16.1891C10.6148 17.3993 10.817 18.5459 11.1665 19.5273ZM13.3966 22.2326C12.7194 22.0595 12.0821 21.4459 11.5706 20.462C11.5308 20.3858 11.4925 20.308 11.4548 20.2287C12.0814 20.1706 12.7334 20.1307 13.403 20.1095L13.3966 22.2326ZM10.7096 20.3056C10.2724 20.357 9.85034 20.4173 9.44696 20.4869C10.0777 21.1005 10.8314 21.5829 11.6661 21.8905C11.4047 21.5857 11.1627 21.2214 10.9446 20.8018C10.8616 20.6421 10.7831 20.4767 10.7096 20.3056ZM7.48828 16.1795L9.87273 16.1871C9.90495 17.4145 10.102 18.5853 10.4443 19.6086C9.89606 19.6768 9.37209 19.759 8.878 19.8547C8.07478 18.8368 7.56711 17.5655 7.48828 16.1795ZM10.4671 11.9677C9.91932 11.8961 9.39535 11.8105 8.90187 11.7116C8.09298 12.725 7.57757 13.9925 7.4903 15.3784L9.87476 15.386C9.91393 14.1594 10.1186 12.9887 10.4671 11.9677ZM11.7035 9.69311C11.4402 9.99623 11.1955 10.359 10.9749 10.7777C10.8908 10.9369 10.8113 11.1019 10.7369 11.2725C10.2994 11.2183 9.87774 11.1548 9.47482 11.0831C10.1093 10.4731 10.8663 9.99548 11.7035 9.69311Z"
      fill="#335EEA"
    />
<path
      d="M20.8385 15.4204L20.5889 15.433L20.5889 15.434L20.8385 15.4204ZM19.7158 11.8869L19.9268 11.7528L19.9268 11.7527L19.7158 11.8869ZM20.8485 15.8207L20.5985 15.82L20.5985 15.82L20.8485 15.8207ZM20.8361 16.2215L20.5866 16.2065L20.5865 16.2074L20.8361 16.2215ZM19.6919 19.7478L19.902 19.8832L19.902 19.8832L19.6919 19.7478ZM19.2128 20.4065L19.4064 20.5647L19.4064 20.5647L19.2128 20.4065ZM14.1782 22.9863L14.1649 22.7366L14.163 22.7367L14.1782 22.9863ZM14.1004 22.9902L14.1115 23.2399L14.1115 23.2399L14.1004 22.9902ZM14.0581 22.9921L14.0458 22.7424L14.0374 22.7428L14.029 22.7438L14.0581 22.9921ZM13.7861 23.0073L13.7869 22.7573L13.7869 22.7573L13.7861 23.0073ZM13.5141 22.9903L13.5451 22.7423L13.5348 22.741L13.5244 22.7405L13.5141 22.9903ZM13.4067 22.9849L13.4204 22.7353L13.4204 22.7353L13.4067 22.9849ZM13.3947 22.9843L13.3798 23.2338L13.381 23.2339L13.3947 22.9843ZM8.61049 20.6487L8.42404 20.8153L8.42407 20.8153L8.61049 20.6487ZM8.10898 20.0201L7.90516 20.1648L7.90528 20.165L8.10898 20.0201ZM6.77802 16.1767L7.0277 16.1641L7.02765 16.1632L6.77802 16.1767ZM6.7681 15.7759L6.5181 15.7751L6.5181 15.7751L6.7681 15.7759ZM6.78045 15.3757L7.02999 15.3907L7.03005 15.3898L6.78045 15.3757ZM8.13478 11.5409L7.93198 11.3947L7.93189 11.3948L8.13478 11.5409ZM8.64015 10.9154L8.82553 11.0832L8.82554 11.0832L8.64015 10.9154ZM13.4384 8.62229L13.4501 8.87201L13.4649 8.87132L13.4795 8.86887L13.4384 8.62229ZM13.558 8.60504L13.5287 8.35675L13.5264 8.35704L13.558 8.60504ZM13.83 8.58986L13.8292 8.83985L13.8292 8.83985L13.83 8.58986ZM14.1019 8.60681L14.0711 8.8549L14.0796 8.85597L14.0882 8.85644L14.1019 8.60681ZM14.1418 8.60888L14.1292 8.85856L14.1292 8.85856L14.1418 8.60888ZM14.2219 8.61337L14.2051 8.86281L14.2071 8.86293L14.2219 8.61337ZM19.2407 11.2252L19.4353 11.0682L19.4353 11.0682L19.2407 11.2252ZM13.4296 11.4859L13.4203 11.7357L13.6788 11.7453L13.6796 11.4866L13.4296 11.4859ZM11.4821 11.3549L11.257 11.2461L11.1013 11.5683L11.4575 11.6036L11.4821 11.3549ZM13.4361 9.36337L13.6861 9.36413L13.6871 9.04331L13.3757 9.12077L13.4361 9.36337ZM11.5993 11.1222L11.8202 11.2393L11.8204 11.2389L11.5993 11.1222ZM14.2193 9.3654L14.2812 9.12318L13.9703 9.04372L13.9693 9.36463L14.2193 9.3654ZM16.0453 11.1359L15.8235 11.2513L15.8236 11.2514L16.0453 11.1359ZM14.2127 11.5076L13.9627 11.5068L13.962 11.7536L14.2088 11.7575L14.2127 11.5076ZM14.707 11.5123L14.7062 11.7623L14.7063 11.7623L14.707 11.5123ZM16.2144 11.4855L16.2243 11.7353L16.5941 11.7206L16.4424 11.383L16.2144 11.4855ZM17.227 12.158L17.2102 11.9086L16.8934 11.93L16.9885 12.2329L17.227 12.158ZM17.7433 15.4105L17.4934 15.4171L17.4998 15.6598L17.7425 15.6605L17.7433 15.4105ZM18.9283 11.9967L19.1318 11.8516L19.0453 11.7303L18.8975 11.7486L18.9283 11.9967ZM20.1283 15.4181L20.1275 15.6681L20.393 15.669L20.3779 15.4039L20.1283 15.4181ZM17.2057 19.4611L16.9677 19.3847L16.8707 19.687L17.1873 19.7104L17.2057 19.4611ZM18.9059 19.6332L18.8736 19.8811L19.0214 19.9004L19.1086 19.7796L18.9059 19.6332ZM17.7418 16.2119L17.7426 15.9619L17.4998 15.9612L17.492 16.2039L17.7418 16.2119ZM20.1268 16.2195L20.3763 16.2353L20.393 15.9704L20.1276 15.9695L20.1268 16.2195ZM15.9136 21.9038L15.7247 21.7401L15.0959 22.4654L15.9986 22.1389L15.9136 21.9038ZM16.6412 20.8203L16.8621 20.9372L16.8623 20.9368L16.6412 20.8203ZM18.3572 20.296L18.5388 20.4678L18.8824 20.1045L18.3856 20.0476L18.3572 20.296ZM16.946 20.1693L16.9626 19.9199L16.7837 19.908L16.7151 20.0736L16.946 20.1693ZM14.1869 20.093L14.1845 19.843L13.9376 19.8454L13.9369 20.0923L14.1869 20.093ZM14.1803 22.2352L13.9303 22.2344L13.9293 22.5553L14.2407 22.4778L14.1803 22.2352ZM14.6812 20.0915L14.6803 20.3415L14.6804 20.3415L14.6812 20.0915ZM16.1883 20.1279L16.4157 20.2318L16.5695 19.8953L16.1999 19.8782L16.1883 20.1279ZM16.0171 20.4763L15.7961 20.3595L15.796 20.3596L16.0171 20.4763ZM14.1986 16.2008L14.1994 15.9508L13.9494 15.95L13.9486 16.2L14.1986 16.2008ZM17.0318 16.2098L17.2816 16.2182L17.2903 15.9606L17.0326 15.9598L17.0318 16.2098ZM14.1889 19.3682L13.9389 19.3675L13.9382 19.6214L14.1921 19.6182L14.1889 19.3682ZM14.6833 19.3662L14.6824 19.6162L14.6825 19.6162L14.6833 19.3662ZM16.472 19.4154L16.4588 19.665L16.6469 19.6749L16.7083 19.4969L16.472 19.4154ZM14.7051 12.2376L14.7059 11.9876L14.7058 11.9876L14.7051 12.2376ZM14.2108 12.2329L14.2147 11.983L13.9615 11.979L13.9608 12.2322L14.2108 12.2329ZM16.494 12.1998L16.7308 12.1197L16.6705 11.9414L16.4824 11.9501L16.494 12.1998ZM17.0343 15.4089L17.0335 15.6589L17.2912 15.6597L17.2842 15.4021L17.0343 15.4089ZM14.2011 15.3999L13.9511 15.3991L13.9503 15.6491L14.2003 15.6499L14.2011 15.3999ZM16.9724 11.4484L16.7409 11.5427L16.8085 11.7087L16.9874 11.6979L16.9724 11.4484ZM18.3848 11.3306L18.4116 11.5792L18.9087 11.5255L18.5676 11.16L18.3848 11.3306ZM16.6715 10.7955L16.8934 10.6802L16.8934 10.6802L16.6715 10.7955ZM15.9501 9.70729L16.0364 9.47268L15.1348 9.1408L15.7603 9.87005L15.9501 9.70729ZM10.5841 15.3883L10.3342 15.3799L10.3256 15.6375L10.5833 15.6383L10.5841 15.3883ZM13.4173 15.3973L13.4165 15.6473L13.6665 15.6481L13.6673 15.3981L13.4173 15.3973ZM11.1898 12.0535L11.2163 11.8049L11.0217 11.7841L10.9549 11.9681L11.1898 12.0535ZM13.427 12.2112L13.677 12.212L13.6777 11.9703L13.4361 11.9614L13.427 12.2112ZM13.4051 19.3842L13.4126 19.6341L13.6543 19.6268L13.655 19.385L13.4051 19.3842ZM11.1665 19.5273L10.931 19.6111L10.9966 19.7954L11.1912 19.776L11.1665 19.5273ZM13.4148 16.1981L13.6648 16.1989L13.6655 15.9489L13.4156 15.9481L13.4148 16.1981ZM10.5815 16.1891L10.5823 15.9391L10.3246 15.9383L10.3316 16.196L10.5815 16.1891ZM11.5706 20.462L11.7924 20.3467L11.7922 20.3464L11.5706 20.462ZM13.3966 22.2326L13.3347 22.4748L13.6456 22.5542L13.6466 22.2333L13.3966 22.2326ZM11.4548 20.2287L11.4317 19.9797L11.0753 20.0128L11.229 20.336L11.4548 20.2287ZM13.403 20.1095L13.653 20.1103L13.6538 19.8515L13.3951 19.8597L13.403 20.1095ZM9.44696 20.4869L9.40444 20.2405L8.92097 20.324L9.27263 20.6661L9.44696 20.4869ZM10.7096 20.3056L10.9394 20.207L10.8658 20.0355L10.6804 20.0573L10.7096 20.3056ZM11.6661 21.8905L11.5796 22.1251L12.4819 22.4577L11.8559 21.7278L11.6661 21.8905ZM10.9446 20.8018L11.1665 20.6866L11.1664 20.6865L10.9446 20.8018ZM9.87273 16.1871L10.1226 16.1806L10.1163 15.9379L9.87353 15.9371L9.87273 16.1871ZM7.48828 16.1795L7.48908 15.9295L7.22361 15.9287L7.23868 16.1937L7.48828 16.1795ZM10.4443 19.6086L10.4751 19.8567L10.7783 19.819L10.6814 19.5293L10.4443 19.6086ZM8.878 19.8547L8.68173 20.0096L8.77607 20.1292L8.92557 20.1002L8.878 19.8547ZM8.90187 11.7116L8.95101 11.4664L8.80157 11.4365L8.70648 11.5556L8.90187 11.7116ZM10.4671 11.9677L10.7037 12.0485L10.8024 11.7594L10.4995 11.7198L10.4671 11.9677ZM7.4903 15.3784L7.2408 15.3627L7.22412 15.6275L7.48951 15.6284L7.4903 15.3784ZM9.87476 15.386L9.87396 15.636L10.1169 15.6368L10.1246 15.394L9.87476 15.386ZM10.9749 10.7777L11.196 10.8944L11.1961 10.8942L10.9749 10.7777ZM11.7035 9.69311L11.8922 9.85705L12.5224 9.13151L11.6185 9.45798L11.7035 9.69311ZM10.7369 11.2725L10.7061 11.5206L10.8913 11.5436L10.966 11.3725L10.7369 11.2725ZM9.47482 11.0831L9.30154 10.9029L8.94758 11.2432L9.43103 11.3292L9.47482 11.0831ZM21.0882 15.4078C21.0205 14.0662 20.6032 12.8168 19.9268 11.7528L19.5048 12.021C20.136 13.0138 20.5256 14.1799 20.5889 15.433L21.0882 15.4078ZM21.0985 15.8215C21.0989 15.683 21.0957 15.5446 21.0882 15.4069L20.5889 15.434C20.5958 15.5614 20.5989 15.6902 20.5985 15.82L21.0985 15.8215ZM21.0857 16.2365C21.094 16.0989 21.098 15.9605 21.0985 15.8215L20.5985 15.82C20.5981 15.9502 20.5942 16.079 20.5866 16.2065L21.0857 16.2365ZM19.902 19.8832C20.5844 18.8241 21.0099 17.5767 21.0857 16.2356L20.5865 16.2074C20.5157 17.46 20.1184 18.6241 19.4817 19.6124L19.902 19.8832ZM19.4064 20.5647C19.5836 20.3477 19.7493 20.1201 19.902 19.8832L19.4817 19.6123C19.3392 19.8333 19.1846 20.0459 19.0192 20.2483L19.4064 20.5647ZM14.1914 23.2359C16.2843 23.125 18.1453 22.1075 19.4064 20.5647L19.0192 20.2483C17.842 21.6885 16.1092 22.6336 14.1649 22.7366L14.1914 23.2359ZM14.1115 23.2399C14.1371 23.2388 14.1651 23.2375 14.1934 23.2358L14.163 22.7367C14.1394 22.7382 14.1155 22.7392 14.0892 22.7404L14.1115 23.2399ZM14.0704 23.2418C14.0838 23.2411 14.0973 23.2405 14.1115 23.2399L14.0892 22.7404C14.0752 22.741 14.0606 22.7417 14.0458 22.7424L14.0704 23.2418ZM13.7853 23.2573C13.886 23.2576 13.9867 23.2522 14.0872 23.2404L14.029 22.7438C13.9492 22.7531 13.8685 22.7576 13.7869 22.7573L13.7853 23.2573ZM13.4832 23.2384C13.5835 23.2509 13.6847 23.257 13.7853 23.2573L13.7869 22.7573C13.7051 22.757 13.6241 22.7521 13.5451 22.7423L13.4832 23.2384ZM13.393 23.2346C13.4286 23.2365 13.4659 23.2386 13.5039 23.2401L13.5244 22.7405C13.4904 22.7392 13.4566 22.7373 13.4204 22.7353L13.393 23.2346ZM13.381 23.2339L13.3931 23.2346L13.4204 22.7353L13.4083 22.7347L13.381 23.2339ZM8.42407 20.8153C9.66691 22.2062 11.4194 23.117 13.3798 23.2338L13.4095 22.7347C11.5882 22.6262 9.9567 21.7801 8.79691 20.4822L8.42407 20.8153ZM7.90528 20.165C8.06634 20.3914 8.23963 20.6088 8.42404 20.8153L8.79693 20.4822C8.62504 20.2898 8.46325 20.0868 8.31268 19.8751L7.90528 20.165ZM6.52834 16.1894C6.60343 17.6686 7.10321 19.0356 7.90516 20.1648L8.31281 19.8753C7.56445 18.8216 7.09784 17.5457 7.0277 16.1641L6.52834 16.1894ZM6.5181 15.7751C6.51768 15.9142 6.52091 16.0525 6.52839 16.1903L7.02765 16.1632C7.02073 16.0358 7.0177 15.9069 7.0181 15.7767L6.5181 15.7751ZM6.5309 15.3607C6.52261 15.4983 6.51853 15.6366 6.5181 15.7751L7.0181 15.7767C7.0185 15.6469 7.02232 15.5181 7.02999 15.3907L6.5309 15.3607ZM7.93189 11.3948C7.12259 12.5189 6.61445 13.8833 6.53084 15.3616L7.03005 15.3898C7.10813 14.0091 7.58252 12.7358 8.33767 11.687L7.93189 11.3948ZM8.45477 10.7477C8.26905 10.953 8.09444 11.1693 7.93198 11.3947L8.33758 11.6871C8.48946 11.4764 8.65248 11.2744 8.82553 11.0832L8.45477 10.7477ZM13.4266 8.37256C11.4645 8.46459 9.70601 9.36474 8.45477 10.7477L8.82554 11.0832C9.99323 9.79254 11.6293 8.95741 13.4501 8.87201L13.4266 8.37256ZM13.5264 8.35704C13.4847 8.36235 13.4411 8.36836 13.3972 8.3757L13.4795 8.86887C13.5147 8.86301 13.5512 8.85792 13.5895 8.85305L13.5264 8.35704ZM13.8308 8.33986C13.7302 8.33953 13.6289 8.34496 13.5287 8.35676L13.5872 8.85333C13.6664 8.84401 13.7475 8.83959 13.8292 8.83985L13.8308 8.33986ZM14.1327 8.35871C14.0321 8.34622 13.9314 8.34018 13.8308 8.33986L13.8292 8.83985C13.9109 8.84012 13.9915 8.84502 14.0711 8.8549L14.1327 8.35871ZM14.1544 8.3592C14.141 8.35852 14.1282 8.35787 14.1155 8.35718L14.0882 8.85644C14.1022 8.8572 14.116 8.85789 14.1292 8.85856L14.1544 8.3592ZM14.2387 8.36394C14.2096 8.36197 14.1808 8.36053 14.1544 8.3592L14.1292 8.85856C14.1563 8.85993 14.1809 8.86117 14.2051 8.86281L14.2387 8.36394ZM19.4353 11.0682C18.1837 9.51732 16.329 8.48807 14.2367 8.36381L14.2071 8.86293C16.1507 8.97836 17.8778 9.93442 19.0462 11.3822L19.4353 11.0682ZM19.9268 11.7527C19.7755 11.5149 19.6112 11.2862 19.4353 11.0682L19.0461 11.3821C19.2103 11.5857 19.3637 11.7991 19.5049 12.0211L19.9268 11.7527ZM13.4389 11.236C12.7743 11.2113 12.1277 11.1676 11.5068 11.1061L11.4575 11.6036C12.0891 11.6663 12.746 11.7106 13.4203 11.7357L13.4389 11.236ZM13.1861 9.36261L13.1796 11.4851L13.6796 11.4866L13.6861 9.36413L13.1861 9.36261ZM11.8204 11.2389C12.3233 10.286 12.9183 9.74982 13.4965 9.60598L13.3757 9.12077C12.5975 9.31437 11.9104 9.99714 11.3782 11.0056L11.8204 11.2389ZM11.7072 11.4637C11.7446 11.3864 11.7819 11.3117 11.8202 11.2393L11.3784 11.0052C11.3363 11.0847 11.2961 11.1652 11.257 11.2461L11.7072 11.4637ZM14.1574 9.60761C14.7347 9.75516 15.3264 10.2952 15.8235 11.2513L16.2671 11.0206C15.741 10.0089 15.0582 9.32175 14.2812 9.12318L14.1574 9.60761ZM14.4627 11.5083L14.4693 9.36616L13.9693 9.36463L13.9627 11.5068L14.4627 11.5083ZM14.7079 11.2623C14.5433 11.2617 14.3797 11.2602 14.2167 11.2576L14.2088 11.7575C14.3739 11.7602 14.5396 11.7617 14.7062 11.7623L14.7079 11.2623ZM16.2045 11.2357C15.7144 11.2552 15.215 11.2639 14.7078 11.2623L14.7063 11.7623C15.2202 11.7639 15.7267 11.7551 16.2243 11.7353L16.2045 11.2357ZM15.8236 11.2514C15.8801 11.36 15.9344 11.4723 15.9863 11.5879L16.4424 11.383C16.3868 11.2591 16.3283 11.138 16.267 11.0204L15.8236 11.2514ZM16.9885 12.2329C17.2893 13.1912 17.4636 14.2782 17.4934 15.4171L17.9933 15.404C17.9623 14.2239 17.7817 13.0904 17.4655 12.0832L16.9885 12.2329ZM18.8975 11.7486C18.3567 11.8157 17.7924 11.8694 17.2102 11.9086L17.2438 12.4075C17.8349 12.3676 18.4085 12.3131 18.959 12.2448L18.8975 11.7486ZM20.3779 15.4039C20.3026 14.0826 19.8514 12.8611 19.1318 11.8516L18.7247 12.1418C19.3909 13.0765 19.8089 14.2076 19.8787 15.4324L20.3779 15.4039ZM17.7425 15.6605L20.1275 15.6681L20.1291 15.1681L17.7441 15.1605L17.7425 15.6605ZM17.1873 19.7104C17.7693 19.7534 18.3332 19.8106 18.8736 19.8811L18.9383 19.3853C18.3881 19.3135 17.8149 19.2554 17.2241 19.2118L17.1873 19.7104ZM17.492 16.2039C17.4552 17.343 17.2743 18.4289 16.9677 19.3847L17.4438 19.5375C17.7661 18.5327 17.9536 17.4004 17.9917 16.22L17.492 16.2039ZM20.1276 15.9695L17.7426 15.9619L17.741 16.4619L20.126 16.4695L20.1276 15.9695ZM19.1086 19.7796C19.8344 18.7747 20.2929 17.5561 20.3763 16.2353L19.8773 16.2038C19.8 17.428 19.3752 18.5565 18.7033 19.4868L19.1086 19.7796ZM16.1025 22.0676C16.3796 21.7479 16.6337 21.3689 16.8621 20.9372L16.4202 20.7033C16.2065 21.1071 15.9731 21.4535 15.7247 21.7401L16.1025 22.0676ZM18.1755 20.1242C17.5263 20.8107 16.7248 21.3446 15.8286 21.6687L15.9986 22.1389C16.9704 21.7875 17.8375 21.2093 18.5388 20.4678L18.1755 20.1242ZM16.9295 20.4188C17.4093 20.4506 17.8767 20.4927 18.3288 20.5444L18.3856 20.0476C17.9253 19.995 17.45 19.9522 16.9626 19.9199L16.9295 20.4188ZM16.8623 20.9368C16.9751 20.723 17.0803 20.4983 17.177 20.265L16.7151 20.0736C16.624 20.2933 16.5253 20.504 16.42 20.7037L16.8623 20.9368ZM13.9369 20.0923L13.9303 22.2344L14.4303 22.236L14.4369 20.0938L13.9369 20.0923ZM14.682 19.8415C14.5153 19.841 14.3496 19.8415 14.1845 19.843L14.1892 20.343C14.3522 20.3415 14.5158 20.341 14.6803 20.3415L14.682 19.8415ZM16.1999 19.8782C15.7023 19.8552 15.1953 19.8431 14.6819 19.8415L14.6804 20.3415C15.187 20.3431 15.6868 20.355 16.1768 20.3776L16.1999 19.8782ZM16.2381 20.5932C16.3001 20.476 16.3593 20.3554 16.4157 20.2318L15.961 20.024C15.9083 20.1393 15.8533 20.2513 15.7961 20.3595L16.2381 20.5932ZM14.2407 22.4778C15.0189 22.2842 15.706 21.6014 16.2382 20.593L15.796 20.3596C15.2931 21.3126 14.6981 21.8488 14.12 21.9926L14.2407 22.4778ZM14.1978 16.4508L17.031 16.4598L17.0326 15.9598L14.1994 15.9508L14.1978 16.4508ZM14.4389 19.369L14.4486 16.2015L13.9486 16.2L13.9389 19.3675L14.4389 19.369ZM14.6841 19.1162C14.5174 19.1156 14.3514 19.1162 14.1858 19.1183L14.1921 19.6182C14.3547 19.6162 14.5179 19.6156 14.6824 19.6162L14.6841 19.1162ZM16.4852 19.1657C15.897 19.1347 15.2948 19.1181 14.6841 19.1162L14.6825 19.6162C15.2853 19.6181 15.8792 19.6344 16.4588 19.665L16.4852 19.1657ZM16.7819 16.2014C16.7437 17.3376 16.5545 18.4102 16.2357 19.3338L16.7083 19.4969C17.0456 18.5201 17.2419 17.3974 17.2816 16.2182L16.7819 16.2014ZM14.7058 11.9876C14.5412 11.9871 14.3777 11.9856 14.2147 11.983L14.2068 12.4829C14.3719 12.4855 14.5376 12.4871 14.7043 12.4876L14.7058 11.9876ZM16.4824 11.9501C15.9027 11.977 15.3086 11.9895 14.7059 11.9876L14.7043 12.4876C15.315 12.4896 15.9173 12.4769 16.5056 12.4496L16.4824 11.9501ZM17.2842 15.4021C17.2522 14.2225 17.0621 13.0986 16.7308 12.1197L16.2572 12.28C16.5705 13.2056 16.7535 14.2794 16.7844 15.4157L17.2842 15.4021ZM14.2003 15.6499L17.0335 15.6589L17.0351 15.1589L14.2019 15.1499L14.2003 15.6499ZM13.9608 12.2322L13.9511 15.3991L14.4511 15.4006L14.4608 12.2337L13.9608 12.2322ZM16.9874 11.6979C17.4749 11.6687 17.951 11.6289 18.4116 11.5792L18.358 11.0821C17.9056 11.1309 17.4374 11.17 16.9574 11.1988L16.9874 11.6979ZM16.4497 10.9107C16.5537 11.111 16.6511 11.3223 16.7409 11.5427L17.2039 11.354C17.1087 11.1202 17.0049 10.8949 16.8934 10.6802L16.4497 10.9107ZM15.7603 9.87005C16.0075 10.1583 16.2391 10.5056 16.4497 10.9108L16.8934 10.6802C16.6678 10.2461 16.4155 9.86592 16.1398 9.54454L15.7603 9.87005ZM18.5676 11.16C17.8708 10.4135 17.0065 9.82979 16.0364 9.47268L15.8637 9.9419C16.7583 10.2712 17.5571 10.8102 18.202 11.5012L18.5676 11.16ZM10.5833 15.6383L13.4165 15.6473L13.4181 15.1474L10.5849 15.1383L10.5833 15.6383ZM10.9549 11.9681C10.5886 12.9758 10.3756 14.1475 10.3342 15.3799L10.8339 15.3967C10.8738 14.2091 11.079 13.0903 11.4248 12.1389L10.9549 11.9681ZM13.4361 11.9614C12.6703 11.9333 11.9262 11.8805 11.2163 11.8049L11.1633 12.3021C11.8853 12.379 12.641 12.4325 13.4178 12.4611L13.4361 11.9614ZM13.6673 15.3981L13.677 12.212L13.177 12.2105L13.1673 15.3966L13.6673 15.3981ZM13.3975 19.1344C12.6206 19.1579 11.8641 19.2066 11.1417 19.2785L11.1912 19.776C11.9017 19.7054 12.6466 19.6574 13.4126 19.6341L13.3975 19.1344ZM13.1648 16.1974L13.1551 19.3835L13.655 19.385L13.6648 16.1989L13.1648 16.1974ZM10.5808 16.4391L13.414 16.4481L13.4156 15.9481L10.5823 15.9391L10.5808 16.4391ZM11.402 19.4434C11.0625 18.4902 10.8641 17.3701 10.8315 16.1823L10.3316 16.196C10.3655 17.4286 10.5714 18.6016 10.931 19.6111L11.402 19.4434ZM11.3487 20.5774C11.8748 21.5891 12.5577 22.2762 13.3347 22.4748L13.4585 21.9904C12.8811 21.8428 12.2895 21.3028 11.7924 20.3467L11.3487 20.5774ZM11.229 20.336C11.2676 20.4173 11.3073 20.4979 11.3489 20.5777L11.7922 20.3464C11.7542 20.2736 11.7174 20.1987 11.6805 20.1213L11.229 20.336ZM13.3951 19.8597C12.7208 19.881 12.0637 19.9211 11.4317 19.9797L11.4779 20.4776C12.0992 20.42 12.7461 20.3804 13.4109 20.3594L13.3951 19.8597ZM13.6466 22.2333L13.653 20.1103L13.153 20.1088L13.1466 22.2318L13.6466 22.2333ZM9.48948 20.7333C9.88794 20.6645 10.3055 20.6048 10.7388 20.5538L10.6804 20.0573C10.2393 20.1092 9.81273 20.1701 9.40444 20.2405L9.48948 20.7333ZM11.7526 21.656C10.9516 21.3607 10.2276 20.8976 9.62129 20.3077L9.27263 20.6661C9.92769 21.3034 10.7111 21.805 11.5796 22.1251L11.7526 21.656ZM10.7228 20.9171C10.9483 21.3511 11.2006 21.7318 11.4763 22.0533L11.8559 21.7278C11.6087 21.4396 11.377 21.0918 11.1665 20.6866L10.7228 20.9171ZM10.4799 20.4042C10.5558 20.5809 10.6369 20.752 10.7228 20.9172L11.1664 20.6865C11.0862 20.5323 11.0104 20.3724 10.9394 20.207L10.4799 20.4042ZM9.87353 15.9371L7.48908 15.9295L7.48748 16.4295L9.87194 16.4371L9.87353 15.9371ZM10.6814 19.5293C10.3478 18.5322 10.1543 17.3862 10.1226 16.1806L9.62282 16.1937C9.65561 17.4428 9.85614 18.6385 10.2072 19.6879L10.6814 19.5293ZM8.92557 20.1002C9.41356 20.0056 9.93191 19.9242 10.4751 19.8567L10.4134 19.3605C9.86021 19.4293 9.33063 19.5123 8.83042 19.6093L8.92557 20.1002ZM7.23868 16.1937C7.3205 17.6323 7.84756 18.9524 8.68173 20.0096L9.07426 19.6999C8.30201 18.7211 7.81372 17.4987 7.73787 16.1653L7.23868 16.1937ZM8.85273 11.9567C9.35233 12.0569 9.88192 12.1433 10.4347 12.2156L10.4995 11.7198C9.95672 11.6488 9.43837 11.5641 8.95101 11.4664L8.85273 11.9567ZM7.73981 15.3941C7.82376 14.0608 8.31948 12.8419 9.09726 11.8675L8.70648 11.5556C7.86648 12.608 7.33138 13.9242 7.2408 15.3627L7.73981 15.3941ZM9.87556 15.136L7.4911 15.1284L7.48951 15.6284L9.87396 15.636L9.87556 15.136ZM10.2305 11.8869C9.87308 12.9341 9.66475 14.1296 9.62489 15.378L10.1246 15.394C10.1631 14.1893 10.3641 13.0434 10.7037 12.0485L10.2305 11.8869ZM11.1961 10.8942C11.409 10.49 11.6432 10.1437 11.8922 9.85705L11.5147 9.52917C11.2371 9.84876 10.9819 10.2279 10.7537 10.6612L11.1961 10.8942ZM10.966 11.3725C11.038 11.2075 11.1148 11.0482 11.196 10.8944L10.7538 10.661C10.6668 10.8257 10.5847 10.9962 10.5077 11.1725L10.966 11.3725ZM9.43103 11.3292C9.83849 11.4017 10.2645 11.4659 10.7061 11.5206L10.7676 11.0244C10.3343 10.9707 9.917 10.9079 9.51861 10.837L9.43103 11.3292ZM11.6185 9.45798C10.7476 9.77257 9.96057 10.2692 9.30154 10.9029L9.6481 11.2633C10.2579 10.6769 10.9851 10.2184 11.7884 9.92824L11.6185 9.45798Z"
      fill="#335EEA"
    />
<path
      d="M35.9634 3.70166C36.6401 3.70166 37.1719 3.87012 37.5586 4.20703C37.9482 4.54102 38.1431 4.99951 38.1431 5.58252C38.1431 6.24756 37.9307 6.76904 37.5059 7.14697C37.084 7.5249 36.501 7.71387 35.7568 7.71387C35.0332 7.71387 34.481 7.59814 34.1001 7.3667V6.66357C34.3052 6.79541 34.5601 6.89941 34.8647 6.97559C35.1694 7.04883 35.4697 7.08545 35.7656 7.08545C36.2812 7.08545 36.6812 6.96387 36.9653 6.7207C37.2524 6.47754 37.396 6.12598 37.396 5.66602C37.396 4.76953 36.8467 4.32129 35.748 4.32129C35.4697 4.32129 35.0977 4.36377 34.6318 4.44873L34.2539 4.20703L34.4956 1.20117H37.6904V1.87354H35.1196L34.957 3.80273C35.2939 3.73535 35.6294 3.70166 35.9634 3.70166Z"
      fill="#8F959E"
    />
<path
      d="M43.3638 4.40479C43.3638 5.51514 43.188 6.34424 42.8364 6.89209C42.4878 7.43994 41.9531 7.71387 41.2324 7.71387C40.541 7.71387 40.0151 7.43408 39.6548 6.87451C39.2944 6.31201 39.1143 5.48877 39.1143 4.40479C39.1143 3.28564 39.2886 2.45508 39.6372 1.91309C39.9858 1.37109 40.5176 1.1001 41.2324 1.1001C41.9297 1.1001 42.4585 1.38281 42.8188 1.94824C43.1821 2.51367 43.3638 3.33252 43.3638 4.40479ZM39.8525 4.40479C39.8525 5.33936 39.9624 6.02051 40.1821 6.44824C40.4019 6.87305 40.752 7.08545 41.2324 7.08545C41.7188 7.08545 42.0703 6.87012 42.2871 6.43945C42.5068 6.00586 42.6167 5.32764 42.6167 4.40479C42.6167 3.48193 42.5068 2.80664 42.2871 2.37891C42.0703 1.94824 41.7188 1.73291 41.2324 1.73291C40.752 1.73291 40.4019 1.94531 40.1821 2.37012C39.9624 2.79199 39.8525 3.47021 39.8525 4.40479Z"
      fill="#8F959E"
    />
<path
      d="M48.5142 4.40479C48.5142 5.51514 48.3384 6.34424 47.9868 6.89209C47.6382 7.43994 47.1035 7.71387 46.3828 7.71387C45.6914 7.71387 45.1655 7.43408 44.8052 6.87451C44.4448 6.31201 44.2646 5.48877 44.2646 4.40479C44.2646 3.28564 44.439 2.45508 44.7876 1.91309C45.1362 1.37109 45.668 1.1001 46.3828 1.1001C47.0801 1.1001 47.6089 1.38281 47.9692 1.94824C48.3325 2.51367 48.5142 3.33252 48.5142 4.40479ZM45.0029 4.40479C45.0029 5.33936 45.1128 6.02051 45.3325 6.44824C45.5522 6.87305 45.9023 7.08545 46.3828 7.08545C46.8691 7.08545 47.2207 6.87012 47.4375 6.43945C47.6572 6.00586 47.7671 5.32764 47.7671 4.40479C47.7671 3.48193 47.6572 2.80664 47.4375 2.37891C47.2207 1.94824 46.8691 1.73291 46.3828 1.73291C45.9023 1.73291 45.5522 1.94531 45.3325 2.37012C45.1128 2.79199 45.0029 3.47021 45.0029 4.40479Z"
      fill="#8F959E"
    />
<path
      d="M52.7021 7.62598L52.5571 6.94043H52.522C52.2817 7.24219 52.0415 7.44727 51.8013 7.55566C51.564 7.66113 51.2666 7.71387 50.9092 7.71387C50.4316 7.71387 50.0566 7.59082 49.7842 7.34473C49.5146 7.09863 49.3799 6.74854 49.3799 6.29443C49.3799 5.32178 50.1577 4.81201 51.7134 4.76514L52.5308 4.73877V4.43994C52.5308 4.06201 52.4487 3.78369 52.2847 3.60498C52.1235 3.42334 51.8643 3.33252 51.5068 3.33252C51.1055 3.33252 50.6514 3.45557 50.1445 3.70166L49.9204 3.14355C50.1577 3.01465 50.417 2.91357 50.6982 2.84033C50.9824 2.76709 51.2666 2.73047 51.5508 2.73047C52.125 2.73047 52.5498 2.85791 52.8252 3.11279C53.1035 3.36768 53.2427 3.77637 53.2427 4.33887V7.62598H52.7021ZM51.0542 7.11182C51.5083 7.11182 51.8643 6.9873 52.1221 6.73828C52.3828 6.48926 52.5132 6.14062 52.5132 5.69238V5.25732L51.7837 5.28809C51.2036 5.30859 50.7847 5.39941 50.5269 5.56055C50.272 5.71875 50.1445 5.96631 50.1445 6.30322C50.1445 6.56689 50.2236 6.76758 50.3818 6.90527C50.543 7.04297 50.7671 7.11182 51.0542 7.11182Z"
      fill="#8F959E"
    />
<path
      d="M56.9912 7.71387C56.6777 7.71387 56.3906 7.65674 56.1299 7.54248C55.8721 7.42529 55.6553 7.24658 55.4795 7.00635H55.4268C55.4619 7.2876 55.4795 7.5542 55.4795 7.80615V9.78809H54.75V2.80957H55.3433L55.4443 3.46875H55.4795C55.667 3.20508 55.8853 3.01465 56.1343 2.89746C56.3833 2.78027 56.6689 2.72168 56.9912 2.72168C57.6299 2.72168 58.1221 2.93994 58.4678 3.37646C58.8164 3.81299 58.9907 4.42529 58.9907 5.21338C58.9907 6.00439 58.8135 6.61963 58.459 7.05908C58.1074 7.49561 57.6182 7.71387 56.9912 7.71387ZM56.8857 3.34131C56.3936 3.34131 56.0376 3.47754 55.8179 3.75C55.5981 4.02246 55.4854 4.45605 55.4795 5.05078V5.21338C55.4795 5.89014 55.5923 6.375 55.8179 6.66797C56.0435 6.95801 56.4053 7.10303 56.9033 7.10303C57.3193 7.10303 57.6445 6.93457 57.8789 6.59766C58.1162 6.26074 58.2349 5.79639 58.2349 5.20459C58.2349 4.604 58.1162 4.14404 57.8789 3.82471C57.6445 3.50244 57.3135 3.34131 56.8857 3.34131Z"
      fill="#8F959E"
    />
<path
      d="M62.5107 7.71387C62.1973 7.71387 61.9102 7.65674 61.6494 7.54248C61.3916 7.42529 61.1748 7.24658 60.999 7.00635H60.9463C60.9814 7.2876 60.999 7.5542 60.999 7.80615V9.78809H60.2695V2.80957H60.8628L60.9639 3.46875H60.999C61.1865 3.20508 61.4048 3.01465 61.6538 2.89746C61.9028 2.78027 62.1885 2.72168 62.5107 2.72168C63.1494 2.72168 63.6416 2.93994 63.9873 3.37646C64.3359 3.81299 64.5103 4.42529 64.5103 5.21338C64.5103 6.00439 64.333 6.61963 63.9785 7.05908C63.627 7.49561 63.1377 7.71387 62.5107 7.71387ZM62.4053 3.34131C61.9131 3.34131 61.5571 3.47754 61.3374 3.75C61.1177 4.02246 61.0049 4.45605 60.999 5.05078V5.21338C60.999 5.89014 61.1118 6.375 61.3374 6.66797C61.563 6.95801 61.9248 7.10303 62.4229 7.10303C62.8389 7.10303 63.1641 6.93457 63.3984 6.59766C63.6357 6.26074 63.7544 5.79639 63.7544 5.20459C63.7544 4.604 63.6357 4.14404 63.3984 3.82471C63.1641 3.50244 62.833 3.34131 62.4053 3.34131Z"
      fill="#8F959E"
    />
<path
      d="M68.896 6.31201C68.896 6.76025 68.729 7.10596 68.395 7.34912C68.061 7.59229 67.5923 7.71387 66.9888 7.71387C66.3501 7.71387 65.8521 7.61279 65.4946 7.41064V6.73389C65.7261 6.85107 65.9736 6.94336 66.2373 7.01074C66.5039 7.07812 66.7603 7.11182 67.0063 7.11182C67.3872 7.11182 67.6802 7.05176 67.8853 6.93164C68.0903 6.80859 68.1929 6.62256 68.1929 6.37354C68.1929 6.18604 68.1108 6.02637 67.9468 5.89453C67.7856 5.75977 67.4692 5.60156 66.9976 5.41992C66.5493 5.25293 66.23 5.10791 66.0396 4.98486C65.8521 4.85889 65.7114 4.7168 65.6177 4.55859C65.5269 4.40039 65.4814 4.21143 65.4814 3.9917C65.4814 3.59912 65.6411 3.29004 65.9604 3.06445C66.2798 2.83594 66.7178 2.72168 67.2744 2.72168C67.793 2.72168 68.2998 2.82715 68.7949 3.03809L68.5356 3.63135C68.0522 3.43213 67.6143 3.33252 67.2217 3.33252C66.876 3.33252 66.6152 3.38672 66.4395 3.49512C66.2637 3.60352 66.1758 3.75293 66.1758 3.94336C66.1758 4.07227 66.208 4.18213 66.2725 4.27295C66.3398 4.36377 66.4468 4.4502 66.5933 4.53223C66.7397 4.61426 67.021 4.73291 67.437 4.88818C68.0083 5.09619 68.3936 5.30566 68.5928 5.5166C68.7949 5.72754 68.896 5.99268 68.896 6.31201Z"
      fill="#8F959E"
    />
<path
      fill-rule="evenodd"
      clip-rule="evenodd"
      d="M34.2 6.72336C34.3861 6.8272 34.6077 6.91124 34.8646 6.97549C35.1693 7.04873 35.4696 7.08535 35.7655 7.08535C36.2812 7.08535 36.6811 6.96377 36.9652 6.72061C37.2523 6.47744 37.3959 6.12588 37.3959 5.66592C37.3959 4.76943 36.8466 4.32119 35.7479 4.32119C35.4696 4.32119 35.0976 4.36367 34.6317 4.44863L34.2538 4.20693L34.4955 1.20107H37.6903V1.87344H35.1195L34.9569 3.80264C34.9909 3.79583 35.0249 3.78938 35.0589 3.78326C35.3616 3.7288 35.663 3.70156 35.9633 3.70156C36.64 3.70156 37.1718 3.87002 37.5585 4.20693C37.9481 4.54092 38.143 4.99941 38.143 5.58242C38.143 6.24746 37.9306 6.76895 37.5058 7.14687C37.0839 7.5248 36.5009 7.71377 35.7567 7.71377C35.0331 7.71377 34.4809 7.59805 34.1 7.3666V6.66348C34.1321 6.68412 34.1654 6.70408 34.2 6.72336ZM37.5722 7.22159C37.1269 7.62039 36.5175 7.81377 35.7567 7.81377C35.0251 7.81377 34.4515 7.69723 34.0481 7.45206L34 7.42285V6.48031L34.1541 6.57936C34.3477 6.70382 34.5917 6.80412 34.8885 6.87836C35.1858 6.9498 35.4781 6.98535 35.7655 6.98535C36.2663 6.98535 36.64 6.86729 36.9002 6.64462C37.16 6.42464 37.2959 6.10363 37.2959 5.66592C37.2959 5.23907 37.1661 4.93512 36.9207 4.73485C36.6714 4.53141 36.2862 4.42119 35.7479 4.42119C35.4784 4.42119 35.1131 4.46249 34.6497 4.54701L34.611 4.55407L34.1493 4.25881L34.4032 1.10107H37.7903V1.97344H35.2115L35.0676 3.68016C35.3671 3.62779 35.6657 3.60156 35.9633 3.60156C36.6562 3.60156 37.2138 3.77419 37.6239 4.13127C38.0386 4.48694 38.243 4.9748 38.243 5.58242C38.243 6.27068 38.022 6.82141 37.5722 7.22159ZM39.5705 6.92836C39.1952 6.3426 39.0142 5.49701 39.0142 4.40469C39.0142 3.27879 39.1889 2.42499 39.553 1.85889C39.9223 1.28477 40.4879 1 41.2323 1C41.9621 1 42.5235 1.2988 42.9031 1.8944C43.2811 2.4829 43.4637 3.32385 43.4637 4.40469C43.4637 5.52211 43.2874 6.37412 42.9206 6.94584C42.5513 7.526 41.9827 7.81377 41.2323 7.81377C40.5085 7.81377 39.9501 7.51782 39.5705 6.92836ZM42.8363 6.89199C43.1879 6.34414 43.3637 5.51504 43.3637 4.40469C43.3637 3.33242 43.182 2.51357 42.8188 1.94814C42.4584 1.38271 41.9296 1.1 41.2323 1.1C40.5175 1.1 39.9857 1.371 39.6371 1.91299C39.2885 2.45498 39.1142 3.28555 39.1142 4.40469C39.1142 5.48867 39.2943 6.31191 39.6547 6.87441C40.015 7.43398 40.5409 7.71377 41.2323 7.71377C41.953 7.71377 42.4877 7.43984 42.8363 6.89199ZM42.1978 6.39415C42.4066 5.9822 42.5166 5.32352 42.5166 4.40469C42.5166 3.48568 42.4065 2.83029 42.1981 2.4245C42.0966 2.22293 41.9659 2.07598 41.8085 1.97959C41.6511 1.88316 41.4604 1.83281 41.2323 1.83281C41.0072 1.83281 40.8181 1.88243 40.6613 1.97761C40.5044 2.07277 40.3737 2.21711 40.2709 2.41596C40.0628 2.81547 39.9524 3.47353 39.9524 4.40469C39.9524 5.33556 40.0626 5.99663 40.2709 6.40232C40.3738 6.60111 40.5044 6.74541 40.6613 6.84055C40.8181 6.93573 41.0072 6.98535 41.2323 6.98535C41.4604 6.98535 41.6511 6.935 41.8085 6.83858C41.9659 6.74218 42.0963 6.59572 42.1978 6.39415ZM40.182 6.44814C39.9623 6.02041 39.8524 5.33926 39.8524 4.40469C39.8524 3.47012 39.9623 2.79189 40.182 2.37002C40.4018 1.94521 40.7519 1.73281 41.2323 1.73281C41.7187 1.73281 42.0702 1.94814 42.287 2.37881C42.5067 2.80654 42.6166 3.48184 42.6166 4.40469C42.6166 5.32754 42.5067 6.00576 42.287 6.43936C42.0702 6.87002 41.7187 7.08535 41.2323 7.08535C40.7519 7.08535 40.4018 6.87295 40.182 6.44814ZM44.7209 6.92836C44.3456 6.3426 44.1646 5.49701 44.1646 4.40469C44.1646 3.27879 44.3393 2.42499 44.7034 1.85889C45.0727 1.28477 45.6383 1 46.3827 1C47.1125 1 47.6739 1.2988 48.0535 1.8944C48.4314 2.4829 48.6141 3.32385 48.6141 4.40469C48.6141 5.52211 48.4378 6.37412 48.071 6.94584C47.7017 7.526 47.1331 7.81377 46.3827 7.81377C45.6589 7.81377 45.1005 7.51782 44.7209 6.92836ZM47.9867 6.89199C48.3383 6.34414 48.5141 5.51504 48.5141 4.40469C48.5141 3.33242 48.3324 2.51357 47.9691 1.94814C47.6088 1.38271 47.08 1.1 46.3827 1.1C45.6679 1.1 45.1361 1.371 44.7875 1.91299C44.4389 2.45498 44.2646 3.28555 44.2646 4.40469C44.2646 5.48867 44.4447 6.31191 44.8051 6.87441C45.1654 7.43398 45.6913 7.71377 46.3827 7.71377C47.1034 7.71377 47.6381 7.43984 47.9867 6.89199ZM47.3482 6.39415C47.557 5.9822 47.667 5.32352 47.667 4.40469C47.667 3.48568 47.5569 2.83029 47.3485 2.4245C47.247 2.22293 47.1163 2.07598 46.9589 1.97959C46.8015 1.88316 46.6108 1.83281 46.3827 1.83281C46.1576 1.83281 45.9685 1.88243 45.8117 1.97761C45.6548 2.07277 45.5241 2.21711 45.4212 2.41596C45.2132 2.81547 45.1028 3.47353 45.1028 4.40469C45.1028 5.33566 45.213 5.99677 45.4214 6.40244C45.5242 6.60117 45.6549 6.74543 45.8117 6.84055C45.9685 6.93573 46.1576 6.98535 46.3827 6.98535C46.6108 6.98535 46.8015 6.935 46.9589 6.83858C47.1163 6.74218 47.2467 6.59572 47.3482 6.39415ZM45.3324 6.44814C45.1127 6.02041 45.0028 5.33926 45.0028 4.40469C45.0028 3.47012 45.1127 2.79189 45.3324 2.37002C45.5521 1.94521 45.9022 1.73281 46.3827 1.73281C46.869 1.73281 47.2206 1.94814 47.4374 2.37881C47.6571 2.80654 47.767 3.48184 47.767 4.40469C47.767 5.32754 47.6571 6.00576 47.4374 6.43936C47.2206 6.87002 46.869 7.08535 46.3827 7.08535C45.9022 7.08535 45.5521 6.87295 45.3324 6.44814ZM52.621 7.72588L52.4947 7.12897C52.2823 7.37149 52.0652 7.54615 51.8423 7.64672C51.5884 7.75958 51.2756 7.81377 50.9091 7.81377C50.4144 7.81377 50.0129 7.68603 49.7171 7.41884C49.4219 7.14934 49.2798 6.76917 49.2798 6.29434C49.2798 5.77615 49.4897 5.37324 49.9083 5.09888C50.3199 4.82919 50.925 4.68875 51.7102 4.66509C51.7102 4.66509 51.7102 4.66509 51.7102 4.66509L52.4307 4.64185V4.43984C52.4307 4.07353 52.3507 3.82482 52.2109 3.67251L52.2098 3.67125C52.0751 3.51946 51.8493 3.43242 51.5067 3.43242C51.1253 3.43242 50.6865 3.54953 50.1881 3.79152L50.0916 3.83837L49.7943 3.09809L49.8726 3.05558C50.1175 2.92253 50.3844 2.81859 50.6729 2.74346C50.965 2.66819 51.2578 2.63037 51.5507 2.63037C52.137 2.63037 52.5913 2.76013 52.8928 3.03913C53.2001 3.32062 53.3426 3.76216 53.3426 4.33877V7.72588H52.621ZM52.8251 3.1127C52.5497 2.85781 52.1249 2.73037 51.5507 2.73037C51.2665 2.73037 50.9823 2.76699 50.6981 2.84023C50.4169 2.91348 50.1576 3.01455 49.9203 3.14346L50.1444 3.70156C50.1748 3.68682 50.205 3.67252 50.235 3.65865C50.7055 3.44117 51.1294 3.33242 51.5067 3.33242C51.8642 3.33242 52.1234 3.42324 52.2846 3.60488C52.4486 3.78359 52.5307 4.06191 52.5307 4.43984V4.73867L51.7133 4.76504C50.1576 4.81191 49.3798 5.32168 49.3798 6.29434C49.3798 6.74844 49.5146 7.09854 49.7841 7.34463C50.0565 7.59072 50.4315 7.71377 50.9091 7.71377C51.2665 7.71377 51.5639 7.66104 51.8012 7.55557C52.0237 7.45518 52.2461 7.27186 52.4686 7.00563C52.484 6.98724 52.4994 6.96846 52.5147 6.94928C52.5171 6.94631 52.5195 6.94332 52.5219 6.94033H52.557L52.7021 7.62588H53.2426V4.33877C53.2426 3.77627 53.1034 3.36758 52.8251 3.1127ZM52.0529 6.66587C52.2893 6.4401 52.4131 6.12029 52.4131 5.69229V5.36153L51.7878 5.3879C51.212 5.40826 50.8145 5.49856 50.5798 5.64525C50.3583 5.78269 50.2444 5.99574 50.2444 6.30312C50.2444 6.54572 50.3163 6.7155 50.4471 6.8295C50.5846 6.94676 50.7826 7.01172 51.0541 7.01172C51.4895 7.01172 51.8184 6.89241 52.0529 6.66587ZM50.3817 6.90518C50.2235 6.76748 50.1444 6.5668 50.1444 6.30312C50.1444 5.96621 50.2719 5.71865 50.5268 5.56045C50.7846 5.39932 51.2035 5.3085 51.7836 5.28799L52.5131 5.25723V5.69229C52.5131 6.14053 52.3827 6.48916 52.122 6.73818C51.8642 6.98721 51.5082 7.11172 51.0541 7.11172C50.767 7.11172 50.5429 7.04287 50.3817 6.90518ZM56.0896 7.63397L56.0884 7.63343C55.886 7.54142 55.7077 7.41378 55.5536 7.25137C55.5708 7.44308 55.5794 7.62798 55.5794 7.80605V9.88799H54.6499V2.70947H55.429L55.5136 3.26129C55.6829 3.06097 55.8754 2.90863 56.0916 2.80688C56.356 2.68244 56.6566 2.62158 56.9911 2.62158C57.6552 2.62158 58.1783 2.85003 58.5459 3.31406C58.9134 3.77431 59.0906 4.41171 59.0906 5.21328C59.0906 6.01809 58.9104 6.65854 58.5368 7.12171C58.1638 7.5848 57.6443 7.81377 56.9911 7.81377C56.6652 7.81377 56.3643 7.75432 56.0896 7.63397ZM58.4589 7.05898C58.8134 6.61953 58.9906 6.0043 58.9906 5.21328C58.9906 4.4252 58.8163 3.81289 58.4677 3.37637C58.122 2.93984 57.6298 2.72158 56.9911 2.72158C56.6688 2.72158 56.3832 2.78018 56.1342 2.89736C55.909 3.00333 55.709 3.16918 55.5341 3.39492C55.5171 3.41691 55.5003 3.43947 55.4837 3.4626C55.4823 3.46461 55.4808 3.46663 55.4794 3.46865H55.4442L55.3432 2.80947H54.7499V9.78799H55.4794V7.80605C55.4794 7.58823 55.4663 7.35946 55.44 7.11974C55.4395 7.11525 55.439 7.11075 55.4385 7.10625C55.4361 7.08481 55.4336 7.06328 55.431 7.04166C55.4296 7.02988 55.4281 7.01808 55.4267 7.00625H55.4794C55.4979 7.03149 55.5168 7.05605 55.5362 7.07993C55.7012 7.28335 55.8991 7.43751 56.1298 7.54238C56.3905 7.65664 56.6776 7.71377 56.9911 7.71377C57.6181 7.71377 58.1073 7.49551 58.4589 7.05898ZM57.7971 6.53997C58.0183 6.22581 58.1348 5.7843 58.1348 5.20449C58.1348 4.61502 58.018 4.17956 57.7985 3.88426L57.7979 3.88343C57.5839 3.58918 57.2841 3.44121 56.8856 3.44121C56.4108 3.44121 56.0895 3.57223 55.8956 3.81268C55.697 4.05896 55.5852 4.46489 55.5794 5.05109V5.21328C55.5794 5.88383 55.6921 6.3406 55.8968 6.60664C56.0973 6.86425 56.4244 7.00293 56.9032 7.00293C57.287 7.00293 57.5817 6.84958 57.7971 6.53997ZM55.8178 6.66787C55.5922 6.3749 55.4794 5.89004 55.4794 5.21328V5.05068C55.4853 4.45596 55.598 4.02236 55.8178 3.7499C56.0375 3.47744 56.3935 3.34121 56.8856 3.34121C57.3134 3.34121 57.6444 3.50234 57.8788 3.82461C58.1161 4.14395 58.2348 4.60391 58.2348 5.20449C58.2348 5.79629 58.1161 6.26064 57.8788 6.59756C57.6444 6.93447 57.3192 7.10293 56.9032 7.10293C56.4052 7.10293 56.0434 6.95791 55.8178 6.66787ZM61.6092 7.63397L61.6079 7.63343C61.4055 7.54142 61.2272 7.41378 61.0731 7.25137C61.0903 7.44308 61.0989 7.62798 61.0989 7.80605V9.88799H60.1694V2.70947H60.9485L61.0331 3.26129C61.2024 3.06097 61.3949 2.90863 61.6111 2.80688C61.8756 2.68244 62.1762 2.62158 62.5106 2.62158C63.1747 2.62158 63.6978 2.85003 64.0654 3.31406C64.433 3.77431 64.6102 4.41171 64.6102 5.21328C64.6102 6.01809 64.4299 6.65854 64.0563 7.12171C63.6833 7.5848 63.1638 7.81377 62.5106 7.81377C62.1848 7.81377 61.8838 7.75432 61.6092 7.63397ZM63.9784 7.05898C64.3329 6.61953 64.5102 6.0043 64.5102 5.21328C64.5102 4.4252 64.3358 3.81289 63.9872 3.37637C63.6415 2.93984 63.1493 2.72158 62.5106 2.72158C62.1884 2.72158 61.9027 2.78018 61.6537 2.89736C61.4285 3.00333 61.2285 3.16918 61.0536 3.39492C61.0366 3.41691 61.0198 3.43947 61.0032 3.4626C61.0018 3.46461 61.0004 3.46663 60.9989 3.46865H60.9638L60.8627 2.80947H60.2694V9.78799H60.9989V7.80605C60.9989 7.58823 60.9858 7.35946 60.9595 7.11974C60.959 7.11525 60.9585 7.11075 60.958 7.10625C60.9556 7.08481 60.9531 7.06328 60.9505 7.04166C60.9491 7.02988 60.9477 7.01808 60.9462 7.00625H60.9989C61.0174 7.03149 61.0363 7.05605 61.0557 7.07993C61.2207 7.28335 61.4186 7.43751 61.6493 7.54238C61.9101 7.65664 62.1972 7.71377 62.5106 7.71377C63.1376 7.71377 63.6269 7.49551 63.9784 7.05898ZM63.3166 6.53997C63.5379 6.22581 63.6543 5.7843 63.6543 5.20449C63.6543 4.61502 63.5375 4.17956 63.3181 3.88426L63.3175 3.88343C63.1035 3.58918 62.8037 3.44121 62.4052 3.44121C61.9303 3.44121 61.6091 3.57223 61.4151 3.81268C61.2165 4.05896 61.1048 4.46489 61.0989 5.05109V5.21328C61.0989 5.88383 61.2116 6.3406 61.4164 6.60664C61.6168 6.86425 61.9439 7.00293 62.4228 7.00293C62.8066 7.00293 63.1012 6.84958 63.3166 6.53997ZM61.3373 6.66787C61.1117 6.3749 60.9989 5.89004 60.9989 5.21328V5.05068C61.0048 4.45596 61.1176 4.02236 61.3373 3.7499C61.557 3.47744 61.913 3.34121 62.4052 3.34121C62.8329 3.34121 63.164 3.50234 63.3983 3.82461C63.6356 4.14395 63.7543 4.60391 63.7543 5.20449C63.7543 5.79629 63.6356 6.26064 63.3983 6.59756C63.164 6.93447 62.8388 7.10293 62.4228 7.10293C61.9247 7.10293 61.5629 6.95791 61.3373 6.66787ZM65.3945 7.46887V6.57107L65.5397 6.64457C65.7643 6.75827 66.0049 6.84803 66.2617 6.91369C66.5212 6.97928 66.7693 7.01172 67.0062 7.01172C67.3788 7.01172 67.6511 6.9526 67.8342 6.84547C68.0074 6.7414 68.0928 6.58889 68.0928 6.37344C68.0928 6.22021 68.0278 6.08787 67.884 5.97238L67.8825 5.97116C67.7355 5.84817 67.4336 5.69495 66.962 5.51334C66.513 5.34604 66.1852 5.19801 65.9852 5.06876L65.9837 5.06778C65.7866 4.93536 65.6344 4.78305 65.5315 4.60948L65.5308 4.60829C65.4297 4.43211 65.3813 4.22523 65.3813 3.9916C65.3813 3.5668 65.5566 3.22726 65.9024 2.98286C66.2444 2.73819 66.7054 2.62158 67.2743 2.62158C67.8069 2.62158 68.327 2.72998 68.834 2.94599L68.9269 2.98555L68.588 3.76101L68.4974 3.72371C68.0223 3.52791 67.5975 3.43242 67.2216 3.43242C66.8833 3.43242 66.6445 3.486 66.4918 3.58014C66.3426 3.67217 66.2757 3.79091 66.2757 3.94326C66.2757 4.05434 66.303 4.14289 66.3533 4.21409C66.4093 4.28919 66.5029 4.36698 66.642 4.44488C66.7809 4.52264 67.0552 4.63887 67.4716 4.79428C68.0444 5.00288 68.4487 5.21864 68.6651 5.44758C68.8867 5.6789 68.9959 5.96955 68.9959 6.31191C68.9959 6.78897 68.8161 7.16609 68.4538 7.42987C68.0964 7.69003 67.604 7.81377 66.9887 7.81377C66.3415 7.81377 65.8239 7.71169 65.4453 7.49759L65.3945 7.46887ZM68.5927 5.5165C68.3935 5.30557 68.0082 5.09609 67.4369 4.88809C67.0209 4.73281 66.7396 4.61416 66.5932 4.53213C66.4467 4.4501 66.3397 4.36367 66.2724 4.27285C66.2079 4.18203 66.1757 4.07217 66.1757 3.94326C66.1757 3.75283 66.2636 3.60342 66.4394 3.49502C66.6151 3.38662 66.8759 3.33242 67.2216 3.33242C67.6142 3.33242 68.0521 3.43203 68.5355 3.63125L68.7948 3.03799C68.764 3.02487 68.7332 3.01217 68.7023 2.99987C68.2366 2.81435 67.7606 2.72158 67.2743 2.72158C66.7177 2.72158 66.2797 2.83584 65.9604 3.06436C65.641 3.28994 65.4813 3.59902 65.4813 3.9916C65.4813 4.21133 65.5268 4.40029 65.6176 4.5585C65.7113 4.7167 65.852 4.85879 66.0395 4.98477C66.2299 5.10781 66.5492 5.25283 66.9975 5.41982C67.4691 5.60146 67.7855 5.75967 67.9467 5.89443C68.1107 6.02627 68.1928 6.18594 68.1928 6.37344C68.1928 6.62246 68.0902 6.8085 67.8852 6.93154C67.6801 7.05166 67.3871 7.11172 67.0062 7.11172C66.7602 7.11172 66.5038 7.07803 66.2372 7.01064C66.0111 6.95287 65.7969 6.87679 65.5945 6.7824C65.5609 6.76671 65.5275 6.7505 65.4945 6.73379V7.41055C65.852 7.6127 66.35 7.71377 66.9887 7.71377C67.5922 7.71377 68.0609 7.59219 68.3949 7.34902C68.7289 7.10586 68.8959 6.76016 68.8959 6.31191C68.8959 5.99258 68.7948 5.72744 68.5927 5.5165Z"
      fill="#8F959E"
    />
<path
      d="M39.5924 27.1407C38.4434 27.1407 37.5114 26.9883 36.7962 26.6834C36.081 26.3669 35.5417 25.9331 35.1783 25.3821C34.8266 24.831 34.6214 24.2097 34.5628 23.5179H35.9345C35.9697 24.0807 36.1572 24.5379 36.4972 24.8897C36.8372 25.2297 37.2828 25.4817 37.8338 25.6459C38.3966 25.81 39.0121 25.8921 39.6803 25.8921C40.6652 25.8921 41.4448 25.7221 42.0193 25.3821C42.5938 25.0303 42.881 24.5145 42.881 23.8345C42.881 23.4241 42.7345 23.0959 42.4414 22.8497C42.16 22.5917 41.779 22.3807 41.2983 22.2166C40.8293 22.0524 40.3134 21.9059 39.7507 21.7769C39.1879 21.6362 38.6193 21.4897 38.0448 21.3372C37.4821 21.1848 36.9603 20.9914 36.4797 20.7569C36.0107 20.5224 35.6297 20.2234 35.3366 19.86C35.0552 19.4848 34.9145 19.01 34.9145 18.4355C34.9145 17.4859 35.2779 16.7121 36.0048 16.1141C36.7434 15.5162 37.8397 15.2172 39.2934 15.2172C40.3252 15.2172 41.1752 15.3755 41.8434 15.6921C42.5117 15.9969 43.01 16.4014 43.3383 16.9055C43.6783 17.4097 43.8659 17.9548 43.901 18.541H42.5469C42.4766 17.9548 42.1834 17.4624 41.6676 17.0638C41.1517 16.6534 40.3603 16.4483 39.2934 16.4483C38.6369 16.4483 38.1034 16.5128 37.6931 16.6417C37.2828 16.7707 36.9662 16.9407 36.7434 17.1517C36.5324 17.351 36.3859 17.5621 36.3038 17.7848C36.2334 18.0076 36.1983 18.2186 36.1983 18.4179C36.1983 18.8048 36.339 19.1214 36.6203 19.3676C36.9134 19.6021 37.2945 19.8014 37.7634 19.9655C38.2441 20.1179 38.7717 20.2586 39.3462 20.3876C39.9207 20.5166 40.4893 20.6631 41.0521 20.8272C41.6266 20.9797 42.1483 21.179 42.6172 21.4252C43.0979 21.6597 43.479 21.9645 43.7603 22.3397C44.0534 22.7148 44.2 23.1955 44.2 23.7817C44.2 24.8603 43.7897 25.6928 42.969 26.279C42.1483 26.8534 41.0228 27.1407 39.5924 27.1407ZM50.7989 27.1407C49.9196 27.1407 49.1576 26.9414 48.5127 26.5428C47.8679 26.1324 47.3638 25.5814 47.0003 24.8897C46.6486 24.1979 46.4727 23.4359 46.4727 22.6034C46.4727 21.7593 46.6486 20.9972 47.0003 20.3172C47.3638 19.6255 47.8679 19.0803 48.5127 18.6817C49.1576 18.2714 49.9196 18.0662 50.7989 18.0662C51.8424 18.0662 52.7276 18.3359 53.4545 18.8752C54.1931 19.4145 54.6914 20.1121 54.9493 20.9679H53.5248C53.3255 20.4638 53.0031 20.0534 52.5576 19.7369C52.1238 19.4203 51.5962 19.2621 50.9748 19.2621C50.33 19.2621 49.7672 19.4145 49.2865 19.7193C48.8058 20.0241 48.4365 20.4286 48.1786 20.9328C47.9207 21.4369 47.7917 21.9938 47.7917 22.6034C47.7917 23.2014 47.9207 23.7583 48.1786 24.2741C48.4365 24.7783 48.8058 25.1828 49.2865 25.4876C49.7672 25.7924 50.33 25.9448 50.9748 25.9448C51.5962 25.9448 52.1238 25.7866 52.5576 25.47C53.0031 25.1534 53.3255 24.7431 53.5248 24.239H54.9493C54.6914 25.0948 54.1931 25.7924 53.4545 26.3317C52.7276 26.871 51.8424 27.1407 50.7989 27.1407ZM57.639 27V14.6897H58.958V19.5786C59.2745 19.1566 59.6614 18.799 60.1187 18.5059C60.5759 18.2128 61.1621 18.0662 61.8773 18.0662C62.487 18.0662 63.0556 18.2128 63.5832 18.5059C64.1225 18.7872 64.5563 19.2152 64.8845 19.7897C65.2245 20.3524 65.3945 21.05 65.3945 21.8824V27H64.0756V21.9176C64.0756 21.1203 63.847 20.4814 63.3897 20.0007C62.9325 19.5083 62.3404 19.2621 61.6135 19.2621C61.1211 19.2621 60.6756 19.3734 60.277 19.5962C59.8783 19.819 59.5559 20.1355 59.3097 20.5459C59.0752 20.9445 58.958 21.4076 58.958 21.9352V27H57.639ZM72.5593 27.1407C71.6682 27.1407 70.8886 26.9414 70.2203 26.5428C69.552 26.1324 69.0303 25.5814 68.6551 24.8897C68.2917 24.1979 68.11 23.4359 68.11 22.6034C68.11 21.7593 68.2858 20.9972 68.6375 20.3172C68.9893 19.6255 69.4934 19.0803 70.15 18.6817C70.8065 18.2714 71.5803 18.0662 72.4713 18.0662C73.3741 18.0662 74.1479 18.2714 74.7927 18.6817C75.4493 19.0803 75.9534 19.6255 76.3051 20.3172C76.6569 20.9972 76.8327 21.7593 76.8327 22.6034V23.131H69.4641C69.5344 23.6469 69.6986 24.1217 69.9565 24.5555C70.2262 24.9776 70.5838 25.3176 71.0293 25.5755C71.4748 25.8217 71.9906 25.9448 72.5769 25.9448C73.1982 25.9448 73.72 25.81 74.142 25.5403C74.5641 25.259 74.8924 24.9014 75.1269 24.4676H76.5689C76.2641 25.2531 75.7775 25.8979 75.1093 26.4021C74.4527 26.8945 73.6027 27.1407 72.5593 27.1407ZM69.4817 21.9H75.461C75.3438 21.1497 75.0272 20.5224 74.5113 20.0183C73.9955 19.5141 73.3155 19.2621 72.4713 19.2621C71.6272 19.2621 70.9472 19.5141 70.4313 20.0183C69.9272 20.5224 69.6106 21.1497 69.4817 21.9ZM83.2102 27.1407C82.3543 27.1407 81.604 26.9414 80.9592 26.5428C80.3261 26.1324 79.8336 25.5814 79.4819 24.8897C79.1302 24.1979 78.9543 23.4359 78.9543 22.6034C78.9543 21.7593 79.1302 20.9972 79.4819 20.3172C79.8336 19.6255 80.3261 19.0803 80.9592 18.6817C81.604 18.2714 82.3543 18.0662 83.2102 18.0662C83.9371 18.0662 84.5585 18.2069 85.0743 18.4883C85.6019 18.7697 86.0298 19.1507 86.3581 19.6314V14.6897H87.6771V27H86.3581V25.5931C86.0298 26.0621 85.6019 26.4372 85.0743 26.7186C84.5585 27 83.9371 27.1407 83.2102 27.1407ZM83.3861 25.9448C84.0426 25.9448 84.5936 25.7924 85.0392 25.4876C85.4964 25.1828 85.8423 24.7783 86.0767 24.2741C86.3112 23.7583 86.4285 23.2014 86.4285 22.6034C86.4285 21.9938 86.3112 21.4369 86.0767 20.9328C85.8423 20.4286 85.4964 20.0241 85.0392 19.7193C84.5936 19.4145 84.0426 19.2621 83.3861 19.2621C82.7412 19.2621 82.1843 19.4145 81.7154 19.7193C81.2464 20.0241 80.8888 20.4286 80.6426 20.9328C80.3964 21.4369 80.2733 21.9938 80.2733 22.6034C80.2733 23.2014 80.3964 23.7583 80.6426 24.2741C80.8888 24.7783 81.2464 25.1828 81.7154 25.4876C82.1843 25.7924 82.7412 25.9448 83.3861 25.9448ZM94.443 27.1407C93.845 27.1407 93.2764 27 92.7371 26.7186C92.1978 26.4255 91.7581 25.9976 91.4181 25.4348C91.0899 24.8603 90.9257 24.1569 90.9257 23.3245V18.2069H92.2447V23.2893C92.2447 24.0866 92.4733 24.7314 92.9306 25.2238C93.3995 25.7045 93.9916 25.9448 94.7068 25.9448C95.1992 25.9448 95.6447 25.8334 96.0433 25.6107C96.4419 25.3762 96.7585 25.0597 96.993 24.661C97.2392 24.2624 97.3623 23.7993 97.3623 23.2717V18.2069H98.6812V27H97.3623V25.6283C97.0457 26.0503 96.6588 26.4079 96.2016 26.701C95.7443 26.9941 95.1581 27.1407 94.443 27.1407ZM102.03 27V14.6897H103.349V27H102.03ZM110.596 27.1407C109.705 27.1407 108.925 26.9414 108.257 26.5428C107.588 26.1324 107.067 25.5814 106.691 24.8897C106.328 24.1979 106.146 23.4359 106.146 22.6034C106.146 21.7593 106.322 20.9972 106.674 20.3172C107.026 19.6255 107.53 19.0803 108.186 18.6817C108.843 18.2714 109.617 18.0662 110.508 18.0662C111.41 18.0662 112.184 18.2714 112.829 18.6817C113.486 19.0803 113.99 19.6255 114.341 20.3172C114.693 20.9972 114.869 21.7593 114.869 22.6034V23.131H107.5C107.571 23.6469 107.735 24.1217 107.993 24.5555C108.263 24.9776 108.62 25.3176 109.066 25.5755C109.511 25.8217 110.027 25.9448 110.613 25.9448C111.235 25.9448 111.756 25.81 112.178 25.5403C112.6 25.259 112.929 24.9014 113.163 24.4676H114.605C114.3 25.2531 113.814 25.8979 113.146 26.4021C112.489 26.8945 111.639 27.1407 110.596 27.1407ZM107.518 21.9H113.497C113.38 21.1497 113.064 20.5224 112.548 20.0183C112.032 19.5141 111.352 19.2621 110.508 19.2621C109.664 19.2621 108.984 19.5141 108.468 20.0183C107.964 20.5224 107.647 21.1497 107.518 21.9ZM117.325 27V25.2062H119.031V27H117.325ZM125.944 27.1407C125.065 27.1407 124.303 26.9414 123.658 26.5428C123.013 26.1324 122.509 25.5814 122.146 24.8897C121.794 24.1979 121.618 23.4359 121.618 22.6034C121.618 21.7593 121.794 20.9972 122.146 20.3172C122.509 19.6255 123.013 19.0803 123.658 18.6817C124.303 18.2714 125.065 18.0662 125.944 18.0662C126.988 18.0662 127.873 18.3359 128.6 18.8752C129.338 19.4145 129.837 20.1121 130.095 20.9679H128.67C128.471 20.4638 128.148 20.0534 127.703 19.7369C127.269 19.4203 126.741 19.2621 126.12 19.2621C125.475 19.2621 124.913 19.4145 124.432 19.7193C123.951 20.0241 123.582 20.4286 123.324 20.9328C123.066 21.4369 122.937 21.9938 122.937 22.6034C122.937 23.2014 123.066 23.7583 123.324 24.2741C123.582 24.7783 123.951 25.1828 124.432 25.4876C124.913 25.7924 125.475 25.9448 126.12 25.9448C126.741 25.9448 127.269 25.7866 127.703 25.47C128.148 25.1534 128.471 24.7431 128.67 24.239H130.095C129.837 25.0948 129.338 25.7924 128.6 26.3317C127.873 26.871 126.988 27.1407 125.944 27.1407ZM136.565 27.1407C135.686 27.1407 134.924 26.9414 134.279 26.5428C133.634 26.1324 133.13 25.5814 132.767 24.8897C132.415 24.1979 132.239 23.4359 132.239 22.6034C132.239 21.7593 132.415 20.9972 132.767 20.3172C133.13 19.6255 133.634 19.0803 134.279 18.6817C134.924 18.2714 135.686 18.0662 136.565 18.0662C137.609 18.0662 138.494 18.3359 139.221 18.8752C139.96 19.4145 140.458 20.1121 140.716 20.9679H139.291C139.092 20.4638 138.77 20.0534 138.324 19.7369C137.89 19.4203 137.363 19.2621 136.741 19.2621C136.096 19.2621 135.534 19.4145 135.053 19.7193C134.572 20.0241 134.203 20.4286 133.945 20.9328C133.687 21.4369 133.558 21.9938 133.558 22.6034C133.558 23.2014 133.687 23.7583 133.945 24.2741C134.203 24.7783 134.572 25.1828 135.053 25.4876C135.534 25.7924 136.096 25.9448 136.741 25.9448C137.363 25.9448 137.89 25.7866 138.324 25.47C138.77 25.1534 139.092 24.7431 139.291 24.239H140.716C140.458 25.0948 139.96 25.7924 139.221 26.3317C138.494 26.871 137.609 27.1407 136.565 27.1407Z"
      fill="#335EEA"
    />
<path
      d="M36.7962 26.6834L36.5938 27.1407L36.6002 27.1434L36.7962 26.6834ZM35.1783 25.3821L34.7568 25.6511L34.7609 25.6574L35.1783 25.3821ZM34.5628 23.5179V23.0179H34.0186L34.0645 23.5602L34.5628 23.5179ZM35.9345 23.5179L36.4335 23.4867L36.4042 23.0179H35.9345V23.5179ZM36.4972 24.8897L36.1377 25.2372L36.1437 25.2432L36.4972 24.8897ZM37.8338 25.6459L37.6911 26.1251L37.6938 26.1259L37.8338 25.6459ZM42.0193 25.3821L42.274 25.8124L42.2804 25.8085L42.0193 25.3821ZM42.4414 22.8497L42.1035 23.2182L42.1115 23.2255L42.1198 23.2325L42.4414 22.8497ZM41.2983 22.2166L41.1331 22.6885L41.1367 22.6897L41.2983 22.2166ZM39.7507 21.7769L39.6294 22.2621L39.639 22.2643L39.7507 21.7769ZM38.0448 21.3372L37.9141 21.8199L37.9166 21.8205L38.0448 21.3372ZM36.4797 20.7569L36.256 21.2041L36.2604 21.2063L36.4797 20.7569ZM35.3366 19.86L34.9366 20.16L34.9418 20.167L34.9473 20.1739L35.3366 19.86ZM36.0048 16.1141L35.6902 15.7255L35.6872 15.728L36.0048 16.1141ZM41.8434 15.6921L41.6294 16.144L41.6359 16.147L41.8434 15.6921ZM43.3383 16.9055L42.9192 17.1784L42.9237 17.1851L43.3383 16.9055ZM43.901 18.541V19.041H44.4319L44.4001 18.5111L43.901 18.541ZM42.5469 18.541L42.0505 18.6006L42.1033 19.041H42.5469V18.541ZM41.6676 17.0638L41.3563 17.4551L41.3619 17.4594L41.6676 17.0638ZM37.6931 16.6417L37.5432 16.1647L37.5432 16.1647L37.6931 16.6417ZM36.7434 17.1517L37.0868 17.5152L37.0873 17.5147L36.7434 17.1517ZM36.3038 17.7848L35.8346 17.612L35.8305 17.623L35.827 17.6343L36.3038 17.7848ZM36.6203 19.3676L36.2911 19.7439L36.2994 19.7511L36.308 19.758L36.6203 19.3676ZM37.7634 19.9655L37.5983 20.4374L37.6053 20.4399L37.6123 20.4421L37.7634 19.9655ZM41.0521 20.8272L40.912 21.3074L40.9239 21.3105L41.0521 20.8272ZM42.6172 21.4252L42.3848 21.8679L42.3914 21.8713L42.398 21.8746L42.6172 21.4252ZM43.7603 22.3397L43.3603 22.6397L43.3663 22.6475L43.7603 22.3397ZM42.969 26.279L43.2557 26.6886L43.2596 26.6858L42.969 26.279ZM39.5924 26.6407C38.4815 26.6407 37.6232 26.4924 36.9923 26.2235L36.6002 27.1434C37.3996 27.4841 38.4054 27.6407 39.5924 27.6407V26.6407ZM36.9986 26.2262C36.3546 25.9412 35.8973 25.564 35.5957 25.1068L34.7609 25.6574C35.1862 26.3022 35.8075 26.7926 36.5938 27.1407L36.9986 26.2262ZM35.5997 25.1131C35.2943 24.6345 35.1132 24.0919 35.061 23.4757L34.0645 23.5602C34.1296 24.3274 34.3588 25.0276 34.7568 25.6511L35.5997 25.1131ZM34.5628 24.0179H35.9345V23.0179H34.5628V24.0179ZM35.4355 23.5491C35.4768 24.2114 35.7027 24.7871 36.1377 25.2372L36.8567 24.5421C36.6118 24.2888 36.4625 23.95 36.4335 23.4867L35.4355 23.5491ZM36.1437 25.2432C36.5529 25.6524 37.0759 25.9418 37.6911 26.1251L37.9765 25.1667C37.4896 25.0216 37.1216 24.8069 36.8508 24.5361L36.1437 25.2432ZM37.6938 26.1259C38.3079 26.305 38.9712 26.3921 39.6803 26.3921V25.3921C39.0529 25.3921 38.4852 25.315 37.9738 25.1659L37.6938 26.1259ZM39.6803 26.3921C40.715 26.3921 41.5942 26.2147 42.274 25.8124L41.7647 24.9518C41.2955 25.2294 40.6153 25.3921 39.6803 25.3921V26.3921ZM42.2804 25.8085C43.005 25.3648 43.381 24.6865 43.381 23.8345H42.381C42.381 24.3425 42.1826 24.6958 41.7582 24.9556L42.2804 25.8085ZM43.381 23.8345C43.381 23.2885 43.1781 22.8155 42.763 22.4668L42.1198 23.2325C42.2908 23.3762 42.381 23.5597 42.381 23.8345H43.381ZM42.7792 22.4811C42.4331 22.1638 41.9854 21.9228 41.4598 21.7434L41.1367 22.6897C41.5725 22.8385 41.8869 23.0197 42.1035 23.2182L42.7792 22.4811ZM41.4635 21.7446C40.9744 21.5735 40.4404 21.422 39.8624 21.2895L39.639 22.2643C40.1865 22.3897 40.6842 22.5314 41.1331 22.6885L41.4635 21.7446ZM39.872 21.2918C39.3116 21.1517 38.7453 21.0058 38.173 20.854L37.9166 21.8205C38.4933 21.9735 39.0643 22.1207 39.6294 22.262L39.872 21.2918ZM38.1755 20.8546C37.6406 20.7097 37.1488 20.527 36.6989 20.3075L36.2604 21.2063C36.7719 21.4558 37.3236 21.6599 37.9141 21.8199L38.1755 20.8546ZM36.7033 20.3097C36.2905 20.1033 35.9686 19.8473 35.7258 19.5461L34.9473 20.1739C35.2907 20.5996 35.7309 20.9415 36.256 21.2041L36.7033 20.3097ZM35.7366 19.56C35.5336 19.2894 35.4145 18.9267 35.4145 18.4355H34.4145C34.4145 19.0933 34.5768 19.6803 34.9366 20.16L35.7366 19.56ZM35.4145 18.4355C35.4145 17.6338 35.7122 17.0023 36.3225 16.5003L35.6872 15.728C34.8436 16.4219 34.4145 17.3379 34.4145 18.4355H35.4145ZM36.3194 16.5028C36.9326 16.0064 37.8964 15.7172 39.2934 15.7172V14.7172C37.7829 14.7172 36.5543 15.0261 35.6902 15.7255L36.3194 16.5028ZM39.2934 15.7172C40.2786 15.7172 41.049 15.869 41.6294 16.1439L42.0575 15.2402C41.3013 14.882 40.3718 14.7172 39.2934 14.7172V15.7172ZM41.6359 16.147C42.237 16.4212 42.6532 16.7697 42.9193 17.1784L43.7573 16.6327C43.3668 16.033 42.7864 15.5726 42.051 15.2372L41.6359 16.147ZM42.9237 17.1851C43.2156 17.6178 43.3723 18.0773 43.4019 18.571L44.4001 18.5111C44.3594 17.8324 44.141 17.2015 43.7528 16.6259L42.9237 17.1851ZM43.901 18.041H42.5469V19.041H43.901V18.041ZM43.0433 18.4815C42.9553 17.7477 42.5831 17.1393 41.9733 16.6682L41.3619 17.4594C41.7838 17.7855 41.9978 18.162 42.0505 18.6006L43.0433 18.4815ZM41.9788 16.6725C41.3344 16.1599 40.4085 15.9483 39.2934 15.9483V16.9483C40.3122 16.9483 40.969 17.147 41.3563 17.4551L41.9788 16.6725ZM39.2934 15.9483C38.6098 15.9483 38.0205 16.0147 37.5432 16.1647L37.843 17.1187C38.1864 17.0108 38.6639 16.9483 39.2934 16.9483V15.9483ZM37.5432 16.1647C37.0877 16.3079 36.6951 16.5088 36.3996 16.7887L37.0873 17.5147C37.2374 17.3726 37.4778 17.2335 37.843 17.1187L37.5432 16.1647ZM36.4001 16.7882C36.1453 17.0289 35.9487 17.3025 35.8346 17.612L36.773 17.9577C36.8231 17.8217 36.9195 17.6732 37.0868 17.5152L36.4001 16.7882ZM35.827 17.6343C35.7439 17.8976 35.6983 18.1596 35.6983 18.4179H36.6983C36.6983 18.2776 36.723 18.1176 36.7806 17.9354L35.827 17.6343ZM35.6983 18.4179C35.6983 18.9433 35.897 19.399 36.2911 19.7439L36.9496 18.9913C36.781 18.8437 36.6983 18.6664 36.6983 18.4179H35.6983ZM36.308 19.758C36.6569 20.0371 37.0922 20.2603 37.5983 20.4374L37.9286 19.4936C37.4967 19.3424 37.17 19.167 36.9327 18.9772L36.308 19.758ZM37.6123 20.4421C38.1088 20.5995 38.6504 20.7438 39.2367 20.8754L39.4557 19.8997C38.893 19.7734 38.3795 19.6363 37.9146 19.4889L37.6123 20.4421ZM39.2367 20.8754C39.801 21.0021 40.3594 21.1461 40.9121 21.3072L41.1921 20.3472C40.6192 20.1802 40.0404 20.031 39.4557 19.8997L39.2367 20.8754ZM40.9239 21.3105C41.4665 21.4545 41.9527 21.641 42.3848 21.8679L42.8497 20.9825C42.3439 20.7169 41.7866 20.5048 41.1803 20.344L40.9239 21.3105ZM42.398 21.8746C42.8175 22.0792 43.1328 22.3363 43.3603 22.6397L44.1603 22.0397C43.8251 21.5927 43.3783 21.2401 42.8365 20.9758L42.398 21.8746ZM43.3663 22.6475C43.5761 22.9159 43.7 23.2806 43.7 23.7817H44.7C44.7 23.1104 44.5308 22.5137 44.1544 22.0318L43.3663 22.6475ZM43.7 23.7817C43.7 24.712 43.3573 25.3871 42.6783 25.8721L43.2596 26.6858C44.222 25.9984 44.7 25.0087 44.7 23.7817H43.7ZM42.6822 25.8693C41.9745 26.3647 40.9624 26.6407 39.5924 26.6407V27.6407C41.0832 27.6407 42.322 27.3422 43.2557 26.6886L42.6822 25.8693ZM48.5127 26.5428L48.2443 26.9646L48.2498 26.9681L48.5127 26.5428ZM47.0003 24.8897L46.5546 25.1163L46.5577 25.1222L47.0003 24.8897ZM47.0003 20.3172L46.5577 20.0847L46.5562 20.0875L47.0003 20.3172ZM48.5127 18.6817L48.7757 19.1071L48.7812 19.1036L48.5127 18.6817ZM53.4545 18.8752L53.1565 19.2767L53.1596 19.279L53.4545 18.8752ZM54.9493 20.9679V21.4679H55.6222L55.428 20.8237L54.9493 20.9679ZM53.5248 20.9679L53.0598 21.1518L53.1848 21.4679H53.5248V20.9679ZM52.5576 19.7369L52.2628 20.1408L52.268 20.1445L52.5576 19.7369ZM49.2865 19.7193L49.0188 19.2971L49.0188 19.2971L49.2865 19.7193ZM48.1786 20.9328L47.7335 20.705L47.7335 20.705L48.1786 20.9328ZM48.1786 24.2741L47.7314 24.4978L47.7335 24.5019L48.1786 24.2741ZM49.2865 25.4876L49.0188 25.9098L49.0188 25.9098L49.2865 25.4876ZM52.5576 25.47L52.2679 25.0624L52.2628 25.0661L52.5576 25.47ZM53.5248 24.239V23.739H53.1848L53.0598 24.0551L53.5248 24.239ZM54.9493 24.239L55.428 24.3832L55.6222 23.739H54.9493V24.239ZM53.4545 26.3317L53.1596 25.9279L53.1565 25.9302L53.4545 26.3317ZM50.7989 26.6407C49.9974 26.6407 49.3295 26.4599 48.7757 26.1175L48.2498 26.9681C48.9856 27.4229 49.8419 27.6407 50.7989 27.6407V26.6407ZM48.7812 26.1209C48.2116 25.7585 47.7668 25.2734 47.443 24.6571L46.5577 25.1222C46.9608 25.8893 47.5242 26.5063 48.2443 26.9646L48.7812 26.1209ZM47.446 24.663C47.1326 24.0466 46.9727 23.363 46.9727 22.6034H45.9727C45.9727 23.5088 46.1646 24.3493 46.5546 25.1163L47.446 24.663ZM46.9727 22.6034C46.9727 21.8309 47.1331 21.1489 47.4444 20.547L46.5562 20.0875C46.1641 20.8456 45.9727 21.6877 45.9727 22.6034H46.9727ZM47.443 20.5498C47.7661 19.9347 48.2093 19.4571 48.7757 19.107L48.2498 18.2564C47.5265 18.7036 46.9614 19.3163 46.5577 20.0847L47.443 20.5498ZM48.7812 19.1036C49.3343 18.7516 50.0001 18.5662 50.7989 18.5662V17.5662C49.8392 17.5662 48.9809 17.7912 48.2443 18.2599L48.7812 19.1036ZM50.7989 18.5662C51.7522 18.5662 52.5286 18.8108 53.1565 19.2767L53.7524 18.4736C52.9266 17.8609 51.9326 17.5662 50.7989 17.5662V18.5662ZM53.1596 19.279C53.8125 19.7557 54.2448 20.3631 54.4706 21.1122L55.428 20.8237C55.1379 19.861 54.5737 19.0733 53.7493 18.4714L53.1596 19.279ZM54.9493 20.4679H53.5248V21.4679H54.9493V20.4679ZM53.9898 20.7841C53.7546 20.1892 53.3709 19.7014 52.8472 19.3293L52.268 20.1445C52.6353 20.4055 52.8964 20.7384 53.0598 21.1518L53.9898 20.7841ZM52.8523 19.333C52.32 18.9445 51.6849 18.7621 50.9748 18.7621V19.7621C51.5075 19.7621 51.9276 19.8961 52.2628 20.1408L52.8523 19.333ZM50.9748 18.7621C50.2481 18.7621 49.5898 18.9349 49.0188 19.2971L49.5543 20.1416C49.9446 19.894 50.4119 19.7621 50.9748 19.7621V18.7621ZM49.0188 19.2971C48.4631 19.6495 48.0323 20.1209 47.7335 20.705L48.6237 21.1605C48.8408 20.7363 49.1486 20.3988 49.5543 20.1416L49.0188 19.2971ZM47.7335 20.705C47.4368 21.285 47.2917 21.9208 47.2917 22.6034H48.2917C48.2917 22.0668 48.4046 21.5888 48.6237 21.1605L47.7335 20.705ZM47.2917 22.6034C47.2917 23.2761 47.4375 23.9099 47.7314 24.4977L48.6258 24.0505C48.4039 23.6067 48.2917 23.1267 48.2917 22.6034H47.2917ZM47.7335 24.5019C48.0323 25.086 48.4631 25.5574 49.0188 25.9098L49.5543 25.0653C49.1486 24.8081 48.8408 24.4706 48.6237 24.0464L47.7335 24.5019ZM49.0188 25.9098C49.5898 26.272 50.2481 26.4448 50.9748 26.4448V25.4448C50.4119 25.4448 49.9446 25.3129 49.5543 25.0653L49.0188 25.9098ZM50.9748 26.4448C51.6849 26.4448 52.32 26.2624 52.8523 25.8739L52.2628 25.0661C51.9276 25.3107 51.5075 25.4448 50.9748 25.4448V26.4448ZM52.8472 25.8776C53.3709 25.5055 53.7546 25.0177 53.9898 24.4228L53.0598 24.0551C52.8964 24.4685 52.6353 24.8014 52.268 25.0624L52.8472 25.8776ZM53.5248 24.739H54.9493V23.739H53.5248V24.739ZM54.4706 24.0947C54.2448 24.8438 53.8125 25.4512 53.1596 25.9279L53.7493 26.7355C54.5737 26.1336 55.1379 25.3459 55.428 24.3832L54.4706 24.0947ZM53.1565 25.9302C52.5286 26.3961 51.7522 26.6407 50.7989 26.6407V27.6407C51.9326 27.6407 52.9266 27.346 53.7524 26.7333L53.1565 25.9302ZM57.639 27H57.139V27.5H57.639V27ZM57.639 14.6897V14.1897H57.139V14.6897H57.639ZM58.958 14.6897H59.458V14.1897H58.958V14.6897ZM58.958 19.5786H58.458V21.0786L59.358 19.8786L58.958 19.5786ZM60.1187 18.5059L60.3885 18.9268L60.3885 18.9268L60.1187 18.5059ZM63.5832 18.5059L63.3403 18.9431L63.3519 18.9492L63.5832 18.5059ZM64.8845 19.7897L64.4503 20.0378L64.4566 20.0482L64.8845 19.7897ZM65.3945 27V27.5H65.8945V27H65.3945ZM64.0756 27H63.5756V27.5H64.0756V27ZM63.3897 20.0007L63.0233 20.3409L63.0274 20.3453L63.3897 20.0007ZM60.277 19.5962L60.033 19.1597L60.033 19.1597L60.277 19.5962ZM59.3097 20.5459L58.8809 20.2886L58.8787 20.2924L59.3097 20.5459ZM58.958 27V27.5H59.458V27H58.958ZM58.139 27V14.6897H57.139V27H58.139ZM57.639 15.1897H58.958V14.1897H57.639V15.1897ZM58.458 14.6897V19.5786H59.458V14.6897H58.458ZM59.358 19.8786C59.6377 19.5057 59.98 19.1887 60.3885 18.9268L59.8488 18.0849C59.3428 18.4093 58.9114 18.8074 58.558 19.2786L59.358 19.8786ZM60.3885 18.9268C60.7434 18.6993 61.2281 18.5662 61.8773 18.5662V17.5662C61.0962 17.5662 60.4084 17.7262 59.8488 18.0849L60.3885 18.9268ZM61.8773 18.5662C62.4029 18.5662 62.8878 18.6915 63.3403 18.9429L63.826 18.0688C63.2233 17.734 62.571 17.5662 61.8773 17.5662V18.5662ZM63.3519 18.9492C63.7988 19.1824 64.1653 19.5388 64.4504 20.0377L65.3187 19.5416C64.9472 18.8915 64.4461 18.3921 63.8144 18.0626L63.3519 18.9492ZM64.4566 20.0482C64.7384 20.5147 64.8945 21.1172 64.8945 21.8824H65.8945C65.8945 20.9828 65.7106 20.1901 65.3125 19.5311L64.4566 20.0482ZM64.8945 21.8824V27H65.8945V21.8824H64.8945ZM65.3945 26.5H64.0756V27.5H65.3945V26.5ZM64.5756 27V21.9176H63.5756V27H64.5756ZM64.5756 21.9176C64.5756 21.0195 64.3149 20.2479 63.752 19.6561L63.0274 20.3453C63.379 20.7149 63.5756 21.2212 63.5756 21.9176H64.5756ZM63.7561 19.6605C63.196 19.0572 62.4667 18.7621 61.6135 18.7621V19.7621C62.2141 19.7621 62.669 19.9593 63.0233 20.3409L63.7561 19.6605ZM61.6135 18.7621C61.0426 18.7621 60.512 18.8921 60.033 19.1597L60.5209 20.0327C60.8391 19.8548 61.1996 19.7621 61.6135 19.7621V18.7621ZM60.033 19.1597C59.5545 19.4272 59.1698 19.8072 58.881 20.2886L59.7385 20.8031C59.942 20.4639 60.2022 20.2108 60.5209 20.0327L60.033 19.1597ZM58.8787 20.2924C58.593 20.7781 58.458 21.3312 58.458 21.9352H59.458C59.458 21.484 59.5575 21.1108 59.7407 20.7994L58.8787 20.2924ZM58.458 21.9352V27H59.458V21.9352H58.458ZM58.958 26.5H57.639V27.5H58.958V26.5ZM70.2203 26.5428L69.9587 26.9689L69.9642 26.9722L70.2203 26.5428ZM68.6551 24.8897L68.2125 25.1222L68.2156 25.128L68.6551 24.8897ZM68.6375 20.3172L69.0817 20.547L69.0832 20.5439L68.6375 20.3172ZM70.15 18.6817L70.4095 19.1092L70.415 19.1057L70.15 18.6817ZM74.7927 18.6817L74.5242 19.1036L74.5332 19.1091L74.7927 18.6817ZM76.3051 20.3172L75.8594 20.5439L75.861 20.547L76.3051 20.3172ZM76.8327 23.131V23.631H77.3327V23.131H76.8327ZM69.4641 23.131V22.631H68.8913L68.9687 23.1986L69.4641 23.131ZM69.9565 24.5555L69.5267 24.8111L69.5308 24.818L69.5352 24.8247L69.9565 24.5555ZM71.0293 25.5755L70.7787 26.0083L70.7874 26.0131L71.0293 25.5755ZM74.142 25.5403L74.4113 25.9618L74.4194 25.9564L74.142 25.5403ZM75.1269 24.4676V23.9676H74.8288L74.687 24.2298L75.1269 24.4676ZM76.5689 24.4676L77.0351 24.6485L77.2993 23.9676H76.5689V24.4676ZM75.1093 26.4021L75.4093 26.8021L75.4104 26.8012L75.1093 26.4021ZM69.4817 21.9L68.9889 21.8153L68.8884 22.4H69.4817V21.9ZM75.461 21.9V22.4H76.0452L75.955 21.8228L75.461 21.9ZM74.5113 20.0183L74.8608 19.6607L74.8608 19.6607L74.5113 20.0183ZM70.4313 20.0183L70.0818 19.6607L70.0778 19.6647L70.4313 20.0183ZM72.5593 26.6407C71.7451 26.6407 71.0566 26.4594 70.4764 26.1133L69.9642 26.9722C70.7206 27.4234 71.5914 27.6407 72.5593 27.6407V26.6407ZM70.4819 26.1167C69.8887 25.7524 69.4282 25.2662 69.0946 24.6513L68.2156 25.128C68.6324 25.8966 69.2154 26.5124 69.9587 26.9688L70.4819 26.1167ZM69.0978 24.6571C68.7744 24.0418 68.61 23.3603 68.61 22.6034H67.61C67.61 23.5114 67.8089 24.3541 68.2125 25.1222L69.0978 24.6571ZM68.61 22.6034C68.61 21.8309 68.7703 21.1489 69.0817 20.547L68.1934 20.0875C67.8013 20.8456 67.61 21.6877 67.61 22.6034H68.61ZM69.0832 20.5439C69.3932 19.9342 69.8333 19.4589 70.4094 19.1091L69.8905 18.2543C69.1535 18.7018 68.5853 19.3169 68.1919 20.0906L69.0832 20.5439ZM70.415 19.1057C70.9806 18.7522 71.6596 18.5662 72.4713 18.5662V17.5662C71.501 17.5662 70.6324 17.7906 69.885 18.2577L70.415 19.1057ZM72.4713 18.5662C73.2965 18.5662 73.9733 18.7529 74.5243 19.1036L75.0612 18.2599C74.3225 17.7899 73.4517 17.5662 72.4713 17.5662V18.5662ZM74.5332 19.1091C75.1094 19.4589 75.5494 19.9342 75.8594 20.5439L76.7508 20.0906C76.3574 19.3169 75.7892 18.7018 75.0522 18.2543L74.5332 19.1091ZM75.861 20.547C76.1724 21.1489 76.3327 21.8309 76.3327 22.6034H77.3327C77.3327 21.6877 77.1413 20.8456 76.7492 20.0875L75.861 20.547ZM76.3327 22.6034V23.131H77.3327V22.6034H76.3327ZM76.8327 22.631H69.4641V23.631H76.8327V22.631ZM68.9687 23.1986C69.0478 23.7787 69.2335 24.3178 69.5267 24.8111L70.3863 24.3C70.1637 23.9256 70.0211 23.5151 69.9595 23.0635L68.9687 23.1986ZM69.5352 24.8247C69.8491 25.3161 70.266 25.7114 70.7788 26.0082L71.2798 25.1428C70.9015 24.9238 70.6032 24.6391 70.3779 24.2863L69.5352 24.8247ZM70.7874 26.0131C71.3175 26.3061 71.919 26.4448 72.5769 26.4448V25.4448C72.0623 25.4448 71.632 25.3373 71.2711 25.1379L70.7874 26.0131ZM72.5769 26.4448C73.2707 26.4448 73.8914 26.2938 74.4112 25.9617L73.8728 25.119C73.5485 25.3262 73.1258 25.4448 72.5769 25.4448V26.4448ZM74.4194 25.9564C74.9073 25.6311 75.2923 25.213 75.5667 24.7053L74.687 24.2298C74.4925 24.5897 74.2209 24.8869 73.8647 25.1243L74.4194 25.9564ZM75.1269 24.9676H76.5689V23.9676H75.1269V24.9676ZM76.1028 24.2867C75.8314 24.9861 75.4017 25.5552 74.8081 26.0029L75.4104 26.8012C76.1534 26.2407 76.6968 25.5201 77.0351 24.6485L76.1028 24.2867ZM74.8093 26.0021C74.2603 26.4138 73.5242 26.6407 72.5593 26.6407V27.6407C73.6813 27.6407 74.6451 27.3752 75.4093 26.8021L74.8093 26.0021ZM69.4817 22.4H75.461V21.4H69.4817V22.4ZM75.955 21.8228C75.822 20.9719 75.4581 20.2444 74.8608 19.6607L74.1619 20.3759C74.5963 20.8004 74.8655 21.3274 74.967 21.9772L75.955 21.8228ZM74.8608 19.6607C74.2357 19.0498 73.4222 18.7621 72.4713 18.7621V19.7621C73.2088 19.7621 73.7552 19.9785 74.1619 20.3759L74.8608 19.6607ZM72.4713 18.7621C71.5205 18.7621 70.707 19.0498 70.0819 19.6607L70.7808 20.3759C71.1874 19.9785 71.7339 19.7621 72.4713 19.7621V18.7621ZM70.0778 19.6647C69.4955 20.247 69.1341 20.9704 68.9889 21.8153L69.9745 21.9847C70.0872 21.3289 70.3589 20.7978 70.7849 20.3718L70.0778 19.6647ZM80.9592 26.5428L80.6871 26.9624L80.6962 26.9681L80.9592 26.5428ZM79.4819 20.3172L79.926 20.547L79.9276 20.5439L79.4819 20.3172ZM80.9592 18.6817L81.2256 19.1048L81.2276 19.1036L80.9592 18.6817ZM85.0743 18.4883L84.8349 18.9272L84.839 18.9295L85.0743 18.4883ZM86.3581 19.6314L85.9452 19.9134L86.8581 21.2501V19.6314H86.3581ZM86.3581 14.6897V14.1897H85.8581V14.6897H86.3581ZM87.6771 14.6897H88.1771V14.1897H87.6771V14.6897ZM87.6771 27V27.5H88.1771V27H87.6771ZM86.3581 27H85.8581V27.5H86.3581V27ZM86.3581 25.5931H86.8581V24.0069L85.9485 25.3064L86.3581 25.5931ZM85.0743 26.7186L84.839 26.2774L84.8349 26.2797L85.0743 26.7186ZM85.0392 25.4876L84.7618 25.0715L84.7568 25.0749L85.0392 25.4876ZM86.0767 24.2741L86.5301 24.485L86.5319 24.481L86.0767 24.2741ZM86.0767 20.9328L85.6234 21.1436L85.6234 21.1436L86.0767 20.9328ZM85.0392 19.7193L84.7568 20.132L84.7618 20.1353L85.0392 19.7193ZM81.7154 19.7193L81.4429 19.3001L81.4429 19.3001L81.7154 19.7193ZM80.6426 20.9328L80.1933 20.7133L80.1933 20.7133L80.6426 20.9328ZM80.6426 24.2741L80.1913 24.4895L80.1933 24.4936L80.6426 24.2741ZM81.7154 25.4876L81.9879 25.0684L81.9879 25.0684L81.7154 25.4876ZM83.2102 26.6407C82.4349 26.6407 81.7781 26.4612 81.2221 26.1175L80.6962 26.9681C81.4299 27.4216 82.2737 27.6407 83.2102 27.6407V26.6407ZM81.2311 26.1232C80.6741 25.7621 80.2406 25.2786 79.9276 24.663L79.0362 25.1163C79.4267 25.8842 79.978 26.5027 80.6872 26.9623L81.2311 26.1232ZM79.9276 24.663C79.6141 24.0466 79.4543 23.363 79.4543 22.6034H78.4543C78.4543 23.5088 78.6462 24.3493 79.0362 25.1163L79.9276 24.663ZM79.4543 22.6034C79.4543 21.8309 79.6147 21.1489 79.926 20.547L79.0378 20.0875C78.6457 20.8456 78.4543 21.6877 78.4543 22.6034H79.4543ZM79.9276 20.5439C80.24 19.9295 80.6718 19.4535 81.2256 19.1048L80.6927 18.2586C79.9803 18.7072 79.4273 19.3215 79.0362 20.0906L79.9276 20.5439ZM81.2276 19.1036C81.7828 18.7502 82.4377 18.5662 83.2102 18.5662V17.5662C82.271 17.5662 81.4251 17.7925 80.6907 18.2599L81.2276 19.1036ZM83.2102 18.5662C83.873 18.5662 84.4079 18.6943 84.8349 18.9272L85.3138 18.0493C84.709 17.7195 84.0012 17.5662 83.2102 17.5662V18.5662ZM84.839 18.9295C85.2975 19.1739 85.6637 19.5011 85.9452 19.9134L86.771 19.3494C86.396 18.8002 85.9064 18.3654 85.3096 18.0471L84.839 18.9295ZM86.8581 19.6314V14.6897H85.8581V19.6314H86.8581ZM86.3581 15.1897H87.6771V14.1897H86.3581V15.1897ZM87.1771 14.6897V27H88.1771V14.6897H87.1771ZM87.6771 26.5H86.3581V27.5H87.6771V26.5ZM86.8581 27V25.5931H85.8581V27H86.8581ZM85.9485 25.3064C85.6674 25.708 85.3004 26.0314 84.839 26.2774L85.3096 27.1598C85.9035 26.8431 86.3923 26.4162 86.7677 25.8798L85.9485 25.3064ZM84.8349 26.2797C84.4079 26.5126 83.873 26.6407 83.2102 26.6407V27.6407C84.0012 27.6407 84.709 27.4874 85.3138 27.1576L84.8349 26.2797ZM83.3861 26.4448C84.1213 26.4448 84.7763 26.2733 85.3215 25.9002L84.7568 25.0749C84.411 25.3116 83.9639 25.4448 83.3861 25.4448V26.4448ZM85.3165 25.9036C85.8511 25.5472 86.2574 25.0714 86.5301 24.485L85.6234 24.0633C85.4271 24.4852 85.1417 24.8183 84.7618 25.0716L85.3165 25.9036ZM86.5319 24.481C86.7976 23.8966 86.9285 23.2687 86.9285 22.6034H85.9285C85.9285 23.134 85.8249 23.6199 85.6216 24.0672L86.5319 24.481ZM86.9285 22.6034C86.9285 21.9281 86.7982 21.2982 86.5301 20.7219L85.6234 21.1436C85.8243 21.5756 85.9285 22.0595 85.9285 22.6034H86.9285ZM86.5301 20.7219C86.2574 20.1355 85.8511 19.6597 85.3165 19.3033L84.7618 20.1353C85.1417 20.3886 85.4271 20.7217 85.6234 21.1436L86.5301 20.7219ZM85.3215 19.3067C84.7763 18.9336 84.1213 18.7621 83.3861 18.7621V19.7621C83.9639 19.7621 84.411 19.8953 84.7568 20.132L85.3215 19.3067ZM83.3861 18.7621C82.6596 18.7621 82.0048 18.9349 81.4429 19.3001L81.9879 20.1385C82.3639 19.8941 82.8228 19.7621 83.3861 19.7621V18.7621ZM81.4429 19.3001C80.8977 19.6544 80.4791 20.1281 80.1933 20.7133L81.0919 21.1522C81.2985 20.7292 81.5951 20.3938 81.9879 20.1385L81.4429 19.3001ZM80.1933 20.7133C79.9109 21.2916 79.7733 21.9245 79.7733 22.6034H80.7733C80.7733 22.0631 80.8819 21.5822 81.0919 21.1522L80.1933 20.7133ZM79.7733 22.6034C79.7733 23.2724 79.9116 23.9033 80.1914 24.4895L81.0938 24.0588C80.8812 23.6133 80.7733 23.1304 80.7733 22.6034H79.7733ZM80.1933 24.4936C80.4791 25.0788 80.8977 25.5525 81.4429 25.9068L81.9879 25.0684C81.5951 24.8131 81.2985 24.4777 81.0919 24.0547L80.1933 24.4936ZM81.4429 25.9068C82.0048 26.272 82.6596 26.4448 83.3861 26.4448V25.4448C82.8228 25.4448 82.3639 25.3128 81.9879 25.0684L81.4429 25.9068ZM92.7371 26.7186L92.4983 27.158L92.5058 27.1619L92.7371 26.7186ZM91.4181 25.4348L90.9839 25.683L90.9902 25.6934L91.4181 25.4348ZM90.9257 18.2069V17.7069H90.4257V18.2069H90.9257ZM92.2447 18.2069H92.7447V17.7069H92.2447V18.2069ZM92.9306 25.2238L92.564 25.5641L92.5727 25.573L92.9306 25.2238ZM96.0433 25.6107L96.2873 26.0473L96.2968 26.0417L96.0433 25.6107ZM96.993 24.661L96.5675 24.3982L96.562 24.4075L96.993 24.661ZM97.3623 18.2069V17.7069H96.8623V18.2069H97.3623ZM98.6812 18.2069H99.1812V17.7069H98.6812V18.2069ZM98.6812 27V27.5H99.1812V27H98.6812ZM97.3623 27H96.8623V27.5H97.3623V27ZM97.3623 25.6283H97.8623V24.1283L96.9623 25.3283L97.3623 25.6283ZM96.2016 26.701L96.4714 27.122L96.4714 27.122L96.2016 26.701ZM94.443 26.6407C93.927 26.6407 93.4376 26.5201 92.9684 26.2753L92.5058 27.1619C93.1152 27.4799 93.7631 27.6407 94.443 27.6407V26.6407ZM92.9759 26.2793C92.5201 26.0316 92.1436 25.6687 91.8461 25.1763L90.9902 25.6934C91.3727 26.3265 91.8755 26.8194 92.4983 27.1579L92.9759 26.2793ZM91.8523 25.1868C91.5769 24.705 91.4257 24.092 91.4257 23.3245H90.4257C90.4257 24.2218 90.6028 25.0157 90.984 25.6829L91.8523 25.1868ZM91.4257 23.3245V18.2069H90.4257V23.3245H91.4257ZM90.9257 18.7069H92.2447V17.7069H90.9257V18.7069ZM91.7447 18.2069V23.2893H92.7447V18.2069H91.7447ZM91.7447 23.2893C91.7447 24.1878 92.0054 24.9623 92.5642 25.564L93.2969 24.8836C92.9412 24.5005 92.7447 23.9853 92.7447 23.2893H91.7447ZM92.5727 25.573C93.1423 26.1569 93.8666 26.4448 94.7068 26.4448V25.4448C94.1166 25.4448 93.6567 25.2521 93.2884 24.8746L92.5727 25.573ZM94.7068 26.4448C95.2777 26.4448 95.8083 26.3148 96.2872 26.0472L95.7994 25.1742C95.4811 25.3521 95.1207 25.4448 94.7068 25.4448V26.4448ZM96.2968 26.0417C96.7687 25.7641 97.1463 25.3864 97.4239 24.9145L96.562 24.4075C96.3706 24.7329 96.1151 24.9883 95.7898 25.1797L96.2968 26.0417ZM97.4184 24.9238C97.7193 24.4366 97.8623 23.8801 97.8623 23.2717H96.8623C96.8623 23.7185 96.7591 24.0883 96.5676 24.3983L97.4184 24.9238ZM97.8623 23.2717V18.2069H96.8623V23.2717H97.8623ZM97.3623 18.7069H98.6812V17.7069H97.3623V18.7069ZM98.1812 18.2069V27H99.1812V18.2069H98.1812ZM98.6812 26.5H97.3623V27.5H98.6812V26.5ZM97.8623 27V25.6283H96.8623V27H97.8623ZM96.9623 25.3283C96.6826 25.7012 96.3402 26.0182 95.9318 26.2801L96.4714 27.122C96.9774 26.7976 97.4088 26.3995 97.7623 25.9283L96.9623 25.3283ZM95.9318 26.2801C95.5769 26.5076 95.0922 26.6407 94.443 26.6407V27.6407C95.2241 27.6407 95.9118 27.4807 96.4714 27.122L95.9318 26.2801ZM102.03 27H101.53V27.5H102.03V27ZM102.03 14.6897V14.1897H101.53V14.6897H102.03ZM103.349 14.6897H103.849V14.1897H103.349V14.6897ZM103.349 27V27.5H103.849V27H103.349ZM102.53 27V14.6897H101.53V27H102.53ZM102.03 15.1897H103.349V14.1897H102.03V15.1897ZM102.849 14.6897V27H103.849V14.6897H102.849ZM103.349 26.5H102.03V27.5H103.349V26.5ZM108.257 26.5428L107.995 26.9689L108.001 26.9722L108.257 26.5428ZM106.691 24.8897L106.249 25.1222L106.252 25.128L106.691 24.8897ZM106.674 20.3172L107.118 20.547L107.12 20.5439L106.674 20.3172ZM108.186 18.6817L108.446 19.1092L108.451 19.1057L108.186 18.6817ZM112.829 18.6817L112.561 19.1036L112.57 19.1091L112.829 18.6817ZM114.341 20.3172L113.896 20.5439L113.897 20.547L114.341 20.3172ZM114.869 23.131V23.631H115.369V23.131H114.869ZM107.5 23.131V22.631H106.928L107.005 23.1986L107.5 23.131ZM107.993 24.5555L107.563 24.8111L107.567 24.818L107.572 24.8247L107.993 24.5555ZM109.066 25.5755L108.815 26.0083L108.824 26.0131L109.066 25.5755ZM112.178 25.5403L112.448 25.9618L112.456 25.9564L112.178 25.5403ZM113.163 24.4676V23.9676H112.865L112.723 24.2298L113.163 24.4676ZM114.605 24.4676L115.071 24.6485L115.336 23.9676H114.605V24.4676ZM113.146 26.4021L113.446 26.8021L113.447 26.8012L113.146 26.4021ZM107.518 21.9L107.025 21.8153L106.925 22.4H107.518V21.9ZM113.497 21.9V22.4H114.082L113.991 21.8228L113.497 21.9ZM112.548 20.0183L112.897 19.6607L112.897 19.6607L112.548 20.0183ZM108.468 20.0183L108.118 19.6607L108.114 19.6647L108.468 20.0183ZM110.596 26.6407C109.781 26.6407 109.093 26.4594 108.513 26.1133L108.001 26.9722C108.757 27.4234 109.628 27.6407 110.596 27.6407V26.6407ZM108.518 26.1167C107.925 25.7524 107.465 25.2662 107.131 24.6513L106.252 25.128C106.669 25.8966 107.252 26.5124 107.995 26.9688L108.518 26.1167ZM107.134 24.6571C106.811 24.0418 106.646 23.3603 106.646 22.6034H105.646C105.646 23.5114 105.845 24.3541 106.249 25.1222L107.134 24.6571ZM106.646 22.6034C106.646 21.8309 106.807 21.1489 107.118 20.547L106.23 20.0875C105.838 20.8456 105.646 21.6877 105.646 22.6034H106.646ZM107.12 20.5439C107.43 19.9342 107.87 19.4589 108.446 19.1091L107.927 18.2543C107.19 18.7018 106.622 19.3169 106.228 20.0906L107.12 20.5439ZM108.451 19.1057C109.017 18.7522 109.696 18.5662 110.508 18.5662V17.5662C109.537 17.5662 108.669 17.7906 107.921 18.2577L108.451 19.1057ZM110.508 18.5662C111.333 18.5662 112.01 18.7529 112.561 19.1036L113.098 18.2599C112.359 17.7899 111.488 17.5662 110.508 17.5662V18.5662ZM112.57 19.1091C113.146 19.4589 113.586 19.9342 113.896 20.5439L114.787 20.0906C114.394 19.3169 113.826 18.7018 113.089 18.2543L112.57 19.1091ZM113.897 20.547C114.209 21.1489 114.369 21.8309 114.369 22.6034H115.369C115.369 21.6877 115.178 20.8456 114.786 20.0875L113.897 20.547ZM114.369 22.6034V23.131H115.369V22.6034H114.369ZM114.869 22.631H107.5V23.631H114.869V22.631ZM107.005 23.1986C107.084 23.7787 107.27 24.3178 107.563 24.8111L108.423 24.3C108.2 23.9256 108.057 23.5151 107.996 23.0635L107.005 23.1986ZM107.572 24.8247C107.885 25.3161 108.302 25.7114 108.815 26.0082L109.316 25.1428C108.938 24.9238 108.64 24.6391 108.414 24.2863L107.572 24.8247ZM108.824 26.0131C109.354 26.3061 109.955 26.4448 110.613 26.4448V25.4448C110.099 25.4448 109.668 25.3373 109.307 25.1379L108.824 26.0131ZM110.613 26.4448C111.307 26.4448 111.928 26.2938 112.448 25.9617L111.909 25.119C111.585 25.3262 111.162 25.4448 110.613 25.4448V26.4448ZM112.456 25.9564C112.944 25.6311 113.329 25.213 113.603 24.7053L112.723 24.2298C112.529 24.5897 112.257 24.8869 111.901 25.1243L112.456 25.9564ZM113.163 24.9676H114.605V23.9676H113.163V24.9676ZM114.139 24.2867C113.868 24.9861 113.438 25.5552 112.845 26.0029L113.447 26.8012C114.19 26.2407 114.733 25.5201 115.071 24.6485L114.139 24.2867ZM112.846 26.0021C112.297 26.4138 111.561 26.6407 110.596 26.6407V27.6407C111.718 27.6407 112.681 27.3752 113.446 26.8021L112.846 26.0021ZM107.518 22.4H113.497V21.4H107.518V22.4ZM113.991 21.8228C113.858 20.9719 113.494 20.2444 112.897 19.6607L112.198 20.3759C112.633 20.8004 112.902 21.3274 113.003 21.9772L113.991 21.8228ZM112.897 19.6607C112.272 19.0498 111.459 18.7621 110.508 18.7621V19.7621C111.245 19.7621 111.792 19.9785 112.198 20.3759L112.897 19.6607ZM110.508 18.7621C109.557 18.7621 108.743 19.0498 108.118 19.6607L108.817 20.3759C109.224 19.9785 109.77 19.7621 110.508 19.7621V18.7621ZM108.114 19.6647C107.532 20.247 107.17 20.9704 107.025 21.8153L108.011 21.9847C108.124 21.3289 108.395 20.7978 108.821 20.3718L108.114 19.6647ZM117.325 27H116.825V27.5H117.325V27ZM117.325 25.2062V24.7062H116.825V25.2062H117.325ZM119.031 25.2062H119.531V24.7062H119.031V25.2062ZM119.031 27V27.5H119.531V27H119.031ZM117.825 27V25.2062H116.825V27H117.825ZM117.325 25.7062H119.031V24.7062H117.325V25.7062ZM118.531 25.2062V27H119.531V25.2062H118.531ZM119.031 26.5H117.325V27.5H119.031V26.5ZM123.658 26.5428L123.39 26.9646L123.395 26.9681L123.658 26.5428ZM122.146 24.8897L121.7 25.1163L121.703 25.1222L122.146 24.8897ZM122.146 20.3172L121.703 20.0847L121.702 20.0875L122.146 20.3172ZM123.658 18.6817L123.921 19.1071L123.926 19.1036L123.658 18.6817ZM128.6 18.8752L128.302 19.2767L128.305 19.279L128.6 18.8752ZM130.095 20.9679V21.4679H130.767L130.573 20.8237L130.095 20.9679ZM128.67 20.9679L128.205 21.1518L128.33 21.4679H128.67V20.9679ZM127.703 19.7369L127.408 20.1408L127.413 20.1445L127.703 19.7369ZM124.432 19.7193L124.164 19.2971L124.164 19.2971L124.432 19.7193ZM123.324 20.9328L122.879 20.705L122.879 20.705L123.324 20.9328ZM123.324 24.2741L122.877 24.4978L122.879 24.5019L123.324 24.2741ZM124.432 25.4876L124.164 25.9098L124.164 25.9098L124.432 25.4876ZM127.703 25.47L127.413 25.0624L127.408 25.0661L127.703 25.47ZM128.67 24.239V23.739H128.33L128.205 24.0551L128.67 24.239ZM130.095 24.239L130.573 24.3832L130.767 23.739H130.095V24.239ZM128.6 26.3317L128.305 25.9279L128.302 25.9302L128.6 26.3317ZM125.944 26.6407C125.143 26.6407 124.475 26.4599 123.921 26.1175L123.395 26.9681C124.131 27.4229 124.987 27.6407 125.944 27.6407V26.6407ZM123.926 26.1209C123.357 25.7585 122.912 25.2734 122.588 24.6571L121.703 25.1222C122.106 25.8893 122.67 26.5063 123.39 26.9646L123.926 26.1209ZM122.591 24.663C122.278 24.0466 122.118 23.363 122.118 22.6034H121.118C121.118 23.5088 121.31 24.3493 121.7 25.1163L122.591 24.663ZM122.118 22.6034C122.118 21.8309 122.278 21.1489 122.59 20.547L121.702 20.0875C121.309 20.8456 121.118 21.6877 121.118 22.6034H122.118ZM122.588 20.5498C122.911 19.9347 123.355 19.4571 123.921 19.107L123.395 18.2564C122.672 18.7036 122.107 19.3163 121.703 20.0847L122.588 20.5498ZM123.926 19.1036C124.48 18.7516 125.145 18.5662 125.944 18.5662V17.5662C124.984 17.5662 124.126 17.7912 123.39 18.2599L123.926 19.1036ZM125.944 18.5662C126.897 18.5662 127.674 18.8108 128.302 19.2767L128.898 18.4736C128.072 17.8609 127.078 17.5662 125.944 17.5662V18.5662ZM128.305 19.279C128.958 19.7557 129.39 20.3631 129.616 21.1122L130.573 20.8237C130.283 19.861 129.719 19.0733 128.895 18.4714L128.305 19.279ZM130.095 20.4679H128.67V21.4679H130.095V20.4679ZM129.135 20.7841C128.9 20.1892 128.516 19.7014 127.992 19.3293L127.413 20.1445C127.781 20.4055 128.042 20.7384 128.205 21.1518L129.135 20.7841ZM127.998 19.333C127.465 18.9445 126.83 18.7621 126.12 18.7621V19.7621C126.653 19.7621 127.073 19.8961 127.408 20.1408L127.998 19.333ZM126.12 18.7621C125.393 18.7621 124.735 18.9349 124.164 19.2971L124.7 20.1416C125.09 19.894 125.557 19.7621 126.12 19.7621V18.7621ZM124.164 19.2971C123.608 19.6495 123.178 20.1209 122.879 20.705L123.769 21.1605C123.986 20.7363 124.294 20.3988 124.7 20.1416L124.164 19.2971ZM122.879 20.705C122.582 21.285 122.437 21.9208 122.437 22.6034H123.437C123.437 22.0668 123.55 21.5888 123.769 21.1605L122.879 20.705ZM122.437 22.6034C122.437 23.2761 122.583 23.9099 122.877 24.4977L123.771 24.0505C123.549 23.6067 123.437 23.1267 123.437 22.6034H122.437ZM122.879 24.5019C123.178 25.086 123.608 25.5574 124.164 25.9098L124.7 25.0653C124.294 24.8081 123.986 24.4706 123.769 24.0464L122.879 24.5019ZM124.164 25.9098C124.735 26.272 125.393 26.4448 126.12 26.4448V25.4448C125.557 25.4448 125.09 25.3129 124.7 25.0653L124.164 25.9098ZM126.12 26.4448C126.83 26.4448 127.465 26.2624 127.998 25.8739L127.408 25.0661C127.073 25.3107 126.653 25.4448 126.12 25.4448V26.4448ZM127.992 25.8776C128.516 25.5055 128.9 25.0177 129.135 24.4228L128.205 24.0551C128.042 24.4685 127.781 24.8014 127.413 25.0624L127.992 25.8776ZM128.67 24.739H130.095V23.739H128.67V24.739ZM129.616 24.0947C129.39 24.8438 128.958 25.4512 128.305 25.9279L128.895 26.7355C129.719 26.1336 130.283 25.3459 130.573 24.3832L129.616 24.0947ZM128.302 25.9302C127.674 26.3961 126.897 26.6407 125.944 26.6407V27.6407C127.078 27.6407 128.072 27.346 128.898 26.7333L128.302 25.9302ZM134.279 26.5428L134.011 26.9646L134.016 26.9681L134.279 26.5428ZM132.767 24.8897L132.321 25.1163L132.324 25.1222L132.767 24.8897ZM132.767 20.3172L132.324 20.0847L132.323 20.0875L132.767 20.3172ZM134.279 18.6817L134.542 19.1071L134.548 19.1036L134.279 18.6817ZM139.221 18.8752L138.923 19.2767L138.926 19.279L139.221 18.8752ZM140.716 20.9679V21.4679H141.389L141.194 20.8237L140.716 20.9679ZM139.291 20.9679L138.826 21.1518L138.951 21.4679H139.291V20.9679ZM138.324 19.7369L138.029 20.1408L138.034 20.1445L138.324 19.7369ZM135.053 19.7193L134.785 19.2971L134.785 19.2971L135.053 19.7193ZM133.945 20.9328L133.5 20.705L133.5 20.705L133.945 20.9328ZM133.945 24.2741L133.498 24.4978L133.5 24.5019L133.945 24.2741ZM135.053 25.4876L134.785 25.9098L134.785 25.9098L135.053 25.4876ZM138.324 25.47L138.034 25.0624L138.029 25.0661L138.324 25.47ZM139.291 24.239V23.739H138.951L138.826 24.0551L139.291 24.239ZM140.716 24.239L141.194 24.3832L141.389 23.739H140.716V24.239ZM139.221 26.3317L138.926 25.9279L138.923 25.9302L139.221 26.3317ZM136.565 26.6407C135.764 26.6407 135.096 26.4599 134.542 26.1175L134.016 26.9681C134.752 27.4229 135.608 27.6407 136.565 27.6407V26.6407ZM134.548 26.1209C133.978 25.7585 133.533 25.2734 133.209 24.6571L132.324 25.1222C132.727 25.8893 133.291 26.5063 134.011 26.9646L134.548 26.1209ZM133.212 24.663C132.899 24.0466 132.739 23.363 132.739 22.6034H131.739C131.739 23.5088 131.931 24.3493 132.321 25.1163L133.212 24.663ZM132.739 22.6034C132.739 21.8309 132.9 21.1489 133.211 20.547L132.323 20.0875C131.931 20.8456 131.739 21.6877 131.739 22.6034H132.739ZM133.209 20.5498C133.533 19.9347 133.976 19.4571 134.542 19.107L134.016 18.2564C133.293 18.7036 132.728 19.3163 132.324 20.0847L133.209 20.5498ZM134.548 19.1036C135.101 18.7516 135.767 18.5662 136.565 18.5662V17.5662C135.606 17.5662 134.747 17.7912 134.011 18.2599L134.548 19.1036ZM136.565 18.5662C137.519 18.5662 138.295 18.8108 138.923 19.2767L139.519 18.4736C138.693 17.8609 137.699 17.5662 136.565 17.5662V18.5662ZM138.926 19.279C139.579 19.7557 140.011 20.3631 140.237 21.1122L141.194 20.8237C140.904 19.861 140.34 19.0733 139.516 18.4714L138.926 19.279ZM140.716 20.4679H139.291V21.4679H140.716V20.4679ZM139.756 20.7841C139.521 20.1892 139.137 19.7014 138.614 19.3293L138.034 20.1445C138.402 20.4055 138.663 20.7384 138.826 21.1518L139.756 20.7841ZM138.619 19.333C138.086 18.9445 137.451 18.7621 136.741 18.7621V19.7621C137.274 19.7621 137.694 19.8961 138.029 20.1408L138.619 19.333ZM136.741 18.7621C136.015 18.7621 135.356 18.9349 134.785 19.2971L135.321 20.1416C135.711 19.894 136.178 19.7621 136.741 19.7621V18.7621ZM134.785 19.2971C134.229 19.6495 133.799 20.1209 133.5 20.705L134.39 21.1605C134.607 20.7363 134.915 20.3988 135.321 20.1416L134.785 19.2971ZM133.5 20.705C133.203 21.285 133.058 21.9208 133.058 22.6034H134.058C134.058 22.0668 134.171 21.5888 134.39 21.1605L133.5 20.705ZM133.058 22.6034C133.058 23.2761 133.204 23.9099 133.498 24.4977L134.392 24.0505C134.17 23.6067 134.058 23.1267 134.058 22.6034H133.058ZM133.5 24.5019C133.799 25.086 134.229 25.5574 134.785 25.9098L135.321 25.0653C134.915 24.8081 134.607 24.4706 134.39 24.0464L133.5 24.5019ZM134.785 25.9098C135.356 26.272 136.015 26.4448 136.741 26.4448V25.4448C136.178 25.4448 135.711 25.3129 135.321 25.0653L134.785 25.9098ZM136.741 26.4448C137.451 26.4448 138.086 26.2624 138.619 25.8739L138.029 25.0661C137.694 25.3107 137.274 25.4448 136.741 25.4448V26.4448ZM138.614 25.8776C139.137 25.5055 139.521 25.0177 139.756 24.4228L138.826 24.0551C138.663 24.4685 138.402 24.8014 138.034 25.0624L138.614 25.8776ZM139.291 24.739H140.716V23.739H139.291V24.739ZM140.237 24.0947C140.011 24.8438 139.579 25.4512 138.926 25.9279L139.516 26.7355C140.34 26.1336 140.904 25.3459 141.194 24.3832L140.237 24.0947ZM138.923 25.9302C138.295 26.3961 137.519 26.6407 136.565 26.6407V27.6407C137.699 27.6407 138.693 27.346 139.519 26.7333L138.923 25.9302Z"
      fill="#335EEA"
    />
</g>
<defs>
<clipPath id="clip0">
<rect width="142" height="30" fill="white" />
</clipPath>
</defs>
</svg>
