<svg width="223" height="122" viewBox="0 0 223 122" fill="none" xmlns="http://www.w3.org/2000/svg">
<path d="M68.5042 37.0782C69.3048 37.0782 69.8766 36.5064 69.8766 35.7059C69.8766 34.9053 69.3048 34.3335 68.5042 34.3335C67.7037 34.3335 67.1318 34.9053 67.1318 35.7059C67.1318 36.5064 67.818 37.0782 68.5042 37.0782Z" fill="white"/>
<path d="M63.93 37.0782C64.7305 37.0782 65.3024 36.5064 65.3024 35.7059C65.3024 34.9053 64.7305 34.3335 63.93 34.3335C63.1294 34.3335 62.5576 34.9053 62.5576 35.7059C62.5576 36.5064 63.2438 37.0782 63.93 37.0782Z" fill="white"/>
<path d="M72.5071 37.0782C73.3077 37.0782 73.8795 36.5064 73.8795 35.7059C73.8795 34.9053 73.3077 34.3335 72.5071 34.3335C71.7066 34.3335 71.1348 34.9053 71.1348 35.7059C71.1348 36.5064 71.7066 37.0782 72.5071 37.0782Z" fill="white"/>
<path fill-rule="evenodd" clip-rule="evenodd" d="M51.9788 64.3237H59.4696V104.58C59.4696 106.41 60.842 107.782 62.6718 107.782H113.859C121.701 113.886 132.937 113.961 140.717 108.01L147.489 114.644H56.0614C51.6801 114.644 48.0953 111.021 48.0953 106.593C48.0953 104.379 48.9915 102.366 50.3856 100.957C51.6801 99.6487 53.3729 98.8436 55.3644 98.6423H8.86229C4.08263 98.6423 0 94.7173 0 89.9872C0 87.6724 0.995762 85.559 2.48941 84.0494C3.98305 82.5397 6.17373 81.5333 8.46398 81.5333H51.9788C47.2987 81.5333 43.5148 77.709 43.5148 72.8782C43.5148 70.4628 44.5106 68.3494 46.0042 66.8398C47.4979 65.3301 49.6885 64.3237 51.9788 64.3237ZM157.048 114.644H161.811C164.002 114.644 165.994 113.738 167.388 112.329C168.524 111.104 169.372 109.529 169.625 107.782H151.093L155.948 112.588C156.544 113.184 156.909 113.903 157.048 114.644ZM182.523 81.5333H173.72V64.3237H182.025C187.004 64.3237 191.087 68.2487 190.987 73.0795C190.987 75.3942 189.991 77.5077 188.498 79.0173C187.004 80.6276 184.814 81.5333 182.523 81.5333Z" fill="#B4D4FF" fill-opacity="0.2"/>
<path fill-rule="evenodd" clip-rule="evenodd" d="M204.495 38.9999C205.998 37.3995 207 35.2989 207 32.8983C207 28.0969 203.193 24.2959 198.484 24.2959H67.3456C64.9412 24.2959 62.8374 25.2962 61.0341 26.8966C59.5314 28.397 58.5296 30.4976 58.5296 32.8983C58.5296 34.3141 58.8693 35.6429 59.4691 36.8129V34.3601C59.4691 32.5303 60.8415 31.1579 62.6713 31.1579H170.517C172.347 31.1579 173.719 32.5303 173.719 34.3601V40.8789V41.5006H198.484C200.788 41.5006 202.992 40.6004 204.495 38.9999ZM25.6698 41.5006H59.4691V58.6053H25.77C21.0614 58.6053 17.1543 54.8043 17.1543 50.103C17.1543 47.7023 18.1561 45.6017 19.6589 44.0013C21.1616 42.5009 23.3656 41.5006 25.6698 41.5006Z" fill="#B4D4FF" fill-opacity="0.2"/>
<path opacity="0.6" d="M170.518 31.1582C172.348 31.1582 173.72 32.5306 173.72 34.3604V104.58C173.72 106.41 172.348 107.783 170.518 107.783H62.6719C60.8421 107.783 59.4697 106.41 59.4697 104.58V34.3604C59.4697 32.5306 60.8421 31.1582 62.6719 31.1582H170.518Z" fill="#C0DDFF"/>
<path opacity="0.6" d="M173.72 34.3604V40.8792H59.4697V34.3604C59.4697 32.5306 60.8421 31.1582 62.6719 31.1582H170.518C172.233 31.1582 173.72 32.5306 173.72 34.3604Z" fill="#ABCDFF"/>
<path d="M102.928 51.0576H91.1484V62.8372H102.928V51.0576Z" fill="white"/>
<path d="M120.77 51.0576H108.99V62.8372H120.77V51.0576Z" fill="#ABCDFF"/>
<path d="M139.068 51.0576H127.288V62.8372H139.068V51.0576Z" fill="#ABCDFF"/>
<path d="M157.938 51.0576H146.158V62.8372H157.938V51.0576Z" fill="white"/>
<path d="M86.346 68.2119H74.5664V79.9915H86.346V68.2119Z" fill="#ABCDFF"/>
<path d="M103.5 68.2119H91.7207V79.9915H103.5V68.2119Z" fill="#ABCDFF"/>
<path d="M121.341 68.2119H109.562V79.9915H121.341V68.2119Z" fill="#ABCDFF"/>
<path d="M139.639 68.2119H127.859V79.9915H139.639V68.2119Z" fill="#ABCDFF"/>
<path d="M158.51 68.2119H146.73V79.9915H158.51V68.2119Z" fill="#ABCDFF"/>
<path d="M86.346 85.5957H74.5664V97.3753H86.346V85.5957Z" fill="white"/>
<path d="M103.5 85.5957H91.7207V97.3753H103.5V85.5957Z" fill="#ABCDFF"/>
<path d="M121.341 85.5957H109.562V97.3753H121.341V85.5957Z" fill="#ABCDFF"/>
<path d="M139.639 85.5957H127.859V97.3753H139.639V85.5957Z" fill="#ABCDFF"/>
<path d="M146.376 4.75223C145.109 4.75223 144 3.64337 144 2.37611C144 1.10885 145.109 0 146.376 0C147.643 0 148.752 1.10885 148.752 2.37611C148.752 3.80178 147.643 4.75223 146.376 4.75223Z" fill="#EAA8FF"/>
<path d="M214.518 101.46H217.008V98.8139C217.008 98.3469 217.475 97.8799 217.942 97.8799C218.409 97.8799 218.876 98.3469 218.876 98.8139V101.46H221.523C221.99 101.46 222.457 101.927 222.457 102.394C222.457 102.862 221.99 103.329 221.523 103.329H218.876V105.975C218.876 106.442 218.409 106.909 217.942 106.909C217.475 106.909 217.008 106.442 217.008 105.975V103.329H214.362C213.895 103.329 213.428 102.862 213.428 102.394C213.583 101.927 214.05 101.46 214.518 101.46Z" fill="#FFB5D7"/>
<path d="M21.2434 24.8543L22.4949 23.6749L21.2418 22.3452C21.0206 22.1105 21.0341 21.6547 21.2688 21.4336C21.5035 21.2124 21.9592 21.226 22.1804 21.4606L23.4335 22.7903L24.7632 21.5372C24.9979 21.316 25.4537 21.3296 25.6748 21.5642C25.8959 21.7989 25.8824 22.2547 25.6478 22.4758L24.3181 23.7289L25.5712 25.0586C25.7923 25.2933 25.7788 25.7491 25.5442 25.9702C25.3095 26.1913 24.8537 26.1778 24.6326 25.9432L23.3795 24.6135L22.0498 25.8666C21.8151 26.0877 21.3593 26.0742 21.1382 25.8396C20.9952 25.5312 21.0088 25.0754 21.2434 24.8543Z" fill="#B2ABFF"/>
<path d="M23.5647 115.424C21.6638 115.424 20.0006 113.761 20.0006 111.86C20.0006 109.959 21.6638 108.296 23.5647 108.296C25.4656 108.296 27.1289 109.959 27.1289 111.86C27.1289 113.999 25.4656 115.424 23.5647 115.424Z" fill="#FFDE92"/>
<path d="M157.805 119.707C156.285 121.319 153.714 121.395 152.102 119.875L140.712 109.356C139.101 107.837 139.025 105.266 140.541 103.542C142.06 101.931 144.632 101.855 146.243 103.374L157.521 113.896C159.248 115.524 159.324 118.095 157.805 119.707Z" fill="#8FBCFF"/>
<path d="M110.255 72.2236C100.923 82.1235 101.609 97.7706 111.943 106.642C121.705 115.083 136.901 114.298 145.457 104.645C154.125 94.9888 153.682 80.006 144.131 71.1114C134.356 62.2234 119.37 62.554 110.255 72.2236ZM141.221 101.413C134.059 109.011 121.753 109.15 114.366 101.535C107.788 94.7904 107.465 83.8328 113.63 76.6004C120.555 68.5622 132.847 67.9754 140.445 75.1371C147.927 82.1903 148.274 93.9306 141.221 101.413Z" fill="#8FBCFF"/>
<path d="M127.709 101.309C126.788 101.337 125.958 100.555 125.931 99.6337C125.904 98.7128 126.683 97.7681 127.719 97.7375C128.64 97.7103 129.584 98.4889 129.612 99.4098C129.53 100.564 128.745 101.279 127.709 101.309ZM127.661 95.7806C126.74 95.8077 125.91 95.0258 125.768 94.1082C125.765 93.9931 125.765 93.9931 125.761 93.878L125.656 90.3095C125.602 88.4677 126.705 86.8221 128.411 86.0804C129.779 85.5792 130.659 84.1706 130.503 82.7927C130.341 81.1845 129.034 79.8405 127.304 79.7764L127.073 79.7832C125.692 79.824 124.453 80.7823 124.037 82.2923C123.83 83.1049 123.15 83.4707 122.344 83.4945C122.114 83.5013 121.883 83.5081 121.65 83.3998C120.834 83.0782 120.234 82.2894 120.434 81.2466C121.155 78.345 123.853 76.0762 126.961 75.9844L127.191 75.9776C128.918 75.9266 130.662 76.4512 131.85 77.6835C133.276 79.1392 134.136 80.9572 134.082 83.0326C134.045 85.6836 132.278 88.2705 129.888 89.2628L129.773 89.2662L129.658 89.2696C129.431 89.3915 129.207 89.6286 129.333 89.9705L129.435 93.4239C129.452 93.9995 129.377 94.5358 129.199 94.9206C128.773 95.839 127.999 95.7706 127.661 95.7806Z" fill="white"/>
<path d="M79.4823 62.2105H44.8298C43.9149 62.2105 43 61.41 43 60.3807V48.8298C43 47.9149 43.8006 47 44.8298 47H79.4823C80.3972 47 81.3122 47.8006 81.3122 48.8298V60.3807C81.3122 61.5243 80.5116 62.2105 79.4823 62.2105Z" fill="#ABCDFF"/>
<path d="M74.6789 53.0613H50.0905C49.633 53.0613 49.4043 52.7182 49.4043 52.3752C49.4043 51.9177 49.7474 51.689 50.0905 51.689H74.5645C75.022 51.689 75.2507 52.0321 75.2507 52.3752C75.3651 52.7182 75.022 53.0613 74.6789 53.0613Z" fill="white"/>
<path d="M66.1015 58.0931H50.0905C49.633 58.0931 49.4043 57.75 49.4043 57.4069C49.4043 56.9494 49.7474 56.7207 50.0905 56.7207H66.1015C66.559 56.7207 66.7877 57.0638 66.7877 57.4069C66.7877 57.75 66.559 58.0931 66.1015 58.0931Z" fill="white"/>
</svg>
