<svg width="164" height="44" viewBox="0 0 164 44" fill="none" xmlns="http://www.w3.org/2000/svg">
<path d="M32.1995 19.0195V28.858V34.1005C32.1995 34.8243 31.6127 35.4111 30.8889 35.4111L7.9134 35.4111C7.18956 35.4111 6.60278 34.8243 6.60278 34.1005V28.858V16.6472" stroke="#335EEA" stroke-width="2.62122" stroke-linecap="round"/>
<path d="M18.9997 21.7975L10.9822 21.7975" stroke="#335EEA" stroke-width="1.82259" stroke-linecap="round"/>
<path d="M27.8206 30.2611L10.9822 30.2611" stroke="#335EEA" stroke-width="1.82259" stroke-linecap="round"/>
<path d="M23.9884 26.0296L10.9822 26.0296" stroke="#335EEA" stroke-width="1.82259" stroke-linecap="round"/>
<path d="M34.7263 7.67627C34.8387 7.77932 34.9079 7.92476 34.9189 8.08071C34.9298 8.23665 34.8816 8.39039 34.7848 8.50822L33.7039 9.82099L31.2997 7.62238L32.3807 6.30962C32.4778 6.19174 32.6158 6.11963 32.7642 6.10915C32.9126 6.09866 33.0593 6.15065 33.172 6.25369L34.7262 7.67509L34.7263 7.67627ZM32.971 10.7089L30.5669 8.51026L23.5056 17.0789C23.4486 17.1481 23.4078 17.2304 23.3864 17.3194L22.6854 20.2277C22.6727 20.2808 22.6742 20.3365 22.6899 20.3889C22.7056 20.4412 22.7348 20.488 22.7742 20.524C22.8136 20.5601 22.8617 20.5839 22.9131 20.593C22.9645 20.602 23.0172 20.5958 23.0652 20.5751L25.7004 19.4356C25.781 19.4012 25.8527 19.3474 25.9099 19.2786L32.9711 10.71L32.971 10.7089Z" fill="#335EEA"/>
<circle cx="8.6226" cy="11.4317" r="5.096" stroke="#335EEA" stroke-width="2.05662"/>
<path d="M14.3237 10.4137L25.282 10.4137" stroke="#335EEA" stroke-width="2.62219" stroke-linecap="round"/>
<path d="M6.79102 11.1853L8.64443 9.33191L10.4546 11.1421" stroke="#335EEA" stroke-width="1.19512" stroke-linecap="round"/>
<path d="M8.62305 9.5976V13.5314" stroke="#335EEA" stroke-width="1.19512" stroke-linecap="round"/>
<path d="M42.1922 35.3972V21.8821H51.9508V23.352H43.7234V28.0476H51.0526V29.5379H43.7234V35.3972H42.1922ZM58.0012 35.5605C56.9668 35.5605 56.0617 35.3291 55.2859 34.8664C54.5101 34.39 53.9045 33.7503 53.4689 32.9473C53.047 32.1443 52.836 31.2596 52.836 30.2933C52.836 29.3133 53.0402 28.4287 53.4485 27.6393C53.8568 26.8363 54.4421 26.2034 55.2042 25.7406C55.9664 25.2643 56.8647 25.0261 57.8991 25.0261C58.9471 25.0261 59.8454 25.2643 60.5939 25.7406C61.3561 26.2034 61.9414 26.8363 62.3497 27.6393C62.758 28.4287 62.9621 29.3133 62.9621 30.2933V30.9057H54.408C54.4897 31.5046 54.6802 32.0558 54.9797 32.5594C55.2927 33.0494 55.7078 33.4441 56.225 33.7435C56.7422 34.0293 57.3411 34.1722 58.0216 34.1722C58.7429 34.1722 59.3486 34.0157 59.8386 33.7027C60.3285 33.376 60.7096 32.9609 60.9818 32.4573H62.6559C62.302 33.3692 61.7372 34.1178 60.9614 34.703C60.1992 35.2747 59.2125 35.5605 58.0012 35.5605ZM54.4285 29.4767H61.3697C61.2336 28.6056 60.8661 27.8774 60.2673 27.2922C59.6684 26.707 58.879 26.4143 57.8991 26.4143C56.9191 26.4143 56.1297 26.707 55.5309 27.2922C54.9456 27.8774 54.5782 28.6056 54.4285 29.4767ZM69.3653 35.5605C68.3309 35.5605 67.4258 35.3291 66.65 34.8664C65.8742 34.39 65.2686 33.7503 64.833 32.9473C64.4111 32.1443 64.2001 31.2596 64.2001 30.2933C64.2001 29.3133 64.4043 28.4287 64.8126 27.6393C65.2209 26.8363 65.8062 26.2034 66.5683 25.7406C67.3305 25.2643 68.2288 25.0261 69.2632 25.0261C70.3112 25.0261 71.2095 25.2643 71.958 25.7406C72.7202 26.2034 73.3055 26.8363 73.7138 27.6393C74.1221 28.4287 74.3262 29.3133 74.3262 30.2933V30.9057H65.7721C65.8538 31.5046 66.0443 32.0558 66.3438 32.5594C66.6568 33.0494 67.0719 33.4441 67.5891 33.7435C68.1063 34.0293 68.7052 34.1722 69.3857 34.1722C70.107 34.1722 70.7127 34.0157 71.2027 33.7027C71.6926 33.376 72.0737 32.9609 72.3459 32.4573H74.02C73.6661 33.3692 73.1013 34.1178 72.3255 34.703C71.5633 35.2747 70.5766 35.5605 69.3653 35.5605ZM65.7926 29.4767H72.7338C72.5977 28.6056 72.2302 27.8774 71.6314 27.2922C71.0325 26.707 70.2431 26.4143 69.2632 26.4143C68.2832 26.4143 67.4938 26.707 66.895 27.2922C66.3097 27.8774 65.9423 28.6056 65.7926 29.4767ZM80.5048 35.5605C79.5112 35.5605 78.6402 35.3291 77.8916 34.8664C77.1567 34.39 76.585 33.7503 76.1767 32.9473C75.7684 32.1443 75.5642 31.2596 75.5642 30.2933C75.5642 29.3133 75.7684 28.4287 76.1767 27.6393C76.585 26.8363 77.1567 26.2034 77.8916 25.7406C78.6402 25.2643 79.5112 25.0261 80.5048 25.0261C81.3486 25.0261 82.07 25.1894 82.6688 25.5161C83.2813 25.8427 83.7781 26.285 84.1592 26.8431V21.1063H85.6903V35.3972H84.1592V33.7639C83.7781 34.3083 83.2813 34.7439 82.6688 35.0705C82.07 35.3972 81.3486 35.5605 80.5048 35.5605ZM80.709 34.1722C81.4711 34.1722 82.1108 33.9953 82.628 33.6414C83.1588 33.2876 83.5603 32.818 83.8325 32.2328C84.1047 31.6339 84.2408 30.9874 84.2408 30.2933C84.2408 29.5855 84.1047 28.9391 83.8325 28.3538C83.5603 27.7686 83.1588 27.299 82.628 26.9451C82.1108 26.5913 81.4711 26.4143 80.709 26.4143C79.9604 26.4143 79.3139 26.5913 78.7695 26.9451C78.2251 27.299 77.81 27.7686 77.5241 28.3538C77.2383 28.9391 77.0954 29.5855 77.0954 30.2933C77.0954 30.9874 77.2383 31.6339 77.5241 32.2328C77.81 32.818 78.2251 33.2876 78.7695 33.6414C79.3139 33.9953 79.9604 34.1722 80.709 34.1722ZM93.5243 35.5605C92.6805 35.5605 91.9523 35.3972 91.3399 35.0705C90.741 34.7439 90.251 34.3083 89.8699 33.7639V35.3972H88.3388V21.1063H89.8699V26.8431C90.251 26.285 90.741 25.8427 91.3399 25.5161C91.9523 25.1894 92.6805 25.0261 93.5243 25.0261C94.5179 25.0261 95.3821 25.2643 96.1171 25.7406C96.8656 26.2034 97.4441 26.8363 97.8524 27.6393C98.2607 28.4287 98.4649 29.3133 98.4649 30.2933C98.4649 31.2596 98.2607 32.1443 97.8524 32.9473C97.4441 33.7503 96.8656 34.39 96.1171 34.8664C95.3821 35.3291 94.5179 35.5605 93.5243 35.5605ZM93.3202 34.1722C94.0823 34.1722 94.7288 33.9953 95.2596 33.6414C95.804 33.2876 96.2192 32.818 96.505 32.2328C96.7908 31.6339 96.9337 30.9874 96.9337 30.2933C96.9337 29.5855 96.7908 28.9391 96.505 28.3538C96.2192 27.7686 95.804 27.299 95.2596 26.9451C94.7288 26.5913 94.0823 26.4143 93.3202 26.4143C92.5716 26.4143 91.9319 26.5913 91.4011 26.9451C90.8703 27.299 90.4688 27.7686 90.1966 28.3538C89.9244 28.9391 89.7883 29.5855 89.7883 30.2933C89.7883 30.9874 89.9244 31.6339 90.1966 32.2328C90.4688 32.818 90.8703 33.2876 91.4011 33.6414C91.9319 33.9953 92.5716 34.1722 93.3202 34.1722ZM104.788 35.5605C103.795 35.5605 102.923 35.3291 102.175 34.8664C101.44 34.39 100.868 33.7503 100.46 32.9473C100.052 32.1443 99.8475 31.2596 99.8475 30.2933C99.8475 29.3133 100.052 28.4287 100.46 27.6393C100.868 26.8363 101.44 26.2034 102.175 25.7406C102.923 25.2643 103.795 25.0261 104.788 25.0261C105.632 25.0261 106.353 25.1894 106.952 25.5161C107.565 25.8427 108.061 26.285 108.442 26.8431V25.1894H109.974V35.3972H108.442V33.7639C108.061 34.3083 107.565 34.7439 106.952 35.0705C106.353 35.3972 105.632 35.5605 104.788 35.5605ZM104.992 34.1722C105.754 34.1722 106.394 33.9953 106.911 33.6414C107.442 33.2876 107.844 32.818 108.116 32.2328C108.388 31.6339 108.524 30.9874 108.524 30.2933C108.524 29.5855 108.388 28.9391 108.116 28.3538C107.844 27.7686 107.442 27.299 106.911 26.9451C106.394 26.5913 105.754 26.4143 104.992 26.4143C104.244 26.4143 103.597 26.5913 103.053 26.9451C102.508 27.299 102.093 27.7686 101.807 28.3538C101.522 28.9391 101.379 29.5855 101.379 30.2933C101.379 30.9874 101.522 31.6339 101.807 32.2328C102.093 32.818 102.508 33.2876 103.053 33.6414C103.597 33.9953 104.244 34.1722 104.992 34.1722ZM117.011 35.5605C115.991 35.5605 115.106 35.3291 114.357 34.8664C113.609 34.39 113.024 33.7503 112.602 32.9473C112.193 32.1443 111.989 31.2596 111.989 30.2933C111.989 29.3133 112.193 28.4287 112.602 27.6393C113.024 26.8363 113.609 26.2034 114.357 25.7406C115.106 25.2643 115.991 25.0261 117.011 25.0261C118.223 25.0261 119.25 25.3391 120.094 25.9652C120.952 26.5913 121.53 27.4011 121.829 28.3946H120.176C119.944 27.8094 119.57 27.333 119.053 26.9656C118.549 26.5981 117.937 26.4143 117.216 26.4143C116.467 26.4143 115.814 26.5913 115.256 26.9451C114.698 27.299 114.269 27.7686 113.969 28.3538C113.67 28.9391 113.52 29.5855 113.52 30.2933C113.52 30.9874 113.67 31.6339 113.969 32.2328C114.269 32.818 114.698 33.2876 115.256 33.6414C115.814 33.9953 116.467 34.1722 117.216 34.1722C117.937 34.1722 118.549 33.9885 119.053 33.621C119.57 33.2535 119.944 32.7772 120.176 32.1919H121.829C121.53 33.1855 120.952 33.9953 120.094 34.6214C119.25 35.2474 118.223 35.5605 117.011 35.5605ZM123.727 35.3972V21.1063H125.258V30.2524L130.178 25.1894H132.322L128.218 29.2113L132.628 35.3972H130.75L127.177 30.2729L125.258 32.1715V35.3972H123.727ZM139.875 35.5605C138.759 35.5605 137.765 35.3155 136.894 34.8255C136.037 34.3219 135.363 33.621 134.873 32.7227C134.383 31.8244 134.138 30.7764 134.138 29.5787V21.8821H135.669V29.6196C135.669 30.6676 135.866 31.5182 136.261 32.1715C136.669 32.8248 137.193 33.308 137.833 33.621C138.486 33.9204 139.167 34.0701 139.875 34.0701C140.596 34.0701 141.277 33.9204 141.916 33.621C142.556 33.308 143.08 32.8248 143.488 32.1715C143.897 31.5182 144.101 30.6676 144.101 29.6196V21.8821H145.632V29.5787C145.632 30.7628 145.387 31.804 144.897 32.7023C144.407 33.6006 143.726 34.3015 142.855 34.8051C141.998 35.3087 141.004 35.5605 139.875 35.5605ZM148.23 39.4394V25.1894H149.761V26.8226C150.142 26.2646 150.632 25.8291 151.231 25.5161C151.843 25.1894 152.571 25.0261 153.415 25.0261C154.409 25.0261 155.273 25.2643 156.008 25.7406C156.756 26.2034 157.335 26.8363 157.743 27.6393C158.152 28.4287 158.356 29.3133 158.356 30.2933C158.356 31.2596 158.152 32.1443 157.743 32.9473C157.335 33.7503 156.756 34.39 156.008 34.8664C155.273 35.3291 154.409 35.5605 153.415 35.5605C152.571 35.5605 151.843 35.3972 151.231 35.0705C150.632 34.7302 150.142 34.2879 149.761 33.7435V39.4394H148.23ZM153.211 34.1722C153.973 34.1722 154.62 33.9953 155.15 33.6414C155.695 33.2876 156.11 32.818 156.396 32.2328C156.682 31.6339 156.825 30.9874 156.825 30.2933C156.825 29.5855 156.682 28.9391 156.396 28.3538C156.11 27.7686 155.695 27.299 155.15 26.9451C154.62 26.5913 153.973 26.4143 153.211 26.4143C152.462 26.4143 151.823 26.5913 151.292 26.9451C150.761 27.299 150.36 27.7686 150.087 28.3538C149.815 28.9391 149.679 29.5855 149.679 30.2933C149.679 30.9874 149.815 31.6339 150.087 32.2328C150.36 32.818 150.761 33.2876 151.292 33.6414C151.823 33.9953 152.462 34.1722 153.211 34.1722Z" fill="#335EEA"/>
<path d="M42.1922 35.3972H41.952V35.6373H42.1922V35.3972ZM42.1922 21.8821V21.6419H41.952V21.8821H42.1922ZM51.9508 21.8821H52.191V21.6419H51.9508V21.8821ZM51.9508 23.352V23.5922H52.191V23.352H51.9508ZM43.7234 23.352V23.1118H43.4832V23.352H43.7234ZM43.7234 28.0476H43.4832V28.2878H43.7234V28.0476ZM51.0526 28.0476H51.2927V27.8074H51.0526V28.0476ZM51.0526 29.5379V29.7781H51.2927V29.5379H51.0526ZM43.7234 29.5379V29.2977H43.4832V29.5379H43.7234ZM43.7234 35.3972V35.6373H43.9636V35.3972H43.7234ZM42.4324 35.3972V21.8821H41.952V35.3972H42.4324ZM42.1922 22.1223H51.9508V21.6419H42.1922V22.1223ZM51.7107 21.8821V23.352H52.191V21.8821H51.7107ZM51.9508 23.1118H43.7234V23.5922H51.9508V23.1118ZM43.4832 23.352V28.0476H43.9636V23.352H43.4832ZM43.7234 28.2878H51.0526V27.8074H43.7234V28.2878ZM50.8124 28.0476V29.5379H51.2927V28.0476H50.8124ZM51.0526 29.2977H43.7234V29.7781H51.0526V29.2977ZM43.4832 29.5379V35.3972H43.9636V29.5379H43.4832ZM43.7234 35.157H42.1922V35.6373H43.7234V35.157ZM55.2859 34.8664L55.1602 35.071L55.1629 35.0726L55.2859 34.8664ZM53.4689 32.9473L53.2563 33.059L53.2578 33.0618L53.4689 32.9473ZM53.4485 27.6393L53.6619 27.7496L53.6626 27.7481L53.4485 27.6393ZM55.2042 25.7406L55.3289 25.9459L55.3315 25.9443L55.2042 25.7406ZM60.5939 25.7406L60.465 25.9433L60.4693 25.9459L60.5939 25.7406ZM62.3497 27.6393L62.1356 27.7481L62.1363 27.7496L62.3497 27.6393ZM62.9621 30.9057V31.1459H63.2023V30.9057H62.9621ZM54.408 30.9057V30.6656H54.1329L54.1701 30.9382L54.408 30.9057ZM54.9797 32.5594L54.7731 32.6822L54.7773 32.6887L54.9797 32.5594ZM56.225 33.7435L56.1047 33.9514L56.1088 33.9537L56.225 33.7435ZM59.8386 33.7027L59.9679 33.9051L59.9718 33.9025L59.8386 33.7027ZM60.9818 32.4573V32.2171H60.8386L60.7705 32.3431L60.9818 32.4573ZM62.6559 32.4573L62.8798 32.5442L63.0067 32.2171H62.6559V32.4573ZM60.9614 34.703L61.1055 34.8952L61.1061 34.8948L60.9614 34.703ZM54.4285 29.4767L54.1917 29.436L54.1435 29.7168H54.4285V29.4767ZM61.3697 29.4767V29.7168H61.6504L61.607 29.4396L61.3697 29.4767ZM60.2673 27.2922L60.4352 27.1204L60.4352 27.1204L60.2673 27.2922ZM55.5309 27.2922L55.363 27.1204L55.3611 27.1224L55.5309 27.2922ZM58.0012 35.3203C57.0037 35.3203 56.1424 35.0976 55.4089 34.6601L55.1629 35.0726C55.981 35.5606 56.9299 35.8007 58.0012 35.8007V35.3203ZM55.4116 34.6617C54.6718 34.2074 54.0956 33.5989 53.6801 32.8328L53.2578 33.0618C53.7133 33.9017 54.3484 34.5725 55.1602 35.071L55.4116 34.6617ZM53.6815 32.8356C53.2789 32.0693 53.0762 31.2233 53.0762 30.2933H52.5959C52.5959 31.2959 52.8151 32.2193 53.2563 33.059L53.6815 32.8356ZM53.0762 30.2933C53.0762 29.3477 53.2729 28.5015 53.6618 27.7496L53.2352 27.5289C52.8075 28.3558 52.5959 29.2789 52.5959 30.2933H53.0762ZM53.6626 27.7481C54.0509 26.9845 54.6053 26.3852 55.3289 25.9459L55.0796 25.5353C54.2788 26.0215 53.6628 26.688 53.2344 27.5304L53.6626 27.7481ZM55.3315 25.9443C56.0501 25.4952 56.9028 25.2663 57.8991 25.2663V24.7859C56.8266 24.7859 55.8828 25.0333 55.0769 25.5369L55.3315 25.9443ZM57.8991 25.2663C58.9098 25.2663 59.7615 25.4956 60.465 25.9433L60.7229 25.538C59.9293 25.033 58.9844 24.7859 57.8991 24.7859V25.2663ZM60.4693 25.9459C61.1928 26.3852 61.7473 26.9845 62.1356 27.7481L62.5638 27.5304C62.1354 26.688 61.5194 26.0215 60.7186 25.5353L60.4693 25.9459ZM62.1363 27.7496C62.5253 28.5015 62.722 29.3477 62.722 30.2933H63.2023C63.2023 29.2789 62.9907 28.3558 62.563 27.5289L62.1363 27.7496ZM62.722 30.2933V30.9057H63.2023V30.2933H62.722ZM62.9621 30.6656H54.408V31.1459H62.9621V30.6656ZM54.1701 30.9382C54.2559 31.5679 54.4568 32.15 54.7732 32.6822L55.1861 32.4366C54.9037 31.9616 54.7235 31.4413 54.646 30.8733L54.1701 30.9382ZM54.7773 32.6887C55.1116 33.212 55.5552 33.6332 56.1047 33.9514L56.3454 33.5356C55.8604 33.2549 55.4738 32.8868 55.1821 32.4301L54.7773 32.6887ZM56.1088 33.9537C56.6667 34.262 57.3067 34.4124 58.0216 34.4124V33.932C57.3755 33.932 56.8177 33.7966 56.3412 33.5333L56.1088 33.9537ZM58.0216 34.4124C58.7777 34.4124 59.4309 34.2481 59.9679 33.9051L59.7093 33.5003C59.2662 33.7833 58.7081 33.932 58.0216 33.932V34.4124ZM59.9718 33.9025C60.4934 33.5548 60.9017 33.1106 61.1931 32.5715L60.7705 32.3431C60.5175 32.8112 60.1637 33.1973 59.7053 33.5028L59.9718 33.9025ZM60.9818 32.6975H62.6559V32.2171H60.9818V32.6975ZM62.432 32.3704C62.0942 33.241 61.5567 33.9531 60.8168 34.5113L61.1061 34.8948C61.9178 34.2824 62.5099 33.4975 62.8798 32.5442L62.432 32.3704ZM60.8173 34.5109C60.1068 35.0438 59.1748 35.3203 58.0012 35.3203V35.8007C59.2502 35.8007 60.2917 35.5056 61.1055 34.8952L60.8173 34.5109ZM54.4285 29.7168H61.3697V29.2365H54.4285V29.7168ZM61.607 29.4396C61.4634 28.5202 61.0731 27.7439 60.4352 27.1204L60.0994 27.464C60.6592 28.011 61.0039 28.691 61.1324 29.5137L61.607 29.4396ZM60.4352 27.1204C59.7838 26.4839 58.9303 26.1741 57.8991 26.1741V26.6545C58.8278 26.6545 59.553 26.93 60.0994 27.464L60.4352 27.1204ZM57.8991 26.1741C56.8679 26.1741 56.0143 26.4839 55.363 27.1204L55.6988 27.464C56.2452 26.93 56.9704 26.6545 57.8991 26.6545V26.1741ZM55.3611 27.1224C54.7383 27.7451 54.3493 28.5195 54.1917 29.436L54.6652 29.5173C54.8071 28.6917 55.153 28.0097 55.7007 27.462L55.3611 27.1224ZM66.65 34.8664L66.5243 35.071L66.527 35.0726L66.65 34.8664ZM64.833 32.9473L64.6204 33.059L64.6219 33.0618L64.833 32.9473ZM64.8126 27.6393L65.026 27.7496L65.0267 27.7481L64.8126 27.6393ZM66.5683 25.7406L66.693 25.9459L66.6956 25.9443L66.5683 25.7406ZM71.958 25.7406L71.8291 25.9433L71.8334 25.9459L71.958 25.7406ZM73.7138 27.6393L73.4997 27.7481L73.5004 27.7496L73.7138 27.6393ZM74.3262 30.9057V31.1459H74.5664V30.9057H74.3262ZM65.7721 30.9057V30.6656H65.497L65.5342 30.9382L65.7721 30.9057ZM66.3438 32.5594L66.1372 32.6822L66.1414 32.6887L66.3438 32.5594ZM67.5891 33.7435L67.4688 33.9514L67.4729 33.9537L67.5891 33.7435ZM71.2027 33.7027L71.332 33.9051L71.3359 33.9025L71.2027 33.7027ZM72.3459 32.4573V32.2171H72.2027L72.1346 32.3431L72.3459 32.4573ZM74.02 32.4573L74.2439 32.5442L74.3708 32.2171H74.02V32.4573ZM72.3255 34.703L72.4696 34.8952L72.4702 34.8948L72.3255 34.703ZM65.7926 29.4767L65.5558 29.436L65.5076 29.7168H65.7926V29.4767ZM72.7338 29.4767V29.7168H73.0145L72.9711 29.4396L72.7338 29.4767ZM71.6314 27.2922L71.7993 27.1204L71.7993 27.1204L71.6314 27.2922ZM66.895 27.2922L66.7271 27.1204L66.7252 27.1224L66.895 27.2922ZM69.3653 35.3203C68.3678 35.3203 67.5065 35.0976 66.773 34.6601L66.527 35.0726C67.3451 35.5606 68.294 35.8007 69.3653 35.8007V35.3203ZM66.7757 34.6617C66.0359 34.2074 65.4597 33.5989 65.0442 32.8328L64.6219 33.0618C65.0774 33.9017 65.7125 34.5725 66.5243 35.071L66.7757 34.6617ZM65.0456 32.8356C64.643 32.0693 64.4403 31.2233 64.4403 30.2933H63.96C63.96 31.2959 64.1792 32.2193 64.6204 33.059L65.0456 32.8356ZM64.4403 30.2933C64.4403 29.3477 64.637 28.5015 65.0259 27.7496L64.5993 27.5289C64.1716 28.3558 63.96 29.2789 63.96 30.2933H64.4403ZM65.0267 27.7481C65.415 26.9845 65.9694 26.3852 66.693 25.9459L66.4437 25.5353C65.6429 26.0215 65.0269 26.688 64.5985 27.5304L65.0267 27.7481ZM66.6956 25.9443C67.4142 25.4952 68.2669 25.2663 69.2632 25.2663V24.7859C68.1907 24.7859 67.2469 25.0333 66.441 25.5369L66.6956 25.9443ZM69.2632 25.2663C70.2739 25.2663 71.1256 25.4956 71.8291 25.9433L72.087 25.538C71.2934 25.033 70.3485 24.7859 69.2632 24.7859V25.2663ZM71.8334 25.9459C72.5569 26.3852 73.1114 26.9845 73.4997 27.7481L73.9279 27.5304C73.4995 26.688 72.8835 26.0215 72.0827 25.5353L71.8334 25.9459ZM73.5004 27.7496C73.8894 28.5015 74.0861 29.3477 74.0861 30.2933H74.5664C74.5664 29.2789 74.3548 28.3558 73.9271 27.5289L73.5004 27.7496ZM74.0861 30.2933V30.9057H74.5664V30.2933H74.0861ZM74.3262 30.6656H65.7721V31.1459H74.3262V30.6656ZM65.5342 30.9382C65.62 31.5679 65.8209 32.15 66.1373 32.6822L66.5502 32.4366C66.2678 31.9616 66.0876 31.4413 66.0101 30.8733L65.5342 30.9382ZM66.1414 32.6887C66.4757 33.212 66.9193 33.6332 67.4688 33.9514L67.7095 33.5356C67.2245 33.2549 66.8379 32.8868 66.5462 32.4301L66.1414 32.6887ZM67.4729 33.9537C68.0308 34.262 68.6708 34.4124 69.3857 34.4124V33.932C68.7396 33.932 68.1818 33.7966 67.7053 33.5333L67.4729 33.9537ZM69.3857 34.4124C70.1418 34.4124 70.795 34.2481 71.332 33.9051L71.0734 33.5003C70.6303 33.7833 70.0722 33.932 69.3857 33.932V34.4124ZM71.3359 33.9025C71.8575 33.5548 72.2658 33.1106 72.5572 32.5715L72.1346 32.3431C71.8816 32.8112 71.5278 33.1973 71.0694 33.5028L71.3359 33.9025ZM72.3459 32.6975H74.02V32.2171H72.3459V32.6975ZM73.7961 32.3704C73.4583 33.241 72.9208 33.9531 72.1809 34.5113L72.4702 34.8948C73.2819 34.2824 73.874 33.4975 74.2439 32.5442L73.7961 32.3704ZM72.1814 34.5109C71.4709 35.0438 70.5389 35.3203 69.3653 35.3203V35.8007C70.6143 35.8007 71.6558 35.5056 72.4696 34.8952L72.1814 34.5109ZM65.7926 29.7168H72.7338V29.2365H65.7926V29.7168ZM72.9711 29.4396C72.8275 28.5202 72.4372 27.7439 71.7993 27.1204L71.4635 27.464C72.0233 28.011 72.368 28.691 72.4965 29.5137L72.9711 29.4396ZM71.7993 27.1204C71.1479 26.4839 70.2944 26.1741 69.2632 26.1741V26.6545C70.1919 26.6545 70.9171 26.93 71.4635 27.464L71.7993 27.1204ZM69.2632 26.1741C68.232 26.1741 67.3784 26.4839 66.7271 27.1204L67.0629 27.464C67.6093 26.93 68.3345 26.6545 69.2632 26.6545V26.1741ZM66.7252 27.1224C66.1024 27.7451 65.7134 28.5195 65.5558 29.436L66.0293 29.5173C66.1712 28.6917 66.5171 28.0097 67.0648 27.462L66.7252 27.1224ZM77.8916 34.8664L77.7609 35.0679L77.7653 35.0707L77.8916 34.8664ZM76.1767 27.6393L76.39 27.7496L76.3908 27.7481L76.1767 27.6393ZM77.8916 25.7406L78.0196 25.9439L78.0206 25.9433L77.8916 25.7406ZM82.6688 25.5161L82.5538 25.7269L82.5558 25.728L82.6688 25.5161ZM84.1592 26.8431L83.9608 26.9785L84.3994 27.6206V26.8431H84.1592ZM84.1592 21.1063V20.8661H83.919V21.1063H84.1592ZM85.6903 21.1063H85.9305V20.8661H85.6903V21.1063ZM85.6903 35.3972V35.6373H85.9305V35.3972H85.6903ZM84.1592 35.3972H83.919V35.6373H84.1592V35.3972ZM84.1592 33.7639H84.3994V33.002L83.9624 33.6262L84.1592 33.7639ZM82.6688 35.0705L82.5558 34.8586L82.5538 34.8597L82.6688 35.0705ZM82.628 33.6414L82.4948 33.4416L82.4924 33.4432L82.628 33.6414ZM83.8325 32.2328L84.0503 32.334L84.0512 32.3321L83.8325 32.2328ZM83.8325 28.3538L83.6147 28.4551L83.6147 28.4551L83.8325 28.3538ZM82.628 26.9451L82.4924 27.1434L82.4948 27.145L82.628 26.9451ZM78.7695 26.9451L78.6386 26.7438L78.6386 26.7438L78.7695 26.9451ZM77.5241 28.3538L77.3083 28.2484L77.3083 28.2484L77.5241 28.3538ZM77.5241 32.2328L77.3074 32.3362L77.3083 32.3382L77.5241 32.2328ZM78.7695 33.6414L78.9004 33.44L78.9004 33.44L78.7695 33.6414ZM80.5048 35.3203C79.55 35.3203 78.7238 35.0984 78.0179 34.6621L77.7653 35.0707C78.5566 35.5598 79.4725 35.8007 80.5048 35.8007V35.3203ZM78.0222 34.6648C77.3238 34.2121 76.7805 33.6049 76.3908 32.8384L75.9626 33.0562C76.3895 33.8957 76.9895 34.5679 77.761 35.0679L78.0222 34.6648ZM76.3908 32.8384C76.0009 32.0716 75.8044 31.2246 75.8044 30.2933H75.3241C75.3241 31.2946 75.5359 32.217 75.9626 33.0562L76.3908 32.8384ZM75.8044 30.2933C75.8044 29.3477 76.0011 28.5015 76.39 27.7496L75.9634 27.5289C75.5357 28.3558 75.3241 29.2789 75.3241 30.2933H75.8044ZM76.3908 27.7481C76.7802 26.9823 77.3227 26.3826 78.0196 25.9439L77.7636 25.5374C76.9906 26.0241 76.3898 26.6902 75.9626 27.5304L76.3908 27.7481ZM78.0206 25.9433C78.7261 25.4943 79.5513 25.2663 80.5048 25.2663V24.7859C79.4712 24.7859 78.5543 25.0342 77.7627 25.538L78.0206 25.9433ZM80.5048 25.2663C81.3179 25.2663 81.9977 25.4235 82.5538 25.7269L82.7839 25.3052C82.1423 24.9553 81.3794 24.7859 80.5048 24.7859V25.2663ZM82.5558 25.728C83.1351 26.0369 83.6022 26.4534 83.9608 26.9785L84.3575 26.7076C83.954 26.1167 83.4276 25.6485 82.7819 25.3041L82.5558 25.728ZM84.3994 26.8431V21.1063H83.919V26.8431H84.3994ZM84.1592 21.3465H85.6903V20.8661H84.1592V21.3465ZM85.4502 21.1063V35.3972H85.9305V21.1063H85.4502ZM85.6903 35.157H84.1592V35.6373H85.6903V35.157ZM84.3994 35.3972V33.7639H83.919V35.3972H84.3994ZM83.9624 33.6262C83.604 34.1382 83.1364 34.5489 82.5558 34.8586L82.7819 35.2824C83.4262 34.9388 83.9522 34.4784 84.3559 33.9017L83.9624 33.6262ZM82.5538 34.8597C81.9977 35.163 81.3179 35.3203 80.5048 35.3203V35.8007C81.3794 35.8007 82.1423 35.6313 82.7839 35.2814L82.5538 34.8597ZM80.709 34.4124C81.5089 34.4124 82.1986 34.2263 82.7636 33.8396L82.4924 33.4432C82.0231 33.7643 81.4333 33.932 80.709 33.932V34.4124ZM82.7612 33.8413C83.3292 33.4626 83.7597 32.9588 84.0503 32.334L83.6147 32.1315C83.3609 32.6772 82.9884 33.1125 82.4948 33.4416L82.7612 33.8413ZM84.0512 32.3321C84.3384 31.7004 84.481 31.0198 84.481 30.2933H84.0007C84.0007 30.9551 83.8711 31.5674 83.6139 32.1334L84.0512 32.3321ZM84.481 30.2933C84.481 29.554 84.3386 28.8724 84.0503 28.2525L83.6147 28.4551C83.8708 29.0057 84.0007 29.6171 84.0007 30.2933H84.481ZM84.0503 28.2525C83.7597 27.6278 83.3292 27.1239 82.7612 26.7453L82.4948 27.145C82.9884 27.4741 83.3609 27.9093 83.6147 28.4551L84.0503 28.2525ZM82.7636 26.7469C82.1986 26.3603 81.5089 26.1741 80.709 26.1741V26.6545C81.4333 26.6545 82.0231 26.8223 82.4924 27.1434L82.7636 26.7469ZM80.709 26.1741C79.9212 26.1741 79.2276 26.3609 78.6386 26.7438L78.9004 27.1465C79.4001 26.8217 79.9996 26.6545 80.709 26.6545V26.1741ZM78.6386 26.7438C78.0576 27.1214 77.6132 27.6242 77.3083 28.2484L77.74 28.4592C78.0067 27.9129 78.3926 27.4766 78.9004 27.1465L78.6386 26.7438ZM77.3083 28.2484C77.0051 28.8692 76.8552 29.5522 76.8552 30.2933H77.3356C77.3356 29.6189 77.4715 29.0089 77.74 28.4592L77.3083 28.2484ZM76.8552 30.2933C76.8552 31.0215 77.0054 31.7035 77.3074 32.3362L77.7409 32.1293C77.4712 31.5642 77.3356 30.9533 77.3356 30.2933H76.8552ZM77.3083 32.3382C77.6132 32.9624 78.0576 33.4651 78.6386 33.8428L78.9004 33.44C78.3926 33.11 78.0067 32.6736 77.74 32.1274L77.3083 32.3382ZM78.6386 33.8428C79.2276 34.2257 79.9212 34.4124 80.709 34.4124V33.932C79.9996 33.932 79.4001 33.7649 78.9004 33.44L78.6386 33.8428ZM91.3399 35.0705L91.2248 35.2814L91.2268 35.2824L91.3399 35.0705ZM89.8699 33.7639L90.0667 33.6262L89.6298 33.002V33.7639H89.8699ZM89.8699 35.3972V35.6373H90.1101V35.3972H89.8699ZM88.3388 35.3972H88.0986V35.6373H88.3388V35.3972ZM88.3388 21.1063V20.8661H88.0986V21.1063H88.3388ZM89.8699 21.1063H90.1101V20.8661H89.8699V21.1063ZM89.8699 26.8431H89.6298V27.6206L90.0683 26.9785L89.8699 26.8431ZM91.3399 25.5161L91.2268 25.3041L91.2248 25.3052L91.3399 25.5161ZM96.1171 25.7406L95.9864 25.9422L95.9908 25.9449L96.1171 25.7406ZM97.8524 27.6393L97.6383 27.7481L97.6391 27.7496L97.8524 27.6393ZM97.8524 32.9473L97.6383 32.8384L97.6383 32.8384L97.8524 32.9473ZM96.1171 34.8664L96.2451 35.0696L96.246 35.069L96.1171 34.8664ZM95.2596 33.6414L95.1287 33.44L95.1264 33.4416L95.2596 33.6414ZM96.505 32.2328L96.7208 32.3382L96.7217 32.3362L96.505 32.2328ZM96.505 28.3538L96.7208 28.2484L96.7208 28.2484L96.505 28.3538ZM95.2596 26.9451L95.1264 27.145L95.1287 27.1465L95.2596 26.9451ZM91.4011 26.9451L91.2679 26.7453L91.2679 26.7453L91.4011 26.9451ZM90.1966 28.3538L89.9788 28.2525L89.9788 28.2525L90.1966 28.3538ZM90.1966 32.2328L89.9779 32.3321L89.9788 32.334L90.1966 32.2328ZM91.4011 33.6414L91.2679 33.8413L91.2679 33.8413L91.4011 33.6414ZM93.5243 35.3203C92.7115 35.3203 92.0238 35.1631 91.4529 34.8586L91.2268 35.2824C91.8808 35.6312 92.6495 35.8007 93.5243 35.8007V35.3203ZM91.4549 34.8597C90.8876 34.5503 90.426 34.1394 90.0667 33.6262L89.6732 33.9017C90.0761 34.4772 90.5944 34.9375 91.2248 35.2814L91.4549 34.8597ZM89.6298 33.7639V35.3972H90.1101V33.7639H89.6298ZM89.8699 35.157H88.3388V35.6373H89.8699V35.157ZM88.579 35.3972V21.1063H88.0986V35.3972H88.579ZM88.3388 21.3465H89.8699V20.8661H88.3388V21.3465ZM89.6298 21.1063V26.8431H90.1101V21.1063H89.6298ZM90.0683 26.9785C90.4277 26.4522 90.889 26.0355 91.4549 25.7269L91.2248 25.3052C90.593 25.6499 90.0743 26.1179 89.6716 26.7076L90.0683 26.9785ZM91.4529 25.728C92.0238 25.4235 92.7115 25.2663 93.5243 25.2663V24.7859C92.6495 24.7859 91.8808 24.9553 91.2268 25.3041L91.4529 25.728ZM93.5243 25.2663C94.4779 25.2663 95.2954 25.4943 95.9864 25.9422L96.2477 25.5391C95.4688 25.0342 94.5578 24.7859 93.5243 24.7859V25.2663ZM95.9908 25.9449C96.701 26.3839 97.2495 26.9834 97.6383 27.7481L98.0665 27.5304C97.6387 26.6891 97.0303 26.0228 96.2434 25.5363L95.9908 25.9449ZM97.6391 27.7496C98.028 28.5015 98.2247 29.3477 98.2247 30.2933H98.705C98.705 29.2789 98.4934 28.3558 98.0657 27.5289L97.6391 27.7496ZM98.2247 30.2933C98.2247 31.2246 98.0282 32.0716 97.6383 32.8384L98.0665 33.0562C98.4932 32.217 98.705 31.2946 98.705 30.2933H98.2247ZM97.6383 32.8384C97.2492 33.6037 96.6999 34.2108 95.9881 34.6637L96.246 35.069C97.0314 34.5692 97.639 33.8969 98.0665 33.0562L97.6383 32.8384ZM95.9891 34.6631C95.2978 35.0984 94.4793 35.3203 93.5243 35.3203V35.8007C94.5565 35.8007 95.4665 35.5598 96.2451 35.0696L95.9891 34.6631ZM93.3202 34.4124C94.1204 34.4124 94.8155 34.2262 95.3929 33.8413L95.1264 33.4416C94.6422 33.7644 94.0443 33.932 93.3202 33.932V34.4124ZM95.3905 33.8428C95.9715 33.4651 96.4159 32.9624 96.7208 32.3382L96.2892 32.1274C96.0224 32.6736 95.6366 33.11 95.1287 33.44L95.3905 33.8428ZM96.7217 32.3362C97.0237 31.7035 97.1739 31.0215 97.1739 30.2933H96.6935C96.6935 30.9533 96.5579 31.5642 96.2882 32.1293L96.7217 32.3362ZM97.1739 30.2933C97.1739 29.5522 97.024 28.8692 96.7208 28.2484L96.2892 28.4592C96.5576 29.0089 96.6935 29.6189 96.6935 30.2933H97.1739ZM96.7208 28.2484C96.4159 27.6242 95.9715 27.1214 95.3905 26.7438L95.1287 27.1465C95.6366 27.4766 96.0224 27.9129 96.2892 28.4592L96.7208 28.2484ZM95.3929 26.7453C94.8155 26.3604 94.1204 26.1741 93.3202 26.1741V26.6545C94.0443 26.6545 94.6422 26.8222 95.1264 27.145L95.3929 26.7453ZM93.3202 26.1741C92.5326 26.1741 91.8446 26.3608 91.2679 26.7453L91.5343 27.145C92.0192 26.8217 92.6106 26.6545 93.3202 26.6545V26.1741ZM91.2679 26.7453C90.6999 27.1239 90.2694 27.6278 89.9788 28.2525L90.4144 28.4551C90.6682 27.9093 91.0407 27.4741 91.5343 27.145L91.2679 26.7453ZM89.9788 28.2525C89.6905 28.8724 89.5481 29.554 89.5481 30.2933H90.0285C90.0285 29.6171 90.1583 29.0057 90.4144 28.4551L89.9788 28.2525ZM89.5481 30.2933C89.5481 31.0198 89.6908 31.7004 89.9779 32.3321L90.4152 32.1334C90.158 31.5674 90.0285 30.9551 90.0285 30.2933H89.5481ZM89.9788 32.334C90.2694 32.9588 90.6999 33.4626 91.2679 33.8413L91.5343 33.4416C91.0407 33.1125 90.6682 32.6772 90.4144 32.1315L89.9788 32.334ZM91.2679 33.8413C91.8446 34.2257 92.5326 34.4124 93.3202 34.4124V33.932C92.6106 33.932 92.0192 33.7648 91.5343 33.4416L91.2679 33.8413ZM102.175 34.8664L102.044 35.0679L102.049 35.0707L102.175 34.8664ZM100.46 27.6393L100.673 27.7496L100.674 27.7481L100.46 27.6393ZM102.175 25.7406L102.303 25.9439L102.304 25.9433L102.175 25.7406ZM106.952 25.5161L106.837 25.7269L106.839 25.728L106.952 25.5161ZM108.442 26.8431L108.244 26.9785L108.683 27.6206V26.8431H108.442ZM108.442 25.1894V24.9492H108.202V25.1894H108.442ZM109.974 25.1894H110.214V24.9492H109.974V25.1894ZM109.974 35.3972V35.6373H110.214V35.3972H109.974ZM108.442 35.3972H108.202V35.6373H108.442V35.3972ZM108.442 33.7639H108.683V33.002L108.246 33.6262L108.442 33.7639ZM106.952 35.0705L106.839 34.8586L106.837 34.8597L106.952 35.0705ZM106.911 33.6414L106.778 33.4416L106.776 33.4432L106.911 33.6414ZM108.116 32.2328L108.334 32.334L108.334 32.3321L108.116 32.2328ZM108.116 28.3538L107.898 28.4551L107.898 28.4551L108.116 28.3538ZM106.911 26.9451L106.776 27.1434L106.778 27.145L106.911 26.9451ZM103.053 26.9451L102.922 26.7438L102.922 26.7438L103.053 26.9451ZM101.807 28.3538L101.592 28.2484L101.592 28.2484L101.807 28.3538ZM101.807 32.2328L101.591 32.3362L101.592 32.3382L101.807 32.2328ZM103.053 33.6414L103.184 33.44L103.184 33.44L103.053 33.6414ZM104.788 35.3203C103.833 35.3203 103.007 35.0984 102.301 34.6621L102.049 35.0707C102.84 35.5598 103.756 35.8007 104.788 35.8007V35.3203ZM102.306 34.6648C101.607 34.2121 101.064 33.6049 100.674 32.8384L100.246 33.0562C100.673 33.8957 101.273 34.5679 102.044 35.0679L102.306 34.6648ZM100.674 32.8384C100.284 32.0716 100.088 31.2246 100.088 30.2933H99.6073C99.6073 31.2946 99.8192 32.217 100.246 33.0562L100.674 32.8384ZM100.088 30.2933C100.088 29.3477 100.284 28.5015 100.673 27.7496L100.247 27.5289C99.819 28.3558 99.6073 29.2789 99.6073 30.2933H100.088ZM100.674 27.7481C101.064 26.9823 101.606 26.3826 102.303 25.9439L102.047 25.5374C101.274 26.0241 100.673 26.6902 100.246 27.5304L100.674 27.7481ZM102.304 25.9433C103.009 25.4943 103.835 25.2663 104.788 25.2663V24.7859C103.754 24.7859 102.838 25.0342 102.046 25.538L102.304 25.9433ZM104.788 25.2663C105.601 25.2663 106.281 25.4235 106.837 25.7269L107.067 25.3052C106.426 24.9553 105.663 24.7859 104.788 24.7859V25.2663ZM106.839 25.728C107.418 26.0369 107.885 26.4534 108.244 26.9785L108.641 26.7076C108.237 26.1167 107.711 25.6485 107.065 25.3041L106.839 25.728ZM108.683 26.8431V25.1894H108.202V26.8431H108.683ZM108.442 25.4296H109.974V24.9492H108.442V25.4296ZM109.733 25.1894V35.3972H110.214V25.1894H109.733ZM109.974 35.157H108.442V35.6373H109.974V35.157ZM108.683 35.3972V33.7639H108.202V35.3972H108.683ZM108.246 33.6262C107.887 34.1382 107.42 34.5489 106.839 34.8586L107.065 35.2824C107.709 34.9388 108.235 34.4784 108.639 33.9017L108.246 33.6262ZM106.837 34.8597C106.281 35.163 105.601 35.3203 104.788 35.3203V35.8007C105.663 35.8007 106.426 35.6313 107.067 35.2814L106.837 34.8597ZM104.992 34.4124C105.792 34.4124 106.482 34.2263 107.047 33.8396L106.776 33.4432C106.306 33.7643 105.717 33.932 104.992 33.932V34.4124ZM107.045 33.8413C107.612 33.4626 108.043 32.9588 108.334 32.334L107.898 32.1315C107.644 32.6772 107.272 33.1125 106.778 33.4416L107.045 33.8413ZM108.334 32.3321C108.622 31.7004 108.764 31.0198 108.764 30.2933H108.284C108.284 30.9551 108.154 31.5674 107.897 32.1334L108.334 32.3321ZM108.764 30.2933C108.764 29.554 108.622 28.8724 108.334 28.2525L107.898 28.4551C108.154 29.0057 108.284 29.6171 108.284 30.2933H108.764ZM108.334 28.2525C108.043 27.6278 107.612 27.1239 107.045 26.7453L106.778 27.145C107.272 27.4741 107.644 27.9093 107.898 28.4551L108.334 28.2525ZM107.047 26.7469C106.482 26.3603 105.792 26.1741 104.992 26.1741V26.6545C105.717 26.6545 106.306 26.8223 106.776 27.1434L107.047 26.7469ZM104.992 26.1741C104.204 26.1741 103.511 26.3609 102.922 26.7438L103.184 27.1465C103.683 26.8217 104.283 26.6545 104.992 26.6545V26.1741ZM102.922 26.7438C102.341 27.1214 101.896 27.6242 101.592 28.2484L102.023 28.4592C102.29 27.9129 102.676 27.4766 103.184 27.1465L102.922 26.7438ZM101.592 28.2484C101.288 28.8692 101.139 29.5522 101.139 30.2933H101.619C101.619 29.6189 101.755 29.0089 102.023 28.4592L101.592 28.2484ZM101.139 30.2933C101.139 31.0215 101.289 31.7035 101.591 32.3362L102.024 32.1293C101.754 31.5642 101.619 30.9533 101.619 30.2933H101.139ZM101.592 32.3382C101.896 32.9624 102.341 33.4651 102.922 33.8428L103.184 33.44C102.676 33.11 102.29 32.6736 102.023 32.1274L101.592 32.3382ZM102.922 33.8428C103.511 34.2257 104.204 34.4124 104.992 34.4124V33.932C104.283 33.932 103.683 33.7649 103.184 33.44L102.922 33.8428ZM114.357 34.8664L114.228 35.069L114.231 35.0707L114.357 34.8664ZM112.602 32.9473L112.388 33.0562L112.389 33.059L112.602 32.9473ZM112.602 27.6393L112.389 27.5275L112.388 27.5289L112.602 27.6393ZM114.357 25.7406L114.484 25.9449L114.486 25.9433L114.357 25.7406ZM120.094 25.9652L119.951 26.1581L119.953 26.1592L120.094 25.9652ZM121.829 28.3946V28.6348H122.153L122.059 28.3253L121.829 28.3946ZM120.176 28.3946L119.952 28.4829L120.012 28.6348H120.176V28.3946ZM119.053 26.9656L118.911 27.1596L118.914 27.1613L119.053 26.9656ZM115.256 26.9451L115.127 26.7423L115.127 26.7423L115.256 26.9451ZM113.969 28.3538L113.756 28.2444L113.756 28.2444L113.969 28.3538ZM113.969 32.2328L113.755 32.3402L113.756 32.3421L113.969 32.2328ZM115.256 33.6414L115.127 33.8443L115.127 33.8443L115.256 33.6414ZM119.053 33.621L118.914 33.4252L118.911 33.427L119.053 33.621ZM120.176 32.1919V31.9517H120.012L119.952 32.1036L120.176 32.1919ZM121.829 32.1919L122.059 32.2612L122.153 31.9517H121.829V32.1919ZM120.094 34.6214L119.952 34.4274L119.951 34.4285L120.094 34.6214ZM117.011 35.3203C116.028 35.3203 115.189 35.0978 114.484 34.6621L114.231 35.0707C115.023 35.5604 115.953 35.8007 117.011 35.8007V35.3203ZM114.486 34.6637C113.774 34.2104 113.217 33.6024 112.814 32.8356L112.389 33.059C112.83 33.8982 113.444 34.5696 114.228 35.069L114.486 34.6637ZM112.816 32.8384C112.426 32.0716 112.229 31.2246 112.229 30.2933H111.749C111.749 31.2946 111.961 32.217 112.388 33.0562L112.816 32.8384ZM112.229 30.2933C112.229 29.3477 112.426 28.5015 112.815 27.7496L112.388 27.5289C111.961 28.3558 111.749 29.2789 111.749 30.2933H112.229ZM112.814 27.751C113.217 26.9848 113.773 26.3844 114.484 25.9449L114.231 25.5363C113.445 26.0224 112.83 26.6877 112.389 27.5275L112.814 27.751ZM114.486 25.9433C115.191 25.4949 116.029 25.2663 117.011 25.2663V24.7859C115.952 24.7859 115.021 25.0336 114.228 25.538L114.486 25.9433ZM117.011 25.2663C118.179 25.2663 119.155 25.5673 119.951 26.1581L120.237 25.7723C119.346 25.111 118.266 24.7859 117.011 24.7859V25.2663ZM119.953 26.1592C120.769 26.7552 121.316 27.5217 121.599 28.4639L122.059 28.3253C121.745 27.2805 121.134 26.4274 120.236 25.7712L119.953 26.1592ZM121.829 28.1545H120.176V28.6348H121.829V28.1545ZM120.399 28.3063C120.151 27.6775 119.747 27.1639 119.192 26.7698L118.914 27.1613C119.393 27.5021 119.738 27.9413 119.952 28.4829L120.399 28.3063ZM119.195 26.7715C118.644 26.3695 117.98 26.1741 117.216 26.1741V26.6545C117.894 26.6545 118.455 26.8266 118.911 27.1596L119.195 26.7715ZM117.216 26.1741C116.428 26.1741 115.728 26.3609 115.127 26.7423L115.384 27.148C115.899 26.8216 116.506 26.6545 117.216 26.6545V26.1741ZM115.127 26.7423C114.533 27.119 114.075 27.6208 113.756 28.2444L114.183 28.4632C114.463 27.9164 114.862 27.479 115.384 27.148L115.127 26.7423ZM113.756 28.2444C113.438 28.8661 113.28 29.5505 113.28 30.2933H113.761C113.761 29.6206 113.903 29.012 114.183 28.4632L113.756 28.2444ZM113.28 30.2933C113.28 31.0233 113.438 31.7067 113.755 32.3402L114.184 32.1253C113.902 31.5611 113.761 30.9515 113.761 30.2933H113.28ZM113.756 32.3421C114.075 32.9658 114.533 33.4675 115.127 33.8443L115.384 33.4386C114.862 33.1076 114.463 32.6702 114.183 32.1234L113.756 32.3421ZM115.127 33.8443C115.728 34.2257 116.428 34.4124 117.216 34.4124V33.932C116.506 33.932 115.899 33.7649 115.384 33.4386L115.127 33.8443ZM117.216 34.4124C117.98 34.4124 118.644 34.217 119.195 33.815L118.911 33.427C118.455 33.7599 117.894 33.932 117.216 33.932V34.4124ZM119.192 33.8168C119.747 33.4226 120.151 32.9091 120.399 32.2802L119.952 32.1036C119.738 32.6453 119.393 33.0844 118.914 33.4252L119.192 33.8168ZM120.176 32.4321H121.829V31.9517H120.176V32.4321ZM121.599 32.1226C121.316 33.0649 120.769 33.8314 119.953 34.4274L120.236 34.8153C121.134 34.1592 121.745 33.3061 122.059 32.2612L121.599 32.1226ZM119.951 34.4285C119.155 35.0193 118.179 35.3203 117.011 35.3203V35.8007C118.266 35.8007 119.346 35.4756 120.237 34.8143L119.951 34.4285ZM123.727 35.3972H123.487V35.6373H123.727V35.3972ZM123.727 21.1063V20.8661H123.487V21.1063H123.727ZM125.258 21.1063H125.498V20.8661H125.258V21.1063ZM125.258 30.2524H125.018V30.8442L125.43 30.4198L125.258 30.2524ZM130.178 25.1894V24.9492H130.077L130.006 25.022L130.178 25.1894ZM132.322 25.1894L132.49 25.3609L132.91 24.9492H132.322V25.1894ZM128.218 29.2113L128.05 29.0397L127.904 29.1835L128.023 29.3507L128.218 29.2113ZM132.628 35.3972V35.6373H133.094L132.824 35.2577L132.628 35.3972ZM130.75 35.3972L130.553 35.5345L130.625 35.6373H130.75V35.3972ZM127.177 30.2729L127.374 30.1355L127.211 29.9015L127.008 30.1021L127.177 30.2729ZM125.258 32.1715L125.089 32.0008L125.018 32.0713V32.1715H125.258ZM125.258 35.3972V35.6373H125.498V35.3972H125.258ZM123.967 35.3972V21.1063H123.487V35.3972H123.967ZM123.727 21.3465H125.258V20.8661H123.727V21.3465ZM125.018 21.1063V30.2524H125.498V21.1063H125.018ZM125.43 30.4198L130.351 25.3568L130.006 25.022L125.086 30.0851L125.43 30.4198ZM130.178 25.4296H132.322V24.9492H130.178V25.4296ZM132.154 25.0179L128.05 29.0397L128.387 29.3828L132.49 25.3609L132.154 25.0179ZM128.023 29.3507L132.433 35.5366L132.824 35.2577L128.414 29.0718L128.023 29.3507ZM132.628 35.157H130.75V35.6373H132.628V35.157ZM130.947 35.2598L127.374 30.1355L126.98 30.4102L130.553 35.5345L130.947 35.2598ZM127.008 30.1021L125.089 32.0008L125.427 32.3422L127.346 30.4436L127.008 30.1021ZM125.018 32.1715V35.3972H125.498V32.1715H125.018ZM125.258 35.157H123.727V35.6373H125.258V35.157ZM136.894 34.8255L136.772 35.0327L136.776 35.0349L136.894 34.8255ZM134.873 32.7227L134.662 32.8377L134.662 32.8377L134.873 32.7227ZM134.138 21.8821V21.6419H133.898V21.8821H134.138ZM135.669 21.8821H135.909V21.6419H135.669V21.8821ZM136.261 32.1715L136.056 32.2957L136.057 32.2988L136.261 32.1715ZM137.833 33.621L137.728 33.8368L137.733 33.8393L137.833 33.621ZM141.916 33.621L142.018 33.8386L142.022 33.8367L141.916 33.621ZM143.488 32.1715L143.285 32.0442L143.285 32.0442L143.488 32.1715ZM144.101 21.8821V21.6419H143.861V21.8821H144.101ZM145.632 21.8821H145.872V21.6419H145.632V21.8821ZM144.897 32.7023L145.108 32.8173L145.108 32.8173L144.897 32.7023ZM142.855 34.8051L142.735 34.5972L142.734 34.598L142.855 34.8051ZM139.875 35.3203C138.795 35.3203 137.843 35.0837 137.012 34.6162L136.776 35.0349C137.687 35.5473 138.722 35.8007 139.875 35.8007V35.3203ZM137.016 34.6184C136.197 34.1375 135.554 33.4689 135.084 32.6077L134.662 32.8377C135.172 33.7731 135.876 34.5063 136.772 35.0326L137.016 34.6184ZM135.084 32.6077C134.616 31.7503 134.378 30.7431 134.378 29.5787H133.898C133.898 30.8098 134.15 31.8986 134.662 32.8377L135.084 32.6077ZM134.378 29.5787V21.8821H133.898V29.5787H134.378ZM134.138 22.1223H135.669V21.6419H134.138V22.1223ZM135.429 21.8821V29.6196H135.909V21.8821H135.429ZM135.429 29.6196C135.429 30.6957 135.631 31.5935 136.056 32.2957L136.467 32.0473C136.102 31.443 135.909 30.6395 135.909 29.6196H135.429ZM136.057 32.2988C136.488 32.9869 137.044 33.5024 137.728 33.8367L137.939 33.4053C137.343 33.1136 136.851 32.6627 136.465 32.0442L136.057 32.2988ZM137.733 33.8393C138.417 34.1529 139.132 34.3103 139.875 34.3103V33.83C139.202 33.83 138.556 33.6879 137.933 33.4027L137.733 33.8393ZM139.875 34.3103C140.63 34.3103 141.346 34.1532 142.018 33.8385L141.814 33.4035C141.207 33.6877 140.562 33.83 139.875 33.83V34.3103ZM142.022 33.8367C142.705 33.5024 143.262 32.9869 143.692 32.2988L143.285 32.0442C142.898 32.6627 142.407 33.1136 141.811 33.4053L142.022 33.8367ZM143.692 32.2988C144.131 31.5959 144.341 30.6969 144.341 29.6196H143.861C143.861 30.6382 143.662 31.4405 143.285 32.0442L143.692 32.2988ZM144.341 29.6196V21.8821H143.861V29.6196H144.341ZM144.101 22.1223H145.632V21.6419H144.101V22.1223ZM145.392 21.8821V29.5787H145.872V21.8821H145.392ZM145.392 29.5787C145.392 30.729 145.154 31.7295 144.686 32.5873L145.108 32.8173C145.62 31.8786 145.872 30.7967 145.872 29.5787H145.392ZM144.686 32.5873C144.217 33.4476 143.567 34.116 142.735 34.5972L142.976 35.013C143.885 34.487 144.597 33.7536 145.108 32.8173L144.686 32.5873ZM142.734 34.598C141.918 35.0771 140.968 35.3203 139.875 35.3203V35.8007C141.041 35.8007 142.078 35.5403 142.977 35.0122L142.734 34.598ZM148.23 39.4394H147.989V39.6796H148.23V39.4394ZM148.23 25.1894V24.9492H147.989V25.1894H148.23ZM149.761 25.1894H150.001V24.9492H149.761V25.1894ZM149.761 26.8226H149.521V27.6002L149.959 26.9581L149.761 26.8226ZM151.231 25.5161L151.342 25.7289L151.344 25.728L151.231 25.5161ZM156.008 25.7406L155.877 25.9422L155.882 25.9449L156.008 25.7406ZM157.743 27.6393L157.529 27.7481L157.53 27.7496L157.743 27.6393ZM157.743 32.9473L157.529 32.8384L157.529 32.8384L157.743 32.9473ZM156.008 34.8664L156.136 35.0696L156.137 35.069L156.008 34.8664ZM151.231 35.0705L151.112 35.2794L151.118 35.2824L151.231 35.0705ZM149.761 33.7435L149.958 33.6058L149.521 32.9816V33.7435H149.761ZM149.761 39.4394V39.6796H150.001V39.4394H149.761ZM155.15 33.6414L155.02 33.44L155.017 33.4416L155.15 33.6414ZM156.396 32.2328L156.612 32.3382L156.613 32.3362L156.396 32.2328ZM156.396 28.3538L156.612 28.2484L156.612 28.2484L156.396 28.3538ZM155.15 26.9451L155.017 27.145L155.02 27.1465L155.15 26.9451ZM151.292 26.9451L151.159 26.7453L151.159 26.7453L151.292 26.9451ZM150.087 28.3538L149.87 28.2525L149.87 28.2525L150.087 28.3538ZM150.087 32.2328L149.869 32.3321L149.87 32.334L150.087 32.2328ZM151.292 33.6414L151.159 33.8413L151.159 33.8413L151.292 33.6414ZM148.47 39.4394V25.1894H147.989V39.4394H148.47ZM148.23 25.4296H149.761V24.9492H148.23V25.4296ZM149.521 25.1894V26.8226H150.001V25.1894H149.521ZM149.959 26.9581C150.318 26.4326 150.778 26.0237 151.342 25.7289L151.119 25.3032C150.486 25.6345 149.966 26.0966 149.562 26.6872L149.959 26.9581ZM151.344 25.728C151.915 25.4235 152.602 25.2663 153.415 25.2663V24.7859C152.54 24.7859 151.772 24.9553 151.118 25.3041L151.344 25.728ZM153.415 25.2663C154.369 25.2663 155.186 25.4943 155.877 25.9422L156.139 25.5391C155.36 25.0342 154.449 24.7859 153.415 24.7859V25.2663ZM155.882 25.9449C156.592 26.3839 157.14 26.9834 157.529 27.7481L157.957 27.5304C157.53 26.6891 156.921 26.0228 156.134 25.5363L155.882 25.9449ZM157.53 27.7496C157.919 28.5015 158.115 29.3477 158.115 30.2933H158.596C158.596 29.2789 158.384 28.3558 157.957 27.5289L157.53 27.7496ZM158.115 30.2933C158.115 31.2246 157.919 32.0716 157.529 32.8384L157.957 33.0562C158.384 32.217 158.596 31.2946 158.596 30.2933H158.115ZM157.529 32.8384C157.14 33.6037 156.591 34.2108 155.879 34.6637L156.137 35.069C156.922 34.5692 157.53 33.8969 157.957 33.0562L157.529 32.8384ZM155.88 34.6631C155.189 35.0984 154.37 35.3203 153.415 35.3203V35.8007C154.447 35.8007 155.357 35.5598 156.136 35.0696L155.88 34.6631ZM153.415 35.3203C152.602 35.3203 151.915 35.1631 151.344 34.8586L151.118 35.2824C151.772 35.6312 152.54 35.8007 153.415 35.8007V35.3203ZM151.349 34.8617C150.78 34.5384 150.317 34.1199 149.958 33.6058L149.564 33.8812C149.966 34.4559 150.483 34.9221 151.112 35.2793L151.349 34.8617ZM149.521 33.7435V39.4394H150.001V33.7435H149.521ZM149.761 39.1992H148.23V39.6796H149.761V39.1992ZM153.211 34.4124C154.011 34.4124 154.706 34.2262 155.284 33.8413L155.017 33.4416C154.533 33.7644 153.935 33.932 153.211 33.932V34.4124ZM155.281 33.8428C155.862 33.4651 156.307 32.9624 156.612 32.3382L156.18 32.1274C155.913 32.6736 155.527 33.11 155.02 33.44L155.281 33.8428ZM156.613 32.3362C156.914 31.7035 157.065 31.0215 157.065 30.2933H156.584C156.584 30.9533 156.449 31.5642 156.179 32.1293L156.613 32.3362ZM157.065 30.2933C157.065 29.5522 156.915 28.8692 156.612 28.2484L156.18 28.4592C156.448 29.0089 156.584 29.6189 156.584 30.2933H157.065ZM156.612 28.2484C156.307 27.6242 155.862 27.1214 155.281 26.7438L155.02 27.1465C155.527 27.4766 155.913 27.9129 156.18 28.4592L156.612 28.2484ZM155.284 26.7453C154.706 26.3604 154.011 26.1741 153.211 26.1741V26.6545C153.935 26.6545 154.533 26.8222 155.017 27.145L155.284 26.7453ZM153.211 26.1741C152.423 26.1741 151.735 26.3608 151.159 26.7453L151.425 27.145C151.91 26.8217 152.501 26.6545 153.211 26.6545V26.1741ZM151.159 26.7453C150.591 27.1239 150.16 27.6278 149.87 28.2525L150.305 28.4551C150.559 27.9093 150.931 27.4741 151.425 27.145L151.159 26.7453ZM149.87 28.2525C149.581 28.8724 149.439 29.554 149.439 30.2933H149.919C149.919 29.6171 150.049 29.0057 150.305 28.4551L149.87 28.2525ZM149.439 30.2933C149.439 31.0198 149.582 31.7004 149.869 32.3321L150.306 32.1334C150.049 31.5674 149.919 30.9551 149.919 30.2933H149.439ZM149.87 32.334C150.16 32.9588 150.591 33.4626 151.159 33.8413L151.425 33.4416C150.931 33.1125 150.559 32.6772 150.305 32.1315L149.87 32.334ZM151.159 33.8413C151.735 34.2257 152.423 34.4124 153.211 34.4124V33.932C152.501 33.932 151.91 33.7648 151.425 33.4416L151.159 33.8413Z" fill="#335EEA"/>
<path d="M44.0977 8.43162C44.9105 8.43162 45.549 8.63392 46.0135 9.03853C46.4814 9.43961 46.7154 9.99023 46.7154 10.6904C46.7154 11.489 46.4603 12.1153 45.9501 12.5691C45.4435 13.023 44.7434 13.2499 43.8497 13.2499C42.9807 13.2499 42.3175 13.111 41.8601 12.833V11.9886C42.1064 12.1469 42.4125 12.2718 42.7784 12.3633C43.1443 12.4513 43.5049 12.4953 43.8603 12.4953C44.4795 12.4953 44.9597 12.3492 45.301 12.0572C45.6458 11.7652 45.8182 11.343 45.8182 10.7906C45.8182 9.71404 45.1585 9.17574 43.8391 9.17574C43.5049 9.17574 43.0581 9.22676 42.4987 9.32879L42.0448 9.03853L42.3351 5.42875H46.1718V6.2362H43.0845L42.8892 8.553C43.2938 8.47208 43.6967 8.43162 44.0977 8.43162Z" fill="#8F959E"/>
<path d="M52.985 9.27601C52.985 10.6094 52.7739 11.6051 52.3517 12.263C51.933 12.921 51.2909 13.2499 50.4254 13.2499C49.5951 13.2499 48.9635 12.9139 48.5308 12.2419C48.098 11.5664 47.8817 10.5778 47.8817 9.27601C47.8817 7.93202 48.091 6.93459 48.5097 6.2837C48.9284 5.63282 49.5669 5.30737 50.4254 5.30737C51.2628 5.30737 51.8978 5.64689 52.3306 6.32592C52.7668 7.00495 52.985 7.98832 52.985 9.27601ZM48.7683 9.27601C48.7683 10.3983 48.9002 11.2164 49.1641 11.73C49.428 12.2402 49.8484 12.4953 50.4254 12.4953C51.0094 12.4953 51.4316 12.2367 51.692 11.7195C51.9559 11.1988 52.0878 10.3843 52.0878 9.27601C52.0878 8.16775 51.9559 7.35678 51.692 6.84311C51.4316 6.32592 51.0094 6.06733 50.4254 6.06733C49.8484 6.06733 49.428 6.3224 49.1641 6.83255C48.9002 7.33919 48.7683 8.15368 48.7683 9.27601Z" fill="#8F959E"/>
<path d="M59.1701 9.27601C59.1701 10.6094 58.959 11.6051 58.5368 12.263C58.1182 12.921 57.4761 13.2499 56.6106 13.2499C55.7803 13.2499 55.1487 12.9139 54.716 12.2419C54.2832 11.5664 54.0668 10.5778 54.0668 9.27601C54.0668 7.93202 54.2762 6.93459 54.6949 6.2837C55.1135 5.63282 55.7521 5.30737 56.6106 5.30737C57.4479 5.30737 58.083 5.64689 58.5157 6.32592C58.952 7.00495 59.1701 7.98832 59.1701 9.27601ZM54.9535 9.27601C54.9535 10.3983 55.0854 11.2164 55.3493 11.73C55.6131 12.2402 56.0336 12.4953 56.6106 12.4953C57.1946 12.4953 57.6168 12.2367 57.8772 11.7195C58.141 11.1988 58.273 10.3843 58.273 9.27601C58.273 8.16775 58.141 7.35678 57.8772 6.84311C57.6168 6.32592 57.1946 6.06733 56.6106 6.06733C56.0336 6.06733 55.6131 6.3224 55.3493 6.83255C55.0854 7.33919 54.9535 8.15368 54.9535 9.27601Z" fill="#8F959E"/>
<path d="M64.1995 13.1444L64.0254 12.3211H63.9832C63.6947 12.6835 63.4062 12.9298 63.1177 13.0599C62.8327 13.1866 62.4756 13.2499 62.0463 13.2499C61.4729 13.2499 61.0225 13.1022 60.6953 12.8066C60.3716 12.5111 60.2098 12.0907 60.2098 11.5453C60.2098 10.3772 61.1439 9.76506 63.0121 9.70876L63.9937 9.6771V9.31823C63.9937 8.86437 63.8952 8.53013 63.6982 8.31552C63.5047 8.09738 63.1933 7.98832 62.7641 7.98832C62.2821 7.98832 61.7367 8.13608 61.1281 8.43162L60.8589 7.76139C61.1439 7.60658 61.4553 7.4852 61.793 7.39724C62.1343 7.30928 62.4756 7.26531 62.8168 7.26531C63.5064 7.26531 64.0166 7.41835 64.3473 7.72444C64.6815 8.03054 64.8487 8.52134 64.8487 9.19685V13.1444H64.1995ZM62.2205 12.5269C62.7658 12.5269 63.1933 12.3774 63.5029 12.0783C63.816 11.7793 63.9726 11.3606 63.9726 10.8223V10.2998L63.0965 10.3368C62.3999 10.3614 61.8968 10.4705 61.5872 10.664C61.2811 10.854 61.1281 11.1513 61.1281 11.5559C61.1281 11.8725 61.2231 12.1135 61.413 12.2789C61.6066 12.4442 61.8757 12.5269 62.2205 12.5269Z" fill="#8F959E"/>
<path d="M69.3503 13.2499C68.9739 13.2499 68.6291 13.1813 68.3159 13.0441C68.0063 12.9034 67.746 12.6888 67.5349 12.4003H67.4716C67.5138 12.738 67.5349 13.0582 67.5349 13.3608V15.7409H66.6588V7.3603H67.3713L67.4927 8.15192H67.5349C67.7601 7.83527 68.0222 7.60658 68.3212 7.46585C68.6203 7.32512 68.9633 7.25475 69.3503 7.25475C70.1173 7.25475 70.7084 7.51686 71.1235 8.04109C71.5422 8.56532 71.7516 9.30064 71.7516 10.2471C71.7516 11.197 71.5387 11.9358 71.113 12.4636C70.6908 12.9878 70.1032 13.2499 69.3503 13.2499ZM69.2237 7.99887C68.6326 7.99887 68.2051 8.16247 67.9412 8.48967C67.6774 8.81687 67.5419 9.33758 67.5349 10.0518V10.2471C67.5349 11.0598 67.6703 11.6421 67.9412 11.9939C68.2122 12.3422 68.6467 12.5164 69.2448 12.5164C69.7444 12.5164 70.1349 12.3141 70.4164 11.9095C70.7013 11.5049 70.8438 10.9472 70.8438 10.2365C70.8438 9.51526 70.7013 8.96288 70.4164 8.57939C70.1349 8.19238 69.7373 7.99887 69.2237 7.99887Z" fill="#8F959E"/>
<path d="M75.9788 13.2499C75.6023 13.2499 75.2575 13.1813 74.9444 13.0441C74.6348 12.9034 74.3745 12.6888 74.1634 12.4003H74.1C74.1422 12.738 74.1634 13.0582 74.1634 13.3608V15.7409H73.2873V7.3603H73.9998L74.1211 8.15192H74.1634C74.3885 7.83527 74.6506 7.60658 74.9497 7.46585C75.2487 7.32512 75.5918 7.25475 75.9788 7.25475C76.7458 7.25475 77.3369 7.51686 77.752 8.04109C78.1707 8.56532 78.38 9.30064 78.38 10.2471C78.38 11.197 78.1672 11.9358 77.7415 12.4636C77.3193 12.9878 76.7317 13.2499 75.9788 13.2499ZM75.8521 7.99887C75.2611 7.99887 74.8336 8.16247 74.5697 8.48967C74.3058 8.81687 74.1704 9.33758 74.1634 10.0518V10.2471C74.1634 11.0598 74.2988 11.6421 74.5697 11.9939C74.8406 12.3422 75.2751 12.5164 75.8732 12.5164C76.3728 12.5164 76.7634 12.3141 77.0448 11.9095C77.3298 11.5049 77.4723 10.9472 77.4723 10.2365C77.4723 9.51526 77.3298 8.96288 77.0448 8.57939C76.7634 8.19238 76.3658 7.99887 75.8521 7.99887Z" fill="#8F959E"/>
<path d="M83.6469 11.5664C83.6469 12.1047 83.4464 12.5199 83.0453 12.8119C82.6442 13.1039 82.0813 13.2499 81.3565 13.2499C80.5895 13.2499 79.9914 13.1285 79.5622 12.8858V12.0731C79.8401 12.2138 80.1374 12.3246 80.4541 12.4055C80.7742 12.4865 81.0821 12.5269 81.3776 12.5269C81.835 12.5269 82.1868 12.4548 82.4331 12.3105C82.6794 12.1628 82.8025 11.9394 82.8025 11.6403C82.8025 11.4151 82.704 11.2234 82.507 11.0651C82.3135 10.9032 81.9335 10.7132 81.3671 10.4951C80.8288 10.2946 80.4453 10.1204 80.2166 9.97264C79.9914 9.82135 79.8225 9.65071 79.7099 9.46072C79.6009 9.27073 79.5463 9.0438 79.5463 8.77993C79.5463 8.30848 79.7381 7.9373 80.1216 7.66639C80.5051 7.39196 81.0311 7.25475 81.6995 7.25475C82.3223 7.25475 82.931 7.38141 83.5255 7.63473L83.2142 8.34718C82.6337 8.10794 82.1077 7.98832 81.6362 7.98832C81.2211 7.98832 80.9079 8.0534 80.6968 8.18358C80.4857 8.31376 80.3802 8.49319 80.3802 8.72188C80.3802 8.87669 80.4189 9.00862 80.4963 9.11769C80.5772 9.22676 80.7056 9.33055 80.8815 9.42906C81.0575 9.52757 81.3952 9.67006 81.8948 9.85653C82.5809 10.1063 83.0435 10.3579 83.2828 10.6112C83.5255 10.8645 83.6469 11.1829 83.6469 11.5664Z" fill="#8F959E"/>
<path fill-rule="evenodd" clip-rule="evenodd" d="M41.9797 12.0604C42.2032 12.1852 42.4693 12.2861 42.7779 12.3632C43.1438 12.4512 43.5044 12.4952 43.8597 12.4952C44.479 12.4952 44.9592 12.3492 45.3005 12.0571C45.6453 11.7651 45.8177 11.3429 45.8177 10.7906C45.8177 9.71395 45.158 9.17565 43.8386 9.17565C43.5044 9.17565 43.0576 9.22667 42.4982 9.3287L42.0443 9.03844L42.3346 5.42867H46.1713V6.23612H43.084L42.8887 8.55292C42.9295 8.54475 42.9704 8.53699 43.0112 8.52965C43.3746 8.46424 43.7366 8.43153 44.0972 8.43153C44.91 8.43153 45.5485 8.63384 46.0129 9.03844C46.4809 9.43953 46.7148 9.99014 46.7148 10.6903C46.7148 11.4889 46.4598 12.1152 45.9496 12.5691C45.443 13.0229 44.7428 13.2498 43.8492 13.2498C42.9802 13.2498 42.317 13.1109 41.8596 12.8329V11.9885C41.8982 12.0133 41.9382 12.0373 41.9797 12.0604ZM46.0294 12.6588C45.4946 13.1377 44.7628 13.3699 43.8492 13.3699C42.9705 13.3699 42.2817 13.23 41.7972 12.9356L41.7395 12.9005V11.7686L41.9245 11.8875C42.157 12.037 42.45 12.1574 42.8065 12.2466C43.1635 12.3324 43.5146 12.3751 43.8597 12.3751C44.4612 12.3751 44.9099 12.2333 45.2224 11.9659C45.5343 11.7017 45.6976 11.3162 45.6976 10.7906C45.6976 10.2779 45.5417 9.91293 45.247 9.67242C44.9476 9.42811 44.4851 9.29574 43.8386 9.29574C43.5149 9.29574 43.0762 9.34534 42.5197 9.44684L42.4732 9.45532L41.9188 9.10074L42.2237 5.30858H46.2914V6.35621H43.1944L43.0216 8.40583C43.3813 8.34294 43.7398 8.31144 44.0972 8.31144C44.9293 8.31144 45.599 8.51875 46.0915 8.94757C46.5896 9.3747 46.8349 9.96059 46.8349 10.6903C46.8349 11.5168 46.5696 12.1782 46.0294 12.6588ZM48.4292 12.3066C47.9785 11.6032 47.7611 10.5877 47.7611 9.27593C47.7611 7.92382 47.9709 6.89849 48.4082 6.21865C48.8517 5.52918 49.5309 5.18719 50.4249 5.18719C51.3013 5.18719 51.9755 5.54602 52.4313 6.26129C52.8852 6.96802 53.1045 7.97794 53.1045 9.27593C53.1045 10.6178 52.8929 11.641 52.4523 12.3276C52.0089 13.0243 51.326 13.3699 50.4249 13.3699C49.5557 13.3699 48.885 13.0145 48.4292 12.3066ZM52.3512 12.263C52.7734 11.605 52.9844 10.6094 52.9844 9.27593C52.9844 7.98823 52.7663 7.00486 52.33 6.32583C51.8973 5.6468 51.2622 5.30729 50.4249 5.30729C49.5664 5.30729 48.9279 5.63273 48.5092 6.28361C48.0905 6.9345 47.8812 7.93194 47.8812 9.27593C47.8812 10.5777 48.0975 11.5663 48.5303 12.2418C48.963 12.9138 49.5946 13.2498 50.4249 13.2498C51.2904 13.2498 51.9325 12.9209 52.3512 12.263ZM51.5844 11.6651C51.8351 11.1704 51.9672 10.3794 51.9672 9.27593C51.9672 8.17227 51.835 7.38521 51.5847 6.8979C51.4628 6.65583 51.3058 6.47935 51.1168 6.36359C50.9278 6.24779 50.6988 6.18733 50.4249 6.18733C50.1545 6.18733 49.9275 6.24692 49.7391 6.36122C49.5507 6.4755 49.3938 6.64883 49.2702 6.88764C49.0204 7.36742 48.8879 8.15769 48.8879 9.27593C48.8879 10.3938 49.0201 11.1877 49.2703 11.6749C49.3938 11.9136 49.5508 12.0869 49.7391 12.2012C49.9275 12.3155 50.1545 12.3751 50.4249 12.3751C50.6988 12.3751 50.9278 12.3146 51.1168 12.1988C51.3058 12.0831 51.4625 11.9072 51.5844 11.6651ZM49.1636 11.7299C48.8997 11.2163 48.7678 10.3983 48.7678 9.27593C48.7678 8.15359 48.8997 7.3391 49.1636 6.83247C49.4275 6.32231 49.8479 6.06724 50.4249 6.06724C51.0089 6.06724 51.4311 6.32583 51.6915 6.84302C51.9553 7.35669 52.0873 8.16766 52.0873 9.27593C52.0873 10.3842 51.9553 11.1987 51.6915 11.7194C51.4311 12.2366 51.0089 12.4952 50.4249 12.4952C49.8479 12.4952 49.4275 12.2401 49.1636 11.7299ZM54.6143 12.3066C54.1637 11.6032 53.9462 10.5877 53.9462 9.27593C53.9462 7.92382 54.156 6.89849 54.5933 6.21865C55.0368 5.52918 55.716 5.18719 56.6101 5.18719C57.4865 5.18719 58.1606 5.54602 58.6165 6.26129C59.0704 6.96802 59.2897 7.97794 59.2897 9.27593C59.2897 10.6178 59.078 11.641 58.6375 12.3276C58.1941 13.0243 57.5112 13.3699 56.6101 13.3699C55.7408 13.3699 55.0702 13.0145 54.6143 12.3066ZM58.5363 12.263C58.9585 11.605 59.1696 10.6094 59.1696 9.27593C59.1696 7.98823 58.9515 7.00486 58.5152 6.32583C58.0825 5.6468 57.4474 5.30729 56.6101 5.30729C55.7516 5.30729 55.113 5.63273 54.6943 6.28361C54.2757 6.9345 54.0663 7.93194 54.0663 9.27593C54.0663 10.5777 54.2827 11.5663 54.7155 12.2418C55.1482 12.9138 55.7797 13.2498 56.6101 13.2498C57.4756 13.2498 58.1176 12.9209 58.5363 12.263ZM57.7695 11.6651C58.0202 11.1704 58.1524 10.3794 58.1524 9.27593C58.1524 8.17227 58.0202 7.38521 57.7698 6.8979C57.648 6.65583 57.491 6.47935 57.302 6.36359C57.1129 6.24779 56.884 6.18733 56.6101 6.18733C56.3397 6.18733 56.1127 6.24692 55.9243 6.36122C55.7359 6.4755 55.5789 6.64883 55.4554 6.88764C55.2055 7.36742 55.073 8.15769 55.073 9.27593C55.073 10.3939 55.2053 11.1879 55.4556 11.6751C55.5791 11.9137 55.736 12.087 55.9243 12.2012C56.1127 12.3155 56.3397 12.3751 56.6101 12.3751C56.884 12.3751 57.1129 12.3146 57.302 12.1988C57.491 12.0831 57.6477 11.9072 57.7695 11.6651ZM55.3487 11.7299C55.0849 11.2163 54.9529 10.3983 54.9529 9.27593C54.9529 8.15359 55.0849 7.3391 55.3487 6.83247C55.6126 6.32231 56.0331 6.06724 56.6101 6.06724C57.1941 6.06724 57.6163 6.32583 57.8766 6.84302C58.1405 7.35669 58.2725 8.16766 58.2725 9.27593C58.2725 10.3842 58.1405 11.1987 57.8766 11.7194C57.6163 12.2366 57.1941 12.4952 56.6101 12.4952C56.0331 12.4952 55.6126 12.2401 55.3487 11.7299ZM64.1017 13.2644L63.95 12.5475C63.6949 12.8388 63.4342 13.0485 63.1665 13.1693C62.8616 13.3049 62.4859 13.3699 62.0458 13.3699C61.4518 13.3699 60.9696 13.2165 60.6143 12.8957C60.2598 12.572 60.0892 12.1155 60.0892 11.5452C60.0892 10.9229 60.3413 10.4391 60.844 10.1096C61.3382 9.78571 62.065 9.61706 63.0079 9.58864C63.0079 9.58864 63.0079 9.58864 63.0079 9.58864L63.8731 9.56073V9.31814C63.8731 8.87824 63.7771 8.57956 63.6092 8.39664L63.6078 8.39514C63.4461 8.21285 63.1749 8.10832 62.7636 8.10832C62.3055 8.10832 61.7785 8.24896 61.18 8.53956L61.0641 8.59583L60.7071 7.70682L60.8011 7.65577C61.0952 7.49598 61.4158 7.37116 61.7622 7.28094C62.113 7.19054 62.4646 7.14513 62.8163 7.14513C63.5205 7.14513 64.066 7.30096 64.4281 7.63601C64.7971 7.97406 64.9682 8.50431 64.9682 9.19676V13.2644H64.1017ZM64.3468 7.72436C64.0161 7.41826 63.5059 7.26522 62.8163 7.26522C62.4751 7.26522 62.1338 7.3092 61.7925 7.39715C61.4547 7.48511 61.1434 7.60649 60.8584 7.7613L61.1275 8.43153C61.164 8.41383 61.2003 8.39665 61.2363 8.38001C61.8013 8.11882 62.3104 7.98823 62.7636 7.98823C63.1928 7.98823 63.5042 8.0973 63.6977 8.31543C63.8947 8.53005 63.9932 8.86428 63.9932 9.31814V9.67701L63.0116 9.70868C61.1434 9.76497 60.2093 10.3772 60.2093 11.5452C60.2093 12.0906 60.3711 12.511 60.6948 12.8065C61.022 13.1021 61.4723 13.2498 62.0458 13.2498C62.4751 13.2498 62.8322 13.1865 63.1171 13.0599C63.3843 12.9393 63.6515 12.7192 63.9187 12.3994C63.9372 12.3773 63.9556 12.3548 63.9741 12.3318C63.9769 12.3282 63.9798 12.3246 63.9826 12.321H64.0249L64.199 13.1443H64.8481V9.19676C64.8481 8.52125 64.681 8.03045 64.3468 7.72436ZM63.4195 11.9914C63.7033 11.7203 63.852 11.3362 63.852 10.8222V10.425L63.1011 10.4567C62.4096 10.4811 61.9322 10.5896 61.6503 10.7657C61.3844 10.9308 61.2476 11.1866 61.2476 11.5558C61.2476 11.8471 61.334 12.051 61.491 12.1879C61.6561 12.3287 61.8939 12.4067 62.22 12.4067C62.7429 12.4067 63.1378 12.2635 63.4195 11.9914ZM61.4125 12.2788C61.2225 12.1134 61.1275 11.8724 61.1275 11.5558C61.1275 11.1512 61.2806 10.8539 61.5867 10.6639C61.8963 10.4704 62.3994 10.3613 63.096 10.3367L63.9721 10.2997V10.8222C63.9721 11.3605 63.8155 11.7792 63.5024 12.0782C63.1928 12.3773 62.7653 12.5268 62.22 12.5268C61.8752 12.5268 61.606 12.4442 61.4125 12.2788ZM68.2672 13.154L68.2657 13.1534C68.0227 13.0429 67.8085 12.8896 67.6235 12.6945C67.6441 12.9248 67.6545 13.1468 67.6545 13.3607V15.8609H66.5382V7.24012H67.4738L67.5755 7.9028C67.7788 7.66224 68.0099 7.47929 68.2696 7.3571C68.5871 7.20766 68.9481 7.13457 69.3498 7.13457C70.1473 7.13457 70.7755 7.40891 71.217 7.96618C71.6583 8.5189 71.8711 9.28435 71.8711 10.247C71.8711 11.2135 71.6547 11.9826 71.206 12.5388C70.7581 13.095 70.1342 13.3699 69.3498 13.3699C68.9584 13.3699 68.597 13.2985 68.2672 13.154ZM71.1125 12.4635C71.5382 11.9358 71.751 11.1969 71.751 10.247C71.751 9.30055 71.5417 8.56523 71.123 8.041C70.7079 7.51678 70.1168 7.25466 69.3498 7.25466C68.9628 7.25466 68.6198 7.32503 68.3207 7.46576C68.0503 7.59302 67.8101 7.79219 67.6001 8.06329C67.5796 8.0897 67.5594 8.11679 67.5396 8.14456C67.5378 8.14698 67.5361 8.1494 67.5344 8.15183H67.4921L67.3708 7.36021H66.6583V15.7408H67.5344V13.3607C67.5344 13.0991 67.5186 12.8244 67.487 12.5365C67.4864 12.5311 67.4858 12.5257 67.4852 12.5203C67.4824 12.4945 67.4794 12.4687 67.4763 12.4427C67.4746 12.4286 67.4728 12.4144 67.471 12.4002H67.5344C67.5565 12.4305 67.5793 12.46 67.6025 12.4887C67.8007 12.7329 68.0383 12.9181 68.3154 13.044C68.6286 13.1812 68.9734 13.2498 69.3498 13.2498C70.1027 13.2498 70.6903 12.9877 71.1125 12.4635ZM70.3177 11.8402C70.5834 11.4629 70.7232 10.9327 70.7232 10.2364C70.7232 9.52852 70.583 9.00556 70.3195 8.65093L70.3187 8.64994C70.0617 8.29657 69.7017 8.11887 69.2232 8.11887C68.6529 8.11887 68.2671 8.27622 68.0342 8.56497C67.7957 8.86074 67.6615 9.34822 67.6545 10.0522V10.247C67.6545 11.0522 67.7898 11.6008 68.0357 11.9203C68.2764 12.2296 68.6692 12.3962 69.2443 12.3962C69.7052 12.3962 70.059 12.212 70.3177 11.8402ZM67.9407 11.9938C67.6698 11.642 67.5344 11.0597 67.5344 10.247V10.0517C67.5414 9.3375 67.6769 8.81679 67.9407 8.48959C68.2046 8.16238 68.6321 7.99878 69.2232 7.99878C69.7368 7.99878 70.1344 8.19229 70.4159 8.5793C70.7008 8.9628 70.8433 9.51517 70.8433 10.2364C70.8433 10.9471 70.7008 11.5048 70.4159 11.9094C70.1344 12.314 69.7439 12.5163 69.2443 12.5163C68.6461 12.5163 68.2116 12.3421 67.9407 11.9938ZM74.8957 13.154L74.8942 13.1534C74.6511 13.0429 74.437 12.8896 74.2519 12.6945C74.2726 12.9248 74.2829 13.1468 74.2829 13.3607V15.8609H73.1667V7.24012H74.1023L74.2039 7.9028C74.4072 7.66224 74.6384 7.47929 74.898 7.3571C75.2156 7.20766 75.5766 7.13457 75.9783 7.13457C76.7757 7.13457 77.404 7.40891 77.8454 7.96618C78.2868 8.5189 78.4996 9.28435 78.4996 10.247C78.4996 11.2135 78.2831 11.9826 77.8345 12.5388C77.3866 13.095 76.7627 13.3699 75.9783 13.3699C75.5869 13.3699 75.2255 13.2985 74.8957 13.154ZM77.7409 12.4635C78.1667 11.9358 78.3795 11.1969 78.3795 10.247C78.3795 9.30055 78.1702 8.56523 77.7515 8.041C77.3363 7.51678 76.7453 7.25466 75.9783 7.25466C75.5913 7.25466 75.2482 7.32503 74.9492 7.46576C74.6788 7.59302 74.4385 7.79219 74.2285 8.06329C74.2081 8.0897 74.1879 8.11679 74.168 8.14456C74.1663 8.14698 74.1646 8.1494 74.1628 8.15183H74.1206L73.9992 7.36021H73.2868V15.7408H74.1628V13.3607C74.1628 13.0991 74.1471 12.8244 74.1155 12.5365C74.1149 12.5311 74.1143 12.5257 74.1137 12.5203C74.1108 12.4945 74.1078 12.4687 74.1047 12.4427C74.103 12.4286 74.1013 12.4144 74.0995 12.4002H74.1628C74.185 12.4305 74.2077 12.46 74.231 12.4887C74.4292 12.7329 74.6668 12.9181 74.9439 13.044C75.257 13.1812 75.6018 13.2498 75.9783 13.2498C76.7312 13.2498 77.3188 12.9877 77.7409 12.4635ZM76.9461 11.8402C77.2119 11.4629 77.3517 10.9327 77.3517 10.2364C77.3517 9.52852 77.2115 9.00556 76.9479 8.65093L76.9472 8.64994C76.6902 8.29657 76.3302 8.11887 75.8516 8.11887C75.2814 8.11887 74.8955 8.27622 74.6627 8.56497C74.4242 8.86074 74.29 9.34822 74.2829 10.0522V10.247C74.2829 11.0522 74.4183 11.6008 74.6642 11.9203C74.9049 12.2296 75.2977 12.3962 75.8727 12.3962C76.3337 12.3962 76.6875 12.212 76.9461 11.8402ZM74.5692 11.9938C74.2983 11.642 74.1628 11.0597 74.1628 10.247V10.0517C74.1699 9.3375 74.3053 8.81679 74.5692 8.48959C74.8331 8.16238 75.2605 7.99878 75.8516 7.99878C76.3653 7.99878 76.7629 8.19229 77.0443 8.5793C77.3293 8.9628 77.4718 9.51517 77.4718 10.2364C77.4718 10.9471 77.3293 11.5048 77.0443 11.9094C76.7629 12.314 76.3723 12.5163 75.8727 12.5163C75.2746 12.5163 74.8401 12.3421 74.5692 11.9938ZM79.4416 12.9557V11.8776L79.6159 11.9658C79.8856 12.1024 80.1745 12.2102 80.483 12.289C80.7946 12.3678 81.0926 12.4067 81.3771 12.4067C81.8245 12.4067 82.1515 12.3357 82.3715 12.2071C82.5794 12.0821 82.6819 11.899 82.6819 11.6402C82.6819 11.4562 82.6039 11.2973 82.4313 11.1586L82.4294 11.1571C82.2529 11.0094 81.8903 10.8254 81.324 10.6073C80.7848 10.4064 80.3911 10.2286 80.1509 10.0734L80.1491 10.0722C79.9124 9.91321 79.7296 9.73031 79.6061 9.52186L79.6053 9.52043C79.4838 9.30885 79.4257 9.06041 79.4257 8.77985C79.4257 8.2697 79.6362 7.86194 80.0515 7.56843C80.4622 7.27461 81.0158 7.13457 81.699 7.13457C82.3386 7.13457 82.9632 7.26474 83.5721 7.52416L83.6836 7.57167L83.2766 8.50293L83.1679 8.45813C82.5973 8.22299 82.0872 8.10832 81.6357 8.10832C81.2294 8.10832 80.9427 8.17266 80.7594 8.28571C80.5801 8.39624 80.4998 8.53883 80.4998 8.72179C80.4998 8.85519 80.5326 8.96153 80.593 9.04704C80.6602 9.13723 80.7727 9.23064 80.9397 9.32419C81.1065 9.41758 81.4359 9.55715 81.9359 9.74379C82.6238 9.9943 83.1094 10.2534 83.3693 10.5283C83.6353 10.8061 83.7665 11.1552 83.7665 11.5663C83.7665 12.1392 83.5505 12.5921 83.1155 12.9089C82.6863 13.2213 82.095 13.3699 81.356 13.3699C80.5788 13.3699 79.9571 13.2473 79.5025 12.9902L79.4416 12.9557ZM83.2823 10.6111C83.043 10.3578 82.5804 10.1062 81.8943 9.85644C81.3947 9.66997 81.0569 9.52748 80.881 9.42897C80.7051 9.33046 80.5767 9.22667 80.4958 9.1176C80.4184 9.00853 80.3797 8.8766 80.3797 8.72179C80.3797 8.4931 80.4852 8.31367 80.6963 8.18349C80.9074 8.05332 81.2205 7.98823 81.6357 7.98823C82.1072 7.98823 82.6331 8.10785 83.2137 8.34709L83.525 7.63464C83.4881 7.61889 83.451 7.60363 83.414 7.58886C82.8547 7.36606 82.2831 7.25466 81.699 7.25466C81.0306 7.25466 80.5046 7.39188 80.1211 7.6663C79.7376 7.93721 79.5458 8.30839 79.5458 8.77985C79.5458 9.04372 79.6004 9.27065 79.7094 9.46064C79.822 9.65062 79.9909 9.82126 80.2161 9.97255C80.4448 10.1203 80.8283 10.2945 81.3666 10.495C81.933 10.7131 82.313 10.9031 82.5065 11.065C82.7035 11.2233 82.802 11.415 82.802 11.6402C82.802 11.9393 82.6789 12.1627 82.4326 12.3105C82.1863 12.4547 81.8345 12.5268 81.3771 12.5268C81.0816 12.5268 80.7737 12.4864 80.4536 12.4055C80.1821 12.3361 79.9248 12.2447 79.6818 12.1314C79.6413 12.1125 79.6013 12.093 79.5617 12.073V12.8857C79.9909 13.1285 80.589 13.2498 81.356 13.2498C82.0808 13.2498 82.6437 13.1038 83.0448 12.8118C83.4459 12.5198 83.6464 12.1046 83.6464 11.5663C83.6464 11.1828 83.525 10.8644 83.2823 10.6111Z" fill="#8F959E"/>
</svg>
