<svg width="20" height="20" viewBox="0 0 20 20" fill="none" xmlns="http://www.w3.org/2000/svg">
<path d="M12.2909 6.44721H5.39669C4.92074 6.44721 4.53491 6.78637 4.53491 7.20475V10.9925C4.53491 11.4108 4.92074 11.75 5.39669 11.75H12.2909C12.7668 11.75 13.1526 11.4108 13.1526 10.9925V7.20475C13.1526 6.78637 12.7668 6.44721 12.2909 6.44721Z" stroke="#39AFD1" stroke-linecap="round" stroke-linejoin="round"/>
<path d="M10.8841 5.93979V5.36906C10.8841 5.14686 10.7766 4.93376 10.5853 4.77664C10.3939 4.61952 10.1344 4.53125 9.86387 4.53125H7.82344C7.55286 4.53125 7.29336 4.61952 7.10204 4.77664C6.91071 4.93376 6.80322 5.14686 6.80322 5.36906V5.93979" stroke="#39AFD1" stroke-linecap="round" stroke-linejoin="round"/>
<path d="M8.84375 16.6598C13.262 16.6598 16.8438 13.078 16.8438 8.65975C16.8438 4.24148 13.262 0.659754 8.84375 0.659754C4.42547 0.659754 0.84375 4.24148 0.84375 8.65975C0.84375 13.078 4.42547 16.6598 8.84375 16.6598Z" stroke="#39AFD1" stroke-linecap="round" stroke-linejoin="round"/>
<path d="M18.8438 18.6597L14.4938 14.3097" stroke="#39AFD1" stroke-linecap="round" stroke-linejoin="round"/>
<path d="M4.85596 7.98731L8.78225 9.0085L12.8318 7.93449" stroke="#39AFD1"/>
</svg>
