<svg width="125" height="30" viewBox="0 0 125 30" fill="none" xmlns="http://www.w3.org/2000/svg">
<path d="M40.9286 25.114V14.0126H46.2446C47.3849 14.0126 48.2905 14.3256 48.9612 14.9517C49.6432 15.5778 49.9842 16.4218 49.9842 17.4839C49.9842 18.1994 49.8444 18.7696 49.5649 19.1944C49.2966 19.6192 48.9556 19.9434 48.542 20.167C48.1283 20.3794 47.7147 20.5359 47.3011 20.6366L50.2189 25.114H48.7265L46.0433 20.8546H42.1864V25.114H40.9286ZM42.1864 19.6639H46.0266C46.429 19.6639 46.8371 19.6024 47.2507 19.4795C47.6644 19.3565 48.011 19.1385 48.2905 18.8255C48.5811 18.5012 48.7265 18.0541 48.7265 17.4839C48.7265 16.7796 48.4861 16.2262 48.0054 15.8237C47.5246 15.4101 46.8874 15.2032 46.0936 15.2032H42.1864V19.6639ZM55.4045 25.2482C54.5549 25.2482 53.8114 25.0581 53.1742 24.678C52.5369 24.2867 52.0394 23.7613 51.6817 23.1017C51.3351 22.4421 51.1618 21.7154 51.1618 20.9216C51.1618 20.1167 51.3295 19.39 51.6649 18.7416C52.0003 18.082 52.481 17.5621 53.1071 17.182C53.7332 16.7908 54.471 16.5951 55.3207 16.5951C56.1815 16.5951 56.9194 16.7908 57.5342 17.182C58.1603 17.5621 58.641 18.082 58.9764 18.7416C59.3118 19.39 59.4795 20.1167 59.4795 20.9216V21.4247H52.4531C52.5202 21.9166 52.6767 22.3694 52.9226 22.7831C53.1798 23.1855 53.5207 23.5097 53.9456 23.7557C54.3704 23.9905 54.8623 24.1078 55.4213 24.1078C56.0138 24.1078 56.5113 23.9793 56.9138 23.7221C57.3162 23.4538 57.6293 23.1129 57.8529 22.6992H59.228C58.9373 23.4482 58.4733 24.0631 57.8361 24.5439C57.21 25.0134 56.3995 25.2482 55.4045 25.2482ZM52.4699 20.2509H58.1715C58.0597 19.5354 57.7578 18.9372 57.2659 18.4565C56.774 17.9758 56.1256 17.7354 55.3207 17.7354C54.5157 17.7354 53.8673 17.9758 53.3754 18.4565C52.8947 18.9372 52.5928 19.5354 52.4699 20.2509ZM64.6217 25.2482C63.7832 25.2482 63.0566 25.0581 62.4417 24.678C61.8268 24.2867 61.3461 23.7613 60.9995 23.1017C60.6641 22.4421 60.4964 21.7154 60.4964 20.9216C60.4964 20.1167 60.6641 19.39 60.9995 18.7416C61.3461 18.082 61.8268 17.5621 62.4417 17.182C63.0566 16.7908 63.7832 16.5951 64.6217 16.5951C65.6167 16.5951 66.4608 16.8522 67.1539 17.3665C67.8582 17.8808 68.3334 18.546 68.5793 19.3621H67.221C67.0309 18.8813 66.7235 18.4901 66.2987 18.1882C65.885 17.8864 65.3819 17.7354 64.7894 17.7354C64.1745 17.7354 63.6379 17.8808 63.1795 18.1714C62.7212 18.4621 62.369 18.8478 62.1231 19.3285C61.8771 19.8093 61.7541 20.3403 61.7541 20.9216C61.7541 21.4918 61.8771 22.0228 62.1231 22.5147C62.369 22.9955 62.7212 23.3812 63.1795 23.6718C63.6379 23.9625 64.1745 24.1078 64.7894 24.1078C65.3819 24.1078 65.885 23.9569 66.2987 23.6551C66.7235 23.3532 67.0309 22.9619 67.221 22.4812H68.5793C68.3334 23.2973 67.8582 23.9625 67.1539 24.4768C66.4608 24.991 65.6167 25.2482 64.6217 25.2482ZM70.138 25.114V16.7293H71.3957V18.7919C71.4404 18.6466 71.5242 18.4565 71.6472 18.2217C71.7814 17.9758 71.9714 17.7298 72.2174 17.4839C72.4633 17.2379 72.7708 17.0311 73.1397 16.8634C73.5198 16.6845 73.967 16.5951 74.4813 16.5951H74.5651V17.8528H74.4142C73.7881 17.8528 73.2459 18.0261 72.7875 18.3727C72.3404 18.7081 71.9938 19.1497 71.7478 19.6975C71.5131 20.2341 71.3957 20.8098 71.3957 21.4247V25.114H70.138ZM79.1889 25.2482C78.6187 25.2482 78.0765 25.114 77.5623 24.8457C77.048 24.5662 76.6288 24.1582 76.3046 23.6215C75.9915 23.0737 75.835 22.4029 75.835 21.6092V16.7293H77.0927V21.5756C77.0927 22.3359 77.3107 22.9507 77.7467 23.4203C78.1939 23.8787 78.7585 24.1078 79.4405 24.1078C79.91 24.1078 80.3348 24.0016 80.7149 23.7892C81.095 23.5656 81.3969 23.2638 81.6205 22.8837C81.8553 22.5036 81.9726 22.062 81.9726 21.5589V16.7293H83.2304V25.114H81.9726V23.806C81.6708 24.2085 81.3019 24.5494 80.8659 24.8289C80.4299 25.1084 79.8709 25.2482 79.1889 25.2482ZM85.3669 15.3206V13.6772H86.7252V15.3206H85.3669ZM85.4172 25.114V16.7293H86.6749V25.114H85.4172ZM89.7618 25.114V17.8361H88.0513V16.7293H89.7618V13.7275H91.0195V16.7293H92.948V17.8361H91.0195V25.114H89.7618ZM94.5943 25.114V14.0126H95.852V18.9428H102.308V14.0126H103.566V25.114H102.308V20.167H95.852V25.114H94.5943ZM105.968 15.3206V13.6772H107.327V15.3206H105.968ZM106.019 25.114V16.7293H107.277V25.114H106.019ZM109.458 25.114V16.7293H110.716V18.7919C110.76 18.6466 110.844 18.4565 110.967 18.2217C111.101 17.9758 111.291 17.7298 111.537 17.4839C111.783 17.2379 112.091 17.0311 112.46 16.8634C112.84 16.6845 113.287 16.5951 113.801 16.5951H113.885V17.8528H113.734C113.108 17.8528 112.566 18.0261 112.107 18.3727C111.66 18.7081 111.314 19.1497 111.068 19.6975C110.833 20.2341 110.716 20.8098 110.716 21.4247V25.114H109.458ZM118.749 25.2482C117.899 25.2482 117.156 25.0581 116.518 24.678C115.881 24.2867 115.384 23.7613 115.026 23.1017C114.679 22.4421 114.506 21.7154 114.506 20.9216C114.506 20.1167 114.674 19.39 115.009 18.7416C115.344 18.082 115.825 17.5621 116.451 17.182C117.077 16.7908 117.815 16.5951 118.665 16.5951C119.526 16.5951 120.264 16.7908 120.878 17.182C121.504 17.5621 121.985 18.082 122.321 18.7416C122.656 19.39 122.824 20.1167 122.824 20.9216V21.4247H115.797C115.864 21.9166 116.021 22.3694 116.267 22.7831C116.524 23.1855 116.865 23.5097 117.29 23.7557C117.715 23.9905 118.206 24.1078 118.765 24.1078C119.358 24.1078 119.855 23.9793 120.258 23.7221C120.66 23.4538 120.973 23.1129 121.197 22.6992H122.572C122.281 23.4482 121.818 24.0631 121.18 24.5439C120.554 25.0134 119.744 25.2482 118.749 25.2482ZM115.814 20.2509H121.516C121.404 19.5354 121.102 18.9372 120.61 18.4565C120.118 17.9758 119.47 17.7354 118.665 17.7354C117.86 17.7354 117.211 17.9758 116.72 18.4565C116.239 18.9372 115.937 19.5354 115.814 20.2509Z" fill="#335EEA"/>
<path d="M40.9286 25.114H40.7314V25.3113H40.9286V25.114ZM40.9286 14.0126V13.8153H40.7314V14.0126H40.9286ZM48.9612 14.9517L48.8266 15.0959L48.8278 15.097L48.9612 14.9517ZM49.5649 19.1944L49.4001 19.0859L49.3981 19.089L49.5649 19.1944ZM48.542 20.167L48.6321 20.3426L48.6358 20.3406L48.542 20.167ZM47.3011 20.6366L47.2544 20.4449L46.9836 20.5107L47.1358 20.7443L47.3011 20.6366ZM50.2189 25.114V25.3113H50.583L50.3842 25.0063L50.2189 25.114ZM48.7265 25.114L48.5595 25.2192L48.6176 25.3113H48.7265V25.114ZM46.0433 20.8546L46.2103 20.7494L46.1522 20.6573H46.0433V20.8546ZM42.1864 20.8546V20.6573H41.9891V20.8546H42.1864ZM42.1864 25.114V25.3113H42.3836V25.114H42.1864ZM42.1864 19.6639H41.9891V19.8612H42.1864V19.6639ZM47.2507 19.4795L47.1945 19.2904L47.1945 19.2904L47.2507 19.4795ZM48.2905 18.8255L48.1436 18.6938L48.1433 18.6941L48.2905 18.8255ZM48.0054 15.8237L47.8767 15.9733L47.8787 15.975L48.0054 15.8237ZM42.1864 15.2032V15.006H41.9891V15.2032H42.1864ZM41.1259 25.114V14.0126H40.7314V25.114H41.1259ZM40.9286 14.2099H46.2446V13.8153H40.9286V14.2099ZM46.2446 14.2099C47.3476 14.2099 48.2007 14.5117 48.8266 15.0959L49.0958 14.8075C48.3802 14.1395 47.4222 13.8153 46.2446 13.8153V14.2099ZM48.8278 15.097C49.4629 15.6801 49.7869 16.4681 49.7869 17.4839H50.1815C50.1815 16.3755 49.8235 15.4754 49.0947 14.8064L48.8278 15.097ZM49.7869 17.4839C49.7869 18.1759 49.6514 18.7039 49.4001 19.0859L49.7298 19.3028C50.0374 18.8352 50.1815 18.2229 50.1815 17.4839H49.7869ZM49.3981 19.089C49.1466 19.4873 48.83 19.7871 48.4482 19.9935L48.6358 20.3406C49.0813 20.0998 49.4466 19.7512 49.7317 19.2997L49.3981 19.089ZM48.4519 19.9915C48.0508 20.1975 47.6517 20.3482 47.2544 20.4449L47.3477 20.8283C47.7777 20.7236 48.2059 20.5614 48.6321 20.3425L48.4519 19.9915ZM47.1358 20.7443L50.0537 25.2217L50.3842 25.0063L47.4663 20.5288L47.1358 20.7443ZM50.2189 24.9167H48.7265V25.3113H50.2189V24.9167ZM48.8934 25.0089L46.2103 20.7494L45.8764 20.9597L48.5595 25.2192L48.8934 25.0089ZM46.0433 20.6573H42.1864V21.0518H46.0433V20.6573ZM41.9891 20.8546V25.114H42.3836V20.8546H41.9891ZM42.1864 24.9167H40.9286V25.3113H42.1864V24.9167ZM42.1864 19.8612H46.0266V19.4666H42.1864V19.8612ZM46.0266 19.8612C46.4494 19.8612 46.8764 19.7966 47.307 19.6686L47.1945 19.2904C46.7978 19.4083 46.4087 19.4666 46.0266 19.4666V19.8612ZM47.307 19.6686C47.7546 19.5355 48.133 19.298 48.4376 18.9568L48.1433 18.6941C47.8889 18.979 47.5741 19.1775 47.1945 19.2904L47.307 19.6686ZM48.4373 18.9571C48.7694 18.5867 48.9237 18.0873 48.9237 17.4839H48.5292C48.5292 18.0208 48.3928 18.4158 48.1436 18.6938L48.4373 18.9571ZM48.9237 17.4839C48.9237 16.7293 48.6634 16.1173 48.132 15.6724L47.8787 15.975C48.3088 16.3351 48.5292 16.8299 48.5292 17.4839H48.9237ZM48.1341 15.6742C47.6092 15.2226 46.9224 15.006 46.0936 15.006V15.4005C46.8525 15.4005 47.4401 15.5976 47.8767 15.9733L48.1341 15.6742ZM46.0936 15.006H42.1864V15.4005H46.0936V15.006ZM41.9891 15.2032V19.6639H42.3836V15.2032H41.9891ZM53.1742 24.678L53.0709 24.8461L53.0731 24.8474L53.1742 24.678ZM51.6817 23.1017L51.507 23.1934L51.5083 23.1957L51.6817 23.1017ZM51.6649 18.7416L51.8402 18.8322L51.8408 18.831L51.6649 18.7416ZM53.1071 17.182L53.2095 17.3507L53.2117 17.3493L53.1071 17.182ZM57.5342 17.182L57.4283 17.3485L57.4319 17.3507L57.5342 17.182ZM58.9764 18.7416L58.8006 18.831L58.8012 18.8322L58.9764 18.7416ZM59.4795 21.4247V21.622H59.6768V21.4247H59.4795ZM52.4531 21.4247V21.2274H52.2271L52.2576 21.4514L52.4531 21.4247ZM52.9226 22.7831L52.753 22.8839L52.7564 22.8893L52.9226 22.7831ZM53.9456 23.7557L53.8467 23.9265L53.8501 23.9284L53.9456 23.7557ZM56.9138 23.7221L57.02 23.8884L57.0232 23.8863L56.9138 23.7221ZM57.8529 22.6992V22.5019H57.7352L57.6793 22.6054L57.8529 22.6992ZM59.228 22.6992L59.4119 22.7706L59.5161 22.5019H59.228V22.6992ZM57.8361 24.5439L57.9545 24.7017L57.9549 24.7013L57.8361 24.5439ZM52.4699 20.2509L52.2754 20.2174L52.2358 20.4481H52.4699V20.2509ZM58.1715 20.2509V20.4481H58.402L58.3664 20.2204L58.1715 20.2509ZM57.2659 18.4565L57.4038 18.3154L57.4038 18.3154L57.2659 18.4565ZM53.3754 18.4565L53.2375 18.3154L53.2359 18.317L53.3754 18.4565ZM55.4045 25.0509C54.5852 25.0509 53.8777 24.8679 53.2752 24.5086L53.0731 24.8474C53.7451 25.2483 54.5245 25.4455 55.4045 25.4455V25.0509ZM53.2774 24.5099C52.6698 24.1368 52.1964 23.6369 51.8551 23.0076L51.5083 23.1957C51.8825 23.8856 52.4041 24.4367 53.0709 24.8461L53.2774 24.5099ZM51.8563 23.0099C51.5256 22.3805 51.3591 21.6856 51.3591 20.9216H50.9645C50.9645 21.7452 51.1446 22.5037 51.507 23.1934L51.8563 23.0099ZM51.3591 20.9216C51.3591 20.145 51.5207 19.4499 51.8402 18.8322L51.4897 18.651C51.1384 19.3302 50.9645 20.0885 50.9645 20.9216H51.3591ZM51.8408 18.831C52.1597 18.2038 52.6152 17.7115 53.2095 17.3507L53.0047 17.0134C52.3469 17.4128 51.8409 17.9602 51.4891 18.6522L51.8408 18.831ZM53.2117 17.3493C53.8019 16.9805 54.5023 16.7924 55.3207 16.7924V16.3978C54.4397 16.3978 53.6645 16.601 53.0025 17.0147L53.2117 17.3493ZM55.3207 16.7924C56.1509 16.7924 56.8505 16.9807 57.4283 17.3485L57.6402 17.0156C56.9883 16.6008 56.2121 16.3978 55.3207 16.3978V16.7924ZM57.4319 17.3507C58.0262 17.7115 58.4816 18.2038 58.8006 18.831L59.1523 18.6522C58.8004 17.9602 58.2944 17.4128 57.6366 17.0134L57.4319 17.3507ZM58.8012 18.8322C59.1206 19.4499 59.2822 20.145 59.2822 20.9216H59.6768C59.6768 20.0885 59.503 19.3302 59.1517 18.651L58.8012 18.8322ZM59.2822 20.9216V21.4247H59.6768V20.9216H59.2822ZM59.4795 21.2274H52.4531V21.622H59.4795V21.2274ZM52.2576 21.4514C52.3281 21.9686 52.4932 22.4468 52.7531 22.8839L53.0922 22.6822C52.8602 22.292 52.7122 21.8646 52.6486 21.3981L52.2576 21.4514ZM52.7564 22.8893C53.031 23.3191 53.3954 23.6651 53.8467 23.9264L54.0444 23.5849C53.6461 23.3543 53.3285 23.052 53.0889 22.6768L52.7564 22.8893ZM53.8501 23.9284C54.3084 24.1816 54.834 24.3051 55.4213 24.3051V23.9106C54.8906 23.9106 54.4324 23.7993 54.041 23.583L53.8501 23.9284ZM55.4213 24.3051C56.0424 24.3051 56.5789 24.1702 57.02 23.8884L56.8076 23.5559C56.4437 23.7884 55.9852 23.9106 55.4213 23.9106V24.3051ZM57.0232 23.8863C57.4517 23.6007 57.7871 23.2358 58.0264 22.793L57.6793 22.6054C57.4715 22.9899 57.1808 23.307 56.8043 23.558L57.0232 23.8863ZM57.8529 22.8965H59.228V22.5019H57.8529V22.8965ZM59.044 22.6278C58.7666 23.3429 58.325 23.9279 57.7173 24.3864L57.9549 24.7013C58.6216 24.1984 59.108 23.5536 59.4119 22.7706L59.044 22.6278ZM57.7177 24.386C57.1341 24.8237 56.3685 25.0509 55.4045 25.0509V25.4455C56.4305 25.4455 57.286 25.2031 57.9545 24.7017L57.7177 24.386ZM52.4699 20.4481H58.1715V20.0536H52.4699V20.4481ZM58.3664 20.2204C58.2484 19.4652 57.9279 18.8275 57.4038 18.3154L57.128 18.5976C57.5878 19.0469 57.871 19.6055 57.9766 20.2813L58.3664 20.2204ZM57.4038 18.3154C56.8688 17.7926 56.1677 17.5381 55.3207 17.5381V17.9327C56.0835 17.9327 56.6792 18.159 57.128 18.5976L57.4038 18.3154ZM55.3207 17.5381C54.4736 17.5381 53.7725 17.7926 53.2375 18.3154L53.5133 18.5976C53.9621 18.159 54.5578 17.9327 55.3207 17.9327V17.5381ZM53.2359 18.317C52.7243 18.8286 52.4048 19.4646 52.2754 20.2174L52.6643 20.2843C52.7809 19.6061 53.065 19.0459 53.5149 18.596L53.2359 18.317ZM62.4417 24.678L62.3358 24.8445L62.3379 24.8458L62.4417 24.678ZM60.9995 23.1017L60.8236 23.1911L60.8249 23.1934L60.9995 23.1017ZM60.9995 18.7416L60.8249 18.6498L60.8243 18.651L60.9995 18.7416ZM62.4417 17.182L62.5454 17.3499L62.5476 17.3485L62.4417 17.182ZM67.1539 17.3665L67.0364 17.525L67.0376 17.5258L67.1539 17.3665ZM68.5793 19.3621V19.5594H68.8448L68.7682 19.3051L68.5793 19.3621ZM67.221 19.3621L67.0375 19.4346L67.0868 19.5594H67.221V19.3621ZM66.2987 18.1882L66.1824 18.3476L66.1844 18.349L66.2987 18.1882ZM63.1795 18.1714L63.0739 18.0048L63.0739 18.0048L63.1795 18.1714ZM62.1231 19.3285L61.9474 19.2387L61.9474 19.2387L62.1231 19.3285ZM62.1231 22.5147L61.9466 22.603L61.9474 22.6046L62.1231 22.5147ZM63.1795 23.6718L63.0739 23.8384L63.0739 23.8384L63.1795 23.6718ZM66.2987 23.6551L66.1844 23.4942L66.1824 23.4957L66.2987 23.6551ZM67.221 22.4812V22.2839H67.0868L67.0375 22.4087L67.221 22.4812ZM68.5793 22.4812L68.7682 22.5381L68.8448 22.2839H68.5793V22.4812ZM67.1539 24.4768L67.0376 24.3174L67.0364 24.3183L67.1539 24.4768ZM64.6217 25.0509C63.8139 25.0509 63.1244 24.8681 62.5454 24.5102L62.3379 24.8458C62.9887 25.2481 63.7526 25.4455 64.6217 25.4455V25.0509ZM62.5476 24.5116C61.9624 24.1392 61.5051 23.6398 61.1742 23.0099L60.8249 23.1934C61.1871 23.8828 61.6912 24.4343 62.3358 24.8445L62.5476 24.5116ZM61.1754 23.0123C60.8551 22.3823 60.6937 21.6866 60.6937 20.9216H60.2991C60.2991 21.7442 60.4732 22.5018 60.8236 23.1911L61.1754 23.0123ZM60.6937 20.9216C60.6937 20.145 60.8553 19.4499 61.1747 18.8322L60.8243 18.651C60.4729 19.3302 60.2991 20.0885 60.2991 20.9216H60.6937ZM61.1742 18.8334C61.5048 18.204 61.9615 17.7108 62.5454 17.3499L62.3379 17.0142C61.6921 17.4135 61.1873 17.96 60.8249 18.6498L61.1742 18.8334ZM62.5476 17.3485C63.1263 16.9802 63.815 16.7924 64.6217 16.7924V16.3978C63.7515 16.3978 62.9868 16.6013 62.3358 17.0156L62.5476 17.3485ZM64.6217 16.7924C65.5811 16.7924 66.3823 17.0396 67.0364 17.5249L67.2715 17.2081C66.5393 16.6648 65.6523 16.3978 64.6217 16.3978V16.7924ZM67.0376 17.5258C67.7081 18.0154 68.1572 18.645 68.3904 19.419L68.7682 19.3051C68.5096 18.4469 68.0084 17.7461 67.2703 17.2072L67.0376 17.5258ZM68.5793 19.1648H67.221V19.5594H68.5793V19.1648ZM67.4045 19.2895C67.2002 18.773 66.8686 18.3512 66.4129 18.0274L66.1844 18.349C66.5784 18.629 66.8616 18.9897 67.0375 19.4346L67.4045 19.2895ZM66.415 18.0288C65.9624 17.6986 65.4169 17.5381 64.7894 17.5381V17.9327C65.3469 17.9327 65.8076 18.0741 66.1824 18.3476L66.415 18.0288ZM64.7894 17.5381C64.1422 17.5381 63.5679 17.6916 63.0739 18.0048L63.2852 18.3381C63.7079 18.07 64.2068 17.9327 64.7894 17.9327V17.5381ZM63.0739 18.0048C62.5859 18.3143 62.2095 18.7264 61.9474 19.2387L62.2987 19.4184C62.5285 18.9692 62.8564 18.61 63.2852 18.3381L63.0739 18.0048ZM61.9474 19.2387C61.6862 19.7493 61.5568 20.3115 61.5568 20.9216H61.9514C61.9514 20.3691 62.0681 19.8692 62.2987 19.4184L61.9474 19.2387ZM61.5568 20.9216C61.5568 21.5213 61.6864 22.0827 61.9466 22.603L62.2995 22.4265C62.0678 21.963 61.9514 21.4623 61.9514 20.9216H61.5568ZM61.9474 22.6046C62.2095 23.1169 62.5859 23.529 63.0739 23.8384L63.2852 23.5052C62.8564 23.2333 62.5285 22.8741 62.2987 22.4249L61.9474 22.6046ZM63.0739 23.8384C63.5679 24.1517 64.1422 24.3051 64.7894 24.3051V23.9106C64.2068 23.9106 63.7079 23.7733 63.2852 23.5052L63.0739 23.8384ZM64.7894 24.3051C65.4169 24.3051 65.9624 24.1447 66.415 23.8144L66.1824 23.4957C65.8076 23.7692 65.3469 23.9106 64.7894 23.9106V24.3051ZM66.4129 23.8159C66.8686 23.4921 67.2002 23.0703 67.4045 22.5537L67.0375 22.4087C66.8616 22.8536 66.5784 23.2143 66.1844 23.4942L66.4129 23.8159ZM67.221 22.6785H68.5793V22.2839H67.221V22.6785ZM68.3904 22.4243C68.1572 23.1983 67.7081 23.8279 67.0376 24.3174L67.2703 24.6361C68.0084 24.0971 68.5096 23.3964 68.7682 22.5381L68.3904 22.4243ZM67.0364 24.3183C66.3823 24.8036 65.5811 25.0509 64.6217 25.0509V25.4455C65.6523 25.4455 66.5393 25.1784 67.2715 24.6352L67.0364 24.3183ZM70.138 25.114H69.9407V25.3113H70.138V25.114ZM70.138 16.7293V16.532H69.9407V16.7293H70.138ZM71.3957 16.7293H71.593V16.532H71.3957V16.7293ZM71.3957 18.7919H71.1984L71.5842 18.8499L71.3957 18.7919ZM71.6472 18.2217L71.474 18.1273L71.4725 18.1302L71.6472 18.2217ZM72.2174 17.4839L72.3569 17.6234L72.3569 17.6234L72.2174 17.4839ZM73.1397 16.8634L73.2214 17.043L73.2237 17.0419L73.1397 16.8634ZM74.5651 16.5951H74.7624V16.3978H74.5651V16.5951ZM74.5651 17.8528V18.0501H74.7624V17.8528H74.5651ZM72.7875 18.3727L72.9059 18.5305L72.9065 18.53L72.7875 18.3727ZM71.7478 19.6975L71.5678 19.6167L71.5671 19.6184L71.7478 19.6975ZM71.3957 25.114V25.3113H71.593V25.114H71.3957ZM70.3353 25.114V16.7293H69.9407V25.114H70.3353ZM70.138 16.9266H71.3957V16.532H70.138V16.9266ZM71.1984 16.7293V18.7919H71.593V16.7293H71.1984ZM71.5842 18.8499C71.6237 18.7216 71.7011 18.544 71.822 18.3133L71.4725 18.1302C71.3473 18.3691 71.2571 18.5715 71.2071 18.7339L71.5842 18.8499ZM71.8204 18.3162C71.9437 18.0902 72.1212 17.8591 72.3569 17.6234L72.0779 17.3444C71.8217 17.6006 71.6191 17.8614 71.474 18.1273L71.8204 18.3162ZM72.3569 17.6234C72.5836 17.3967 72.8705 17.2025 73.2213 17.043L73.0581 16.6838C72.6711 16.8597 72.3431 17.0792 72.0779 17.3444L72.3569 17.6234ZM73.2237 17.0419C73.5723 16.8779 73.9897 16.7924 74.4813 16.7924V16.3978C73.9443 16.3978 73.4673 16.4912 73.0557 16.6849L73.2237 17.0419ZM74.4813 16.7924H74.5651V16.3978H74.4813V16.7924ZM74.3678 16.5951V17.8528H74.7624V16.5951H74.3678ZM74.5651 17.6555H74.4142V18.0501H74.5651V17.6555ZM74.4142 17.6555C73.7492 17.6555 73.1643 17.8405 72.6686 18.2153L72.9065 18.53C73.3275 18.2117 73.827 18.0501 74.4142 18.0501V17.6555ZM72.6692 18.2148C72.1933 18.5718 71.8264 19.0407 71.5679 19.6167L71.9278 19.7783C72.1611 19.2586 72.4874 18.8444 72.9059 18.5305L72.6692 18.2148ZM71.5671 19.6184C71.3209 20.1812 71.1984 20.784 71.1984 21.4247H71.593C71.593 20.8357 71.7053 20.287 71.9286 19.7765L71.5671 19.6184ZM71.1984 21.4247V25.114H71.593V21.4247H71.1984ZM71.3957 24.9167H70.138V25.3113H71.3957V24.9167ZM77.5623 24.8457L77.468 25.0191L77.471 25.0206L77.5623 24.8457ZM76.3046 23.6215L76.1332 23.7194L76.1357 23.7235L76.3046 23.6215ZM75.835 16.7293V16.532H75.6377V16.7293H75.835ZM77.0927 16.7293H77.29V16.532H77.0927V16.7293ZM77.7467 23.4203L77.6021 23.5546L77.6055 23.5581L77.7467 23.4203ZM80.7149 23.7892L80.8112 23.9615L80.815 23.9593L80.7149 23.7892ZM81.6205 22.8837L81.4526 22.78L81.4504 22.7836L81.6205 22.8837ZM81.9726 16.7293V16.532H81.7754V16.7293H81.9726ZM83.2304 16.7293H83.4276V16.532H83.2304V16.7293ZM83.2304 25.114V25.3113H83.4276V25.114H83.2304ZM81.9726 25.114H81.7754V25.3113H81.9726V25.114ZM81.9726 23.806H82.1699V23.2141L81.8148 23.6876L81.9726 23.806ZM80.8659 24.8289L80.9723 24.995L80.9723 24.995L80.8659 24.8289ZM79.1889 25.0509C78.6511 25.0509 78.1401 24.9247 77.6535 24.6708L77.471 25.0206C78.0129 25.3034 78.5864 25.4455 79.1889 25.4455V25.0509ZM77.6565 24.6724C77.1752 24.4108 76.7808 24.0284 76.4734 23.5195L76.1357 23.7235C76.4767 24.2879 76.9208 24.7216 77.4681 25.019L77.6565 24.6724ZM76.4758 23.5236C76.1837 23.0124 76.0323 22.3773 76.0323 21.6092H75.6377C75.6377 22.4285 75.7993 23.135 76.1333 23.7194L76.4758 23.5236ZM76.0323 21.6092V16.7293H75.6377V21.6092H76.0323ZM75.835 16.9266H77.0927V16.532H75.835V16.9266ZM76.8954 16.7293V21.5756H77.29V16.7293H76.8954ZM76.8954 21.5756C76.8954 22.3758 77.1261 23.0419 77.6022 23.5545L77.8913 23.286C77.4953 22.8596 77.29 22.2959 77.29 21.5756H76.8954ZM77.6055 23.5581C78.0924 24.0572 78.7092 24.3051 79.4405 24.3051V23.9106C78.8078 23.9106 78.2954 23.7002 77.8879 23.2825L77.6055 23.5581ZM79.4405 24.3051C79.941 24.3051 80.3994 24.1916 80.8112 23.9614L80.6187 23.617C80.2703 23.8117 79.879 23.9106 79.4405 23.9106V24.3051ZM80.815 23.9593C81.224 23.7187 81.5499 23.3927 81.7905 22.9837L81.4504 22.7836C81.2439 23.1348 80.9661 23.4126 80.6149 23.6192L80.815 23.9593ZM81.7883 22.9873C82.0447 22.5723 82.1699 22.0938 82.1699 21.5589H81.7754C81.7754 22.0301 81.6658 22.4348 81.4526 22.78L81.7883 22.9873ZM82.1699 21.5589V16.7293H81.7754V21.5589H82.1699ZM81.9726 16.9266H83.2304V16.532H81.9726V16.9266ZM83.0331 16.7293V25.114H83.4276V16.7293H83.0331ZM83.2304 24.9167H81.9726V25.3113H83.2304V24.9167ZM82.1699 25.114V23.806H81.7754V25.114H82.1699ZM81.8148 23.6876C81.5275 24.0707 81.1762 24.3957 80.7594 24.6628L80.9723 24.995C81.4276 24.7032 81.8141 24.3462 82.1305 23.9244L81.8148 23.6876ZM80.7594 24.6628C80.3638 24.9164 79.8448 25.0509 79.1889 25.0509V25.4455C79.8969 25.4455 80.4959 25.3004 80.9723 24.995L80.7594 24.6628ZM85.3669 15.3206H85.1696V15.5179H85.3669V15.3206ZM85.3669 13.6772V13.4799H85.1696V13.6772H85.3669ZM86.7252 13.6772H86.9225V13.4799H86.7252V13.6772ZM86.7252 15.3206V15.5179H86.9225V15.3206H86.7252ZM85.4172 25.114H85.2199V25.3113H85.4172V25.114ZM85.4172 16.7293V16.532H85.2199V16.7293H85.4172ZM86.6749 16.7293H86.8722V16.532H86.6749V16.7293ZM86.6749 25.114V25.3113H86.8722V25.114H86.6749ZM85.5642 15.3206V13.6772H85.1696V15.3206H85.5642ZM85.3669 13.8745H86.7252V13.4799H85.3669V13.8745ZM86.5279 13.6772V15.3206H86.9225V13.6772H86.5279ZM86.7252 15.1233H85.3669V15.5179H86.7252V15.1233ZM85.6145 25.114V16.7293H85.2199V25.114H85.6145ZM85.4172 16.9266H86.6749V16.532H85.4172V16.9266ZM86.4776 16.7293V25.114H86.8722V16.7293H86.4776ZM86.6749 24.9167H85.4172V25.3113H86.6749V24.9167ZM89.7618 25.114H89.5645V25.3113H89.7618V25.114ZM89.7618 17.8361H89.9591V17.6388H89.7618V17.8361ZM88.0513 17.8361H87.854V18.0333H88.0513V17.8361ZM88.0513 16.7293V16.532H87.854V16.7293H88.0513ZM89.7618 16.7293V16.9266H89.9591V16.7293H89.7618ZM89.7618 13.7275V13.5302H89.5645V13.7275H89.7618ZM91.0195 13.7275H91.2168V13.5302H91.0195V13.7275ZM91.0195 16.7293H90.8222V16.9266H91.0195V16.7293ZM92.948 16.7293H93.1453V16.532H92.948V16.7293ZM92.948 17.8361V18.0333H93.1453V17.8361H92.948ZM91.0195 17.8361V17.6388H90.8222V17.8361H91.0195ZM91.0195 25.114V25.3113H91.2168V25.114H91.0195ZM89.9591 25.114V17.8361H89.5645V25.114H89.9591ZM89.7618 17.6388H88.0513V18.0333H89.7618V17.6388ZM88.2486 17.8361V16.7293H87.854V17.8361H88.2486ZM88.0513 16.9266H89.7618V16.532H88.0513V16.9266ZM89.9591 16.7293V13.7275H89.5645V16.7293H89.9591ZM89.7618 13.9248H91.0195V13.5302H89.7618V13.9248ZM90.8222 13.7275V16.7293H91.2168V13.7275H90.8222ZM91.0195 16.9266H92.948V16.532H91.0195V16.9266ZM92.7507 16.7293V17.8361H93.1453V16.7293H92.7507ZM92.948 17.6388H91.0195V18.0333H92.948V17.6388ZM90.8222 17.8361V25.114H91.2168V17.8361H90.8222ZM91.0195 24.9167H89.7618V25.3113H91.0195V24.9167ZM94.5943 25.114H94.397V25.3113H94.5943V25.114ZM94.5943 14.0126V13.8153H94.397V14.0126H94.5943ZM95.852 14.0126H96.0493V13.8153H95.852V14.0126ZM95.852 18.9428H95.6547V19.1401H95.852V18.9428ZM102.308 18.9428V19.1401H102.506V18.9428H102.308ZM102.308 14.0126V13.8153H102.111V14.0126H102.308ZM103.566 14.0126H103.763V13.8153H103.566V14.0126ZM103.566 25.114V25.3113H103.763V25.114H103.566ZM102.308 25.114H102.111V25.3113H102.308V25.114ZM102.308 20.167H102.506V19.9697H102.308V20.167ZM95.852 20.167V19.9697H95.6547V20.167H95.852ZM95.852 25.114V25.3113H96.0493V25.114H95.852ZM94.7916 25.114V14.0126H94.397V25.114H94.7916ZM94.5943 14.2099H95.852V13.8153H94.5943V14.2099ZM95.6547 14.0126V18.9428H96.0493V14.0126H95.6547ZM95.852 19.1401H102.308V18.7455H95.852V19.1401ZM102.506 18.9428V14.0126H102.111V18.9428H102.506ZM102.308 14.2099H103.566V13.8153H102.308V14.2099ZM103.369 14.0126V25.114H103.763V14.0126H103.369ZM103.566 24.9167H102.308V25.3113H103.566V24.9167ZM102.506 25.114V20.167H102.111V25.114H102.506ZM102.308 19.9697H95.852V20.3643H102.308V19.9697ZM95.6547 20.167V25.114H96.0493V20.167H95.6547ZM95.852 24.9167H94.5943V25.3113H95.852V24.9167ZM105.968 15.3206H105.771V15.5179H105.968V15.3206ZM105.968 13.6772V13.4799H105.771V13.6772H105.968ZM107.327 13.6772H107.524V13.4799H107.327V13.6772ZM107.327 15.3206V15.5179H107.524V15.3206H107.327ZM106.019 25.114H105.822V25.3113H106.019V25.114ZM106.019 16.7293V16.532H105.822V16.7293H106.019ZM107.277 16.7293H107.474V16.532H107.277V16.7293ZM107.277 25.114V25.3113H107.474V25.114H107.277ZM106.166 15.3206V13.6772H105.771V15.3206H106.166ZM105.968 13.8745H107.327V13.4799H105.968V13.8745ZM107.13 13.6772V15.3206H107.524V13.6772H107.13ZM107.327 15.1233H105.968V15.5179H107.327V15.1233ZM106.216 25.114V16.7293H105.822V25.114H106.216ZM106.019 16.9266H107.277V16.532H106.019V16.9266ZM107.079 16.7293V25.114H107.474V16.7293H107.079ZM107.277 24.9167H106.019V25.3113H107.277V24.9167ZM109.458 25.114H109.261V25.3113H109.458V25.114ZM109.458 16.7293V16.532H109.261V16.7293H109.458ZM110.716 16.7293H110.913V16.532H110.716V16.7293ZM110.716 18.7919H110.518L110.904 18.8499L110.716 18.7919ZM110.967 18.2217L110.794 18.1273L110.792 18.1302L110.967 18.2217ZM111.537 17.4839L111.677 17.6234L111.677 17.6234L111.537 17.4839ZM112.46 16.8634L112.541 17.043L112.544 17.0419L112.46 16.8634ZM113.885 16.5951H114.082V16.3978H113.885V16.5951ZM113.885 17.8528V18.0501H114.082V17.8528H113.885ZM112.107 18.3727L112.226 18.5305L112.226 18.53L112.107 18.3727ZM111.068 19.6975L110.888 19.6167L110.887 19.6184L111.068 19.6975ZM110.716 25.114V25.3113H110.913V25.114H110.716ZM109.655 25.114V16.7293H109.261V25.114H109.655ZM109.458 16.9266H110.716V16.532H109.458V16.9266ZM110.518 16.7293V18.7919H110.913V16.7293H110.518ZM110.904 18.8499C110.944 18.7216 111.021 18.544 111.142 18.3133L110.792 18.1302C110.667 18.3691 110.577 18.5715 110.527 18.7339L110.904 18.8499ZM111.14 18.3162C111.264 18.0902 111.441 17.8591 111.677 17.6234L111.398 17.3444C111.142 17.6006 110.939 17.8614 110.794 18.1273L111.14 18.3162ZM111.677 17.6234C111.903 17.3967 112.19 17.2025 112.541 17.043L112.378 16.6838C111.991 16.8597 111.663 17.0792 111.398 17.3444L111.677 17.6234ZM112.544 17.0419C112.892 16.8779 113.31 16.7924 113.801 16.7924V16.3978C113.264 16.3978 112.787 16.4912 112.376 16.6849L112.544 17.0419ZM113.801 16.7924H113.885V16.3978H113.801V16.7924ZM113.688 16.5951V17.8528H114.082V16.5951H113.688ZM113.885 17.6555H113.734V18.0501H113.885V17.6555ZM113.734 17.6555C113.069 17.6555 112.484 17.8405 111.988 18.2153L112.226 18.53C112.647 18.2117 113.147 18.0501 113.734 18.0501V17.6555ZM111.989 18.2148C111.513 18.5718 111.146 19.0407 110.888 19.6167L111.248 19.7783C111.481 19.2586 111.807 18.8444 112.226 18.5305L111.989 18.2148ZM110.887 19.6184C110.641 20.1812 110.518 20.784 110.518 21.4247H110.913C110.913 20.8357 111.025 20.287 111.248 19.7765L110.887 19.6184ZM110.518 21.4247V25.114H110.913V21.4247H110.518ZM110.716 24.9167H109.458V25.3113H110.716V24.9167ZM116.518 24.678L116.415 24.8461L116.417 24.8474L116.518 24.678ZM115.026 23.1017L114.851 23.1934L114.852 23.1957L115.026 23.1017ZM115.009 18.7416L115.184 18.8322L115.185 18.831L115.009 18.7416ZM116.451 17.182L116.554 17.3507L116.556 17.3493L116.451 17.182ZM120.878 17.182L120.772 17.3485L120.776 17.3507L120.878 17.182ZM122.321 18.7416L122.145 18.831L122.145 18.8322L122.321 18.7416ZM122.824 21.4247V21.622H123.021V21.4247H122.824ZM115.797 21.4247V21.2274H115.571L115.602 21.4514L115.797 21.4247ZM116.267 22.7831L116.097 22.8839L116.101 22.8893L116.267 22.7831ZM117.29 23.7557L117.191 23.9265L117.194 23.9284L117.29 23.7557ZM120.258 23.7221L120.364 23.8884L120.367 23.8863L120.258 23.7221ZM121.197 22.6992V22.5019H121.079L121.023 22.6054L121.197 22.6992ZM122.572 22.6992L122.756 22.7706L122.86 22.5019H122.572V22.6992ZM121.18 24.5439L121.299 24.7017L121.299 24.7013L121.18 24.5439ZM115.814 20.2509L115.62 20.2174L115.58 20.4481H115.814V20.2509ZM121.516 20.2509V20.4481H121.746L121.711 20.2204L121.516 20.2509ZM120.61 18.4565L120.748 18.3154L120.748 18.3154L120.61 18.4565ZM116.72 18.4565L116.582 18.3154L116.58 18.317L116.72 18.4565ZM118.749 25.0509C117.929 25.0509 117.222 24.8679 116.619 24.5086L116.417 24.8474C117.089 25.2483 117.869 25.4455 118.749 25.4455V25.0509ZM116.622 24.5099C116.014 24.1368 115.541 23.6369 115.199 23.0076L114.852 23.1957C115.227 23.8856 115.748 24.4367 116.415 24.8461L116.622 24.5099ZM115.201 23.0099C114.87 22.3805 114.703 21.6856 114.703 20.9216H114.309C114.309 21.7452 114.489 22.5037 114.851 23.1934L115.201 23.0099ZM114.703 20.9216C114.703 20.145 114.865 19.4499 115.184 18.8322L114.834 18.651C114.483 19.3302 114.309 20.0885 114.309 20.9216H114.703ZM115.185 18.831C115.504 18.2038 115.959 17.7115 116.554 17.3507L116.349 17.0134C115.691 17.4128 115.185 17.9602 114.833 18.6522L115.185 18.831ZM116.556 17.3493C117.146 16.9805 117.846 16.7924 118.665 16.7924V16.3978C117.784 16.3978 117.009 16.601 116.347 17.0147L116.556 17.3493ZM118.665 16.7924C119.495 16.7924 120.195 16.9807 120.772 17.3485L120.984 17.0156C120.332 16.6008 119.556 16.3978 118.665 16.3978V16.7924ZM120.776 17.3507C121.37 17.7115 121.826 18.2038 122.145 18.831L122.496 18.6522C122.145 17.9602 121.639 17.4128 120.981 17.0134L120.776 17.3507ZM122.145 18.8322C122.465 19.4499 122.626 20.145 122.626 20.9216H123.021C123.021 20.0885 122.847 19.3302 122.496 18.651L122.145 18.8322ZM122.626 20.9216V21.4247H123.021V20.9216H122.626ZM122.824 21.2274H115.797V21.622H122.824V21.2274ZM115.602 21.4514C115.672 21.9686 115.837 22.4468 116.097 22.8839L116.436 22.6822C116.204 22.292 116.056 21.8646 115.993 21.3981L115.602 21.4514ZM116.101 22.8893C116.375 23.3191 116.74 23.6651 117.191 23.9264L117.389 23.5849C116.99 23.3543 116.673 23.052 116.433 22.6768L116.101 22.8893ZM117.194 23.9284C117.653 24.1816 118.178 24.3051 118.765 24.3051V23.9106C118.235 23.9106 117.777 23.7993 117.385 23.583L117.194 23.9284ZM118.765 24.3051C119.387 24.3051 119.923 24.1702 120.364 23.8884L120.152 23.5559C119.788 23.7884 119.329 23.9106 118.765 23.9106V24.3051ZM120.367 23.8863C120.796 23.6007 121.131 23.2358 121.371 22.793L121.023 22.6054C120.816 22.9899 120.525 23.307 120.149 23.558L120.367 23.8863ZM121.197 22.8965H122.572V22.5019H121.197V22.8965ZM122.388 22.6278C122.111 23.3429 121.669 23.9279 121.061 24.3864L121.299 24.7013C121.966 24.1984 122.452 23.5536 122.756 22.7706L122.388 22.6278ZM121.062 24.386C120.478 24.8237 119.713 25.0509 118.749 25.0509V25.4455C119.775 25.4455 120.63 25.2031 121.299 24.7017L121.062 24.386ZM115.814 20.4481H121.516V20.0536H115.814V20.4481ZM121.711 20.2204C121.593 19.4652 121.272 18.8275 120.748 18.3154L120.472 18.5976C120.932 19.0469 121.215 19.6055 121.321 20.2813L121.711 20.2204ZM120.748 18.3154C120.213 17.7926 119.512 17.5381 118.665 17.5381V17.9327C119.428 17.9327 120.023 18.159 120.472 18.5976L120.748 18.3154ZM118.665 17.5381C117.818 17.5381 117.117 17.7926 116.582 18.3154L116.857 18.5976C117.306 18.159 117.902 17.9327 118.665 17.9327V17.5381ZM116.58 18.317C116.069 18.8286 115.749 19.4646 115.62 20.2174L116.008 20.2843C116.125 19.6061 116.409 19.0459 116.859 18.596L116.58 18.317Z" fill="#335EEA"/>
<path fill-rule="evenodd" clip-rule="evenodd" d="M0.570312 15.0859C0.570312 23.2431 7.16512 29.8559 15.3002 29.8559C23.0983 29.8559 29.4811 23.7797 29.9966 16.0914H31.2025C31.4902 16.0914 31.6475 15.756 31.4637 15.5348L29.1606 12.7636C29.0249 12.6003 28.7741 12.6003 28.6384 12.7636L26.3354 15.5348C26.1515 15.756 26.3088 16.0914 26.5965 16.0914H27.9728C27.7972 18.3485 27.0352 20.4406 25.8395 22.2146C24.1339 19.1568 21.7449 17.1883 18.7027 16.3611C20.0104 15.3235 20.8495 13.718 20.8495 11.916C20.8495 8.78722 18.32 6.25082 15.1997 6.25082C12.0793 6.25082 9.54983 8.78722 9.54983 11.916C9.54983 13.69 10.363 15.2736 11.636 16.3124C10.3027 16.6742 9.02286 17.2588 7.80033 18.0659L7.74494 18.1024L7.6948 18.1459C7.61006 18.2195 7.53075 18.2899 7.45662 18.3576L6.22086 17.6441C5.96307 17.4953 5.65217 17.7266 5.72066 18.0163L6.52702 21.4269C6.57199 21.6171 6.76782 21.7301 6.95501 21.674L10.3118 20.667C10.597 20.5815 10.6419 20.1966 10.3841 20.0478L9.37323 19.4642C11.8562 17.9768 14.5769 17.5478 17.5862 18.1731C20.6017 18.7997 22.8763 20.6905 24.457 23.9271C22.1445 26.3348 18.8965 27.8327 15.2997 27.8327C8.27897 27.8327 2.58756 22.1258 2.58756 15.0859C2.58756 8.0461 8.27897 2.33918 15.2997 2.33918C18.8555 2.33918 22.0703 3.8031 24.3774 6.16268C24.5624 6.39293 24.8458 6.54025 25.1636 6.54025C25.7208 6.54025 26.1725 6.08732 26.1725 5.5286C26.1725 5.26601 26.0727 5.02677 25.9091 4.84696L25.9131 4.84343C23.2334 2.05236 19.4691 0.315796 15.3002 0.315796C7.16512 0.315796 0.570312 6.92858 0.570312 15.0859ZM18.8301 11.9167C18.8301 13.9281 17.204 15.5586 15.1981 15.5586C13.1922 15.5586 11.566 13.9281 11.566 11.9167C11.566 9.90532 13.1922 8.27477 15.1981 8.27477C17.204 8.27477 18.8301 9.90532 18.8301 11.9167Z" fill="#335EEA"/>
<path opacity="0.6" fill-rule="evenodd" clip-rule="evenodd" d="M43.6562 0.761032C43.6562 0.881034 43.6191 0.979718 43.5448 1.05709C43.4706 1.13446 43.3453 1.17314 43.169 1.17314H41.0808L40.7746 2.95422C41.121 2.87843 41.4412 2.84053 41.7351 2.84053C42.0816 2.84053 42.3871 2.89264 42.6516 2.99685C42.9161 3.10106 43.138 3.24475 43.3174 3.42791C43.4969 3.61107 43.6322 3.82739 43.7235 4.07687C43.8147 4.32635 43.8604 4.59793 43.8604 4.89161C43.8604 5.25162 43.7985 5.57689 43.6747 5.86742C43.551 6.15795 43.3816 6.40663 43.1666 6.61348C42.9516 6.82033 42.6987 6.97901 42.4079 7.08954C42.1172 7.20007 41.8032 7.25533 41.466 7.25533C41.2711 7.25533 41.0839 7.23559 40.9045 7.19612C40.7251 7.15665 40.558 7.10375 40.4033 7.03743C40.2487 6.97112 40.1048 6.89533 39.9718 6.81006C39.8388 6.7248 39.7212 6.6348 39.6191 6.54006L39.8697 6.18005C39.9254 6.09795 39.9996 6.05689 40.0924 6.05689C40.1512 6.05689 40.2201 6.08137 40.2989 6.13032C40.3778 6.17926 40.473 6.23374 40.5843 6.29374C40.6957 6.35374 40.8264 6.40821 40.9764 6.45716C41.1265 6.50611 41.3051 6.53058 41.5124 6.53058C41.7444 6.53058 41.9532 6.49269 42.1388 6.4169C42.3244 6.34111 42.483 6.23295 42.6144 6.09242C42.7459 5.95189 42.8472 5.78373 42.9184 5.58794C42.9895 5.39215 43.0251 5.17267 43.0251 4.92951C43.0251 4.71793 42.9949 4.52687 42.9346 4.35634C42.8743 4.18581 42.783 4.04055 42.6608 3.92055C42.5386 3.80055 42.3863 3.70739 42.2038 3.64107C42.0213 3.57475 41.8078 3.5416 41.5634 3.5416C41.3964 3.5416 41.2231 3.55581 41.0437 3.58423C40.8643 3.61265 40.6787 3.65844 40.4869 3.7216L39.9672 3.56528L40.5054 0.391553H43.6562V0.761032ZM50.1251 3.78783C50.1251 4.38152 50.0625 4.89547 49.9372 5.32969C49.8119 5.76391 49.641 6.12312 49.4244 6.40734C49.2079 6.69155 48.9519 6.90313 48.6565 7.04208C48.361 7.18103 48.0447 7.25051 47.7075 7.25051C47.3672 7.25051 47.0509 7.18103 46.7586 7.04208C46.4662 6.90313 46.2118 6.69155 45.9953 6.40734C45.7787 6.12312 45.6086 5.76391 45.4848 5.32969C45.3611 4.89547 45.2992 4.38152 45.2992 3.78783C45.2992 3.19413 45.3611 2.67939 45.4848 2.2436C45.6086 1.8078 45.7787 1.44701 45.9953 1.16121C46.2118 0.875417 46.4662 0.663048 46.7586 0.524098C47.0509 0.385148 47.3672 0.315674 47.7075 0.315674C48.0447 0.315674 48.361 0.385148 48.6565 0.524098C48.9519 0.663048 49.2079 0.875417 49.4244 1.16121C49.641 1.44701 49.8119 1.8078 49.9372 2.2436C50.0625 2.67939 50.1251 3.19413 50.1251 3.78783ZM49.2656 3.78798C49.2656 3.27008 49.223 2.83508 49.138 2.48297C49.0529 2.13085 48.9384 1.84743 48.7946 1.63269C48.6507 1.41795 48.4845 1.264 48.2958 1.17084C48.1071 1.07768 47.9106 1.0311 47.7064 1.0311C47.5023 1.0311 47.3058 1.07768 47.1171 1.17084C46.9284 1.264 46.7629 1.41795 46.6206 1.63269C46.4783 1.84743 46.3646 2.13085 46.2796 2.48297C46.1945 2.83508 46.152 3.27008 46.152 3.78798C46.152 4.30589 46.1945 4.7401 46.2796 5.09063C46.3646 5.44117 46.4783 5.7238 46.6206 5.93854C46.7629 6.15328 46.9284 6.30723 47.1171 6.40039C47.3058 6.49355 47.5023 6.54013 47.7064 6.54013C47.9106 6.54013 48.1071 6.49355 48.2958 6.40039C48.4845 6.30723 48.6507 6.15328 48.7946 5.93854C48.9384 5.7238 49.0529 5.44117 49.138 5.09063C49.223 4.7401 49.2656 4.30589 49.2656 3.78798ZM56.0282 3.78783C56.0282 4.38152 55.9655 4.89547 55.8402 5.32969C55.715 5.76391 55.544 6.12312 55.3275 6.40734C55.1109 6.69155 54.855 6.90313 54.5595 7.04208C54.2641 7.18103 53.9478 7.25051 53.6106 7.25051C53.2703 7.25051 52.954 7.18103 52.6617 7.04208C52.3693 6.90313 52.1149 6.69155 51.8983 6.40734C51.6818 6.12312 51.5116 5.76391 51.3879 5.32969C51.2642 4.89547 51.2023 4.38152 51.2023 3.78783C51.2023 3.19413 51.2642 2.67939 51.3879 2.2436C51.5116 1.8078 51.6818 1.44701 51.8983 1.16121C52.1149 0.875417 52.3693 0.663048 52.6617 0.524098C52.954 0.385148 53.2703 0.315674 53.6106 0.315674C53.9478 0.315674 54.2641 0.385148 54.5595 0.524098C54.855 0.663048 55.1109 0.875417 55.3275 1.16121C55.544 1.44701 55.715 1.8078 55.8402 2.2436C55.9655 2.67939 56.0282 3.19413 56.0282 3.78783ZM55.1686 3.78798C55.1686 3.27008 55.1261 2.83508 55.041 2.48297C54.956 2.13085 54.8415 1.84743 54.6977 1.63269C54.5538 1.41795 54.3875 1.264 54.1988 1.17084C54.0101 1.07768 53.8137 1.0311 53.6095 1.0311C53.4053 1.0311 53.2089 1.07768 53.0202 1.17084C52.8315 1.264 52.666 1.41795 52.5237 1.63269C52.3814 1.84743 52.2677 2.13085 52.1826 2.48297C52.0976 2.83508 52.055 3.27008 52.055 3.78798C52.055 4.30589 52.0976 4.7401 52.1826 5.09063C52.2677 5.44117 52.3814 5.7238 52.5237 5.93854C52.666 6.15328 52.8315 6.30723 53.0202 6.40039C53.2089 6.49355 53.4053 6.54013 53.6095 6.54013C53.8137 6.54013 54.0101 6.49355 54.1988 6.40039C54.3875 6.30723 54.5538 6.15328 54.6977 5.93854C54.8415 5.7238 54.956 5.44117 55.041 5.09063C55.1261 4.7401 55.1686 4.30589 55.1686 3.78798ZM60.9559 7.17899H60.5893C60.5089 7.17899 60.4439 7.16636 60.3945 7.14109C60.345 7.11583 60.3125 7.06214 60.297 6.98004L60.2042 6.53477C60.0805 6.64845 59.9598 6.7503 59.8423 6.8403C59.7247 6.9303 59.601 7.00609 59.471 7.06767C59.3411 7.12925 59.2027 7.17583 59.0557 7.20741C58.9088 7.23899 58.7456 7.25478 58.5662 7.25478C58.3837 7.25478 58.2127 7.22873 58.0534 7.17662C57.8941 7.12451 57.7557 7.04635 57.6381 6.94214C57.5206 6.83793 57.427 6.70609 57.3574 6.54661C57.2878 6.38713 57.253 6.19845 57.253 5.98055C57.253 5.79107 57.304 5.6087 57.4061 5.43344C57.5082 5.25817 57.6729 5.10264 57.9003 4.96685C58.1277 4.83106 58.4254 4.71974 58.7936 4.6329C59.1617 4.54606 59.6118 4.49632 60.1439 4.48369V4.10947C60.1439 3.73683 60.0658 3.45499 59.9095 3.26393C59.7533 3.07288 59.5221 2.97735 59.2158 2.97735C59.0147 2.97735 58.8454 3.0034 58.7077 3.05551C58.57 3.10762 58.4509 3.16604 58.3504 3.23078C58.2499 3.29551 58.1633 3.35393 58.0906 3.40604C58.0179 3.45815 57.9459 3.4842 57.8748 3.4842C57.8191 3.4842 57.7704 3.4692 57.7286 3.4392C57.6869 3.4092 57.6536 3.37209 57.6288 3.32788L57.4804 3.05788C57.7402 2.80208 58.0202 2.61103 58.3202 2.48471C58.6203 2.35839 58.9529 2.29524 59.3179 2.29524C59.5809 2.29524 59.8144 2.33945 60.0186 2.42787C60.2228 2.51629 60.3945 2.63945 60.5337 2.79735C60.6729 2.95525 60.778 3.1463 60.8492 3.37051C60.9203 3.59473 60.9559 3.84105 60.9559 4.10947V7.17899ZM58.8115 6.66284C58.9569 6.66284 59.0899 6.64784 59.2106 6.61784C59.3312 6.58784 59.4449 6.54521 59.5516 6.48994C59.6583 6.43468 59.7604 6.36757 59.8579 6.28862C59.9553 6.20968 60.0504 6.11968 60.1432 6.01862V5.01913C59.7627 5.03177 59.4395 5.06255 59.1734 5.1115C58.9074 5.16045 58.6908 5.2244 58.5238 5.30335C58.3567 5.3823 58.2353 5.47546 58.1595 5.58283C58.0837 5.6902 58.0458 5.8102 58.0458 5.94283C58.0458 6.06915 58.066 6.1781 58.1062 6.26968C58.1464 6.36126 58.2005 6.43626 58.2686 6.49468C58.3366 6.5531 58.4171 6.59573 58.5099 6.62258C58.6027 6.64942 58.7032 6.66284 58.8115 6.66284ZM62.7276 8.80375V2.3805H63.2195C63.337 2.3805 63.4113 2.43892 63.4422 2.55577L63.5118 3.12419C63.7129 2.87472 63.9426 2.67419 64.2009 2.52261C64.4592 2.37103 64.757 2.29524 65.0942 2.29524C65.3633 2.29524 65.6077 2.34813 65.8273 2.45392C66.047 2.55971 66.2341 2.71603 66.3888 2.92288C66.5435 3.12972 66.6626 3.3863 66.7461 3.69262C66.8296 3.99895 66.8714 4.35105 66.8714 4.74895C66.8714 5.10265 66.825 5.43186 66.7322 5.7366C66.6394 6.04134 66.5064 6.30503 66.3331 6.52766C66.1599 6.7503 65.9472 6.92556 65.6951 7.05346C65.443 7.18136 65.1591 7.2453 64.8436 7.2453C64.5528 7.2453 64.3045 7.19636 64.0988 7.09846C63.8931 7.00056 63.7114 6.86162 63.5536 6.68161V8.80375H62.7276ZM64.8203 2.97763C64.5512 2.97763 64.3153 3.04079 64.1127 3.16711C63.91 3.29342 63.7237 3.47185 63.5535 3.70238V6.02346C63.7051 6.23189 63.8714 6.37873 64.0523 6.46399C64.2333 6.54926 64.4352 6.59189 64.6579 6.59189C65.0941 6.59189 65.4297 6.43242 65.6648 6.11346C65.8999 5.79451 66.0175 5.33977 66.0175 4.74923C66.0175 4.4366 65.9904 4.16817 65.9363 3.94396C65.8822 3.71974 65.8041 3.5358 65.702 3.39211C65.5999 3.24842 65.4746 3.14342 65.3261 3.0771C65.1776 3.01079 65.009 2.97763 64.8203 2.97763ZM68.3695 8.80375V2.3805H68.8614C68.9789 2.3805 69.0532 2.43892 69.0841 2.55577L69.1537 3.12419C69.3548 2.87472 69.5845 2.67419 69.8428 2.52261C70.1011 2.37103 70.3988 2.29524 70.736 2.29524C71.0052 2.29524 71.2496 2.34813 71.4692 2.45392C71.6888 2.55971 71.876 2.71603 72.0307 2.92288C72.1854 3.12972 72.3045 3.3863 72.388 3.69262C72.4715 3.99895 72.5133 4.35105 72.5133 4.74895C72.5133 5.10265 72.4669 5.43186 72.3741 5.7366C72.2813 6.04134 72.1482 6.30503 71.975 6.52766C71.8018 6.7503 71.5891 6.92556 71.337 7.05346C71.0848 7.18136 70.801 7.2453 70.4855 7.2453C70.1947 7.2453 69.9464 7.19636 69.7407 7.09846C69.535 7.00056 69.3532 6.86162 69.1955 6.68161V8.80375H68.3695ZM70.4622 2.97763C70.1931 2.97763 69.9572 3.04079 69.7545 3.16711C69.5519 3.29342 69.3655 3.47185 69.1954 3.70238V6.02346C69.347 6.23189 69.5133 6.37873 69.6942 6.46399C69.8752 6.54926 70.077 6.59189 70.2998 6.59189C70.736 6.59189 71.0716 6.43242 71.3067 6.11346C71.5418 5.79451 71.6594 5.33977 71.6594 4.74923C71.6594 4.4366 71.6323 4.16817 71.5782 3.94396C71.524 3.71974 71.4459 3.5358 71.3438 3.39211C71.2418 3.24842 71.1165 3.14342 70.968 3.0771C70.8195 3.01079 70.6509 2.97763 70.4622 2.97763ZM76.7044 3.1719C76.6672 3.24137 76.61 3.27611 76.5327 3.27611C76.4863 3.27611 76.4337 3.25874 76.3749 3.224C76.3161 3.18927 76.2442 3.15058 76.1591 3.10795C76.0741 3.06532 75.9727 3.02584 75.8552 2.98953C75.7376 2.95321 75.5984 2.93505 75.4376 2.93505C75.2984 2.93505 75.1731 2.95321 75.0617 2.98953C74.9503 3.02584 74.8552 3.07558 74.7763 3.13874C74.6974 3.2019 74.6371 3.27532 74.5954 3.35901C74.5536 3.44269 74.5327 3.53348 74.5327 3.63138C74.5327 3.75454 74.5675 3.85717 74.6371 3.93928C74.7067 4.02138 74.7988 4.09244 74.9132 4.15244C75.0277 4.21244 75.1576 4.26533 75.303 4.31112C75.4484 4.35691 75.5977 4.40586 75.7508 4.45797C75.9039 4.51007 76.0532 4.56771 76.1986 4.63087C76.344 4.69402 76.4739 4.77297 76.5884 4.86771C76.7028 4.96245 76.7948 5.0785 76.8644 5.21587C76.9341 5.35324 76.9689 5.51825 76.9689 5.71088C76.9689 5.93194 76.9302 6.13641 76.8528 6.32431C76.7755 6.51221 76.661 6.67484 76.5095 6.81221C76.3579 6.94958 76.1723 7.05774 75.9526 7.13669C75.733 7.21564 75.4793 7.25511 75.1916 7.25511C74.8637 7.25511 74.5667 7.20064 74.3007 7.09169C74.0347 6.98274 73.8088 6.843 73.6232 6.67247L73.8181 6.35036C73.8429 6.30931 73.8722 6.27773 73.9063 6.25562C73.9403 6.23352 73.9852 6.22247 74.0408 6.22247C74.0965 6.22247 74.1553 6.24457 74.2172 6.28878C74.279 6.33299 74.3541 6.38194 74.4422 6.43563C74.5304 6.48931 74.6371 6.53826 74.7624 6.58247C74.8877 6.62668 75.0447 6.64879 75.2334 6.64879C75.3943 6.64879 75.535 6.62747 75.6557 6.58484C75.7763 6.54221 75.8768 6.48458 75.9573 6.41194C76.0377 6.33931 76.0973 6.25563 76.1359 6.16089C76.1746 6.06615 76.1939 5.9651 76.1939 5.85772C76.1939 5.72509 76.1591 5.61535 76.0895 5.52851C76.0199 5.44167 75.9279 5.36745 75.8134 5.30587C75.699 5.24429 75.5683 5.19061 75.4213 5.14482C75.2744 5.09903 75.1243 5.05087 74.9712 5.00034C74.8181 4.94982 74.6681 4.89219 74.5211 4.82745C74.3742 4.76271 74.2435 4.68139 74.129 4.5835C74.0145 4.4856 73.9225 4.36481 73.8529 4.22112C73.7833 4.07744 73.7485 3.90296 73.7485 3.69769C73.7485 3.51453 73.7856 3.33848 73.8599 3.16953C73.9341 3.00058 74.0424 2.85216 74.1847 2.72426C74.327 2.59636 74.5018 2.49452 74.709 2.41873C74.9163 2.34294 75.153 2.30504 75.419 2.30504C75.7284 2.30504 76.006 2.35478 76.2519 2.45426C76.4979 2.55373 76.7105 2.69031 76.89 2.864L76.7044 3.1719Z" fill="#444F5E"/>
</svg>